<svg xmlns="http://www.w3.org/2000/svg" xmlns:xlink="http://www.w3.org/1999/xlink" width="43" height="26" viewBox="0 0 43 26"><defs><path id="fxd4a" d="M727 1186h42.5v14.04l-2.1 2 2.1 1.8v8.16H727v-13.23l1.31-.93-1.31-.88z"/><path id="fxd4b" d="M734.97 1207.1v-7.08h7.12l.77 1.05.79-1.05h25.85v6.6s-.67.48-1.46.48h-14.31l-.86-1.11v1.11h-2.83v-1.9s-.38.26-1.22.26h-.96v1.64h-4.27l-.77-1.07-.77 1.07z"/><path id="fxd4c" d="M727 1195.11l1.6-3.94h2.77l.9 2.2v-2.2h3.44l.55 1.6.52-1.6h15.44v.8s.81-.8 2.15-.8l5 .02.9 2.18v-2.2h2.88l.79 1.25v-1.25h2.9v7.08h-2.9l-.76-1.25v1.25h-4.23l-.42-1.11h-1.14l-.42 1.11h-2.87a2.77 2.77 0 0 1-1.88-.78v.78h-4.32l-.86-1.11v1.11h-16.08l-.43-1.11h-1.13l-.42 1.11H727z"/><path id="fxd4d" d="M730.08 1193.29l.73 1.86h-1.47l.74-1.86zm-.83-1.24l-2.25 5.31h1.46l.42-1.06h2.41l.41 1.06h1.5l-2.25-5.31z"/><path id="fxd4e" d="M733.2 1197.36v-5.31h1.97l1.15 3.43 1.12-3.43h1.96v5.31h-1.24v-3.91l-1.32 3.91h-1.08l-1.32-3.91v3.91z"/><path id="fxd4f" d="M740.28 1197.36v-5.31h4.43v1.19h-3.06v.9h2.99v1.13h-2.99v.94h3.06v1.15z"/><path id="fxd4g" d="M745.86 1193.24h1.33c.31 0 .55.28.55.56 0 .35-.3.56-.54.56h-1.34v-1.12zm-1.15-1.19v5.31h1.15v-1.88h.49l1.38 1.88h1.4l-1.5-1.95c.61-.07 1.26-.68 1.26-1.64 0-1.11-.77-1.72-1.62-1.72h-2.56z"/><path id="fxd4h" d="M750.9 1197.36h-.88v-5.31h.89z"/><path id="fxd4i" d="M754 1197.36h-.25c-1.22 0-1.96-1.11-1.96-2.63 0-1.56.73-2.68 2.28-2.68h1.26v1.26h-1.31c-.63 0-1.07.56-1.07 1.43 0 1.03.5 1.46 1.24 1.46h.3z"/><path id="fxd4j" d="M757.53 1193.29l.73 1.86h-1.47zm-.83-1.24l-2.25 5.31h1.46l.42-1.06h2.41l.41 1.06h1.5l-2.25-5.31z"/><path id="fxd4k" d="M760.65 1197.36v-5.31h1.45l1.84 3.34v-3.34h1.14v5.31h-1.4l-1.9-3.42v3.42z"/><path id="fxd4l" d="M735.85 1206.22v-5.31h4.43v1.19h-3.06v.9h2.99v1.13h-2.99v.94h3.06v1.15z"/><path id="fxd4m" d="M756.22 1206.22v-5.31h4.43v1.19h-3.06v.9h2.97v1.13h-2.97v.94h3.06v1.15z"/><path id="fxd4n" d="M740.33 1206.22l1.9-2.62-1.95-2.69h1.52l1.16 1.66 1.17-1.66h1.46l-1.93 2.66 1.92 2.65h-1.52l-1.13-1.63-1.1 1.63z"/><path id="fxd4o" d="M746.84 1202.11h1.34c.34 0 .6.24.6.61 0 .36-.25.61-.6.61h-1.34zm-1.25-1.2v5.31h1.25v-1.68h1.28c1.08 0 1.9-.62 1.9-1.84 0-1.01-.65-1.79-1.75-1.79h-2.68z"/><path id="fxd4p" d="M752.06 1202.1h1.33c.32 0 .55.28.55.56 0 .35-.3.56-.53.56h-1.35v-1.12zm-1.15-1.19v5.31h1.15v-1.88h.49l1.38 1.88h1.4l-1.5-1.95c.61-.07 1.25-.68 1.25-1.64 0-1.11-.76-1.72-1.6-1.72h-2.57z"/><path id="fxd4q" d="M760.8 1206.22v-1.15h2.5c.36 0 .52-.21.52-.45 0-.22-.16-.45-.53-.45h-1.12c-.98 0-1.52-.63-1.52-1.59 0-.85.5-1.67 1.95-1.67h2.42l-.52 1.2h-2.1c-.4 0-.52.22-.52.43 0 .22.15.47.46.47h1.18c1.08 0 1.56.66 1.56 1.52 0 .93-.53 1.7-1.62 1.7z"/><path id="fxd4r" d="M765.23 1206.22v-1.15h2.48c.37 0 .53-.21.53-.45 0-.22-.16-.45-.53-.45h-1.12c-.98 0-1.52-.63-1.52-1.59 0-.85.5-1.67 1.95-1.67h2.42l-.52 1.2h-2.1c-.4 0-.52.22-.52.43 0 .22.15.47.46.47h1.18c1.08 0 1.56.66 1.56 1.52 0 .93-.53 1.7-1.62 1.7z"/></defs><g><g transform="translate(-727 -1186)"><g><use fill="#016fd0" xlink:href="#fxd4a"/></g><g><use fill="#fff" xlink:href="#fxd4b"/></g><g><use fill="#fff" xlink:href="#fxd4c"/></g><g><use fill="#016fd0" xlink:href="#fxd4d"/></g><g><use fill="#016fd0" xlink:href="#fxd4e"/></g><g><use fill="#016fd0" xlink:href="#fxd4f"/></g><g><use fill="#016fd0" xlink:href="#fxd4g"/></g><g><use fill="#016fd0" xlink:href="#fxd4h"/></g><g><use fill="#016fd0" xlink:href="#fxd4i"/></g><g><use fill="#016fd0" xlink:href="#fxd4j"/></g><g><use fill="#016fd0" xlink:href="#fxd4k"/></g><g><use fill="#016fd0" xlink:href="#fxd4l"/></g><g><use fill="#016fd0" xlink:href="#fxd4m"/></g><g><use fill="#016fd0" xlink:href="#fxd4n"/></g><g><use fill="#016fd0" xlink:href="#fxd4o"/></g><g><use fill="#016fd0" xlink:href="#fxd4p"/></g><g><use fill="#016fd0" xlink:href="#fxd4q"/></g><g><use fill="#016fd0" xlink:href="#fxd4r"/></g></g></g></svg>