<svg xmlns="http://www.w3.org/2000/svg" xmlns:xlink="http://www.w3.org/1999/xlink" width="106" height="27" viewBox="0 0 106 27"><defs><path id="wg4ta" d="M705.62 1279.73c-.32 2.2-1.91 2.2-3.45 2.2h-.88l.62-4.1a.5.5 0 0 1 .47-.43h.4c1.05 0 2.04 0 2.56.63.3.37.4.93.28 1.7zm-.68-5.73h-5.8c-.4 0-.73.3-.8.72l-2.33 15.7c-.05.3.18.58.47.58h2.77c.4 0 .73-.3.8-.72l.63-4.23c.06-.42.4-.72.8-.72h1.83c3.81 0 6.02-1.95 6.6-5.82.25-1.69 0-3.02-.75-3.95-.82-1.02-2.28-1.56-4.22-1.56z"/><path id="wg4tb" d="M719.52 1285.04a3.22 3.22 0 0 1-3.22 2.82c-.83 0-1.49-.27-1.91-.8a2.59 2.59 0 0 1-.45-2.07 3.23 3.23 0 0 1 3.2-2.85c.8 0 1.47.28 1.9.8.44.54.6 1.28.48 2.1zm3.98-5.76h-2.85a.5.5 0 0 0-.5.43l-.12.83-.2-.3c-.62-.93-2-1.24-3.37-1.24-3.15 0-5.85 2.48-6.37 5.95a5.74 5.74 0 0 0 1.06 4.54c.87 1.07 2.11 1.51 3.6 1.51 2.54 0 3.95-1.7 3.95-1.7l-.13.83a.5.5 0 0 0 .49.6h2.57c.41 0 .76-.31.82-.73l1.54-10.13a.5.5 0 0 0-.49-.6z"/><path id="wg4tc" d="M738.5 1279h-2.92a.85.85 0 0 0-.7.37l-4 5.86-1.7-5.64a.84.84 0 0 0-.81-.59h-2.86a.5.5 0 0 0-.48.66l3.2 9.33-3.01 4.22a.5.5 0 0 0 .41.79h2.9c.28 0 .54-.13.7-.36l9.68-13.86a.5.5 0 0 0-.41-.78z"/><path id="wg4td" d="M747.62 1279.73c-.32 2.2-1.91 2.2-3.45 2.2h-.88l.62-4.1a.5.5 0 0 1 .48-.43h.4c1.05 0 2.04 0 2.55.63.3.37.4.93.28 1.7zm-.68-5.73h-5.8c-.4 0-.73.3-.8.72l-2.33 15.7c-.05.3.18.58.47.58h2.98c.27 0 .5-.21.55-.5l.67-4.45c.06-.42.4-.72.8-.72h1.82c3.82 0 6.02-1.95 6.6-5.82.26-1.69.01-3.02-.74-3.95-.82-1.02-2.28-1.56-4.22-1.56z"/><path id="wg4te" d="M760.52 1285.04a3.22 3.22 0 0 1-3.22 2.82c-.83 0-1.5-.27-1.92-.8a2.6 2.6 0 0 1-.45-2.07 3.23 3.23 0 0 1 3.2-2.85c.81 0 1.47.28 1.9.8.45.54.62 1.28.5 2.1zm3.98-5.76h-2.85a.5.5 0 0 0-.5.43l-.12.83-.2-.3c-.62-.93-2-1.24-3.37-1.24-3.16 0-5.85 2.48-6.37 5.95a5.74 5.74 0 0 0 1.06 4.54c.87 1.07 2.11 1.51 3.6 1.51 2.54 0 3.95-1.7 3.95-1.7l-.13.83a.5.5 0 0 0 .5.6h2.56c.4 0 .76-.31.82-.73l1.54-10.13a.51.51 0 0 0-.49-.6z"/><path id="wg4tf" d="M768.38 1274.43l-2.37 15.98c-.05.31.18.59.47.59h2.38c.4 0 .74-.3.8-.72l2.33-15.69c.05-.31-.18-.59-.47-.59h-2.67a.5.5 0 0 0-.47.43z"/><path id="wg4tg" d="M672.28 1294l.45-2.95-1-.03H667l3.3-21.78a.3.3 0 0 1 .08-.17.26.26 0 0 1 .18-.07h7.99c2.65 0 4.48.58 5.43 1.71.45.54.73 1.1.87 1.7.15.65.15 1.42 0 2.36V1275.43l.45.27c.37.2.67.45.9.72.39.46.63 1.04.74 1.72.1.71.07 1.55-.1 2.5a9.05 9.05 0 0 1-.99 2.83 5.73 5.73 0 0 1-3.64 2.77c-.77.2-1.65.31-2.62.31h-.62c-.44 0-.88.17-1.22.47-.34.3-.56.72-.63 1.18l-.05.26-.78 5.2-.04.2c0 .06-.02.09-.05.1a.13.13 0 0 1-.08.04z"/><path id="wg4th" d="M685.78 1275l-.08.49c-1.09 5.64-4.8 7.6-9.54 7.6h-2.4c-.59 0-1.08.42-1.17 1l-1.23 7.94-.35 2.25c-.06.38.23.72.6.72h4.29c.5 0 .93-.37 1.01-.88l.05-.22.8-5.18.05-.29c.08-.5.51-.88 1.02-.88h.64c4.15 0 7.4-1.7 8.34-6.64.4-2.06.2-3.78-.86-5a4.1 4.1 0 0 0-1.17-.91z"/><path id="wg4ti" d="M684.88 1274.4a8.2 8.2 0 0 0-1.04-.24c-.64-.1-1.34-.16-2.1-.16h-6.35c-.15 0-.3.04-.44.1-.29.15-.5.44-.56.79l-1.35 8.85-.04.26c.09-.58.57-1.01 1.14-1.01h2.38c4.67 0 8.33-1.96 9.4-7.64l.08-.5a5.6 5.6 0 0 0-1.12-.45z"/><path id="wg4tj" d="M674.3 1274.6a1 1 0 0 1 1-.85h6.34a13.27 13.27 0 0 1 2.62.25 8.46 8.46 0 0 1 .75.2c.31.1.6.23.87.37.32-2 0-3.38-1.1-4.62-1.2-1.37-3.38-1.95-6.17-1.95h-8.09c-.57 0-1.05.41-1.14.97L666 1290.2a.7.7 0 0 0 .68.8h5l1.25-7.9z"/></defs><g><g transform="translate(-666 -1268)"><g><use fill="#253b80" xlink:href="#wg4ta"/></g><g><use fill="#253b80" xlink:href="#wg4tb"/></g><g><use fill="#253b80" xlink:href="#wg4tc"/></g><g><use fill="#179bd7" xlink:href="#wg4td"/></g><g><use fill="#179bd7" xlink:href="#wg4te"/></g><g><use fill="#179bd7" xlink:href="#wg4tf"/></g><g><use fill="#253b80" xlink:href="#wg4tg"/></g><g><use fill="#179bd7" xlink:href="#wg4th"/></g><g><use fill="#222d65" xlink:href="#wg4ti"/></g><g><use fill="#253b80" xlink:href="#wg4tj"/></g></g></g></svg>