<svg xmlns="http://www.w3.org/2000/svg" xmlns:xlink="http://www.w3.org/1999/xlink" width="25" height="25" viewBox="0 0 25 25"><defs><path id="psmka" d="M804.3 462.08a1.56 1.56 0 1 1-2.22 2.21l-3.58-3.58-3.58 3.58a1.56 1.56 0 0 1-2.21 0 1.56 1.56 0 0 1 0-2.2l3.58-3.59-3.58-3.58a1.56 1.56 0 1 1 2.2-2.21l3.59 3.58 3.58-3.58a1.56 1.56 0 1 1 2.21 2.2l-3.58 3.59zM798.5 446a12.5 12.5 0 1 0 0 25 12.5 12.5 0 0 0 0-25z"/></defs><g><g opacity=".22" transform="translate(-786 -446)"><g opacity=".22"><use fill="#030104" xlink:href="#psmka"/></g></g></g></svg>