<svg xmlns="http://www.w3.org/2000/svg" xmlns:xlink="http://www.w3.org/1999/xlink" width="34" height="26" viewBox="0 0 34 26"><defs><path id="e52fa" d="M563.55 1211.44c.5 0 .86-.41.86-.91 0-.53-.35-.91-.86-.91-.53 0-.85.4-.85.9s.32.9.85.92zm1.45.5h-.62v-.35c-.18.26-.47.41-.88.41-.8 0-1.42-.62-1.42-1.47s.62-1.47 1.42-1.47c.38 0 .67.15.88.41v-.35h.62zm20.73-1.41c0 .5.32.88.85.91.5 0 .86-.41.86-.91 0-.53-.36-.91-.86-.91-.53 0-.85.4-.85.9zm2.27 1.41h-.62v-.35c-.18.26-.47.41-.89.41-.8 0-1.41-.62-1.41-1.47s.62-1.47 1.41-1.47c.39 0 .68.15.89.41V1208h.62zm-15.38-2.35c-.44 0-.71.29-.77.66h1.48c-.06-.43-.33-.66-.71-.66zm0-.53c.8 0 1.33.59 1.3 1.5v.23h-2.1c.09.5.47.68.86.68.3 0 .59-.12.82-.3l.3.45c-.33.26-.74.38-1.15.38-.86 0-1.45-.59-1.45-1.47s.6-1.47 1.42-1.47zm7.4 1.47c0 .5.33.88.86.91.5 0 .86-.41.86-.91 0-.53-.35-.91-.86-.91-.53 0-.85.4-.85.9zm2.28 1.41h-.62v-.35c-.18.26-.47.41-.88.41-.8 0-1.42-.62-1.42-1.47s.62-1.47 1.42-1.47c.38 0 .68.15.88.41v-.35h.62zm-5.73-1.41c0-.85.6-1.47 1.51-1.47.41 0 .7.09 1 .32l-.3.5a1.2 1.2 0 0 0-.73-.26.87.87 0 0 0-.86.9c0 .57.36.92.86.92.27 0 .5-.09.74-.26l.3.5c-.3.23-.6.32-1.01.32-.92 0-1.5-.62-1.5-1.47zm7.92-1.47c.11 0 .3 0 .41.03l-.18.59a1.73 1.73 0 0 0-.38-.06c-.38 0-.6.26-.6.73v1.6h-.61v-2.83h.62v.35a.83.83 0 0 1 .74-.41zm-16.48.3l-.26.5a2.13 2.13 0 0 0-.89-.24c-.32 0-.53.12-.53.32 0 .18.2.24.47.27l.3.03c.59.08.97.35.97.85 0 .53-.47.91-1.3.91a2.1 2.1 0 0 1-1.2-.35l.29-.47c.2.14.53.3.94.3.42 0 .65-.16.65-.36 0-.15-.18-.24-.5-.3l-.3-.03c-.62-.08-.97-.35-.97-.82 0-.56.47-.91 1.18-.91.44 0 .86.09 1.15.3zm7.94-.3c.12 0 .3 0 .42.03l-.18.59a1.73 1.73 0 0 0-.38-.06c-.39 0-.6.26-.6.73v1.6h-.61v-2.83h.62v.35a.83.83 0 0 1 .73-.41zm-5.24.06v.56h-1.01v1.26c0 .3.12.47.42.47.14 0 .35-.03.53-.15l.18.53c-.21.12-.5.21-.77.21-.72 0-.98-.38-.98-1.03v-1.3h-.57v-.55h.57v-.86h.62v.86zm-9.2 2.82h-.67v-1.56c0-.47-.2-.73-.62-.73-.39 0-.68.23-.68.73v1.56h-.62v-1.56c0-.47-.2-.73-.62-.73-.41 0-.68.23-.68.73v1.56H557v-2.82h.62v.35a.95.95 0 0 1 .83-.41c.44 0 .73.18.94.5.27-.38.65-.5 1-.5.71 0 1.13.44 1.13 1.12z"/><path id="e52fb" d="M568 1205v-17h9v17z"/><path id="e52fc" d="M568 1196c0-3.2 1.58-6.03 4-7.86a10.8 10.8 0 0 0-6.48-2.14c-5.82 0-10.52 4.47-10.52 10s4.7 10 10.52 10c2.45 0 4.7-.8 6.48-2.14a9.82 9.82 0 0 1-4-7.86z"/><path id="e52fd" d="M589 1196c0 5.53-4.7 10-10.52 10-2.45 0-4.7-.8-6.48-2.14a9.77 9.77 0 0 0 4-7.86c0-3.2-1.58-6.03-4-7.86a10.8 10.8 0 0 1 6.48-2.14c5.82 0 10.52 4.5 10.52 10z"/></defs><g><g transform="translate(-555 -1186)"><g><use xlink:href="#e52fa"/></g><g><use fill="#ff5f00" xlink:href="#e52fb"/></g><g><use fill="#eb001b" xlink:href="#e52fc"/></g><g><use fill="#f79e1b" xlink:href="#e52fd"/></g></g></g></svg>