<svg xmlns="http://www.w3.org/2000/svg" xmlns:xlink="http://www.w3.org/1999/xlink" width="41" height="18" viewBox="0 0 41 18"><defs><path id="f878a" d="M645.5 1206.15c0-.26 0-.46-.02-.67h.4l.03.4h.01a.93.93 0 0 1 .83-.45c.34 0 .88.2.88 1.05v1.46h-.45v-1.42c0-.4-.15-.72-.58-.72a.65.65 0 0 0-.64.66v1.48h-.45zm-2.66.56c0 .54.3.94.75.94.43 0 .76-.4.76-.95 0-.41-.22-.93-.75-.93s-.76.48-.76.94zm1.97-.02c0 .91-.64 1.31-1.24 1.31-.67 0-1.2-.49-1.2-1.27 0-.82.55-1.3 1.24-1.3.72 0 1.2.52 1.2 1.26zm-4.02-.44c0-.29 0-.54-.02-.77h.4l.02.49h.01c.11-.33.4-.54.7-.54l.12.01v.42h-.15c-.32 0-.55.23-.61.56l-.02.21v1.31h-.45zm-1.28-1.36v.6h.64v.33h-.64v1.33c0 .3.08.48.34.48.12 0 .2-.01.26-.03l.02.34c-.09.03-.23.06-.4.06a.65.65 0 0 1-.5-.19c-.12-.14-.17-.35-.17-.64v-1.35h-.39v-.34h.4v-.46zm-1.28 2.97c-.12.05-.38.14-.71.14-.76 0-1.25-.5-1.25-1.26 0-.75.53-1.3 1.34-1.3.27 0 .5.06.63.12l-.1.34c-.1-.05-.28-.11-.53-.11-.57 0-.88.42-.88.93 0 .57.37.92.87.92.26 0 .43-.06.55-.12zm-2.92-1.39c.01-.28-.11-.72-.62-.72-.46 0-.65.41-.7.72zm-.46 1.18c.33 0 .53-.06.7-.13l.07.32c-.16.07-.43.16-.83.16-.77 0-1.23-.5-1.23-1.25 0-.74.44-1.32 1.17-1.32.82 0 1.03.7 1.03 1.16l-.01.2h-1.76c.01.61.4.86.86.86zm-2.45-3.32h.45v3.61h-.45zm-.86 2h-1.34v1.23h1.5v.37h-1.96v-3.41h1.88v.37h-1.42v1.08h1.34zm12.45-7.93l-1-4.76-1.75 4.76zm.55 2.57h-4.26l-.69 1.89h-3.47l4.97-11.7a1.5 1.5 0 0 1 1.4-.93h2.83l2.68 12.63h-3.06zm-8.25-2.23c-.01 2.62-2.29 4.32-5.77 4.32-1.48-.02-2.9-.32-3.68-.67l.6-2.77c.77.35 1.73.82 3.4.8.95-.02 1.97-.4 1.98-1.24 0-.55-.43-.95-1.72-1.57-1.25-.6-2.92-1.62-2.9-3.44.02-2.45 2.33-4.17 5.6-4.17 1.28 0 2.3.27 3.1.56l-.58 2.68a6.34 6.34 0 0 0-3.27-.57c-.96.13-1.4.6-1.4 1.06-.03 1.49 4.65 1.67 4.64 5zm-8.99-8.5l-2.74 12.62h-3.31l2.74-12.63zm-4.73 0l-5.37 12.62h-3.5l-2.64-10.08c-.16-.62-.3-.85-.8-1.1a14 14 0 0 0-3.26-1.08l.08-.37h5.64c.71 0 1.36.47 1.52 1.29l1.4 7.3 3.45-8.59z"/></defs><g><g transform="translate(-607 -1190)"><g><use fill="#1a1f71" xlink:href="#f878a"/></g></g></g></svg>