<svg xmlns="http://www.w3.org/2000/svg" xmlns:xlink="http://www.w3.org/1999/xlink" width="50" height="16" viewBox="0 0 50 16"><defs><path id="xq4ia" d="M687.3 1204H683l2.7-15h4.3z"/><path id="xq4ib" d="M701 1189.66a9.85 9.85 0 0 0-3.59-.66c-3.95 0-6.73 2.1-6.75 5.12-.03 2.23 2 3.46 3.5 4.2 1.56.76 2.08 1.26 2.08 1.93-.01 1.04-1.25 1.52-2.4 1.52-1.6 0-2.45-.25-3.75-.82l-.53-.25-.56 3.48c.94.42 2.67.8 4.46.82 4.2 0 6.93-2.08 6.96-5.29.02-1.76-1.05-3.11-3.35-4.22-1.4-.7-2.26-1.18-2.26-1.9.02-.67.72-1.34 2.3-1.34 1.3-.04 2.26.28 2.98.59l.37.16.54-3.34z"/><path id="xq4ic" d="M711.85 1189h-3.02c-.93 0-1.63.27-2.03 1.24L701 1204h4.1l.81-2.25h5.01l.47 2.25H715l-3.15-15zm-4.81 9.7l1.55-4.2.52-1.45.27 1.3.9 4.35h-3.24z"/><path id="xq4id" d="M679.8 1189l-3.89 10.24-.42-2.08c-.72-2.4-2.97-5-5.49-6.3l3.56 13.14h4.2l6.24-15h-4.2z"/><path id="xq4ie" d="M671.7 1189h-6.63l-.07.3c5.17 1.22 8.6 4.16 10 7.7l-1.44-6.76c-.24-.94-.97-1.2-1.87-1.24z"/></defs><g><g transform="translate(-665 -1189)"><g><use fill="#00579f" xlink:href="#xq4ia"/></g><g><use fill="#00579f" xlink:href="#xq4ib"/></g><g><use fill="#00579f" xlink:href="#xq4ic"/></g><g><use fill="#00579f" xlink:href="#xq4id"/></g><g><use fill="#faa61a" xlink:href="#xq4ie"/></g></g></g></svg>