<?xml version="1.0" standalone="no"?>
<!DOCTYPE svg PUBLIC "-//W3C//DTD SVG 1.1//EN" "http://www.w3.org/Graphics/SVG/1.1/DTD/svg11.dtd" >
<svg xmlns="http://www.w3.org/2000/svg" xmlns:xlink="http://www.w3.org/1999/xlink" version="1.1">
<metadata>
Created by FontForge 20170731 at Wed Aug 29 06:14:07 2012
 By Aleksey,,,
BillySnyderPixelfailurecom
</metadata>
<defs>
<font id="FuturaHandwritten" horiz-adv-x="574" >
  <font-face 
    font-family="FuturaHandwritten"
    font-weight="500"
    font-stretch="normal"
    units-per-em="1000"
    panose-1="2 0 6 3 0 0 0 0 0 0"
    ascent="800"
    descent="-200"
    x-height="431"
    cap-height="737"
    bbox="-69.8571 -291.091 993 944.13"
    underline-thickness="50"
    underline-position="-200"
    unicode-range="U+0020-FB02"
  />
<missing-glyph horiz-adv-x="364" 
d="M66 33h199v600h-199v-600zM33 0v666h265v-666h-265z" />
    <glyph glyph-name=".notdef" horiz-adv-x="364" 
d="M66 33h199v600h-199v-600zM33 0v666h265v-666h-265z" />
    <glyph glyph-name=".null" horiz-adv-x="0" 
 />
    <glyph glyph-name="nonmarkingreturn" horiz-adv-x="333" 
 />
    <glyph glyph-name="space" unicode=" " horiz-adv-x="300" 
 />
    <glyph glyph-name="exclam" unicode="!" horiz-adv-x="280" 
d="M169 712q10 -80 11 -168t-3.5 -196.5t-4.5 -161.5q0 -14 -10.5 -24.5t-24.5 -10.5t-24.5 10.5t-10.5 24.5q0 58 4.5 165.5t3.5 190.5t-11 160q-2 15 7 26.5t23.5 13.5t26 -7t13.5 -23zM174 36q0 -14 -10.5 -24.5t-24.5 -10.5t-24.5 10.5t-10.5 24.5t10.5 24.5t24.5 10.5
t24.5 -10.5t10.5 -24.5z" />
    <glyph glyph-name="quotedbl" unicode="&#x22;" horiz-adv-x="399" 
d="M131 717q2 -44 -3 -118q-6 -89 -6 -111q0 -14 -10.5 -24.5t-24.5 -10.5t-24.5 10.5t-10.5 24.5q0 32 6 116q5 70 3 109q-1 15 9 25.5t24.5 11.5t25 -9t11.5 -24zM299 700q1 -43 -6 -121t-7 -113q0 -14 -10.5 -24.5t-24.5 -10.5t-24.5 10.5t-10.5 24.5q0 38 7 120
q7 73 6 112q0 15 10 25.5t24.5 10.5t25 -10t10.5 -24z" />
    <glyph glyph-name="numbersign" unicode="#" horiz-adv-x="672" 
d="M394 453q-129 9 -164 10q-6 -57 -13 -103q-5 -29 -12 -63l54 -3q62 -2 103 -3q15 65 22 98q5 29 10 64zM417 220q-28 -116 -28 -188q0 -14 -10.5 -24.5t-24.5 -10.5t-24.5 10.5t-10.5 24.5q0 75 26 189q-38 1 -90 4l-64 3q-31 -144 -35 -222q-1 -14 -11.5 -24t-25 -9
t-24.5 11.5t-9 25.5q4 81 34 221q-57 2 -103 2q-14 0 -24.5 10.5t-10.5 24.5t10.5 24.5t24.5 10.5q50 0 117 -3q9 42 13 72q7 41 13 91q-53 -3 -101 -11q-14 -3 -26 5t-14.5 22.5t5.5 26.5t23 14q55 11 120 13q1 14 6.5 85.5t9.5 109.5q2 14 13 23t25.5 7.5t23.5 -12.5
t8 -26q-3 -27 -5 -58l-6 -70q-3 -38 -5 -59q44 -1 164 -10l2 28q9 126 15 170q2 14 13.5 23t26 7t23.5 -13.5t7 -26.5q-6 -38 -15 -165l-2 -27q36 -2 66 -2q14 0 24.5 -10.5t10.5 -24.5t-10.5 -24.5t-24.5 -10.5q-34 0 -73 2q-5 -40 -12 -74q-6 -35 -18 -85q32 0 62 2
q15 1 25.5 -9t11.5 -24.5t-9 -25t-24 -11.5q-39 -2 -83 -2z" />
    <glyph glyph-name="dollar" unicode="$" horiz-adv-x="620" 
d="M405 613q-30 29 -76 39q-46 11 -85 -1q-40 -12 -60.5 -42t-11.5 -78q3 -18 12 -33t20 -25t33 -21t39 -18l49 -19l49 -19q18 -8 47 -25t46 -35t32.5 -46.5t19.5 -63.5q10 -84 -25 -140q-36 -55 -102 -77q-29 -10 -63 -13q-1 -14 -1 -27q1 -15 1 -25v-15v-3q0 -6 -4 -13
q-4 -8 -11 -13q-16 -11 -34 -3q-7 3 -11.5 7.5t-5.5 8.5l-2 3l-2 8q-2 12 -1 44q-1 14 -3 32q-62 10 -115 41q-26 14 -49 38t-35 41t-30 47q-7 12 -4 26t15.5 21.5t26.5 4.5t22 -16q25 -40 44 -63.5t44 -38.5q46 -26 100 -33t96 7q93 31 79 143q-6 50 -41 77t-108 55
q-4 1 -13 4l-47 18q-16 7 -43.5 22t-43.5 30.5t-31 40.5t-20 54q-12 77 24 129q35 51 98 70q16 5 34 7q0 7 1 21q-12 13 -8 30l6 28q2 6 3 10q4 10 11 16q17 16 39 6q13 -6 18 -20q2 -6 3 -13v-16q0 -7 -2 -39q-1 -20 -1 -23v-1q75 -12 125 -61q11 -10 11 -24.5t-10 -25
t-24.5 -10.5t-24.5 10z" />
    <glyph glyph-name="percent" unicode="%" horiz-adv-x="926" 
d="M267 413q-67 -32 -121.5 -20t-89.5 60q-23 34 -30 75t9 83t54 71q29 22 91 25q63 3 114.5 -24.5t74.5 -73.5q26 -49 7 -103t-80 -90q-14 -8 -29 -3zM294 503q32 35 12 75q-13 26 -46 43.5t-76 15.5q-41 -2 -53 -11q-32 -24 -36 -63.5t18 -68.5q14 -19 33.5 -28.5t52 -3.5
t69.5 34q11 9 26 7zM664 -20q-71 13 -116 41q-46 29 -62 72q-18 50 7 110q11 28 35.5 59t52.5 45q21 10 65 8q34 -2 53 -7q49 -15 80.5 -54t41.5 -83t3 -86q-11 -75 -64 -103q-43 -23 -96 -2zM725 43q1 0 2 1q22 11 28 52q7 47 -13.5 89.5t-62.5 54.5q-11 4 -37 5t-31 -2
q-13 -6 -29.5 -27t-24.5 -39q-14 -36 -5 -59q7 -21 33 -37q17 -11 40 -19q20 12 38 -1q11 -8 21 -13q20 -3 40 -5h1zM667 698q-35 -36 -66 -86.5t-48 -87.5l-47 -108l-43 -100q-74 -162 -169 -313q-8 -12 -22.5 -15t-26.5 4.5t-15 22t4 26.5q94 146 165 303l42 98
q30 72 48.5 112t53.5 96t74 96q10 11 24.5 11t25 -10t10.5 -24.5t-10 -24.5z" />
    <glyph glyph-name="ampersand" unicode="&#x26;" horiz-adv-x="753" 
d="M448 132q-46 46 -79 87q-17 21 -33 46q-17 25 -36 57l-27 46q-67 -47 -104 -91q-65 -79 -27 -143q17 -29 47.5 -50t63.5 -25q57 -8 103.5 11t91.5 62zM491 190l4 4q12 12 34 36l33 38q8 9 13 14q4 4 7 6q5 3 10 5q21 8 37 -8q13 -13 10 -32q-1 -5 -4 -9q-1 -4 -4 -8
q-3 -5 -9 -12q-9 -12 -25 -31l-41 -46l-10 -12l96 -91q11 -10 11 -24.5t-10 -25t-24.5 -10.5t-24.5 10l-96 89q-55 -52 -116 -78t-139 -16q-48 7 -92 37t-69 72q-64 107 33 223q44 52 118 104q-34 22 -59 53q-63 79 -41 160q14 48 52.5 72.5t86.5 28.5q44 2 87.5 -12
t70.5 -43q28 -31 32.5 -71t-6 -71t-28.5 -61q-24 -37 -82 -69q-3 -5 -8 -9l37 -55q9 -13 27 -42l28 -43q10 -15 26 -35t31 -34zM302 468q4 3 14.5 8.5t14 7.5t10.5 6.5t10.5 8t8.5 9t8 11.5q48 76 10 117q-14 16 -42.5 25.5t-58.5 7.5q-64 -4 -76 -49q-13 -47 28 -98
q31 -39 73 -54z" />
    <glyph glyph-name="quotesingle" unicode="'" horiz-adv-x="220" 
d="M120 711q-9 -143 -9 -265q0 -14 -10.5 -24.5t-24.5 -10.5t-24.5 10.5t-10.5 24.5q0 124 9 269q1 15 12 24.5t25.5 8.5t24 -12t8.5 -25z" />
    <glyph glyph-name="parenleft" unicode="(" horiz-adv-x="355" 
d="M252 748q-45 -110 -72.5 -222t-37.5 -228.5t8 -232.5t64 -218q6 -13 1 -26.5t-18.5 -19.5t-27 -1t-19.5 19q-50 109 -69 234.5t-8.5 249.5t39.5 241t76 230q5 14 18.5 19.5t27 0t19 -19t-0.5 -26.5z" />
    <glyph glyph-name="parenright" unicode=")" horiz-adv-x="324" 
d="M137 776q8 -42 32 -124q24 -86 32 -130q33 -159 20 -332t-75 -324q-5 -14 -18.5 -19.5t-27 0t-19 19t0.5 26.5q57 141 69 304q12 159 -18 312q-7 38 -32 125q-24 85 -32 129q-3 15 5 27t22.5 14.5t26.5 -5.5t14 -22z" />
    <glyph glyph-name="asterisk" unicode="*" horiz-adv-x="523" 
d="M320 772v-88q18 11 30 17t20.5 8.5t16.5 1.5q20 -1 30 -17q16 -26 -4 -50q-7 -9 -21 -16q-3 -1 -16 -7l-6 -2q-12 -10 -40 -22q11 -9 23 -21q16 -15 28 -30q6 -6 8 -11q2 -2 3 -4q1 0 2 -1t2.5 -6t-0.5 -14q-2 -11 -9 -19.5t-19 -10.5q-11 -2 -21 2q-4 2 -8 5
q-32 25 -46 41q-4 4 -8 11q-6 -3 -12 -5h-9l-3 -3l-52 -60l-12 -14l-4 -4q-1 -2 -2 -3q-4 -3 -10 -6q-9 -4 -19 -3q-11 1 -19.5 9t-10.5 18q-2 9 1 17q0 3 1 5l4 6q1 2 4 6l16 20l28 33l15 16l-7 5l-57 39q0 1 -2.5 1.5t-7.5 3t-10 4.5q-13 6 -19 11q-19 18 -10 41
q7 18 27 23q25 6 57 -11q8 -5 39 -27q26 -18 37 -21q1 10 1 22q1 20 1 110q0 14 10.5 24.5t24.5 10.5t24.5 -10.5t10.5 -24.5z" />
    <glyph glyph-name="plus" unicode="+" horiz-adv-x="610" 
d="M62 429q4 -3 10 -7l6 -6l3 -2h6h24h43q16 0 46.5 -1t46.5 -2q-1 17 -1 33v44v42q0 20 -2 41.5t-5 40.5q-3 14 5 26t22.5 14.5t26.5 -5.5t14 -23q4 -22 6 -48t2.5 -42.5t0.5 -47.5v-42q0 -17 1 -34q88 -1 156 2q15 1 25.5 -9t11.5 -24.5t-9 -25t-24 -11.5q-69 -3 -158 -2
q3 -81 12 -179q1 -14 -8.5 -25.5t-23.5 -12.5t-25.5 8.5t-12.5 23.5q-9 101 -12 186q-18 1 -51 2t-46 1h-41h-25q-16 1 -22 2q-13 4 -27 14l-8 6q-3 2 -5 3q-12 8 -15 22t4.5 26.5t21.5 15.5t27 -4z" />
    <glyph glyph-name="comma" unicode="," horiz-adv-x="299" 
d="M194 86l-28 -46l-30 -50l-27 -46l-27 -49q-7 -13 -20.5 -17.5t-26.5 2.5t-17.5 20.5t2.5 26.5q15 30 32 59l46 78q30 49 36 58q7 12 21.5 15.5t26.5 -3.5t15.5 -21.5t-3.5 -26.5z" />
    <glyph glyph-name="hyphen" unicode="-" horiz-adv-x="314" 
d="M-25.5 277.5q14.5 2.5 29.5 4t32 1.5h29q12 0 31.5 -1.5t28 -2t30.5 -2.5t27 -2q14 -1 23.5 -12t8.5 -25.5t-12 -24t-26 -8.5q-5 1 -28 3t-29.5 2t-26 1.5t-28.5 1.5h-26q-15 0 -27.5 -1.5t-24.5 -3.5q-15 -2 -26.5 6.5t-14 23t6 26t23 14z" />
    <glyph glyph-name="period" unicode="." horiz-adv-x="300" 
d="M120 -25q-19 2 -28 18q0 1 -1 2q-13 12 -21 23q-18 27 -9 52q8 23 35 33q16 5 35.5 4.5t35.5 -8.5q25 -11 31 -34q8 -27 -13 -52q-8 -9 -21 -18q-1 -4 -3 -7q-7 -10 -18.5 -13.5t-22.5 0.5z" />
    <glyph glyph-name="slash" unicode="/" horiz-adv-x="566" 
d="M464 763q-22 -66 -82 -185q-67 -133 -86 -176q-15 -35 -37 -105q-25 -80 -36 -110q-47 -123 -155 -345q-6 -13 -19.5 -18t-26.5 1.5t-18 20t2 26.5q105 217 151 339q11 30 35 107q23 71 40 112q19 44 88 180q56 111 78 175q4 14 17 20.5t27 2t20.5 -17.5t1.5 -27z" />
    <glyph glyph-name="zero" unicode="0" horiz-adv-x="607" 
d="M297 -9l-10 -2q-21 -4 -41 3q-12 4 -22 13q-51 20 -88.5 62.5t-58.5 96t-31 111.5q-9 57 -6 118q7 144 66 244q32 54 79 85.5t106 30.5q23 -1 43.5 -8t37.5 -22.5t25.5 -24.5t22.5 -27q58 -72 77.5 -172t2.5 -197q-17 -96 -63 -176q-29 -50 -68 -89q-38 -36 -72 -46z
M281 60q17 6 39 28q34 32 57 72q40 70 54 155t-2 169t-63 143q-24 30 -40 43t-37 13q-73 2 -123 -82q-51 -85 -56 -211q-4 -99 24 -180t83 -121q18 5 32 -8q5 -5 14 -16q9 -3 18 -5z" />
    <glyph glyph-name="one" unicode="1" horiz-adv-x="458" 
d="M169 710q7 0 76 7q35 3 47 5q11 0 16 1h6h5q3 0 5 -1q8 -1 14 -6q14 -11 18 -30q2 -10 3 -25q0 -20 -4 -52q-2 -20 -6.5 -49t-4.5 -34q-3 -30 -5 -90q-1 -62 -4 -93q-2 -17 -9 -67q-5 -39 -6 -62q-1 -24 2 -80q3 -59 3 -84q0 -14 -10.5 -24.5t-24.5 -10.5t-24.5 10.5
t-10.5 24.5q0 23 -3 81q-3 56 -2 85q1 27 7 70q7 52 8 63q3 29 4 89q2 62 5 94q1 5 5.5 35t6.5 50t3 34l-37 -4q-73 -7 -85 -7q-14 0 -24 11t-10 25t11 24t25 10z" />
    <glyph glyph-name="two" unicode="2" horiz-adv-x="592" 
d="M52 538l9 45q3 15 12 44t24.5 51t37.5 38q14 11 33.5 16.5t28 6t27.5 1.5q84 3 151 -53t87 -139q25 -103 -10.5 -202.5t-112.5 -179.5q-49 -50 -98 -96q22 -1 53 -1q41 0 100.5 1t62.5 1q14 0 24.5 -10.5t10.5 -24.5t-10.5 -24.5t-24.5 -10.5q-3 0 -63 -1t-100 -1
q-61 0 -96 3q-22 2 -36 5q-9 2 -16 5q-17 8 -22 25q-8 23 9 42q8 8 20 13l13 6q62 53 123 116q66 69 95.5 152t9.5 166q-15 60 -63 100t-105 38q-37 -1 -49 -10q-24 -18 -35 -49t-20 -85q-3 -14 -15 -22.5t-26 -6t-22.5 14.5t-6.5 26z" />
    <glyph glyph-name="three" unicode="3" horiz-adv-x="593" 
d="M56 565q0 2 5 17.5t7 21.5l8 20q5 14 9 22.5t10.5 19.5t13.5 20q31 41 74.5 55t83.5 5.5t78 -31.5q55 -35 88.5 -93.5t21.5 -120.5q-5 -29 -27 -66q-21 -35 -43 -53q12 -7 21 -14q52 -40 74 -97q23 -57 8 -122q-12 -51 -50 -87.5t-86 -52t-99 -12.5q-53 2 -100 23
t-82 66.5t-44 107.5q-2 15 7 26.5t23.5 13.5t26 -7t13.5 -23q8 -64 52.5 -99.5t106.5 -37.5q61 -3 107 24.5t57 73.5q10 43 -5 81t-51 66q-15 12 -56 28q-23 10 -28 12q-8 4 -13 7q-6 4 -10 10q-12 16 -4 35q8 22 31 27q10 2 23 0l11 -3q16 4 22 8q13 8 28 35q15 26 19 44
q7 35 -15.5 75t-63.5 66q-40 25 -79 22.5t-64 -34.5l-8 -12q-4 -5 -7 -13l-6 -13q-2 -4 -5.5 -14.5t-5 -14.5t-6 -17t-5.5 -17q-4 -14 -17 -20.5t-27 -2t-20.5 17.5t-1.5 27z" />
    <glyph glyph-name="four" unicode="4" horiz-adv-x="655" 
d="M368 183q-7 146 14 355l-25 -40l-27 -42l-24 -40l-28 -42l-26 -38l-29 -39l-51 -67q-13 -18 -20 -30q4 -1 10 -2q36 -7 101 -11q45 -2 105 -4zM438 196h12q12 -1 42 -8h4q12 0 15 -1q14 -1 24 -6q12 -7 17 -20q6 -13 2 -27q-5 -15 -20 -22q-3 -2 -8 -3q-3 0 -7 -1h-11
q-10 0 -26 1q-21 1 -37 2q0 -5 1 -12q0 -11 1 -23t2 -22t1 -12q0 -3 1.5 -12t1.5 -12q1 -10 1 -15q-1 -6 -2 -11q-3 -8 -10 -15q-14 -13 -33 -8q-6 2 -11.5 6t-7.5 7l-2 3q-2 3 -3 6q-11 26 -12 74v34v14q-62 2 -114 5q-70 4 -109 11q-26 4 -42 10q-31 12 -36 37q-3 14 4 31
q3 8 10 20q11 18 30 44q7 10 51 68l47 65q24 35 39 60l43 68q28 45 39 64l39 57q15 21 24 36q3 9 9 16l1 2q7 12 21 16.5t26.5 -2.5t17 -21t-2.5 -27l-4 -7q-12 -109 -17.5 -164.5t-9.5 -144t-1 -161.5z" />
    <glyph glyph-name="five" unicode="5" horiz-adv-x="599" 
d="M464 645q-59 0 -129 -1q-49 -1 -78 -2q-9 0 -16 -1l-11 -35q-4 -12 -8 -26l-6 -24q-3 -10 -4 -12l-15 -48q24 11 37 15q30 12 44 12q97 3 152 -107q39 -77 42 -169q4 -108 -44 -163q-47 -55 -153 -67q-83 -9 -133 11q-57 22 -101 91q-8 12 -5 26.5t15 22t26.5 4.5
t21.5 -15q33 -50 69 -64q33 -13 99 -6q79 8 108 42q30 35 27 116q-3 76 -35 140q-35 69 -87 68q-5 -1 -21 -7q-13 -5 -45 -19l-45 -18q-12 -4 -20 -6q-7 -1 -12 -1q-18 1 -29 13q-14 18 -8 40q2 10 10 20l9 10q6 15 27 81q0 1 2 10l7 24q4 14 8 26q7 25 13 40q3 10 6 16
q7 15 16 21q6 4 13 5l6 2q4 0 10 1q10 0 28 1q29 1 79 2q70 1 130 1q14 0 24.5 -10.5t10.5 -24.5t-10.5 -24.5t-24.5 -10.5z" />
    <glyph glyph-name="six" unicode="6" horiz-adv-x="606" 
d="M190 363q-39 -76 -46 -130q-2 -10 -3 -35q-1 -28 0 -32q7 -31 33 -53t65 -32t77 -5q38 4 64 22q22 15 37 45t19 66.5t-5 68t-28 49.5q-33 33 -99.5 43.5t-112.5 -7.5h-1zM426 693q-99 -113 -172 -222l-18 -28q60 4 119.5 -12.5t97.5 -53.5q32 -32 45 -79t8 -96
q-6 -49 -27.5 -92.5t-58.5 -69.5q-40 -27 -95 -34t-103 7q-54 14 -95 49t-54 88q-3 14 -2 51q2 29 3 42q15 106 122 267q75 113 178 229q9 11 23.5 12t25.5 -8.5t12 -24t-9 -25.5z" />
    <glyph glyph-name="seven" unicode="7" horiz-adv-x="641" 
d="M31 713q59 15 125.5 19.5t111.5 2.5t124 -9q34 -3 47 -5h31h1q2 1 13 4q13 2 24 0q24 -5 31 -29q9 -28 -16 -54q-4 -3 -6.5 -5.5t-3.5 -3t-1 -1.5l-2 -1l-74 -115l-320 -511q-7 -12 -21.5 -15t-26.5 4.5t-15 22t5 26.5l320 511l62 97q-9 0 -13 1q-12 2 -41 4
q-85 10 -173 9t-166 -20q-14 -3 -26 4t-15.5 21.5t3.5 26.5t22 16z" />
    <glyph glyph-name="eight" unicode="8" horiz-adv-x="603" 
d="M335 408q37 15 55.5 52.5t12.5 83.5q-5 37 -23.5 67.5t-49.5 47.5q-71 -1 -119 -37t-60 -85q-11 -45 15.5 -82t97.5 -46q10 -2 39 -2h24q4 1 7 1h1zM153 374q-47 30 -65 78.5t-5 102.5q15 59 65 105.5t122 62.5q5 10 16 15.5t23 2.5q70 -15 112.5 -68.5t50.5 -120.5
q7 -54 -11.5 -105t-61.5 -83q28 -18 51 -46q38 -47 49.5 -104t-6.5 -107q-19 -53 -64.5 -87t-109.5 -37q-103 -5 -172 47.5t-85 133.5q-12 61 11.5 117.5t79.5 92.5zM223 331q-55 -21 -78 -64t-14 -90q10 -54 58.5 -91t125.5 -33q44 2 72 23t40 54q12 31 4 70.5t-35 73.5
q-30 36 -68 46.5t-105 10.5z" />
    <glyph glyph-name="nine" unicode="9" horiz-adv-x="632" 
d="M342 299q-61 -21 -117 -14.5t-101 37.5q-37 26 -58.5 65.5t-21.5 86.5q0 103 93 199q35 37 84 49t95 3t89 -33q66 -38 103 -102t18 -136q-5 -19 -17 -39.5t-30 -44t-19 -25.5q-79 -116 -268 -346q-9 -11 -23.5 -12.5t-25.5 7.5t-12.5 23.5t7.5 25.5q151 185 204 256z
M457 468q1 2 1 4q12 43 -12.5 86.5t-75.5 72.5q-49 29 -100 27.5t-83 -33.5q-74 -77 -73 -150q0 -61 50 -96q33 -23 76.5 -26.5t98.5 22t102 82.5q6 8 16 11z" />
    <glyph glyph-name="colon" unicode=":" horiz-adv-x="300" 
d="M78 374q-7 11 -7 24q-1 30 19.5 51t45.5 25q36 7 56 -21q16 -25 3 -65q-11 -35 -35 -49q-2 -1 -40 -16q-13 -6 -26.5 0t-18.5 19q-7 17 3 32zM129 -28h-1h-2q-1 0 -4 0.5t-8 1.5q-28 7 -39 29q-6 13 -3 31q1 10 6 22q9 23 23 40q9 12 20 17q23 12 43 0q17 -10 23 -32
q4 -14 4 -35q0 -15 -8 -33q0 -1 -4 -10l-3 -6q0 -3 -2 -6q-5 -13 -18.5 -19t-26.5 0z" />
    <glyph glyph-name="semicolon" unicode=";" horiz-adv-x="316" 
d="M104 358l-2 2q-24 24 -14 59q6 18 20 36q5 6 10 10l5 5q2 1 4 3q7 4 15 5q29 3 50 -16q15 -14 21 -37q11 -41 -7 -70q-11 -16 -34 -26q-5 -1 -8.5 -2.5t-5 -2t-2.5 -1.5q-13 -7 -27 -2.5t-21 16.5q-5 10 -4 21zM193 68q-61 -113 -76 -146q-2 -5 -18 -54q-6 -19 -12 -27
q-5 -9 -14 -13q-22 -12 -41 5q-8 7 -11 18q-1 4 -2 9q-5 39 31 119l48 97q9 19 30 20l3 6q7 12 21 16.5t26.5 -2.5t17 -21t-2.5 -27z" />
    <glyph glyph-name="less" unicode="&#x3c;" horiz-adv-x="633" 
d="M519 557q-45 -34 -99 -61q-53 -26 -122 -54t-98 -42q-3 -1 -10 -4l-20 -8l-21 -9q44 -23 49 -26l102 -71q38 -25 96 -57q55 -31 107 -49q14 -5 20.5 -18t1.5 -26.5t-18 -20t-26 -1.5q-55 18 -118.5 53t-102.5 61l-102 71q-2 2 -8 5l-18 10l-23 11q-20 11 -32 18
q-8 5 -13 9t-8 8q-9 11 -9 24q0 18 16 32q6 5 16 11q13 8 35 18q14 6 34 13.5t22 9.5q37 17 103.5 43.5t114 50t89.5 55.5q11 9 25.5 7t23.5 -13.5t7 -26t-14 -23.5z" />
    <glyph glyph-name="equal" unicode="=" horiz-adv-x="641" 
d="M39 484q45 1 110 -3q9 -1 47 -4q35 -3 59 -4q40 -2 73 -3q36 0 91.5 0.5t72.5 0.5q14 0 24.5 -10.5t10.5 -24.5t-10.5 -24.5t-24.5 -10.5q-202 0 -241 2q-23 1 -59 4q-39 3 -48 4q-62 4 -103 3q-14 0 -25 10t-11 24t10 25t24 11zM33 337q17 1 68.5 4.5t78 5t69 3.5
t79 1.5t71.5 -3.5q19 -2 57 -7q36 -6 53 -7q14 -1 23.5 -12t8.5 -25.5t-12 -24t-26 -8.5q-19 2 -57 7q-35 6 -53 7q-33 3 -67.5 3.5t-75.5 -1.5t-66.5 -3t-76.5 -5t-70 -5q-14 -1 -25 8.5t-12 24t8.5 25.5t24.5 12z" />
    <glyph glyph-name="greater" unicode="&#x3e;" horiz-adv-x="603" 
d="M64 629q214 -71 329 -141l51 -33l31 -21q7 -6 11 -9t6 -5q3 -3 4 -5q7 -10 7 -22q0 -14 -10 -28q-6 -8 -16 -17q-15 -15 -42 -35q-46 -34 -124 -81q-158 -97 -221 -124q-14 -6 -27.5 -0.5t-19 19t0 27t18.5 18.5q58 25 212 119q73 45 120 79q15 11 24 18l-13 9l-48 31
q-108 66 -315 135q-14 4 -20.5 17t-2 27t17.5 20.5t27 1.5z" />
    <glyph glyph-name="question" unicode="?" horiz-adv-x="460" 
d="M184 57q1 11 5 19q13 25 41 22q20 -3 29.5 -16.5t12.5 -26.5q5 -29 -10 -49q-17 -22 -48 -19q-5 1 -8.5 1.5l-3.5 0.5h-2h-1q-15 -1 -26 8.5t-12 23.5q-1 12 5.5 22t17.5 14zM61 570q9 77 54.5 117t105.5 35q55 -4 96 -45.5t38 -104.5q-1 -28 -10.5 -52.5t-27 -44
t-32 -31.5t-35.5 -27q-4 -2 -11 -7q-28 -20 -41 -30t-27 -26.5t-20 -33.5q-4 -15 -7 -33l-1 -23q6 -17 39 -32q40 -18 64 -3q23 14 48 64q6 13 20 17.5t27 -2t17.5 -20.5t-2.5 -27q-34 -67 -74 -92q-55 -34 -128 -1q-60 27 -77 72q-8 20 -2 57q3 24 10 43q4 15 10.5 27.5
t17 24.5t16.5 20t21 20l20 14q4 4 22 16l17 12q39 27 57 49t19 53q2 31 -19 52.5t-51 24.5q-30 2 -54.5 -19t-29.5 -72q-2 -14 -13 -23t-25.5 -7.5t-23.5 12.5t-8 26z" />
    <glyph glyph-name="at" unicode="@" horiz-adv-x="885" 
d="M519 386v1q-10 69 -53 81q-6 2 -33 2q-14 0 -40 -1q-44 -2 -67.5 -10t-38.5 -32q-8 -11 -9 -54q-1 -45 12 -81.5t36 -57.5q50 -45 131 -3q10 6 21 15.5t17 17.5l20 24v1q0 34 3 75q0 11 1 22zM591 224q5 -7 12 -7q11 1 28 12q18 12 35 30.5t25 32.5q12 21 18.5 55.5
t5.5 66.5q0 7 -1 14t-3.5 14.5t-4.5 12.5t-6.5 14t-7.5 13l-9 17q-7 12 -9 17q-35 61 -89.5 99.5t-115 48t-121 -3.5t-113.5 -54.5t-86 -103.5q-27 -51 -24 -136q3 -98 61 -174q59 -77 150 -113t190 -23q51 6 77 16t44 34q8 11 22.5 13.5t26 -6t14 -23t-6.5 -26.5
q-16 -21 -36 -36t-45 -23t-41.5 -11.5t-44.5 -7.5q-87 -11 -172.5 11.5t-152.5 71.5t-110 126q-43 76 -46 169q-4 103 32 170q34 64 85 110q52 46 111 69t124 25t124.5 -17.5t113 -63t89.5 -107.5q2 -3 11 -18t12 -20.5t9.5 -19.5t9.5 -24t5.5 -24t3.5 -28q1 -39 -7 -83
t-27 -77q-11 -20 -33.5 -44t-47.5 -41q-34 -23 -65 -24q-43 -1 -71 36q-4 6 -7 13q-19 -17 -38 -27q-63 -32 -116 -28t-94 41q-36 33 -54.5 84t-16.5 109v8q0 7 0.5 10.5t1 10.5t1 11.5t2 12t3.5 13t5 11.5l6 13q16 23 35.5 38.5t43.5 22.5t41.5 9.5t43.5 3.5t42 1
q37 0 53 -4q24 -7 44 -23q2 17 2 25q1 14 12 23.5t25.5 8.5t24 -12t8.5 -26q0 -3 -5 -55t-7 -89q5 -44 -2 -91q8 -17 -2 -32q1 -20 3 -33z" />
    <glyph glyph-name="A" unicode="A" horiz-adv-x="780" 
d="M171 257q56 2 159 10t137 10l-6 11q-15 30 -50 113q-30 72 -47 107l-14 33l-18 45l-2 6l-7 -13l-41 -77q-36 -65 -76 -161zM-5 10q9 31 21 61t31.5 73t24.5 56l69 168q42 99 79 168l42 76l24 46l8 14l3 5l1 1l1 2q0 1 1 2q1 2 3 3l4 4q9 6 19 7q20 1 36 -17q6 -7 13 -19
q10 -17 22 -47l19 -47q9 -23 10 -26q18 -35 50 -113q30 -73 47 -107q23 -45 74 -129q65 -106 78 -130q8 -12 4 -26t-16.5 -21.5t-26.5 -3.5t-21 17l-78 128l-33 55q-5 -2 -10 -2q-42 -2 -162.5 -11t-185.5 -11h-4l-6 -14l-26 -58q-18 -41 -29 -68.5t-20 -55.5
q-4 -14 -16.5 -21t-26.5 -2.5t-21 17t-2 26.5z" />
    <glyph glyph-name="B" unicode="B" horiz-adv-x="591" 
d="M379 397q36 -9 61 -31q47 -42 51 -124q5 -110 -98 -182q-81 -56 -187 -66h-6q-6 -1 -15 -2t-17 -2q-17 -1 -28 -1h-13q-13 1 -21 7q-22 14 -28 43q-4 18 -2 43q0 15 4 36q3 21 3 22q0 269 -4 425q0 6 -3 36q-4 30 -3 49q1 78 57 99q14 5 34 4q3 0 11 -1q5 -1 7 -1
q50 -2 100 -22.5t87 -55.5q27 -26 43.5 -56t21.5 -67.5t-9 -77.5q-14 -43 -46 -75zM153 318v-259q4 1 9 1q8 1 17 2t15 2h6q88 8 153 53q72 50 68 121q-3 53 -27 75q-21 18 -65 21q-31 2 -98 -7q-60 -8 -78 -9zM152 389l8 1q46 4 72 10q104 25 127 94q23 71 -38 128
q-27 26 -65.5 42t-75.5 17q-5 0 -13 1q-7 1 -9 1h-4q-11 -4 -11 -34q-1 -15 2 -40q4 -33 4 -42q2 -82 3 -178z" />
    <glyph glyph-name="C" unicode="C" horiz-adv-x="738" 
d="M576 602q-48 58 -154 60t-186 -64q-78 -66 -110 -168q-15 -49 -15 -97q0 -49 14 -93t46 -82t79 -62q70 -36 165 -37q12 0 23 1.5t19 3.5t20.5 7.5t18.5 8.5t20 12t18.5 12.5t21.5 15.5t22 16q12 8 26 5.5t22.5 -14.5t6 -26t-14.5 -23q-4 -2 -23 -16l-26 -19
q-7 -5 -25 -16t-30 -16t-29.5 -11.5t-34.5 -8.5t-35 -2q-112 1 -197 45q-60 31 -101 79.5t-58.5 104.5t-17 115.5t18 117t50.5 108.5t78.5 90.5t106.5 61.5t129 21q137 -3 206 -86q9 -11 8 -25.5t-12.5 -23.5t-26 -8t-23.5 13z" />
    <glyph glyph-name="D" unicode="D" horiz-adv-x="717" 
d="M167 669q-1 -8 -1 -21q-1 -24 0 -66q1 -21 1.5 -47.5t1 -44.5t0.5 -24q0 -52 -9 -238q-6 -124 -7 -185q199 7 301 102q53 50 78 125q24 77 11.5 155t-62.5 127q-12 13 -62 39q-54 28 -112 50q-67 25 -108 29q-22 2 -32 -1zM82 -6q0 63 9 238q8 156 8 234q0 6 -0.5 23.5
t-1 44t-1.5 46.5q-1 44 0 69q0 17 1 27q1 17 6 25q25 47 103 39q51 -6 125 -33q62 -23 121 -54t79 -51q65 -66 81 -164t-15 -191t-95 -154q-123 -115 -357 -120q-10 -14 -28 -14q-14 0 -24.5 10.5t-10.5 24.5z" />
    <glyph glyph-name="E" unicode="E" horiz-adv-x="594" 
d="M459 658q-10 0 -38 1t-71.5 3t-73.5 3q-67 2 -104 2q-22 0 -34 -1q-1 0 -2 -1q-2 -5 -3 -13q-3 -13 3 -47q1 -5 3.5 -16t2.5 -15q4 -19 5 -31q4 -47 5 -104q23 -2 53 -5q73 -9 83 -9q93 -9 146 8q14 5 27 -2t17.5 -20.5t-2.5 -26.5t-20 -17q-68 -22 -175 -12q-10 1 -83 9
q-29 3 -46 4q-1 -12 -2 -71t-1 -90q0 -10 -3 -40q-3 -26 -3 -41q-1 -24 4 -31q2 -1 6 -1q12 -1 32 -1q35 -1 97 -2q28 0 67.5 -0.5t65 -1t34.5 -0.5q14 0 24 -10.5t10 -25t-10.5 -24.5t-25.5 -10q-9 0 -34 0.5t-64 1t-68 0.5q-63 1 -98 2q-22 0 -34 1q-8 1 -13 1q-8 1 -14 3
q-50 20 -49 99q0 18 3 48q3 26 3 32q0 32 1 91.5t2 75.5q1 98 -5 163q-1 9 -4 25q0 3 -2 14t-4 17q-8 46 -4 71q8 44 34 62q8 5 20 7q6 2 15 2q15 2 40 2q38 0 106 -2q31 -1 73.5 -3t70 -3t37.5 -1q14 0 24.5 -10.5t10.5 -24.5t-10.5 -24.5t-24.5 -10.5z" />
    <glyph glyph-name="F" unicode="F" horiz-adv-x="553" 
d="M175 437q135 0 244 -3q14 0 24 -10.5t10 -25t-10.5 -24.5t-25.5 -10q-107 3 -242 3h-2q-1 -39 -4 -76q-3 -36 -9.5 -90.5t-9.5 -98t-1 -84.5q1 -15 -9 -25.5t-24.5 -11.5t-25 9t-11.5 24q-2 43 1.5 91.5t10 105t8.5 84.5q7 105 5 217q0 4 -1 16.5t-2.5 33t-2.5 36.5
q-2 34 -2 54q-1 12 0 20q0 5 1 9q1 11 7 19q11 15 35 22q15 5 37 7q33 3 86 1q31 -2 87 -6q46 -4 55 -4q14 0 24.5 -10.5t10.5 -24.5t-10.5 -24.5t-24.5 -10.5q-7 0 -61 4t-84 6q-49 2 -77 -1q-10 0 -16 -2v-4q0 -18 2 -51l2 -36q2 -22 3 -35t1 -17q1 -38 0 -77h1z" />
    <glyph glyph-name="G" unicode="G" horiz-adv-x="839" 
d="M651 545q-162 133 -298 124q-43 -3 -94 -37q-93 -63 -127 -168q-33 -105 1 -214q25 -77 80.5 -131t126 -69.5t147.5 15.5q23 10 59.5 37.5t67.5 59.5q34 36 48 65q11 25 5 39q-3 3 -11 4q-17 5 -47 4q-41 -1 -97 -11q-14 -3 -26 5.5t-14.5 22.5t6 26t22.5 14
q62 12 107 13q39 1 66 -6q42 -10 56 -40q22 -44 -4 -100q-18 -40 -60 -85q-35 -36 -77.5 -67.5t-72.5 -44.5q-101 -42 -192 -20.5t-159 89t-97 160.5q-26 88 -18.5 172.5t52 161t118.5 126.5q67 45 130 49q165 11 346 -140q12 -9 13 -23.5t-8 -26t-23.5 -12.5t-25.5 8z" />
    <glyph glyph-name="H" unicode="H" horiz-adv-x="695" 
d="M586 706q-4 -31 -4.5 -67.5t0.5 -64.5t3 -70.5t3 -69.5t3 -103t2.5 -103.5t1.5 -103.5t-1 -103q0 -14 -10.5 -24t-25 -10t-24.5 10.5t-10 25.5q3 107 -3 316q-42 1 -111 7q-93 8 -127 9q-14 0 -132 -2q-2 -346 -2 -352q0 -14 -10.5 -24t-25 -10t-24.5 10.5t-10 25.5
q2 79 2 240.5t2 240.5q1 26 3.5 60t4.5 56t1 50.5t-5 53.5q-3 15 5 27t22.5 14.5t26.5 -5.5t14 -22q6 -29 7 -63t-1 -59.5t-5 -60t-3 -53.5q-1 -28 -1 -59q118 2 133 2q39 -1 131 -9q70 -6 103 -7l-1 23l-3 67q-2 43 -3 72.5t-0.5 69.5t4.5 73q2 15 13.5 23.5t26 7t23 -13
t7.5 -25.5z" />
    <glyph glyph-name="I" unicode="I" horiz-adv-x="253" 
d="M153 702q0 -100 -2 -204t-7 -259t-6 -204q0 -14 -10.5 -24t-25 -10t-24.5 10.5t-10 25.5q1 49 6 203.5t7 258t2 203.5q0 14 10.5 24.5t24.5 10.5t24.5 -10.5t10.5 -24.5z" />
    <glyph glyph-name="J" unicode="J" horiz-adv-x="357" 
d="M255 683q1 -40 -2 -116q-4 -75 -3 -111q0 -13 3 -82t4 -113q3 -149 -15 -195q-25 -62 -98 -75q-55 -10 -111 11q-13 6 -19 19t-0.5 26.5t18.5 19.5t27 1q37 -15 73 -8q34 6 44 32q14 33 11 168q-1 44 -4 113t-3 81q-1 39 3 116q3 74 2 111q0 14 10 25t24 11t25 -10
t11 -24z" />
    <glyph glyph-name="K" unicode="K" horiz-adv-x="705" 
d="M150 702q-4 -45 -5 -94.5t-0.5 -111.5t0.5 -94v-19l44 36l41 35l43 38l41 36l74 64l90 78q35 33 66 67q10 10 24.5 11t25 -9t11.5 -24.5t-9 -25.5q-33 -35 -70 -69l-94 -82l-72 -62l-104 -93l88 -101l110 -128q45 -54 84 -106q9 -12 7 -26t-14 -23t-26 -7t-23 14
q-39 52 -84 105l-108 126l-88 102q-22 -18 -43 -32q-7 -6 -17 -7q-4 -85 -17 -270q-1 -14 -12 -23.5t-25.5 -8.5t-24 12t-8.5 26q18 276 20 366q1 56 0 102t0 102.5t5 101.5q1 14 12 23.5t25.5 8.5t24 -12t8.5 -26z" />
    <glyph glyph-name="L" unicode="L" horiz-adv-x="511" 
d="M159 697q-5 -26 -6 -53t-0.5 -68.5t0.5 -59.5q-4 -300 -4 -308q0 -4 -0.5 -16.5t-1 -30t-1.5 -30.5q-1 -28 0 -43v-8q7 -2 18 -4q27 -6 74 -8q32 -2 82 -2.5t58 -0.5q14 -1 24 -11.5t9 -25t-11.5 -24.5t-25.5 -9q-7 0 -57 1q-49 0 -83 2q-53 3 -84 9q-21 4 -35 10
q-22 10 -31 27q-5 8 -7 22q-1 8 -1 20q-1 17 0 47q1 13 1.5 30t1 29t0.5 16q0 8 4 308q0 12 -1 56.5t1 76.5t8 62q3 14 15 22t26 5t22 -15t5 -26z" />
    <glyph glyph-name="M" unicode="M" horiz-adv-x="941" 
d="M47 11q7 36 29 133q24 103 37.5 170.5t21.5 133.5q8 59 29 153l14 59l4 18l2 5v2q1 1 1 2l2 4l4 6q4 5 8 8q14 8 29 3q15 -4 23 -18q2 -5 4 -11q2 -7 4 -19q1 -12 5 -45q7 -70 13 -89q14 -48 75 -147q82 -133 95 -160l10 -22q9 34 11 39q14 45 37 90t59 104l48 78
q0 2 30 59l18 36q4 8 7 12l3 6l4 4q2 3 6 6q16 11 34 3q6 -3 10.5 -7.5t6.5 -7.5l1 -3q1 -3 2 -5q0 -2 1 -4v-4q0 -2 1 -6v-18l3 -58q5 -101 8 -123q6 -59 42 -163q43 -123 51 -174q3 -14 -5.5 -26t-22.5 -14.5t-26 6t-14 22.5q-9 48 -49 163q-39 111 -46 178q-2 25 -6 82
q-13 -24 -48 -81t-55.5 -96.5t-33.5 -80.5q-1 -5 -17 -65l-11 -40l-4 -13l-1 -4v-2q-1 -1 -1 -2q-1 -1 -1 -3l-2 -4q-2 -2 -4 -5q-7 -7 -16 -10q-17 -4 -31 6q-4 3 -7 6q-2 3 -5 7q-3 5 -7 13q-7 12 -17 35l-27 56q-15 31 -90 153q-62 101 -80 152q-4 -23 -8 -54
q-9 -67 -22 -135t-37 -175l-31 -133q-3 -15 -15 -22.5t-26.5 -4.5t-22 15t-4.5 26z" />
    <glyph glyph-name="N" unicode="N" horiz-adv-x="805" 
d="M83 22q0 51 7 230q6 145 1 226q-5 105 -8 126l-5 12q-5 12 -5 22q1 25 23 37q14 8 30 1q4 -1 8 -4q4 -2 8 -6l16 -16l42 -46l46 -50q23 -25 31 -32l75 -72l78 -74q9 -7 38.5 -32.5t49.5 -45t38 -40.5q15 -18 41 -45l37 -38q1 33 2 74q1 151 -1 189q-1 24 -4.5 75.5
t-5 90.5t-1.5 75q0 14 10.5 24.5t24.5 10.5t24.5 -10.5t10.5 -24.5q0 -36 1.5 -74.5t4.5 -88.5q4 -47 5 -74q2 -44 1 -194q-1 -66 -3 -114q-1 -28 -2 -39q0 -8 -1 -13l-2 -8q-1 -3 -3 -7q-4 -9 -13 -14q-8 -5 -16.5 -5t-13.5 2l-5 2q-3 2 -6 5q-2 1 -3 3l-2 2l-1 1l-1 1
l-3 5l-10 14q-17 23 -30 36l-44 45q-28 29 -45 50q-16 18 -33 34.5t-45 40.5l-40 35q-28 25 -79 74.5t-76 71.5q-8 7 -34 36l-37 41q0 -12 1 -33.5t2 -31.5q5 -85 -1 -232q-7 -178 -7 -228q0 -14 -10.5 -24.5t-24.5 -10.5t-24.5 10.5t-10.5 24.5z" />
    <glyph glyph-name="O" unicode="O" horiz-adv-x="876" 
d="M308 737q8 17 27 20q203 26 325 -83q54 -48 83 -115t33 -142q3 -58 -8 -115t-37.5 -109.5t-65 -94.5t-93.5 -69t-119 -32q-79 -6 -149 14.5t-120.5 59.5t-87 93t-53 114t-14 124t25.5 121.5t70.5 107.5t116.5 81q34 16 66 25zM443 678q-83 10 -173 -30
q-53 -24 -91.5 -64.5t-57 -87t-21 -98.5t10.5 -101.5t42.5 -93.5t70.5 -76t99 -49q58 -16 124 -11q82 6 144 58t91 128q29 75 24 160q-7 132 -93 209q-57 51 -142 65q-12 -11 -28 -9z" />
    <glyph glyph-name="P" unicode="P" horiz-adv-x="541" 
d="M142 665q-1 -15 0 -40q0 -21 2.5 -50.5t2.5 -33.5q0 -8 1.5 -67t2.5 -91q64 -10 112 1q62 15 89 56q26 41 17 90q-9 51 -53 90q-44 38 -116 44q-4 0 -42 1h-16zM71 14q14 131 11 327q-4 9 -2 20q0 3 1 5q0 7 -4 173q0 4 -2.5 33.5t-2.5 49.5q-1 33 1 54q2 15 5 25
q7 19 20 28l14 5q1 1 3 1h3h3h10h28q40 -1 47 -1q95 -8 157 -62.5t75 -129.5q14 -76 -28 -140q-41 -65 -131 -86q-59 -14 -127 -4q2 -179 -11 -306q-2 -14 -13 -23t-25.5 -7.5t-23.5 12.5t-8 26z" />
    <glyph glyph-name="Q" unicode="Q" horiz-adv-x="877" 
d="M444 682q-1 -6 -4 -11q-7 -13 -21 -17t-27 3q-19 11 -39 14q-5 -2 -9 -4q-16 -6 -31 3q-39 -7 -81 -38q-40 -28 -74 -70t-53 -83q-22 -47 -26 -103q-4 -55 9 -106.5t44 -97.5t74 -73q43 -28 110 -41t126 -7q62 6 115 46q-80 78 -127 157q-7 13 -3.5 27t16 21t26.5 3.5
t21 -15.5q43 -72 118 -144q43 53 66 126q29 88 17 179.5t-64 149.5q-31 34 -108 63q-40 15 -75 18zM610 49q-72 -59 -162 -68q-67 -6 -146.5 9t-133.5 49q-55 36 -93.5 93t-54 120.5t-11 131t31.5 125.5q23 48 63 97q38 48 87 83q80 57 155 53q94 27 197 -12q94 -36 136 -83
q45 -49 66 -118t19 -139.5t-24 -138.5q-27 -87 -81 -152q39 -34 105 -85q11 -9 12.5 -23.5t-7 -26t-23 -13t-26.5 6.5q-70 56 -110 91z" />
    <glyph glyph-name="R" unicode="R" horiz-adv-x="610" 
d="M164 677v-8q-1 -18 -2 -51v-36q0 -21 -0.5 -34t-0.5 -16q0 -10 -3 -64.5t-5 -95.5q74 -3 130.5 35.5t80.5 95.5q27 64 0 112q-31 54 -124 61q-42 4 -55 3q-13 0 -21 -2zM129 -39q-1 1 -2 1.5l-3 1.5l-8 3q-20 10 -29 26q-7 13 -9 44q-2 23 -2 59q-1 62 3 164q1 31 2 53
h-1q-14 4 -21.5 16.5t-3.5 26.5q6 22 29 26q1 38 4 90.5t3 61.5q0 4 0.5 16.5t0.5 33.5v35q1 34 2 53q0 12 1 19q0 5 1 8q0 8 6 16q21 32 81 34q15 1 63 -3q129 -10 178 -96q45 -78 5 -174q-20 -47 -57.5 -86t-87.5 -62q12 -18 93 -153q67 -112 124 -168q10 -11 10 -25
t-10.5 -24.5t-24.5 -10.5t-25 10q-63 63 -134 181l-31 52l-39 66q-16 26 -33 50q-31 -5 -64 -4q-1 -23 -1 -45q-4 -100 -3 -160q0 -34 2 -55q0 -7 1 -13q12 -5 18 -8q12 -8 15 -22t-4.5 -26.5t-21.5 -15.5t-27 4z" />
    <glyph glyph-name="S" unicode="S" horiz-adv-x="592" 
d="M371 589q-16 24 -23 33.5t-19 22.5t-25 21q-33 17 -63 12t-56 -28t-37.5 -57t-4.5 -68q4 -15 10 -27.5t19 -22.5t23 -16.5t32 -14.5t35 -12l43 -13q83 -25 121 -53q63 -47 66 -132q4 -103 -51 -171t-138 -82q-83 -13 -156 35q-73 49 -102 152q-4 14 3.5 26.5t21.5 16.5
t26.5 -3.5t16.5 -21.5q21 -77 72 -111t107 -25t94.5 57t35.5 125q-2 51 -38 78q-28 21 -99 42q-5 2 -16 4q-30 9 -46.5 14.5t-45.5 19t-46 28t-33.5 39t-22.5 54.5q-12 53 6 104.5t57 86.5q41 37 92 45t108 -21q8 -4 14.5 -8.5t13.5 -10.5l11 -11q5 -4 11 -11.5t9.5 -11
t9.5 -12.5t7.5 -11t8 -12t6.5 -11q8 -12 5 -26t-15 -22t-26 -5t-22 15z" />
    <glyph glyph-name="T" unicode="T" horiz-adv-x="544" 
d="M216 736q103 -2 197 -13q15 -2 23.5 -13.5t7 -26t-13 -23t-25.5 -7.5q-84 10 -175 13q-1 -101 7 -292q10 -241 10 -336q0 -14 -10.5 -24.5t-24.5 -10.5t-24.5 10.5t-10.5 24.5q0 94 -10 333q-8 190 -7 295q-89 0 -178 -8q-14 -1 -25.5 8.5t-12.5 23.5t8.5 25.5t23.5 12.5
q106 8 201 8q9 6 20 6q10 0 19 -6z" />
    <glyph glyph-name="U" unicode="U" horiz-adv-x="695" 
d="M149 716q-13 -240 -3 -362q10 -113 35 -184q28 -76 73 -97q27 -13 65 -15t66 7q41 13 73.5 44.5t47.5 71.5q9 22 14 94q5 68 6 159q1 174 -8 279q-1 15 8.5 26t24 12t25.5 -8.5t12 -23.5q9 -108 8 -286q-1 -95 -6 -163q-6 -82 -18 -115q-21 -54 -65.5 -96t-99.5 -60
q-40 -14 -92 -11t-91 21q-71 34 -108 137q-29 79 -39 202q-11 129 2 372q1 14 11.5 24t25 9t24.5 -11.5t9 -25.5z" />
    <glyph glyph-name="V" unicode="V" horiz-adv-x="756" 
d="M327 116v-1v1zM63 729q28 -39 50 -86q22 -48 45.5 -109.5t33.5 -84.5q15 -34 45 -97l43 -92q10 -22 31 -90l2 -8l8 13l24 45q15 31 17 33q106 189 227 463q6 13 19.5 18.5t26.5 -0.5t18.5 -19.5t-0.5 -26.5q-122 -277 -231 -469q0 -1 -14 -30l-26 -49q-18 -30 -33 -47
q-29 -33 -59 -27q-12 2 -20 10l-4 6q-2 2 -3 5l-2 6q-2 5 -5 15l-12 42q-20 63 -28 82l-43 92l-45 97q-15 33 -36 90q-22 59 -41 100.5t-44 75.5q-9 12 -6.5 26.5t14 23t26 6t22.5 -13.5z" />
    <glyph glyph-name="W" unicode="W" horiz-adv-x="1088" 
d="M63 720q16 -22 28.5 -50t24.5 -62l17 -45l108 -249l36 -82q11 -26 19 -41q16 24 40 96l22 70q13 40 20 56q10 25 22 49q15 30 21 44q1 1 24 60l15 39q4 8 6 13q1 4 3 6q1 3 3 5q3 4 7 7q17 13 36 4q5 -3 9.5 -7t5.5 -7l1 -2q2 -3 3 -6t2 -7q1 -5 3 -14q3 -15 7 -39l7 -40
q3 -19 4 -21q13 -50 72 -206q28 -74 48 -118l5 -13q5 7 10 16q14 24 35 71q36 77 97 230q67 167 97 235q6 13 20 18t27 -1t18 -20t-1 -27q-36 -78 -96 -230q-65 -164 -98 -235q-23 -49 -38 -75q-16 -29 -29 -45q-9 -11 -18 -18q-19 -13 -38 -9q-15 3 -26 18q-4 5 -10 15
q-8 15 -20 42q-18 41 -48 121q-62 166 -75 213q0 1 -1 5q-2 -6 -3 -8l-23 -46q-11 -21 -20 -43q-5 -14 -17 -51l-23 -72q-33 -98 -59 -127q-12 -12 -24 -19q-25 -14 -48 -4q-13 5 -23 20q-5 7 -11 19q-10 19 -24 50l-36 83l-108 249q-9 21 -20 52t-20 53q-9 20 -22 38
q-9 12 -6.5 26.5t14 23t26 6t22.5 -13.5z" />
    <glyph glyph-name="X" unicode="X" horiz-adv-x="635" 
d="M263 364l-211 335q-7 12 -4 26.5t15 22t26.5 4.5t22.5 -15l194 -309q90 140 160 291q6 13 20 18t27 -1t18 -20t-1 -27q-79 -169 -184 -326l62 -97q18 -29 59.5 -87.5t62.5 -90.5q7 -13 4 -27t-15.5 -21.5t-26.5 -4.5t-22 15q-19 31 -59 88l-63 90l-45 72
q-104 -146 -238 -291q-10 -10 -24.5 -11t-25 9t-11.5 24.5t9 25.5q142 153 250 307z" />
    <glyph glyph-name="Y" unicode="Y" horiz-adv-x="627" 
d="M524 698q-21 -45 -115 -204l-69 -115l-26 -38q-6 -8 -11 -13q-7 -36 -10 -80t-3.5 -74t0.5 -85.5t1 -80.5q0 -14 -10.5 -24.5t-24.5 -10.5t-24.5 10.5t-10.5 24.5q0 22 -1 76t-1 85.5t3.5 78t9.5 84.5l-5 5q-15 14 -33 39q-28 39 -69 110l-64 116q-33 62 -40 72
q-7 13 -4 27t15.5 21.5t26.5 4.5t22 -15q8 -13 42 -77l63 -115q39 -67 65 -103l16 -21l14 21q27 42 68 112q89 152 111 199q6 13 20 18t27 -1t18 -20t-1 -27z" />
    <glyph glyph-name="Z" unicode="Z" horiz-adv-x="642" 
d="M58 717q24 1 81 6q56 5 85 6q41 1 140 2h67h20h6h3h2h2q2 -1 5 -1q3 -1 5 -3q10 -4 15 -13q4 -6 5 -13.5t0 -11.5l-1 -4l-4 -10l-8 -14q-8 -13 -22 -34l-38 -54q-28 -41 -59 -92l-51 -85l-55 -99l-51 -90q-11 -21 -51 -103l-16 -33q32 -4 92.5 2.5t76.5 7.5q100 5 204 -8
q15 -2 24 -13.5t7 -26t-13.5 -23.5t-25.5 -7q-99 13 -192 8q-15 -1 -55 -5.5t-63.5 -5.5t-62.5 1q-3 1 -9 1q-10 0 -16 1q-30 3 -45 24q-6 9 -6 21q0 3 1 5q0 2 1 4v3q1 0 1 1l1 2l2 4l7 16l24 51q37 78 54 107q13 25 50 91l57 100q19 35 51 87l60 94l34 48h-33
q-98 -1 -138 -2q-24 -1 -81 -6q-56 -5 -85 -6q-15 0 -25.5 10t-10.5 24.5t10 25t24 10.5z" />
    <glyph glyph-name="bracketleft" unicode="[" horiz-adv-x="408" 
d="M276 711q-6 0 -36 -1t-48 -1q-28 -1 -44 -4h-2l1 -4q1 -9 8 -26q10 -28 13 -41q10 -46 13 -123q9 -234 -6 -452q-1 -10 -6 -48.5t-7 -59.5q-4 -36 -5 -58q0 -12 1 -19v-2q3 -3 16 -1q10 1 27 5q24 6 29 7q15 3 27 -5t14.5 -22.5t-5.5 -26.5t-22 -14q-3 -1 -25 -7
q-22 -5 -37 -7q-62 -7 -87 39q-6 11 -7 28q-1 11 -1 27q1 25 5 64q3 21 7.5 58t5.5 46q15 216 6 446q-3 71 -11 111q-2 7 -10 29q-11 26 -13 44q-2 16 -1 25q1 24 16 39q9 10 25 14q9 2 22 4q19 2 50 4q18 0 47 0.5t34 1.5q15 1 26 -8.5t12 -24t-8.5 -25.5t-23.5 -12z" />
    <glyph glyph-name="backslash" unicode="\" 
d="M40 784q38 -62 79 -173q50 -134 66 -169q35 -75 146 -275q97 -175 140 -285q6 -13 0 -26.5t-19 -19t-26.5 0.5t-18.5 19q-43 106 -137 277q-124 226 -149 279q-17 37 -68 175q-39 106 -73 159q-7 13 -4 27t15.5 21.5t26.5 4.5t22 -15z" />
    <glyph glyph-name="bracketright" unicode="]" horiz-adv-x="318" 
d="M155 -129h1h-1zM45 784q25 3 61 6q23 2 38 2q9 0 16 -1q14 -1 22 -6q23 -14 31 -50q5 -22 6 -54q0 -20 -1.5 -50.5t-1.5 -33.5v-99v-116q0 -29 -1 -94.5t-4 -115t-8 -98.5q0 -4 3 -124q2 -49 1 -76q-1 -18 -3 -30q-1 -8 -4 -14q-5 -13 -15 -21q-9 -6 -22 -7q-6 -1 -14 -1
q-11 0 -29 2q-1 0 -42 5q-15 2 -23.5 13.5t-7 26t13 23t25.5 7.5l41 -5q6 -1 9 -1q1 2 1 4q1 25 -1 72q-4 125 -3 132q5 50 8 99.5t4 111.5l1 95q1 33 0.5 112t-0.5 99q0 5 2 37q1 28 1 46q-1 25 -4 39q0 2 -1 3q-12 0 -32 -2q-34 -3 -57 -6q-15 -2 -26.5 7t-13.5 23.5t7 26
t23 13.5z" />
    <glyph glyph-name="asciicircum" unicode="^" horiz-adv-x="566" 
d="M277 654h1h-1zM27 410q8 21 76 153l48 93l17 32q3 6 6 10l2 4q4 6 11 10q5 4 11 5l6 2q4 0 11 1q12 2 27 3q16 1 28 1h12q10 -1 17 -4q14 -6 27 -24q9 -11 20 -30q17 -28 43 -80q66 -131 71 -139q8 -12 5.5 -26.5t-14.5 -22.5t-26.5 -5.5t-22.5 14.5t-76 148
q-25 50 -40 76q-9 15 -15 23q-10 0 -24 -1q-11 -1 -19 -2l-15 -27l-48 -93q-66 -130 -74 -147q-5 -14 -18.5 -19.5t-27 0t-19 19t0.5 26.5z" />
    <glyph glyph-name="underscore" unicode="_" horiz-adv-x="633" 
d="M-17 -96q159 8 245 2q29 -2 71 -8l66 -8q24 -3 63.5 -4t63.5 5q14 3 26 -5t14.5 -22.5t-5.5 -26.5t-23 -14q-33 -7 -74 -6.5t-72 3.5l-72 9q-41 5 -64 7q-81 6 -235 -2q-15 -1 -25.5 9t-11.5 24.5t9 25t24 11.5z" />
    <glyph glyph-name="grave" unicode="`" horiz-adv-x="399" 
d="M173 720q17 -23 56 -65q44 -47 63 -70q8 -12 6.5 -26.5t-13 -23t-26 -7t-23.5 12.5q-16 21 -58 66q-40 43 -61 71q-9 12 -6.5 26.5t14 23t26 6t22.5 -13.5z" />
    <glyph glyph-name="a" unicode="a" horiz-adv-x="586" 
d="M408 288q-8 4 -14 10q-38 45 -76 68q-56 35 -105 10q-48 -25 -73 -90q-15 -44 -14.5 -85t24 -75.5t65.5 -49.5q50 -18 95 3q37 17 96 75q-1 48 2 134zM480 445q1 -51 -2 -159q-3 -104 -1 -155q1 -17 5 -54q3 -39 4 -60q0 -15 -10 -25.5t-24.5 -10.5t-25 10t-10.5 24
q0 19 -4 49q-39 -34 -72 -49q-72 -33 -149 -5q-50 18 -82.5 53.5t-43.5 77.5t-8.5 86t17.5 84q35 90 107 127q85 44 175 -12q28 -18 54 -43q1 32 0 60q0 15 10 25.5t24.5 10.5t25 -10t10.5 -24z" />
    <glyph glyph-name="b" unicode="b" horiz-adv-x="600" 
d="M286 55q8 4 17 4q62 -3 98 49t29 129t-53 120q-52 49 -139 33q-46 -9 -68 -60t-8 -121q11 -57 43 -99q32 -41 81 -55zM342 -20q-68 -4 -120 26q-53 30 -87 82v-52q0 -14 -10.5 -24.5t-24.5 -10.5t-24.5 10.5t-10.5 24.5q0 34 1.5 102.5t1.5 103t-3 102.5q-1 22 -8 76
t-8 83q-1 25 2 134q2 82 -2 128q-1 14 8.5 25.5t23.5 12.5t25.5 -8.5t12.5 -23.5q4 -52 2 -136q-3 -110 -2 -130q1 -27 7 -76l4 -29q36 47 96 58q120 23 198 -49q67 -62 76 -166q4 -50 -7.5 -98.5t-43.5 -89.5t-78 -57q-10 -17 -29 -18z" />
    <glyph glyph-name="c" unicode="c" horiz-adv-x="542" 
d="M387 339q-41 29 -91 34q-89 10 -138 -30q-50 -40 -56 -129q-1 -19 0 -43q1 -26 5 -35q15 -36 49 -63t76 -38q39 -11 74.5 -0.5t56.5 42.5q7 12 21.5 15t26.5 -4.5t15 -22t-5 -26.5q-34 -54 -90.5 -70.5t-116.5 -1.5q-56 14 -103 52t-68 89q-9 21 -11 59q-2 27 0 51
q8 120 82 180q72 58 190 45q66 -8 123 -46q12 -8 14.5 -22.5t-5.5 -26.5t-22.5 -14.5t-26.5 5.5z" />
    <glyph glyph-name="d" unicode="d" horiz-adv-x="589" 
d="M396 305l-2 2l-26 30q-8 9 -20.5 19t-26.5 15q-31 10 -66.5 8.5t-63.5 -14.5q-48 -21 -70 -61t-19 -84q4 -44 29 -85q38 -63 96 -75q67 -13 134 50q19 19 35 40q-1 100 0 155zM457 782q9 -42 13 -95.5t3.5 -89.5t-3.5 -99t-3 -86q-2 -80 -1 -199l4 -2q13 -6 17.5 -20
t-2.5 -27q-9 -19 -19 -35v-94q0 -14 -10.5 -24.5t-24.5 -10.5t-24.5 10.5t-10.5 24.5v13q-88 -75 -183 -56q-44 9 -81 37.5t-61 69.5q-24 39 -33 85t-1.5 92t39.5 87t85 66q41 18 90.5 20t91.5 -12q28 -9 54 -30v7q1 27 3.5 88.5t3 95t-3 82t-11.5 88.5q-3 14 4.5 26t22 15
t26.5 -4.5t15 -22.5z" />
    <glyph glyph-name="e" unicode="e" horiz-adv-x="542" 
d="M373 274q-1 4 -2 10q-7 27 -30 55q-26 32 -58 46t-63 4q-33 -11 -57.5 -40.5t-37.5 -70.5q137 13 192 9q5 -1 49 -12q4 0 7 -1zM52 272q14 64 50.5 114t95.5 69q57 19 109 -4t88 -67q33 -41 44 -83q15 -59 -23 -86q-26 -18 -68 -8q-8 3 -16 5.5t-12 3.5t-9 1
q-15 3 -49 1.5t-48 -2.5t-49 -4.5t-51 -5.5v-20q4 -70 36 -109.5t83 -33.5q43 5 67 21q22 15 46 53q8 13 22 16t26.5 -4.5t15.5 -21.5t-4 -26q-31 -52 -68 -76.5t-97 -31.5q-47 -5 -85 11.5t-61 48.5t-35.5 70t-14.5 79q-1 13 -1 26q-16 10 -17 29q0 12 7 21.5t18 13.5z" />
    <glyph glyph-name="f" unicode="f" horiz-adv-x="402" 
d="M257 373q-50 3 -123 3q1 -8 2 -15q9 -95 9 -339q0 -14 -10.5 -24.5t-24.5 -10.5t-24.5 10.5t-10.5 24.5v54v58q0 16 -0.5 52.5t-1.5 58.5l-3 53q-1 30 -4 57q-1 9 -2 20h-35q-14 0 -24.5 10.5t-10.5 24.5t10.5 24.5t24.5 10.5h25q-16 123 1 196q23 99 65 143q33 35 76 36
q44 0 93 -37q11 -9 13 -23.5t-7 -26t-23.5 -13.5t-26.5 7q-28 23 -48 23q-13 -1 -26 -14q-29 -30 -48 -111q-6 -28 -7 -60.5t1.5 -56t7.5 -63.5q83 1 136 -2q14 -1 24 -11.5t9 -25t-11.5 -24.5t-25.5 -9z" />
    <glyph glyph-name="g" unicode="g" horiz-adv-x="590" 
d="M381 335l-37 21l-34 20q-11 6 -29.5 14.5t-32 11.5t-30.5 3t-35 -4q-35 -9 -57 -55q-24 -51 -22 -118q2 -70 31 -121.5t77 -64.5q59 -17 109.5 20t76.5 107q14 39 15 77q-1 19 -2 34q-1 7 -2 13q-6 23 -18 39q-5 1 -10 3zM483 436q-7 -56 -2 -150q2 -18 2 -38l6 -98
q4 -92 -2 -165t-32 -134q-16 -37 -56 -62.5t-88 -38.5q-40 -12 -91 -10t-83 24q-31 21 -51 69q-6 14 -13 35q-8 26 -10 30q-5 14 1 27t20 18t27 -1t18 -20q2 -5 11 -32q6 -18 11 -30q12 -29 26 -38q15 -11 46 -12.5t70 8.5q38 10 64.5 27t33.5 34q29 70 30 186
q-41 -56 -99.5 -83t-127.5 -8q-53 15 -90 57t-53 91q-16 50 -17 104q-2 84 29 150q36 77 104 93q52 13 98 0.5t95 -40.5q5 0 9 -2q23 -6 41 -19q1 19 3 36q2 14 13.5 23t25.5 7.5t23 -13t8 -25.5z" />
    <glyph glyph-name="h" unicode="h" horiz-adv-x="541" 
d="M371 15q-4 29 -3 116q1 91 -3 136q-6 73 -25 107q-19 35 -55 37q-32 2 -57 -10q-26 -12 -57 -39q-27 -24 -28 -26q-2 -2 -8 -9l-15 -20q5 -166 5 -267q0 -14 -10.5 -24.5t-24.5 -10.5t-24.5 10.5t-10.5 24.5q0 71 -2 150t-5 175q-3 82 -4 150q-1 45 1 129q2 86 1 130
q0 15 10 25.5t24.5 10.5t25 -10t10.5 -24q1 -44 -1 -130t-1 -129q1 -52 3 -110l8 7q38 34 76.5 51.5t87.5 15.5q75 -4 112 -73q27 -49 34 -135q4 -48 3 -143q-1 -81 3 -103q2 -15 -6.5 -26.5t-23 -14t-26 6t-14.5 22.5z" />
    <glyph glyph-name="i" unicode="i" horiz-adv-x="247" 
d="M122 432q3 -22 3 -46t-1 -40l-4 -43q-3 -26 -4 -38q-2 -53 -2 -74.5t2.5 -76t3.5 -78.5q0 -15 -10 -25.5t-24.5 -10.5t-25 10t-10.5 24q-1 20 -3.5 76t-2.5 80t2 81q1 16 4 41t4 39t1 33.5t-3 37.5q-2 14 7 26t23 14t26 -7t14 -23zM67 621l-6 27q-2 5 -2 8q-1 4 -1 7
q0 5 1 9q4 20 23 26q17 6 32 -5q4 -3 6 -6q2 -2 4 -5q2 -2 5 -8l13 -23q7 -13 3.5 -27t-15.5 -21q-6 -3 -12 -4q-4 -3 -9 -4q-15 -3 -27 4.5t-15 21.5z" />
    <glyph glyph-name="j" unicode="j" horiz-adv-x="263" 
d="M88 591q0 1 -1 1t-1.5 0.5t-3.5 1.5t-7 3q-27 11 -34 34q-4 17 5 36q5 10 13 21q18 22 38 33q18 10 35 5q17 -4 24 -16t7 -24q1 -24 -21 -69q-1 -8 -5 -15q-8 -12 -22 -15t-27 4zM127 434q12 -114 8 -325q-4 -227 3 -316q1 -15 -8.5 -26t-24 -12t-25.5 8.5t-12 23.5
q-7 98 -3 324q4 206 -8 315q-1 15 8 26t23.5 12.5t25.5 -7.5t13 -23z" />
    <glyph glyph-name="k" unicode="k" horiz-adv-x="513" 
d="M124 801q1 -47 -3 -157q-4 -100 -1 -152q4 -79 10 -209q13 11 61.5 49t78.5 64l59 52q11 10 25.5 9t24.5 -11.5t9 -25t-11 -24.5q-47 -44 -143 -120q8 -27 21 -53.5t34 -56.5l34 -48q13 -18 43 -56l40 -50q9 -11 7 -25.5t-13.5 -23.5t-26 -7t-23.5 14l-35 44l-41 52
l-35 50q-21 29 -36.5 57.5t-26.5 56.5l-26 -21q-7 -6 -16 -8l7 -149q1 -15 -9 -25.5t-24.5 -11.5t-25 9t-11.5 24l-10 211l-11 229q-3 56 1 158q4 108 3 153q0 15 10 25.5t24.5 10.5t25 -10t10.5 -24z" />
    <glyph glyph-name="l" unicode="l" horiz-adv-x="232" 
d="M124 802q5 -28 7 -63t2 -59t-1.5 -63.5t-1.5 -55.5q-4 -368 -20 -556q-1 -14 -12 -23.5t-25.5 -8.5t-24 12t-8.5 26q16 186 20 550q0 20 1.5 58.5t1.5 61t-1.5 53.5t-5.5 56q-3 14 5.5 26t22.5 14.5t26 -6t14 -22.5z" />
    <glyph glyph-name="m" unicode="m" horiz-adv-x="775" 
d="M68 28q-7 59 -8.5 119t0 151t1.5 115q0 14 10.5 24.5t24.5 10.5t24 -9t11 -23q55 44 127 37q76 -8 112 -76q22 43 56 67.5t74 25.5q47 1 88 -30q40 -31 64 -86q19 -43 23 -140q2 -45 -5 -173q-1 -14 -11.5 -24t-25 -9t-24.5 11.5t-9 25.5q7 126 5 167q-3 82 -17 114
q-17 39 -41 56.5t-46 17.5q-21 0 -43 -19t-36 -60q-6 -17 -10 -38t-5 -35t-3 -44l-4 -41v-70q-1 -25 -1 -39q-1 -8 -1 -13q-1 -4 -1 -7q-1 -4 -3 -7q-2 -6 -5 -10q-11 -12 -27 -12q-18 0 -28 14q-4 5 -5 10q-2 3 -2 7q-1 3 -1 8v15q0 15 1 41l3 66v6q0 105 -10 143
q-9 32 -25 48.5t-45 19.5q-31 3 -53.5 -8t-49.5 -40q-7 -8 -17 -11q-3 -196 8 -288q1 -14 -7.5 -25.5t-23 -13t-26 7t-13.5 23.5z" />
    <glyph glyph-name="n" unicode="n" horiz-adv-x="553" 
d="M61 13q0 250 14 415q1 14 12.5 23.5t25.5 8.5t23.5 -12.5t8.5 -25.5l-2 -28q40 39 86 54q33 10 64.5 8t61.5 -22.5t53 -57.5q41 -67 45 -181q1 -31 -1 -92q-2 -66 -2 -82q0 -14 -10.5 -24.5t-24.5 -10.5t-24.5 10.5t-10.5 24.5q0 18 2 85q2 60 1 86q-4 97 -35 148
q-38 62 -97 42q-28 -9 -55 -34t-44 -57q-6 -10 -16 -15q-5 -109 -5 -263q0 -14 -10.5 -24.5t-24.5 -10.5t-24.5 10.5t-10.5 24.5z" />
    <glyph glyph-name="o" unicode="o" horiz-adv-x="589" 
d="M246 61q6 3 13 3q69 1 111 46.5t48 109.5q6 61 -23 101q-31 42 -91 40q-123 -4 -162 -39q-43 -39 -16 -145q19 -76 57 -99q23 -15 63 -17zM307 -8q-106 -8 -161 26q-62 38 -88 141q-38 148 37 215q59 53 207 57q97 3 149 -68q46 -62 37 -150q-7 -68 -47.5 -126
t-108.5 -81q-10 -13 -25 -14z" />
    <glyph glyph-name="p" unicode="p" horiz-adv-x="589" 
d="M136 172l4 -4q27 -35 49 -56t50 -33q77 -33 125 4q45 35 54 112q10 80 -26 139q-35 60 -101 63q-45 2 -78 -16.5t-64 -58.5q-6 -8 -16 -12q4 -71 3 -138zM63 -233q-7 50 -7.5 101.5t4.5 129.5l5 96q5 140 -7 308q-1 14 8.5 25t24 12t25.5 -8.5t12 -24.5v-2q70 67 165 63
q56 -2 97 -29q42 -28 64 -70t30.5 -89t3.5 -92q-13 -106 -81 -159q-81 -63 -196 -13q-42 18 -77 53l-4 -72q-3 -54 -3.5 -79t0.5 -66q1 -39 6 -74q2 -14 -7 -26t-23 -14t-26 7t-14 23z" />
    <glyph glyph-name="q" unicode="q" 
d="M390 134q7 93 -23 162q-38 84 -124 76q-39 -3 -64.5 -25t-47.5 -67q-21 -46 -18 -91t28 -80q24 -35 61 -48t90 1q17 6 35.5 18t28.5 22zM397 -233q-5 77 0 191q0 9 4 90q-46 -39 -87 -52q-76 -22 -135 -1.5t-96 74.5q-35 51 -40 115t26 128q28 56 67 90t101 40
q103 9 163 -68v41q0 14 10.5 24.5t24.5 10.5t24.5 -10.5t10.5 -24.5q0 -37 2.5 -129.5t1.5 -142.5q-1 -28 -2 -59.5t-3 -69.5t-2 -59q-5 -110 0 -184q1 -14 -8.5 -25t-24 -12t-25.5 8.5t-12 24.5z" />
    <glyph glyph-name="r" unicode="r" horiz-adv-x="439" 
d="M287 364q-46 26 -79 19q-26 -6 -47 -37q-19 -27 -30 -69q-1 -6 -1 -11q-3 -46 -6 -58v-45v-13v-28q0 -18 1 -32v-47q0 -10 -1 -16v-6v-4q-1 -3 -1 -5q-2 -10 -13 -18q-14 -11 -31 -7q-18 3 -26 20q-5 9 -6 24v15v8q-2 25 -1 120q1 59 15 114q2 38 2 147q0 14 10.5 24.5
t24.5 10.5t24.5 -10.5t10.5 -24.5v-15q27 23 60 31q59 13 128 -27q13 -7 17 -21t-3.5 -26.5t-21.5 -16.5t-26 4z" />
    <glyph glyph-name="s" unicode="s" horiz-adv-x="456" 
d="M227 346q-19 18 -27.5 25t-20 13t-23.5 6q-23 0 -34 -33q-13 -38 1 -66q8 -15 33 -26q14 -6 67 -20q52 -14 76 -28q45 -25 55 -70q9 -41 -13.5 -76t-59.5 -59q-33 -21 -73 -30t-73 0q-13 4 -24 10t-19 14.5t-12 13.5t-10.5 15.5t-8.5 12.5q-8 12 -5.5 26.5t14.5 22.5
t26.5 5.5t22.5 -14.5q4 -7 9.5 -15t7 -10.5t5 -6t6 -4.5t8.5 -2q15 -5 40 1t49 21q49 30 42 61q-3 13 -21 23q-17 10 -60 21q-55 15 -77 24q-48 21 -67 58q-13 25 -14.5 59t9.5 62q11 33 36.5 56.5t63.5 23.5q9 0 18 -1t17.5 -4t15 -6t14.5 -8l13 -8q5 -3 12.5 -9.5t10 -9
t9.5 -9t9 -7.5q10 -10 11 -24.5t-9 -25t-24.5 -11.5t-25.5 9z" />
    <glyph glyph-name="t" unicode="t" horiz-adv-x="355" 
d="M125 598q7 -55 4 -138q60 -1 93 -3q14 -1 24 -12t9 -25t-12 -24t-25 -9q-33 2 -92 4q-1 -18 -1 -31q-1 -56 2.5 -158.5t3.5 -144.5q0 -14 -10.5 -24.5t-24.5 -10.5t-24.5 10.5t-10.5 24.5q0 42 -3.5 145.5t-2.5 159.5q0 14 1 31q-16 0 -30 1t-24 11.5t-9 25t11.5 24.5
t25.5 9t29 -1q3 76 -4 127q-2 14 7 25.5t23.5 13.5t26 -7t13.5 -24z" />
    <glyph glyph-name="u" unicode="u" horiz-adv-x="552" 
d="M145 438q-10 -15 -13 -27t-4 -36t-4 -45q-17 -110 -16 -157q2 -88 43 -122q25 -21 65 -25q68 -8 114 56q44 61 50 144q7 106 -8 165q-4 14 3.5 26.5t21.5 16.5t26.5 -3.5t16.5 -21.5q18 -71 10 -187q-7 -105 -63 -182q-71 -96 -179 -84q-60 7 -101 41q-66 54 -69 174
q-1 54 16 169q1 6 3 36.5t8 53.5t20 46q8 12 22 15t26.5 -4.5t15.5 -21.5t-4 -27z" />
    <glyph glyph-name="v" unicode="v" horiz-adv-x="517" 
d="M76 459q12 -40 71 -191q29 -72 48 -115q10 -22 16 -34l1 1l1 1q2 7 9 19l30 64l34 68l30 62q19 36 36 65q7 13 21 17t26.5 -3.5t16.5 -21.5t-4 -26l-35 -65q-18 -35 -30 -60l-32 -68q-20 -41 -31 -62q0 -1 -1 -4t-3 -6.5t-4.5 -9t-6 -10t-8 -9.5t-9.5 -9q-39 -27 -74 -11
q-10 5 -19 18l-8 14q-8 15 -20 41q-20 45 -49 118q-62 156 -74 197q-4 14 3 27t21 17t27 -3t17 -21z" />
    <glyph glyph-name="w" unicode="w" horiz-adv-x="791" 
d="M83 445q7 -19 85 -161l56 -99l10 -18q5 11 10 28q6 18 22 77t22 77q7 18 12 29q4 8 8 13q8 11 19 15q23 10 49 -4q14 -8 25 -21q12 -13 15 -35l2 -12q12 -32 40 -93l31 -71q9 19 34 72q80 173 103 211q8 13 22 16t26.5 -4.5t15.5 -21.5t-4 -26q-15 -24 -99 -204
q-31 -66 -47 -97q-12 -21 -22 -33q-7 -8 -14 -13q-15 -11 -32 -9q-33 6 -37 45l-1 12q-9 26 -40 94q-29 64 -42 98q-1 2 -1 4q-6 -19 -18 -60q-16 -61 -22 -79q-14 -45 -25 -59q-12 -15 -29 -24q-26 -12 -49 -2l-13 8q-1 2 -2.5 4t-3.5 4q-2 4 -6 11l-20 33l-56 100
q-82 147 -90 171q-5 14 1.5 27t20 18t26.5 -1.5t18 -19.5z" />
    <glyph glyph-name="x" unicode="x" horiz-adv-x="558" 
d="M249 299q93 102 147 167q9 11 23.5 12.5t25.5 -7.5t12.5 -23.5t-7.5 -25.5q-58 -71 -161 -183q41 -62 75.5 -104.5t74.5 -73.5q12 -9 14 -23.5t-7 -26t-23.5 -13.5t-25.5 7q-74 58 -157 181l-135 -153q-9 -12 -23.5 -13t-26 8t-12.5 23.5t8 25.5q53 64 149 169
q-76 115 -134 166q-11 9 -12 23.5t8.5 25.5t24 12t25.5 -9q63 -55 137 -165z" />
    <glyph glyph-name="y" unicode="y" horiz-adv-x="577" 
d="M473 420q-19 -41 -60.5 -113t-53.5 -95q-25 -46 -110 -215q-83 -165 -137 -257q-7 -12 -21 -15.5t-26.5 3.5t-16 21t3.5 27q54 91 165 313q-14 5 -21 18q-23 50 -84 165q-58 110 -84 169q-6 13 -0.5 26.5t18.5 19.5t26.5 0.5t19.5 -18.5q21 -50 82 -164q55 -104 77 -149
l46 90l53 94q41 70 61 110q6 13 19.5 18t26.5 -1.5t18 -20t-2 -26.5z" />
    <glyph glyph-name="z" unicode="z" horiz-adv-x="617" 
d="M67 434q49 12 136 12h78h19q12 0 28 0.5t27 0.5h36h13q4 -1 6 -1q4 -1 7 -2q12 -3 19 -15q16 -27 -7 -64q-12 -18 -39 -47q-40 -42 -120 -110l-121 -102l-22 -20q18 2 53 9q75 14 87 15q63 5 218 -7q14 -1 23.5 -12t8.5 -25.5t-12 -24t-26 -8.5q-145 12 -206 7
q-9 -1 -80 -14q-66 -13 -92 -8q-19 3 -35 12q-26 16 -30 42q-1 12 5 24q2 4 6 10q5 6 14 15q14 14 42 38l122 102q78 67 115 105l10 11q-68 -1 -69 -1h-78q-79 0 -120 -10q-14 -3 -26.5 4.5t-15.5 21.5t4.5 26.5t21.5 15.5z" />
    <glyph glyph-name="braceleft" unicode="{" horiz-adv-x="395" 
d="M254 727q-8 1 -18 3l-16 3q-5 1 -11 1.5t-9.5 0t-7.5 -2.5q-7 -4 -10 -10q-3 -8 -2 -43q1 -27 7 -89q14 -142 6 -181q-11 -60 -69 -90l-12 -6q-5 -3 -8 -4.5t-6 -3.5q2 -2 10 -6q0 -1 7 -4t13 -6t14 -8t15 -12t12 -15q16 -26 17 -70v-32q-1 -20 -1 -25q0 -9 -2 -59
t-3 -82q0 -48 2 -77q1 -15 4 -24v-2q5 -3 13 -4q7 -1 16 -2q3 0 9.5 -0.5t9.5 -0.5q14 -1 23.5 -12.5t8.5 -25.5t-12.5 -23.5t-25.5 -8.5q-3 0 -9 0.5t-9 0.5q-13 1 -23 3q-34 6 -53 26q-11 11 -16 33q-4 14 -6 34q-2 32 -2 84q1 32 3 81.5t2 58.5q0 6 1 28v27q-1 26 -7 36
l-2 2q-1 1 -4 2.5t-5.5 3t-9 4.5t-13.5 7q-22 11 -33 26q-17 23 -13 54q4 29 30 46q3 2 33 18q14 7 22 15.5t11 24.5q4 29 -8 162q-6 63 -7 93q-2 52 8 74q13 29 42 44q11 6 24 8.5t26.5 1.5t22.5 -2t20.5 -3.5t12.5 -3.5q14 -2 22.5 -14t6 -26t-14.5 -22.5t-26 -5.5z" />
    <glyph glyph-name="bar" unicode="|" horiz-adv-x="408" 
d="M290 721q6 -28 10 -59.5t6 -57.5t2 -65.5t-0.5 -60.5t-3 -65.5t-4 -59t-5.5 -62t-4 -54.5q-4 -45 -5.5 -99t-1.5 -91.5t0.5 -102t0.5 -94.5q0 -14 -10.5 -24.5t-24.5 -10.5t-24.5 10.5t-10.5 24.5q0 29 -0.5 95t-0.5 104t1.5 93t5.5 101q1 9 4.5 49t4.5 54l4 51
q2 37 2.5 55.5t1.5 51.5t0 55t-2.5 49.5t-5 51t-8.5 45.5q-3 15 4.5 27t22 15t26.5 -4.5t15 -21.5z" />
    <glyph glyph-name="braceright" unicode="}" horiz-adv-x="385" 
d="M43 790q3 0 7 0.5t10 1t10 0.5q23 2 39 2q62 -1 85 -28q11 -13 15 -39q3 -17 4 -44q1 -39 -2 -113q-7 -176 -5 -189q2 -17 7 -23q1 -1 6 -2q3 -1 5 -1h7q4 0 9 -1q11 0 20 -4q20 -9 24 -29q6 -25 -16 -46q-9 -8 -24 -18l-21 -13q-4 -3 -6 -4q-12 -15 -17 -85v-8
q-1 -17 1 -59q0 -7 1.5 -36.5t1.5 -45.5q2 -50 0 -81q-2 -46 -12 -68q-17 -35 -51 -45q-6 -2 -15 -3.5t-18.5 -2t-10.5 -1.5q-14 -2 -26 7t-14 23t7 26t23 14q12 1 21 1.5t14 2.5q3 1 6 8q5 10 6 41q2 28 0 76q0 16 -1.5 45t-1.5 36q-2 46 -1 66q0 2 0.5 14.5t1.5 19t2.5 20
t4 23t6 21.5t9 22t13.5 18q4 5 10 9q-9 6 -16 14q-20 22 -25 61q0 48 -0.5 49t2.5 72t3 79q3 71 2 108q-1 23 -3 35v4q-12 4 -31 4q-14 0 -34 -2l-28 -2q-15 -1 -25.5 9t-11.5 24.5t9 25t24 11.5z" />
    <glyph glyph-name="asciitilde" unicode="~" horiz-adv-x="719" 
d="M91 650q4 44 27 73q17 21 57 44q71 40 147 -3q13 -7 33.5 -20t34 -20t29.5 -10q35 -7 67 14q33 21 72 64q10 11 24 12t25 -9t12 -24t-9 -25q-20 -23 -37 -39t-44 -35t-59 -26t-65 0q-22 4 -43.5 14t-46.5 26t-27 17q-22 12 -37.5 13.5t-41.5 -11.5q-28 -15 -37 -26
q-9 -12 -11 -35q-1 -14 -12 -23.5t-25.5 -8.5t-24 12t-8.5 26z" />
    <glyph glyph-name="exclamdown" unicode="&#xa1;" horiz-adv-x="288" 
d="M170 360q3 -13 1 -119t-2 -119q0 -41 6 -130t6 -134q0 -14 -10.5 -24.5t-24.5 -10.5t-24.5 10.5t-10.5 24.5q0 41 -6 130t-6 134q0 14 2 117t-1 117q-1 15 9 25.5t24.5 11.5t25 -9t11.5 -24zM103 509l24 26q10 10 24.5 11t25 -9t11.5 -24.5t-9 -25.5l-24 -26
q-10 -10 -24.5 -11t-25 9t-11.5 24.5t9 25.5z" />
    <glyph glyph-name="cent" unicode="&#xa2;" horiz-adv-x="560" 
d="M330 677q3 -44 3 -83q0 -6 -2 -12q49 -9 108 -34q13 -5 18.5 -18.5t0 -27t-19 -19t-27.5 0.5q-134 57 -196 21q-41 -23 -53 -86q-12 -66 14 -128q27 -63 77 -81q61 -21 144 30q12 7 26 4t21.5 -15.5t4.5 -26.5t-16 -22q-50 -30 -97 -41q0 -15 -1 -57q0 -14 -10.5 -24
t-25 -10t-24.5 10.5t-10 25.5q1 40 1 52q-19 2 -36 8q-80 28 -118 120q-34 81 -19 167q18 96 88 136q35 20 82 21v6q0 37 -3 79q-1 14 8.5 25t24 12t25.5 -8.5t12 -24.5z" />
    <glyph glyph-name="sterling" unicode="&#xa3;" horiz-adv-x="636" 
d="M450 515q-33 74 -83 111q-54 41 -110 16q-59 -26 -77 -56q-20 -32 -22.5 -67.5t6.5 -65.5t28 -72l14 -29q93 4 145 4q14 0 24.5 -10.5t10.5 -24.5t-10.5 -24.5t-24.5 -10.5q-46 0 -115 -2q3 -7 5 -14q23 -70 1 -122q-2 -6 -4 -11q14 -1 27 -4q32 -9 73 -31q38 -21 49 -25
q17 -6 33 0q23 8 55 43q10 10 24.5 11t25 -9t11.5 -24.5t-9 -25.5q-44 -47 -84 -61q-38 -14 -79 0q-16 5 -60 29q-33 19 -57 25q-31 8 -91 -18q-2 -2 -11 -10q-32 -25 -60 -4q-13 10 -16 25q-2 16 7 29q6 9 19 16q3 2 13 7l5 3q6 5 18.5 14t17 12t11.5 9.5t11 12.5t7 13
q11 29 -3 74q-5 15 -13 33q-75 -3 -123 -3q-14 0 -24.5 10.5t-10.5 24.5t10.5 24.5t24.5 10.5q39 0 91 2l-1 2q-16 34 -25 61t-15.5 63.5t1.5 73.5t30 72q30 49 109 84q93 42 180 -24q63 -48 105 -139q6 -13 1 -26.5t-18.5 -19.5t-27 -1t-19.5 19z" />
    <glyph glyph-name="currency" unicode="&#xa4;" horiz-adv-x="688" 
d="M374 558q-123 60 -211 -19q-21 -19 -35 -59t-14 -86q-1 -48 13 -83.5t38 -50.5q30 -20 100 -29q54 -8 68 -5q41 6 74.5 36t50.5 68.5t15.5 83.5t-26.5 79q-3 4 -7 8.5t-11.5 10t-12.5 8.5l-14 10q-11 8 -15 10q-9 7 -13 18zM35 695l49 -47l44 -43q1 -1 2 -3
q128 102 299 5q74 74 102 97q11 9 25.5 8t23.5 -12.5t8 -26t-13 -23.5q-29 -24 -87 -83q7 -10 7 -22q6 -6 10 -12q44 -68 38.5 -144.5t-52.5 -139.5q14 -22 70 -89q9 -11 8 -25.5t-12.5 -23.5t-26 -8t-23.5 13q-52 62 -66 82q-45 -33 -96 -42q-25 -4 -90 5q-85 12 -128 39
l-3 2q-59 -53 -90 -94q-9 -11 -23.5 -12.5t-26 7t-13 23t6.5 26.5q36 44 99 102q-34 57 -33 140q1 91 40 157l-6 4q-12 13 -44 43.5t-49 48.5q-10 10 -10 24.5t10.5 24.5t25 10t24.5 -11z" />
    <glyph glyph-name="yen" unicode="&#xa5;" horiz-adv-x="631" 
d="M525 671q-14 -22 -54 -77.5t-56 -79.5l-13 -18q32 -1 76 -3q14 -1 24 -11.5t9 -25t-11.5 -24.5t-25.5 -9q-41 2 -83 3q-16 0 -26 13q-28 -46 -37 -73q-3 -10 -6 -24q23 -1 75 -2.5t80 -2.5q14 -1 24 -11.5t9 -25t-11.5 -24.5t-25.5 -9q-31 2 -81 3q-52 1 -75 2
q-1 -21 0 -48q0 -147 -1 -167q-1 -14 -12 -23.5t-25.5 -8.5t-24 12t-8.5 26q1 16 1 160q-1 23 0 41q-34 0 -96 -1t-84 -1q-14 0 -24.5 10.5t-10.5 24.5t10.5 24.5t24.5 10.5q21 0 85 1t99 0q1 12 3 22l-1 1l-57 67q-44 -6 -136 -6q-14 0 -24.5 10.5t-10.5 24.5t10.5 24.5
t24.5 10.5q59 0 84 1q-71 92 -128 185q-7 12 -4 26t15.5 21.5t26.5 4.5t22 -16q69 -113 159 -223l4 -6l41 -49q24 47 77 123l56 78l54 77q8 12 22 15t26 -5t15 -22t-5 -26z" />
    <glyph glyph-name="brokenbar" unicode="&#xa6;" horiz-adv-x="414" 
d="M300 698q14 -111 14 -282q0 -14 -10.5 -24.5t-24.5 -10.5t-24.5 10.5t-10.5 24.5q0 167 -14 274q-2 14 7 25.5t23.5 13.5t26 -7t13.5 -24zM286 151q18 -129 5 -299q-1 -14 -12 -23.5t-25.5 -8.5t-24 12t-8.5 26q11 164 -5 283q-2 15 7 26.5t23.5 13.5t26 -7t13.5 -23z
" />
    <glyph glyph-name="section" unicode="&#xa7;" horiz-adv-x="595" 
d="M242 425q-4 -5 -8 -8q-73 -51 -77 -101q-4 -38 35 -70q42 -34 100.5 -37t101.5 32q25 23 24 79q-1 40 -34 60q-22 13 -99 33q-27 6 -43 12zM427 608q-29 87 -73 110q-29 16 -59.5 11.5t-56 -21t-42.5 -45.5t-18 -62q-2 -57 31 -83q25 -20 93 -38q87 -22 117 -40
q67 -39 69 -118q2 -90 -48 -133q-40 -35 -94 -46q11 -9 31 -27q56 -49 75 -124q22 -94 -39 -151q-14 -14 -50 -23q-24 -7 -41 -9q-85 -9 -149 26.5t-101 112.5q-6 13 -1 26.5t18 20t26.5 1.5t20.5 -18q53 -113 178 -99q12 1 31 6q7 2 13 4t6.5 2.5t0.5 -0.5q31 30 18 84
t-52 89q-37 32 -61.5 47.5t-53.5 19.5q-13 2 -21.5 12.5t-8.5 23.5q-21 11 -38 25q-68 55 -61 131q7 72 85 135q-3 2 -6 5q-61 48 -58 140q2 48 27 92t64 71t88 34t99 -20q23 -12 41 -29.5t30.5 -40t20.5 -40t15 -40.5q5 -14 -1.5 -27t-20.5 -17.5t-27 2t-17 20.5z" />
    <glyph glyph-name="dieresis" unicode="&#xa8;" horiz-adv-x="497" 
d="M134 550q-32 35 -36 61q-4 22 9 38q12 14 31 17q22 3 45 -8q30 -15 36 -40q5 -21 -8 -44q-3 -4 -4.5 -6.5t-2 -3.5t-0.5 -2l-2 -1q-4 -12 -14.5 -17.5t-22.5 -4.5q-18 -2 -31 11zM351 551q-31 8 -50 25q-26 23 -22 49q3 23 23 33q14 6 31 3q23 -4 51 -25q9 -8 12 -20
t-2 -22q2 -9 0 -18q-4 -14 -16.5 -21.5t-26.5 -3.5z" />
    <glyph glyph-name="copyright" unicode="&#xa9;" horiz-adv-x="886" 
d="M510 660q-66 13 -143.5 4.5t-131.5 -40.5q-52 -31 -89 -104q-35 -70 -38.5 -148t22 -144.5t81.5 -118t133 -70.5q62 -16 96 -6q79 25 164 103q89 82 104 154q12 56 7 121q-5 66 -27 116q-21 48 -97 93q-34 20 -81 40zM530 727q7 -1 13 -5q46 -19 84 -42q96 -57 125 -125
q26 -62 32 -138q7 -77 -8 -141q-19 -94 -124 -191q-97 -89 -192 -118q-52 -17 -134 4q-94 24 -162.5 87t-99 144t-26.5 174t46 176q46 91 115 132q94 56 235 53q15 21 40 12q32 -11 56 -22zM510 497q-23 18 -41 24t-50 7q-68 3 -111 -41.5t-48 -110.5t31.5 -116t110.5 -57
q13 -2 28 2t25 8.5t33 16.5l34 17q13 6 26.5 1t20 -18t1.5 -26.5t-18 -20.5q-4 -1 -29.5 -14.5t-40 -19.5t-40.5 -12t-48 -4q-71 7 -120 46.5t-68.5 91.5t-14.5 110q4 58 31 107t79.5 81t119.5 29q42 -2 70.5 -11t60.5 -34q12 -9 14 -23.5t-7 -26t-23.5 -13.5t-25.5 7z" />
    <glyph glyph-name="ordfeminine" unicode="&#xaa;" horiz-adv-x="418" 
d="M246 569q2 30 3 51q-46 40 -91 43q-44 2 -59 -49q-3 -9 -5 -30t-1 -25q9 -33 25 -45q11 -8 30 -5q46 6 94 56zM314 702q4 -29 4.5 -63t-1.5 -59l-5 -61q-3 -36 -4 -56q-1 -14 -11.5 -24t-25 -9t-24.5 11.5t-9 25.5v5q-41 -27 -80 -33q-47 -7 -81 18q-37 27 -52 84
q-4 16 -1 49q3 29 7 44q16 52 51 76.5t80 22.5q41 -2 84 -26q6 21 28 25q14 2 25.5 -6.5t14.5 -23.5z" />
    <glyph glyph-name="guillemotleft" unicode="&#xab;" horiz-adv-x="585" 
d="M264 404q-23 -23 -82 -90q-30 -34 -47 -57l-14 -17q4 -7 11 -17q16 -24 47 -60q55 -64 90 -96q10 -10 11 -24.5t-9 -25t-24.5 -11.5t-25.5 9q-34 32 -95 103q-34 40 -52 65q-11 17 -17 29q-10 21 -8 38q2 11 13 27q6 9 17 24q19 24 50 59q61 69 87 94q10 10 24.5 10
t24.5 -10.5t10 -25t-11 -24.5zM472 413q-43 -36 -105 -121l-17 -22q-11 -12 -16 -20q-12 -18 -11 -25q6 -28 56 -83q25 -27 87 -84q10 -10 11 -24.5t-9 -25t-24.5 -11.5t-25.5 9q-64 60 -90 88q-64 70 -73 117q-7 36 21 78q6 8 20 26q12 15 15 19q66 91 117 133
q11 9 25.5 7.5t23.5 -12.5t7.5 -25.5t-12.5 -23.5z" />
    <glyph glyph-name="logicalnot" unicode="&#xac;" horiz-adv-x="582" 
d="M21 278q46 0 138.5 -2.5t138.5 -2.5q9 0 30 1.5t28 2.5q48 3 72 -6q36 -12 49 -42q4 -9 5 -24q1 -9 1 -24q0 -22 -2 -59l-3 -38l-2 -38q-1 -15 -1 -22q0 -14 -10.5 -24.5t-24.5 -10.5t-24.5 10.5t-10.5 24.5q0 7 1 22l2 40q2 25 3 40q2 35 2 56q0 11 -1 18v1q-2 3 -6 4
q-12 4 -46 2q-5 0 -29 -2t-33 -2q-46 0 -138.5 2.5t-138.5 2.5q-14 0 -24.5 10.5t-10.5 24.5t10.5 24.5t24.5 10.5z" />
    <glyph glyph-name="registered" unicode="&#xae;" horiz-adv-x="898" 
d="M356 374q13 0 19 1q43 4 66.5 30.5t14.5 63.5q-4 19 -22 33.5t-43 20.5q-18 4 -29.5 2t-16.5 -5t-6 -6q-1 -1 -2 -12q-1 -14 -1 -38q0 -32 1 -88q5 -1 9 -1q4 -1 10 -1zM361 684q-8 -7 -18 -8q-13 -1 -25 -5l-2 -1q-7 -7 -13 -12q-14 -12 -31 -7q-31 -17 -79 -59
q-53 -47 -82.5 -110.5t-31 -127.5t18.5 -127q32 -96 110 -153t188 -49q35 2 85.5 30t101.5 72t88 91t49 83q15 56 3 112q-12 55 -46 109q-64 100 -284 155q-15 4 -32 7zM280 733q17 15 33 21q11 5 31 3q11 -1 26 -4q20 -3 39 -8q48 -12 87.5 -25t88 -35t87.5 -54t65 -71
q26 -41 41.5 -85.5t20 -96t-12.5 -99.5q-15 -47 -58 -101.5t-99 -103.5q-57 -49 -117.5 -82t-111.5 -37q-135 -9 -232.5 62t-136.5 187q-18 55 -21 114t10 117t46 113q32 53 81 96q79 68 133 89zM269 163q2 18 1 75q-1 21 -2 63.5t-1 52.5q-1 73 -1 111q0 26 2 42q1 22 5 33
q15 38 54.5 49t79.5 2q41 -10 74 -37t43 -69q14 -59 -13 -103t-77 -64l32 -44q58 -82 71 -96q10 -10 10 -24.5t-10.5 -24.5t-25 -10t-24.5 11q-17 18 -78 103l-40 56l-10 14h-6h-10h-5q1 -42 2 -63q1 -61 -1 -83q-1 -14 -12 -23.5t-25.5 -8.5t-24 12t-8.5 26z" />
    <glyph glyph-name="macron" unicode="&#xaf;" horiz-adv-x="550" 
d="M415 547q-26 0 -92 1t-113.5 0.5t-92.5 -3.5q-14 -1 -25 9t-12 24t9 25t24 12q45 3 93 3t116 -0.5t93 -0.5q14 0 24.5 -10.5t10.5 -24.5t-10.5 -24.5t-24.5 -10.5z" />
    <glyph glyph-name="degree" unicode="&#xb0;" horiz-adv-x="547" 
d="M236 537q6 0 12 -3q6 -2 13 -6l11 -6q7 -4 11 -4q2 2 19 8q31 11 51.5 36.5t23.5 53.5q8 59 -60 77q-34 9 -62 -13.5t-36 -65.5q-7 -42 11 -69zM295 444q-84 2 -123 62q-34 51 -21 120q5 30 19.5 57.5t38.5 49t55.5 29.5t70.5 -1q61 -17 89.5 -59t22.5 -95
q-6 -47 -38.5 -87.5t-82.5 -59.5h-1q-10 -16 -30 -16z" />
    <glyph glyph-name="plusminus" unicode="&#xb1;" horiz-adv-x="667" 
d="M316 600q-2 -37 0 -122q1 -44 1 -70q107 -9 161 -12q14 -1 24 -11.5t9 -25t-11.5 -24.5t-25.5 -9q-54 3 -159 12q-1 -17 -4 -58.5t-4.5 -71t-1.5 -58.5q0 -14 -10.5 -24.5t-24.5 -10.5t-24.5 10.5t-10.5 24.5q0 29 1.5 60t4.5 74t4 59q-121 10 -202 10q-14 0 -24.5 10.5
t-10.5 24.5t10.5 24.5t24.5 10.5q83 0 204 -9q0 19 -1 62q-2 86 0 128q1 14 11.5 24t25 9t24.5 -11.5t9 -25.5zM531 -6q-332 9 -485 9q-14 0 -24.5 10.5t-10.5 24.5t10.5 24.5t24.5 10.5q153 0 487 -9q14 0 24 -10.5t10 -25t-10.5 -24.5t-25.5 -10z" />
    <glyph glyph-name="uni00B2" unicode="&#xb2;" horiz-adv-x="433" 
d="M46 630q0 1 4 10.5t8 17.5l8 18q5 10 11 18.5t12 14.5q33 35 74.5 40.5t74.5 -14.5q32 -18 53.5 -51.5t24.5 -72.5q3 -37 -8 -72q-10 -35 -33.5 -69t-40.5 -53l-44 -49l-9 -9l-10 -11q8 0 17 -1q25 -1 66 -1q39 0 47 -1q14 -1 23.5 -12t8.5 -25.5t-12 -24t-26 -8.5
q-5 1 -41 1q-43 0 -69 1q-43 2 -68 8q-18 3 -29 10q-25 13 -27 37q-3 33 33 48l12 4q12 10 25 23l45 49q16 18 36 46t28 53t6 50q-2 22 -13.5 40.5t-28.5 27.5q-34 19 -65 -12q-6 -7 -29 -59q-6 -13 -19.5 -18.5t-26.5 0.5t-18.5 19.5t0.5 26.5z" />
    <glyph glyph-name="uni00B3" unicode="&#xb3;" horiz-adv-x="433" 
d="M222 568h1h-1zM34 647q55 69 109 85q40 13 92 4q66 -11 89 -54q23 -44 -7 -104q-12 -24 -29 -44q7 -5 12 -11q23 -24 28 -70q4 -35 -2 -66q-11 -59 -52 -89q-41 -31 -93 -30q-49 2 -92 30.5t-62 76.5q-5 14 1 27t19.5 18.5t26.5 -0.5t19 -19q10 -28 35.5 -45t54.5 -18
q28 -1 48 14.5t27 48.5q4 20 1 44q-3 23 -9 30q-4 3 -20 9q-2 0 -6 -0.5t-5 -0.5q-14 0 -24 3q-24 8 -29 33q-2 15 5 27q6 11 19 17q9 4 22 5h5h4q25 24 33 41q14 28 8 40q-7 13 -39 18q-34 6 -60 -1q-33 -11 -73 -63q-9 -11 -23.5 -13t-26 7t-13.5 23.5t7 26.5z" />
    <glyph glyph-name="acute" unicode="&#xb4;" horiz-adv-x="519" 
d="M410 683q-16 -16 -57 -64t-60 -67q-11 -10 -25 -10t-24.5 10.5t-10.5 24.5t10 25q22 22 57 62l58 67q10 10 24.5 10.5t25 -9t11 -24t-8.5 -25.5z" />
    <glyph glyph-name="uni00B5" unicode="&#xb5;" horiz-adv-x="527" 
d="M413 446q1 -14 5 -55t6 -65t3 -69t-4 -68q-10 -79 -48 -125q-47 -56 -133 -61q-70 -4 -104 16l-6 4q0 -19 -1 -40q0 -11 -1.5 -93.5t-1.5 -126.5q0 -14 -10.5 -24.5t-24.5 -10.5t-24.5 10.5t-10.5 24.5q0 44 1.5 127t1.5 95q2 89 0 152q-11 36 -17 85q-3 27 -4.5 61.5
t-2 53.5t0 56t0.5 39q0 14 10.5 24.5t24.5 10.5t24.5 -10.5t10.5 -24.5q0 -149 6 -200q12 -9 13 -25q2 -32 3 -59q17 -53 44 -69q15 -9 64 -6q56 3 83 36q26 30 33 89q4 20 3 60.5t-2.5 62.5t-6 61.5t-5.5 57.5q-1 15 8.5 26t24 12t25.5 -8.5t12 -23.5z" />
    <glyph glyph-name="paragraph" unicode="&#xb6;" horiz-adv-x="649" 
d="M372 -85q7 57 8.5 116t0 149t-1.5 120q0 33 2 116t0.5 140.5t-7.5 111.5q-53 0 -97 -4h-3q1 -109 0 -140q-3 -52 -10 -85q-3 -14 -7 -26q-1 -87 2.5 -249t3.5 -226q0 -14 -10.5 -24.5t-24.5 -10.5t-24.5 10.5t-10.5 24.5q0 68 -3.5 212t-2.5 219q-3 1 -7 2t-12 4
q-5 2 -6 2q-39 11 -73 36.5t-55 59.5q-23 39 -24 80.5t25 87.5q29 45 101 69q55 18 135 24q101 8 246 -3q14 -1 23.5 -12t8.5 -25.5t-12 -24t-26 -8.5q-35 3 -67 4q7 -54 8 -114t-1 -140.5t-2 -110.5q0 -26 1.5 -118t0 -154t-8.5 -121q-2 -15 -13.5 -23.5t-26 -7t-23 13
t-7.5 25.5z" />
    <glyph glyph-name="periodcentered" unicode="&#xb7;" horiz-adv-x="314" 
d="M116 302q-42 24 -51 56q-11 36 19 63q20 18 49 22q34 6 56 -11q18 -15 23.5 -37.5t-0.5 -38.5q-6 -19 -20 -34.5t-35 -19.5q-3 -1 -7 -1q-17 -9 -34 1z" />
    <glyph glyph-name="cedilla" unicode="&#xb8;" horiz-adv-x="442" 
d="M335 -115q-6 -6 -17 -21l-18 -24l-19 -23q-11 -13 -21 -23.5t-24.5 -10.5t-25 10t-10.5 24.5t10 24.5l22 24q10 13 26 34l21 29q9 11 23.5 13t26 -7t13.5 -23.5t-7 -26.5z" />
    <glyph glyph-name="uni00B9" unicode="&#xb9;" horiz-adv-x="346" 
d="M118 740l19 1q10 0 15 1q1 0 10 4q25 10 45 1t30 -31q4 -10 7 -26q4 -20 -0.5 -49t-4.5 -33q-9 -201 -9 -281q0 -14 -10.5 -24.5t-24.5 -10.5t-24.5 10.5t-10.5 24.5q0 81 9 285q0 7 6 40q2 16 1 24q-8 -3 -14 -4q-9 -1 -22 -1q-1 0 -7.5 -0.5t-10.5 -0.5q-15 -1 -25.5 9
t-11.5 24.5t9 25t24 11.5z" />
    <glyph glyph-name="ordmasculine" unicode="&#xba;" horiz-adv-x="431" 
d="M114 433q-47 18 -71 59q-30 55 -9 124q12 41 40.5 73t71.5 47q42 15 93 -7q50 -21 73 -64t18 -92q-4 -47 -33.5 -87t-77.5 -58q-3 -1 -8 -4q-9 -3 -13 -5q-21 -9 -39.5 -7t-36.5 16zM184 489q7 3 11 5q28 10 45.5 34t20.5 52q2 28 -10.5 50.5t-39.5 34.5q-34 14 -65.5 -6
t-44.5 -63q-13 -41 3 -69q9 -14 24 -23q8 -1 15 -5q2 -1 4 -3q12 -3 27 -4q5 -1 10 -3z" />
    <glyph glyph-name="guillemotright" unicode="&#xbb;" horiz-adv-x="567" 
d="M97 442q58 -55 101 -106q32 -40 48 -70q24 -48 9 -81q-17 -34 -60 -79l-27 -28q-24 -24 -34 -36q-10 -11 -24.5 -12t-25.5 8.5t-12 24t8 25.5l18 20l25 24q14 14 21 22q35 37 47 60q-3 11 -7 20q-13 24 -40 58q-40 47 -95 98q-10 10 -11 24.5t9 25t24.5 11.5t25.5 -9z
M321 461q27 -34 78 -112q28 -41 44 -69q10 -17 15 -28q8 -18 9 -30q1 -28 -24 -62q-19 -27 -64.5 -66.5t-58.5 -55.5q-10 -11 -24.5 -12t-25.5 8.5t-12 24t8 25.5q15 17 67 62q39 34 54 54q8 12 10 18q-1 1 -2 4q-4 8 -12 22q-16 27 -42 67q-50 75 -76 108q-9 11 -7 25.5
t13.5 23.5t26 7t23.5 -14z" />
    <glyph glyph-name="onequarter" unicode="&#xbc;" horiz-adv-x="1014" 
d="M859 131q7 1 14 3q15 2 26.5 -6.5t14 -23t-6 -26t-22.5 -14.5l-31 -4l-4 -45q-1 -14 -12 -23.5t-25.5 -8.5t-24 12t-8.5 26l3 36q-26 -1 -72.5 0t-62.5 1h-1q-2 -1 -13 -3q-39 -8 -54 23q-10 21 4 47q7 11 18 25q8 8 18 19q2 2 4.5 4t4 3.5t1.5 2.5q35 37 151 171
q0 1 1 2q0 1 2 4q1 3 4 8q20 34 54 25q18 -5 24 -24q2 -5 3 -11q1 -8 1 -21q0 -18 -2 -65q-2 -57 -9 -137zM678 128q96 -2 111 -1q6 83 9 136l-116 -132q-1 -1 -4 -3zM100 734l46 -3q17 -1 25 -2q5 0 8 -1h3q2 0 4 -1h3q2 -1 5 -2q7 -4 12 -10q3 -4 5 -8t2 -7l1 -2
q0 -3 1 -7q0 -5 1 -14v-42q0 -42 -2 -124q-3 -197 -3 -206q0 -15 -10 -25.5t-24.5 -10.5t-25 10t-10.5 24q0 10 3 210q2 81 2 122v26h-5l-45 3q-15 1 -24.5 12t-8.5 25.5t12 24t25 8.5zM690 692q-13 -14 -25.5 -29t-26.5 -36l-20 -33q-8 -11 -23.5 -39t-18.5 -35l-22 -42
l-19 -36l-83 -156q-31 -58 -82 -141q-50 -82 -100 -148q-9 -12 -23.5 -14t-26 7t-13.5 23.5t7 25.5q47 63 96.5 143t80.5 138l82 154l19 36l21 42l21 37q15 28 24 43l24 36q14 22 28 39l28 33q10 10 24.5 10.5t25 -9t11 -24t-8.5 -25.5z" />
    <glyph glyph-name="onehalf" unicode="&#xbd;" horiz-adv-x="964" 
d="M99 742q1 0 17 0.5t24 0.5h1l12 4q30 7 49 -10q9 -8 13 -22q2 -6 3 -14q1 -12 1 -29q0 -8 -2 -41q-10 -164 3 -323q1 -15 -8.5 -26t-24 -12t-25.5 8.5t-12 23.5q-14 164 -3 333q2 31 2 38v1q-3 -1 -5 -1q-1 0 -43 -1q-15 0 -25.5 10t-10.5 24.5t10 25t24 10.5zM692 715
l-32 -70q-20 -44 -37 -73q-16 -27 -56 -86q-35 -52 -51 -82l-224 -389q-8 -13 -22 -16t-26.5 4.5t-15.5 21.5t4 26q102 168 222 387q19 33 55 87q45 67 54 83q15 26 33 66l32 71q7 13 20.5 18t26.5 -1.5t18 -20t-1 -26.5zM580 343q24 41 64 63q39 21 81 16q45 -5 74.5 -38.5
t33.5 -88.5q4 -65 -50 -150q-27 -41 -65 -85h5q13 0 64 2h44q14 -1 24 -11.5t9 -25t-11.5 -24.5t-25.5 -9h-38q-52 -2 -65 -2q-41 0 -63 1q-15 0 -23 1q-7 2 -13 3q-20 9 -24 27q-8 34 28 52l10 5q52 53 85 104q42 65 39 108q-4 57 -46 62q-19 2 -40.5 -10t-36.5 -36
q-7 -12 -21 -15.5t-26.5 3.5t-16 21t3.5 27z" />
    <glyph glyph-name="threequarters" unicode="&#xbe;" horiz-adv-x="1024" 
d="M849 114q29 1 34 2q14 3 26 -5t14.5 -22.5t-5.5 -26.5t-23 -14q-10 -2 -52 -5q-1 -16 -1 -24q0 -14 -10.5 -24.5t-24.5 -10.5t-24.5 10.5t-10.5 24.5q0 7 1 21l-15 -1q-49 -1 -83 -2q-18 0 -29 1h-11q-4 1 -6 1q-9 2 -15 7q-17 13 -21.5 33t-0.5 36q7 33 59 87l23 24
l24 24q8 8 13 15l37 50q15 21 25 32l13 13q5 4 11 6q13 6 26 3q18 -5 26 -22q4 -8 6 -19q3 -14 4 -37q0 -35 -4 -99q-2 -29 -6 -78zM663 107h11q32 1 81 2q12 1 23 1q5 58 7 87q2 33 3 55l-21 -29q-7 -9 -17.5 -20.5t-26.5 -27.5l-22 -22q-29 -30 -38 -46zM22 646q1 1 7 9.5
t8 10.5l9 11q6 8 10 11.5t11 10.5t12.5 11t13 9t15 8.5t16.5 5.5q34 11 67 0t58 -35q23 -24 34 -57t4 -66q-6 -29 -24 -47q27 -35 30 -91q2 -57 -21 -97q-16 -27 -35 -40q-15 -11 -45 -20q-66 -21 -119 14q-34 23 -71 80q-7 13 -4 27t15.5 21.5t26.5 4.5t22 -15
q28 -45 50 -60q25 -16 58 -6q21 7 27 11q7 5 15 19q13 22 11 57.5t-17 53.5q-4 4 -12 7q-2 0 -5 -1t-4 -1q-13 -3 -22 -2q-17 2 -27 16q-9 14 -5 31q6 25 31 31q9 2 22 1q2 0 4.5 -0.5t3.5 -0.5q1 -1 2 -1l1 1q-1 1 -3 0q7 6 12.5 9.5t8 4t4 2.5t2.5 5q7 32 -20 60
q-26 26 -55 18q-12 -4 -23.5 -14t-19 -19t-23.5 -30q-9 -12 -23.5 -14t-26 7t-13.5 23.5t7 25.5zM689 691q-20 -36 -80 -123q-49 -70 -71 -117q-18 -36 -44 -103q-26 -68 -31 -79q-47 -114 -145 -257q-8 -12 -22.5 -14.5t-26.5 5.5t-14.5 22.5t5.5 26.5q95 137 139 243
l31 81q27 70 44 105q24 48 78 127q58 84 77 117q7 13 21 17t26.5 -3.5t16.5 -21.5t-4 -26z" />
    <glyph glyph-name="questiondown" unicode="&#xbf;" horiz-adv-x="495" 
d="M172 514q2 23 22 40q23 19 49 13q4 -1 8.5 -3t6.5 -4l1 -2q2 -1 4 -3l4 -6q4 -6 8 -13q12 -21 16 -38q3 -18 -3 -32q-10 -22 -35 -26q-25 -5 -71 19q-13 6 -17.5 20t2.5 27q2 4 5 8zM80 256q17 57 59 86t91 21q48 -7 80.5 -47t34.5 -100q1 -27 -7 -51.5t-18.5 -40.5
t-30 -33t-31.5 -25l-33 -21q-6 -4 -8 -6q-48 -30 -62 -48q-18 -25 -9 -60q9 -38 60 -38q26 -1 49.5 9t34.5 25q11 13 18 31.5t10 31.5l8 45q2 14 14 22.5t26 6t22.5 -14.5t5.5 -26q0 -1 -2 -12.5t-2 -13.5t-2.5 -13t-3.5 -15l-4 -14q-2 -10 -4 -15l-6 -14q-3 -9 -6 -15
l-8 -13q-5 -8 -10 -15q-23 -29 -62 -45t-79 -15q-43 0 -79 22.5t-48 67.5q-17 69 21 120q22 29 80 66q28 17 41.5 26.5t28.5 24t21 29.5t5 35q-1 36 -18 56.5t-38 23.5q-22 4 -42 -10t-29 -48q-4 -13 -17 -20.5t-26.5 -3.5t-21 17t-3.5 27z" />
    <glyph glyph-name="Agrave" unicode="&#xc0;" horiz-adv-x="739" 
d="M218 260q7 4 16 4q125 0 250 3q-14 32 -37 75l-69 135q-3 6 -14 33q-10 26 -17 42l-4 7l-12 -30l-35 -85q-55 -133 -78 -184zM25 35q7 30 22.5 61t38 66.5t28.5 47.5q40 74 118 260l34 86l22 51q5 12 9 18q2 5 4 8t4 5q6 8 15 11q34 12 62 -22q14 -16 28 -45
q6 -14 19 -46q10 -25 11 -27l70 -135q32 -62 52 -111q17 -9 18 -29q0 -5 -1 -11q4 -12 13 -35l12 -34q5 -13 13.5 -30.5t16.5 -31.5q8 -13 4 -27t-16.5 -21.5t-26.5 -3.5t-21 16q-10 17 -20 38q-9 20 -14 32.5t-14 38t-12 32.5q-141 -3 -280 -3q-13 0 -22.5 8t-11.5 20
l-24 -46q-12 -21 -32.5 -53.5t-32.5 -56t-18 -47.5q-4 -15 -16 -22t-26.5 -3.5t-21.5 15.5t-4 26zM356 781l-14 12q-6 5 -8.5 6.5t-3.5 2.5l-3 3q-2 1 -9 4l-27 14q-13 6 -17.5 20t2 27t20.5 17.5t27 -2.5l26 -13q10 -5 15 -8q2 -1 36 -27q11 -9 13 -23.5t-7 -26
t-23.5 -13.5t-26.5 7z" />
    <glyph glyph-name="Aacute" unicode="&#xc1;" horiz-adv-x="728" 
d="M187 237q104 6 289 20l-80 225q-1 4 -6 20l-11 30q-5 15 -12 27q-6 12 -11 20l-19 -43l-14 -34q-8 -20 -13.5 -32.5t-6.5 -16.5q-14 -29 -33 -65l-44 -80zM30 40q20 87 95 229l39 71l43 79q19 35 32 64q2 4 7 15l13 32l14 33q13 32 21 50l9 18q3 5 6 9q7 10 18 14
q37 13 69 -15q18 -17 34 -49q6 -11 11.5 -25.5t8.5 -24.5l8 -22q3 -10 4 -12l88 -246q20 -8 22 -30q1 -11 -5 -21l59 -180q5 -13 -2 -26t-20.5 -17.5t-26.5 2.5t-17 21l-60 180q-227 -17 -344 -24h-5q-40 -82 -53 -141q-3 -14 -15.5 -21.5t-26.5 -4.5t-21.5 15.5t-4.5 26.5z
M331 775l-58 54q-10 11 -10 25t10.5 24.5t24.5 10.5t25 -10q22 -23 54 -52q11 -10 12 -24.5t-9 -25t-24.5 -11.5t-24.5 9z" />
    <glyph glyph-name="Acircumflex" unicode="&#xc2;" horiz-adv-x="744" 
d="M208 283q75 -13 248 -13l-37 87q-25 59 -37 101q-2 5 -9 35l-13 53l-1 2l-45 -70q-28 -44 -80 -147q-11 -23 -26 -48zM1 6q11 60 40 121.5t72 133t59 102.5q53 106 84 153l52 82l23 36l7 11l2 3l1 1v1l2 2l2 2q2 3 4 4q4 3 8 4q11 5 23 2q14 -4 22 -18l5 -10q3 -7 7 -20
q5 -17 14 -53l13 -54q6 -27 7 -31q12 -37 36 -94q4 -11 12 -30l16 -36q7 -16 12 -30l8 -20q24 -8 24 -33q0 -9 -4 -17q48 -122 87 -189q7 -12 4 -26t-15.5 -21.5t-26.5 -4.5t-22 16q-42 69 -95 207q-228 -1 -313 19l-45 -75q-14 -26 -31.5 -69t-25.5 -83q-2 -14 -14 -22
t-26.5 -5.5t-22.5 14.5t-5 27zM218 794l-15 36q-6 13 -0.5 26.5t19 19t27 0t18.5 -19.5l15 -36q6 -13 0.5 -26.5t-19 -19t-27 0t-18.5 19.5zM400 809l-4 45q-1 14 8 25.5t23.5 12.5t26 -8t12.5 -24l4 -45q1 -14 -8 -25.5t-23.5 -12.5t-26 8t-12.5 24z" />
    <glyph glyph-name="Atilde" unicode="&#xc3;" horiz-adv-x="753" 
d="M166 194q-52 -103 -101 -181q-8 -12 -22.5 -15t-26.5 4.5t-15 22t4 26.5q42 65 85 148q-12 10 -13 26q-1 15 9 25.5t24 11.5q6 0 12 1l105 224l38 82l24 51l8 17q2 3 3 6l3 3l2 4q7 7 16 10q34 12 64 -23q14 -17 29 -48q10 -20 22 -49l11 -29l99 -230q11 -2 19 -10
t10 -20q2 -14 -7 -26l82 -201q6 -13 0.5 -26.5t-19 -19t-27 0t-18.5 19.5l-85 208q-70 -8 -174 -10q-15 0 -72.5 -0.5t-88.5 -1.5zM201 265q21 0 63 0.5t62 0.5q87 2 147 7q-50 121 -90 208q-1 2 -13 33q-10 27 -19 45q-3 7 -7 13l-15 -32l-38 -83zM149 830q49 79 97 97
q46 16 93 -17q9 -7 30 -25q17 -15 24 -20q18 -13 28 -10q12 3 33 26l20 23q14 17 21 24q10 11 24.5 11t25 -10t10.5 -24.5t-10 -24.5l-17 -20q-15 -18 -23 -26q-33 -37 -64 -47q-44 -13 -90 22q-9 7 -29 24q-15 14 -24 20q-17 12 -28 8q-25 -9 -61 -67q-8 -13 -22 -16
t-26.5 4.5t-15.5 21.5t4 26z" />
    <glyph glyph-name="Adieresis" unicode="&#xc4;" horiz-adv-x="781" 
d="M187 253q32 1 147 0q78 0 125 4q-50 89 -77 163q-13 37 -38 146l-3 15l-2 -4l-27 -57q-15 -34 -17 -38l-52 -112zM-4 2q12 27 32 79l30 77q10 25 30 61q27 46 31 55l60 124l54 114q2 5 17 38l26 57q17 37 29 57q8 13 14 21q6 6 11 10q15 11 31 7q14 -2 22 -14q2 -3 4 -8
q2 -3 4 -9q3 -8 6 -23q4 -14 15 -66q24 -104 36 -138q29 -80 96 -192q3 -5 5 -10l55 -88q48 -76 72 -119q8 -12 4 -26t-16.5 -21.5t-26.5 -3.5t-21 17l-36 59l-43 70l-38 61q-63 -8 -165 -8q-152 0 -181 -2h-5q-17 -30 -26 -51q-10 -24 -30 -76.5t-32 -79.5
q-6 -13 -19.5 -18.5t-26.5 0.5t-18.5 19.5t0.5 26.5zM196 804l-4 29q-2 6 -2 10v10q2 9 7 16q13 18 35 13q9 -1 17 -8q2 -2 4 -5q2 -2 4 -5q2 -2 5 -9l16 -27q7 -12 4 -26t-16 -22q-11 -7 -24 -4l-6 -2q-14 -2 -25.5 6.5t-14.5 23.5zM418 815v35q0 14 10.5 24.5t24.5 10.5
t24.5 -10.5t10.5 -24.5v-35q0 -14 -10.5 -24.5t-24.5 -10.5t-24.5 10.5t-10.5 24.5z" />
    <glyph glyph-name="Aring" unicode="&#xc5;" horiz-adv-x="774" 
d="M214 268q25 0 121.5 1.5t148.5 0.5q-71 134 -101 201q-2 5 -13 36l-18 46l-4 10l-25 -55l-26 -58q-32 -79 -83 -182zM0 -5q26 56 120 241q76 150 113 240q8 21 27.5 63t28.5 64v1q0 2 1 12q7 33 34 41q35 11 64 -25q14 -18 28 -51q9 -20 20 -51q10 -29 11 -31
q28 -61 114 -225l5 -9q21 -10 20 -34q0 -2 -1 -4q56 -109 86 -184q6 -13 0 -26.5t-19 -19t-26.5 0.5t-18.5 19q-30 73 -86 182q-22 3 -160.5 1t-160.5 -2q-10 0 -18 5q-89 -174 -118 -238q-6 -13 -20 -18t-27 1t-18 20t1 27zM336 745q-38 27 -46 34q-14 12 -20 22
q-8 15 -4 30q5 20 24 27q29 12 52 -15l3 -4q12 6 32 25q10 10 24.5 10t24.5 -10.5t10 -25t-11 -24.5q-19 -19 -36 -29q6 -17 -4 -31q-9 -12 -23 -14.5t-26 5.5z" />
    <glyph glyph-name="AE" unicode="&#xc6;" horiz-adv-x="1061" 
d="M226 260q46 1 131.5 4t120.5 3l-8 21q-7 19 -41 97q-27 62 -40 104l-20 66l-28 -63zM493 431q20 0 59.5 0.5t64 0.5t58.5 -1t63 -3q14 -1 23.5 -12t8.5 -25.5t-12 -24t-26 -8.5q-52 4 -216 3q12 -28 20 -49l17 -45q12 -2 20 -11.5t8 -22.5q0 -11 -7 -20q30 -73 57 -128
q164 12 298 2q14 -1 23.5 -12t8.5 -25.5t-12 -24t-26 -8.5q-127 8 -270 -1q-5 -12 -17 -18q-12 -7 -26 -2.5t-21 17.5q-41 76 -84 185q-43 -1 -149.5 -4.5t-164.5 -3.5l-3 -6q-13 -25 -59 -108q-37 -64 -55 -104q-6 -14 -19.5 -19t-27 1t-18.5 19.5t1 26.5q21 45 58 111
q46 82 58 105l151 306l51 110v3l1 5q1 4 1 6t-1 5q-2 14 7 25.5t24 13.5q173 22 274 22q14 0 24.5 -10.5t10.5 -24.5t-10.5 -24.5t-24.5 -10.5q-87 0 -214 -15l11 -36l26 -82q9 -33 29 -79q3 1 7 1z" />
    <glyph glyph-name="Ccedilla" unicode="&#xc7;" horiz-adv-x="747" 
d="M588 607q-88 84 -196 62q-101 -21 -177 -120q-50 -65 -70 -140t0 -155.5t85 -142.5q40 -37 92 -57q52 -19 104 -14q65 6 147 73q11 9 25.5 7.5t23.5 -12.5t7.5 -25.5t-12.5 -23.5q-99 -81 -185 -89q-68 -6 -134 19t-116 72q-61 57 -90 129q-30 72 -27 143t27.5 137
t67.5 122q43 55 99.5 93.5t118.5 51.5q144 30 258 -80q11 -10 11 -24.5t-10 -25t-24.5 -10.5t-24.5 10zM433 -129l-106 -121q-10 -10 -24.5 -11t-25 9t-11.5 24.5t9 25.5l106 119q10 11 24.5 12t25 -9t11.5 -24.5t-9 -24.5z" />
    <glyph glyph-name="Egrave" unicode="&#xc8;" horiz-adv-x="591" 
d="M459 656q-14 -1 -72 -2q-19 0 -63 -0.5t-53 -0.5q-75 -1 -111 -2h-18v-2q2 -23 7 -76q13 -122 12 -140q0 -4 -1 -10q176 1 280 17q14 2 25.5 -6.5t14 -23t-6 -26t-23.5 -14.5q-110 -16 -294 -17q-5 -67 -8 -117q-4 -73 -4 -116q-1 -23 0 -37q9 -2 24 -6q36 -7 94 -16
q119 -18 159 -19q14 0 24 -11t10 -25t-11 -24t-25 -10q-41 1 -167 20q-65 10 -99 17q-23 5 -37 10q-9 3 -15 6q-13 7 -19 17q-5 8 -7 20q0 7 -1 16q-1 16 0 43q0 44 4 119q3 37 5.5 81t5 76.5t2.5 39.5q1 13 -11 129q-8 75 -8 78q-1 17 -1 27v12q1 4 2 7q2 11 10 18
q3 4 7.5 6.5t7.5 2.5l3 1q3 0 6 1q5 0 13 1q14 1 38 1q37 1 112 2q10 0 53.5 0.5t63.5 0.5q56 1 66 2q14 1 25.5 -8.5t12.5 -23.5t-8.5 -25.5t-23.5 -12.5zM308 795l-63 58q-11 9 -12 23.5t8.5 25.5t24 12t25.5 -9q33 -28 65 -60q11 -10 11 -24.5t-10 -25t-24.5 -10.5
t-24.5 10z" />
    <glyph glyph-name="Eacute" unicode="&#xc9;" horiz-adv-x="588" 
d="M451 361q-206 0 -305 -7q1 -26 1.5 -60t1 -54.5t0.5 -28.5q0 -44 2 -82q1 -29 3 -47q0 -3 1 -5q8 -2 21 -3q31 -3 86 -4q27 -1 93 -1q49 -1 63 -2t23.5 -12t8.5 -25.5t-12 -24t-26 -8.5q-10 1 -58 2q-67 0 -94 1q-58 1 -91 5q-22 2 -35 5q-24 5 -35 17q-7 9 -11 25
q-2 9 -4 22q-2 20 -3 52q-2 39 -2 85q0 9 -1 96l-3 148q-1 93 2 148q1 33 3 53q2 12 4 20q3 14 9 22q11 15 39 21q16 3 41 5q38 2 105 1l72 -3q42 -1 66.5 -2t33.5 0q15 1 26 -8.5t12 -24t-8.5 -25.5t-23.5 -12h-43q-18 0 -65 2l-72 3q-64 1 -99 -1q-17 -1 -27 -3v-3
q-2 -18 -3 -48q-3 -53 -2 -144v-31q101 6 306 6q14 0 24.5 -10.5t10.5 -24.5t-10.5 -24.5t-24.5 -10.5zM236 768q-21 24 -43 38.5t-57 29.5q-13 6 -18.5 19t0.5 26.5t19 19t27 -0.5q41 -17 69 -36t55 -50q10 -11 9 -25.5t-12 -24t-25.5 -8.5t-23.5 12z" />
    <glyph glyph-name="Ecircumflex" unicode="&#xca;" horiz-adv-x="595" 
d="M476 384q-55 -28 -164 -37q-12 -1 -26 -2t-31 -2t-26 -2q-46 -3 -72 -7q0 -15 -1 -40q-4 -67 -5 -99q-2 -60 0 -92q0 -13 1 -23q8 -1 21 -2q31 -4 93 -9q150 -14 162 -16q15 -3 23.5 -14.5t6 -26t-14 -23t-25.5 -6.5q-7 1 -159 16l-94 9q-21 3 -32 4q-7 1 -12 2l-6 2
q-9 3 -15 9q-12 12 -16 37q-2 15 -3 38q-2 36 0 98q1 31 5 100q2 51 2 61q-1 33 -5.5 93t-5.5 76q0 4 -3 25q-3 23 -4 38q-2 25 0 43q4 28 18 44q8 9 22 13q7 2 16 4q15 2 40 3q42 3 111 4q132 2 185 -1q14 -1 24 -11.5t9 -25t-11.5 -24.5t-25.5 -9q-51 3 -180 1
q-68 -1 -107 -3q-20 -2 -31 -3q-1 -11 0 -30q1 -12 4 -35t3 -29q1 -22 4.5 -64.5t4.5 -63.5q27 4 68 7q9 0 25.5 1t30.5 2l27 2q95 8 137 30q13 7 27 2.5t20.5 -17.5t2 -27t-17.5 -20zM152 792l-12 16q-6 7 -6.5 8t-3.5 4l-6 6l-8 8q-7 7 -15 14q-10 11 -10 25t10.5 24.5
t24.5 10.5t25 -10q7 -8 15 -15.5t9.5 -9t6 -6.5t5 -5.5t7.5 -9.5t12 -16q9 -12 7.5 -26t-13 -23t-25.5 -7.5t-23 12.5zM336 776q-15 28 -30 45q-14 17 -39 36q-11 9 -13 23.5t7 26t23.5 13.5t26.5 -7q30 -24 49 -46.5t38 -56.5q7 -13 3 -27t-17 -21t-27 -3t-21 17z" />
    <glyph glyph-name="Edieresis" unicode="&#xcb;" horiz-adv-x="599" 
d="M447 358q-100 7 -314 -12q0 -31 1 -58q1 -82 3 -138q1 -32 2 -46q1 -4 1 -6q8 -3 22 -5q31 -5 91 -6h55h48q58 -1 80 -6q14 -3 21.5 -15.5t4.5 -26.5t-15.5 -21.5t-26.5 -4.5t-65 4h-48h-55q-65 1 -101 7q-24 4 -40 10q-27 11 -36 32q-3 6 -4 17q-1 6 -2 16q-1 13 -2 49
q-2 58 -3 138q-1 24 -3 230q0 4 -1 34q-2 30 -2 51q-1 32 0 52q1 13 2 22q3 17 11 26q12 15 40 21q18 4 45 6q42 4 116 2q53 -1 114 -4q68 -3 78 -3q14 0 24.5 -10.5t10.5 -24.5t-10.5 -24.5t-24.5 -10.5q-10 0 -79 3q-60 3 -114 4q-71 2 -110 -1q-20 -2 -32 -4q-1 -3 -1 -5
q-1 -18 0 -48q0 -21 1.5 -51.5t1.5 -34.5q0 -3 0.5 -37t0.5 -62q215 19 321 11q14 -1 23.5 -12t8.5 -25.5t-12 -24t-26 -8.5zM183 815q0 -14 -10.5 -24.5t-24.5 -10.5t-24.5 10.5t-10.5 24.5t10.5 24.5t24.5 10.5t24.5 -10.5t10.5 -24.5zM408 812q0 -14 -10.5 -24.5
t-24.5 -10.5t-24.5 10.5t-10.5 24.5t10.5 24.5t24.5 10.5t24.5 -10.5t10.5 -24.5z" />
    <glyph glyph-name="Igrave" unicode="&#xcc;" horiz-adv-x="267" 
d="M158 710q2 -47 -8.5 -138t-11.5 -106q-2 -40 1 -100q0 -5 2.5 -44t3.5 -60q0 -10 2 -122q1 -74 6 -117q1 -15 -8 -26t-23.5 -12.5t-25.5 7.5t-13 23q-5 46 -6 124q-2 111 -2 121q-1 20 -3.5 58.5t-2.5 43.5q-4 63 -1 108q2 32 12 112t8 124q-1 15 9 25.5t24.5 11.5t25 -9
t11.5 -24zM102 789l-25 43q-8 13 -4 27t16.5 21.5t26.5 3.5t21 -16l25 -43q8 -13 4 -27t-16.5 -21.5t-26.5 -3.5t-21 16z" />
    <glyph glyph-name="Iacute" unicode="&#xcd;" horiz-adv-x="274" 
d="M156 721q4 -49 3.5 -76t-4 -73.5t-3.5 -67.5q0 -40 -2 -116l-2 -122q-1 -46 0 -111t4 -120q1 -15 -9 -25.5t-24.5 -11.5t-25 9t-11.5 24q-3 55 -4 121t0 113t2.5 124t1.5 115q0 31 3.5 75t4.5 65t-4 67q-2 14 7 25.5t23 14t25.5 -6.5t14.5 -23zM107 785l-16 35
q-6 14 -1 27.5t18.5 19.5t27 1t19.5 -18l16 -35q6 -14 1 -27.5t-18.5 -19.5t-27 -1t-19.5 18z" />
    <glyph glyph-name="Icircumflex" unicode="&#xce;" horiz-adv-x="353" 
d="M158 710q2 -34 2 -68.5t-1.5 -72.5t-3 -65t-4.5 -71t-4 -66q-2 -29 -1 -82q2 -62 1 -86q0 -11 -1 -37l-2 -40q0 -12 1 -31.5t3.5 -35.5t7.5 -31q5 -14 -1.5 -27t-20.5 -17.5t-27 2t-17 20.5q-7 20 -10.5 40.5t-4.5 43.5t-1 37.5t1.5 41.5t1.5 36q1 23 -1 83q-1 55 1 87
q1 23 4 68.5t4 66.5l3 67q2 45 2 67l-2 66q-1 15 9 25.5t24.5 11.5t25 -9t11.5 -24zM185 790q-4 12 -7 22t-3.5 12t-2.5 7.5t-3 6.5t-5 10.5t-9 18.5q-6 14 -1 27.5t18.5 19.5t27 1t19.5 -18q4 -10 9 -21t6 -12t3.5 -8t3 -8.5t4 -13t6.5 -22.5q5 -14 -2 -27t-20.5 -17.5
t-26.5 2.5t-17 20zM2 804l-12 39q-5 14 2 26.5t21 17t26.5 -2.5t16.5 -21l12 -39q5 -14 -2 -26.5t-21 -17t-26.5 2.5t-16.5 21z" />
    <glyph glyph-name="Idieresis" unicode="&#xcf;" horiz-adv-x="353" 
d="M149 707q-6 -57 -5 -153q1 -155 1 -157q0 -29 -4 -116.5t-2.5 -143.5t10.5 -109q3 -14 -5.5 -26t-22.5 -14.5t-26 6t-14 22.5q-10 57 -12 117.5t2 151.5t4 112q0 2 -1 156q-1 101 5 160q2 15 13 24t25.5 7.5t23.5 -12.5t8 -25zM170 787q-3 6 -12 22q-4 6 -5 9q-3 6 -4 11
q-3 23 16 35q13 9 29 5q3 -1 8 -3l8 -4l24 -13q13 -6 17.5 -20t-2.5 -27q-6 -12 -18 -17q-5 -7 -13 -12q-13 -7 -27 -3t-21 17zM74 821q0 -14 -10.5 -24.5t-24.5 -10.5t-24.5 10.5t-10.5 24.5t10.5 24.5t24.5 10.5t24.5 -10.5t10.5 -24.5z" />
    <glyph glyph-name="Eth" unicode="&#xd0;" horiz-adv-x="690" 
d="M103 701q7 3 14 5q4 1 43 3q7 0 13 -2q174 6 268 -57q65 -44 104 -120.5t44 -161.5q6 -87 -26.5 -165t-105.5 -123q-17 -11 -44.5 -19t-44.5 -11.5t-51 -7.5t-36 -5q-3 0 -25.5 -4t-37.5 -6q-25 -4 -40 -6q-10 -1 -16 -1q-13 -1 -22 2q-30 12 -44 47q-9 23 -11 56
q-1 19 0 52q1 30 0 35q-5 71 -9 134q-33 -2 -64 -7q-15 -2 -26.5 7t-13.5 23.5t7 26t23 13.5q34 4 69 7l-1 23q-5 84 -7 135q-1 31 0 49q0 26 5 36q11 28 32 40q1 1 3 2zM312 339q-82 11 -166 10q4 -63 9 -131q1 -11 0 -43q-1 -30 0 -46q1 -22 6 -34q1 -3 3 -5q1 0 6 1
q14 1 37 5q15 2 38 6t26 5q10 1 40.5 5t44 6.5t33 8t32.5 13.5q53 33 78 92.5t20 131.5q-4 70 -35.5 132t-82.5 96q-82 56 -268 43v-1v-5v-7q-1 -17 0 -46q2 -50 7 -133l1 -24q94 2 181 -10q14 -2 23 -13.5t7 -26t-13.5 -23.5t-26.5 -7z" />
    <glyph glyph-name="Ntilde" unicode="&#xd1;" horiz-adv-x="837" 
d="M100 21q0 26 0.5 104t0 115t-2.5 98t-7 113q-1 16 -4 85q-1 32 -2 52v19q0 4 0.5 7t0.5 5q2 10 10 18q32 33 79 11q26 -12 58 -44q20 -21 45 -53q7 -8 16 -20l12 -16q37 -46 101 -134.5t85 -115.5q14 -19 32 -37l43 -43q25 -24 39 -39l60 -58l1 -1v35q-1 88 -2 119
q-1 33 -5 90q-5 58 -6 74q-2 35 -6 119q-4 79 -7 127q-1 15 8.5 26t24 12t25.5 -8.5t12 -23.5q3 -45 7 -128.5t6 -119.5q1 -15 6 -74q4 -59 5 -90t2 -123q1 -46 0 -74q0 -16 -1 -25q0 -6 -1 -10q0 -4 -1 -7l-2 -6q-5 -9 -13 -14q-12 -8 -27 -5q-4 1 -9 3q-4 2 -9 5
q-7 5 -16 13q-15 12 -39 35q-43 40 -63 61l-37 35q-26 25 -47 47q-19 21 -36 43l-84 115q-63 87 -100 133q-3 3 -13 16l-16 21q-23 29 -40 47q-15 16 -27 24q0 -17 1 -41q3 -67 4 -81q5 -51 7 -114t2.5 -99t0 -118.5t-0.5 -104.5q0 -14 -10.5 -24.5t-24.5 -10.5t-24.5 10.5
t-10.5 24.5zM205 820l22 34l15 21l7 9q6 7 12 11q52 32 99 -1q10 -7 19.5 -16.5t21 -23t12.5 -15.5q19 -21 31 -21q21 -1 59 38q10 11 24.5 11t25 -10t10.5 -24.5t-10 -24.5q-60 -62 -112 -60q-41 2 -80 44q-6 8 -15 19l-15 17q-5 5 -11 9q-9 6 -19 0l-2 -3l-14 -19l-22 -33
q-8 -12 -22 -15t-26 5t-15 22t5 26z" />
    <glyph glyph-name="Ograve" unicode="&#xd2;" horiz-adv-x="872" 
d="M434 672q-67 7 -126 -9.5t-101 -50.5t-70 -80t-39 -99q-9 -36 -5.5 -75t13.5 -76.5t35 -73t58.5 -65.5t83 -53.5t110.5 -37.5q65 -15 126.5 17t108.5 98q45 65 64 141.5t5 137.5q-19 81 -108 156q-33 28 -63 42q-30 13 -75 21q-10 1 -17 7zM510 723q66 -18 125 -67
q106 -91 130 -194q18 -78 -4.5 -169t-75.5 -166q-57 -80 -137 -122t-171 -21q-69 16 -126.5 43.5t-97.5 63.5t-70 79t-43.5 88.5t-17.5 94t7 94.5q15 70 53.5 130t98.5 102.5t138.5 58t171.5 -3.5q12 -2 19 -11zM466 777q-66 40 -111 81q-10 10 -11 24.5t9 25t24.5 11.5
t25.5 -9q41 -37 99 -73q13 -8 16 -22t-4.5 -26.5t-21.5 -15.5t-26 4z" />
    <glyph glyph-name="Oacute" unicode="&#xd3;" horiz-adv-x="857" 
d="M306 639q-62 -26 -106.5 -90t-59.5 -146q-20 -103 13.5 -190t116.5 -124q98 -44 169 -35q25 3 47 16q23 14 55 42q116 99 139 193q12 49 5 98.5t-29.5 90t-56.5 74.5t-77 52.5t-91 24.5t-98 -10q-14 -4 -27 4zM384 715q82 6 158.5 -27.5t128.5 -92t74.5 -140.5t2.5 -166
q-28 -116 -161 -231l-39 -32q-16 -12 -44.5 -25t-56.5 -17q-88 -10 -205 41q-46 20 -81 53t-55.5 72t-32 84.5t-10.5 90.5t8 91q15 76 51.5 142t99 112.5t137.5 52.5q14 1 25 -8zM395 794q-29 37 -30 39q-1 1 -21 44q-6 13 -1 27t18 20t27 1t20 -18l8 -19q4 -7 5 -10t2 -5
l2 -4q1 -2 2.5 -4t8 -9.5t15.5 -19t7 -26t-13.5 -23.5t-26 -7t-23.5 14z" />
    <glyph glyph-name="Ocircumflex" unicode="&#xd4;" horiz-adv-x="889" 
d="M371 677q-116 -17 -170 -106q-48 -79 -56 -226q-1 -10 -3 -32.5t-3 -32.5q-3 -35 2 -52q24 -88 97.5 -134t172.5 -43q51 2 101 18t81 45q51 46 93 138q44 97 30 150q-17 65 -73 126.5t-129.5 101t-142.5 47.5zM395 744q81 -13 162 -58.5t143.5 -116.5t83 -149t-33.5 -197
q-47 -104 -109 -161q-43 -39 -105 -59q-61 -20 -123 -22q-78 -3 -145 21q-68 23 -120 76q-53 54 -75 132q-8 28 -4 75l3 33l3 31q10 164 66 258q66 108 195 135q10 7 22 6q6 0 12 -1q2 0 5 1q11 1 20 -4zM323 779q-46 64 -70 116q-6 13 -0.5 26.5t18.5 19.5t26.5 0.5
t19.5 -18.5q21 -45 62 -104q9 -11 6.5 -25.5t-14 -23t-26 -6t-22.5 14.5zM490 790q-18 36 -39 74q-8 12 -4 26t16.5 21.5t26.5 3.5t21 -17q23 -40 41 -76q7 -13 2.5 -27t-17.5 -20.5t-27 -2t-20 17.5z" />
    <glyph glyph-name="Otilde" unicode="&#xd5;" horiz-adv-x="883" 
d="M359 661q-81 -23 -147.5 -88.5t-94.5 -148.5q-18 -53 1 -137q25 -113 80 -164q57 -53 169 -63q37 -4 65.5 0t57 20t46.5 30l56 47q9 8 14 13q80 68 99.5 136t-10.5 169q-18 57 -55 94q-44 45 -101.5 59t-150.5 17q-19 1 -29 16zM475 710q138 -13 215 -91q49 -51 71 -124
q37 -121 12 -209q-25 -87 -121 -170q-6 -4 -17 -14q-30 -27 -46 -39.5t-45 -31.5t-53 -27t-58 -12.5t-72 -1.5q-136 13 -210 82q-71 66 -101 199q-23 102 1 175q27 81 83 148q58 67 139.5 108.5t167.5 39.5q13 0 23 -9t11 -23zM210 813q25 66 67 80q35 11 79 -16
q11 -6 29 -20q18 -13 25 -17q20 -13 28 -12q21 4 49 32q11 11 27 29l25 29q10 11 24.5 12t25 -9t11.5 -24.5t-9 -24.5l-24 -29q-18 -20 -31 -33q-43 -42 -84 -50q-36 -7 -79 20l-29 21l-24 17q-17 10 -22 8q-10 -5 -22 -37q-5 -14 -18 -20t-27 -1t-20 18t-1 27z" />
    <glyph glyph-name="Odieresis" unicode="&#xd6;" horiz-adv-x="870" 
d="M418 692q-75 6 -141.5 -36t-108.5 -113q-41 -70 -52 -155q-18 -132 49 -222q76 -101 242 -107q73 -3 139 44t108 126q41 78 45.5 160t-33.5 147q-21 35 -52 60q-30 24 -78 50q-75 40 -118 46zM430 761q26 -3 52 -12.5t42 -17.5l46 -23q52 -28 90 -59t66 -77
q33 -54 41 -121t-6 -131.5t-45 -123.5q-50 -93 -132 -151.5t-179 -55.5q-200 7 -297 135q-83 113 -62 274q9 67 37.5 130.5t71.5 115t105 84t131 35.5q5 1 11 1l23 -2h1q2 0 4 -1zM537 772q-22 -12 -40 6q-12 11 -11 26q-9 11 -11 24q-4 24 10.5 37.5t30.5 17.5q7 0 18 0.5
t23.5 -8t17.5 -24.5q3 -13 0 -27q9 -15 2 -32q-5 -12 -16.5 -17.5t-23.5 -2.5zM339 814q0 -14 -10.5 -24.5t-24.5 -10.5t-24.5 10.5t-10.5 24.5t10.5 24.5t24.5 10.5t24.5 -10.5t10.5 -24.5z" />
    <glyph glyph-name="multiply" unicode="&#xd7;" horiz-adv-x="588" 
d="M481 542q-17 -22 -40 -43.5t-51 -43.5q-26 -21 -38 -32l-20 -18l24 -21q18 -17 35 -36l41 -48l30 -36q9 -11 8 -25.5t-12 -24t-25.5 -8.5t-24.5 12l-31 38q-22 27 -37.5 44t-31.5 32l-29 26q-110 -100 -154 -162q-9 -12 -23 -14.5t-26 6t-14.5 22.5t5.5 26q48 67 158 168
l-26 21q-73 60 -111 97q-11 10 -11 24.5t10 25t24.5 10.5t24.5 -10q36 -35 108 -93l34 -28l26 24l45 37q26 20 43.5 36t32.5 36q9 12 23 14t26 -7t14 -23t-7 -26z" />
    <glyph glyph-name="Oslash" unicode="&#xd8;" horiz-adv-x="889" 
d="M673 554q-26 -29 -49 -50l-268 -234l-136 -125q11 -8 22 -15q108 -61 184 -47q6 2 12 3.5t11 3.5t12 5.5t10.5 5t12 7t11.5 7t13 7.5l13 9q56 37 101 87t71 108q57 128 -20 228zM120 145q-56 71 -72 166t13 187t99 150q53 44 129 63t152 17q84 -2 142 -28q16 7 31 -1
q33 -16 60 -40l55 59q11 10 25 10t24.5 -10.5t10.5 -24.5t-10 -25q-22 -22 -58 -62l8 -10q36 -47 49 -100t7 -102q-6 -47 -28 -97q-30 -67 -82 -125q-53 -59 -116 -99l-14 -9q-11 -8 -15.5 -10.5t-15 -9t-18.5 -10.5l-17 -8q-10 -4 -20 -6q-9 -3 -21 -5q-101 -19 -230 55
q-20 11 -39 26l-65 -70q-10 -10 -24.5 -11t-25 9t-11.5 24.5t9 25.5zM596 610q-57 46 -157 48q-66 2 -130 -14t-105 -50q-54 -45 -76.5 -118t-11 -148.5t53.5 -132.5l140 127l266 234q22 20 48 48q-15 -3 -28 6z" />
    <glyph glyph-name="Ugrave" unicode="&#xd9;" horiz-adv-x="703" 
d="M149 726q-5 -41 -6.5 -83t0 -106.5t1.5 -86.5q0 -21 -1 -66.5t-1 -77.5q1 -31 5 -61q5 -39 19 -76q14 -38 33 -60q37 -41 112.5 -47t120.5 27q37 27 66 82q15 27 23.5 57t10 68t1.5 62t-3.5 74.5t-4.5 69.5q-2 41 -1 69.5t0 62.5t-6 62q-2 15 6.5 26.5t23 14t26 -6
t14.5 -22.5q6 -41 6.5 -120t0.5 -82l5 -66q3 -52 3 -79.5t-2 -71.5t-12.5 -81t-28.5 -71q-37 -68 -86 -104q-67 -49 -168 -41q-103 9 -159 71q-28 31 -46 79t-24 93q-4 33 -4.5 68.5t0.5 83t1 63.5q0 18 -1.5 84.5t0 112t6.5 87.5q2 15 13.5 24t26 7t23.5 -13.5t7 -25.5z
M377 771q-20 17 -44 46q-36 41 -39 43q-10 11 -9 25.5t11.5 24.5t25 9t24.5 -11q3 -4 39 -45q22 -25 38 -40q11 -10 12 -24.5t-9 -25t-24.5 -11.5t-24.5 9z" />
    <glyph glyph-name="Uacute" unicode="&#xda;" horiz-adv-x="699" 
d="M153 711q0 -34 3 -117.5t2 -128.5q-1 -25 -5.5 -89t-3.5 -106t11 -78q1 -3 12 -29l13 -27q42 -58 122 -71q75 -13 118 12q42 26 75 100q28 65 29 241q0 55 -2.5 148t-2.5 120q0 14 10.5 24.5t24.5 10.5t24.5 -10.5t10.5 -24.5q0 -27 2.5 -120t2.5 -149q-1 -190 -35 -268
q-41 -95 -103 -132q-65 -39 -166 -22q-108 19 -166 101q-6 7 -20 38t-17 40q-11 42 -12.5 91.5t3.5 118.5t5 83q1 45 -2 127.5t-3 116.5q0 14 10.5 24.5t24.5 10.5t24.5 -10.5t10.5 -24.5zM308 779q-25 36 -26 39q-1 1 -15 47q-5 14 2 27t20.5 17.5t26.5 -2.5t17 -20l7 -20
q2 -8 2.5 -11t1 -5t1.5 -3q0 -1 1 -2l2 -2q1 -1 2.5 -3.5t5.5 -8.5l10 -13q8 -12 5.5 -26t-14.5 -22.5t-26 -6t-23 14.5z" />
    <glyph glyph-name="Ucircumflex" unicode="&#xdb;" horiz-adv-x="730" 
d="M149 704q6 -55 5 -146q-2 -145 -1 -152q2 -176 56 -266q63 -105 163 -74q46 15 87.5 55t65.5 93q18 41 27 88.5t8.5 102.5t-3 99t-8.5 109t-8 101q-1 15 9 25.5t24.5 11.5t25 -9t11.5 -24q3 -37 8 -96q6 -65 8.5 -112.5t2.5 -108t-10.5 -115t-30.5 -100.5
q-29 -66 -81.5 -116.5t-113.5 -69.5q-70 -22 -134.5 3t-110.5 101q-63 106 -66 301q-1 9 1 154q1 87 -5 137q-1 14 8 25.5t23 13t25.5 -7.5t13.5 -23zM230 787l-13 19q-7 10 -7.5 11t-4.5 7t-4.5 7.5t-6 12t-11.5 20.5q-7 13 -2.5 27t17 21t26.5 2.5t21 -16.5q5 -11 10 -20
t6 -11t4 -7l4 -6l7 -10l12 -17q8 -12 5.5 -26.5t-14.5 -22.5t-26.5 -5.5t-22.5 14.5zM424 779l-10 17q-4 7 -5 9.5t-2 4.5t-2 3l-1 1l-1 1l-3 3l-3 3q-2 2 -6 5.5t-9 8.5q-10 11 -10 25t10.5 24.5t24.5 10.5t25 -10q27 -27 30 -31q2 -3 5 -8t8 -14l9 -17q8 -13 4 -27
t-16.5 -21.5t-26.5 -3.5t-21 16z" />
    <glyph glyph-name="Udieresis" unicode="&#xdc;" horiz-adv-x="707" 
d="M169 732q0 -44 -8 -149q-8 -102 -9 -149q-4 -169 50 -270q16 -31 45.5 -56.5t64.5 -38.5q77 -29 133 9q33 22 57 77q25 55 31 109q8 67 -3 203q-14 168 -14 216q0 14 10.5 24.5t24.5 10.5t24.5 -10.5t10.5 -24.5q0 -45 14 -210q12 -139 3 -217q-8 -64 -38.5 -133
t-79.5 -103q-45 -30 -99 -33t-99 16q-46 18 -85 51.5t-62 75.5q-63 118 -58 306q1 48 9 152q8 106 8 144q0 14 10.5 24.5t24.5 10.5t24.5 -10.5t10.5 -24.5zM269 806q0 -14 -10.5 -24.5t-24.5 -10.5t-24.5 10.5t-10.5 24.5t10.5 24.5t24.5 10.5t24.5 -10.5t10.5 -24.5z
M477 799q0 -14 -10.5 -24.5t-24.5 -10.5t-24.5 10.5t-10.5 24.5t10.5 24.5t24.5 10.5t24.5 -10.5t10.5 -24.5z" />
    <glyph glyph-name="Yacute" unicode="&#xdd;" horiz-adv-x="638" 
d="M534 691q-26 -51 -87 -146q-57 -88 -80 -133q-1 -5 -2 -5q-1 -3 -3 -8l-11 -21l-11 -21l-4 -8l-2 -3q-1 -1 -1 -2q-3 -4 -8 -8l-1 -1q0 -2 -1 -8q-3 -13 -8 -21q-2 -3 -4 -5q8 -85 8 -301q0 -14 -10.5 -24.5t-24.5 -10.5t-24.5 10.5t-10.5 24.5q0 220 -8 306l-1 1
q-10 10 -21 28q-18 28 -44 77l-40 79q-19 40 -23 46q-15 25 -44 64q-40 54 -49 68q-8 12 -5 26t15 22t26 5t22 -15q3 -5 47 -64q31 -42 48 -70q2 -4 26 -51l39 -78q20 -37 33 -59l22 38l8 12v1l1 1q25 50 87 146q60 93 84 140q6 13 20 17.5t27 -2t17.5 -20.5t-2.5 -27z
M256 763q-7 7 -14.5 15.5t-8.5 9.5t-5.5 6.5t-5 6t-7.5 9.5l-12 17q-9 12 -6.5 26t14 23t25.5 6.5t23 -13.5q6 -9 12 -16.5t6.5 -8.5t4 -5t4.5 -5.5t8 -8.5l14 -16q10 -10 9 -24.5t-11.5 -24.5t-25 -9t-24.5 12z" />
    <glyph glyph-name="Thorn" unicode="&#xde;" 
d="M156 213q5 -141 5 -161q0 -14 -10.5 -24.5t-24.5 -10.5t-24.5 10.5t-10.5 24.5q0 39 -3 122t-3 126q0 17 1.5 95.5t1.5 110t-3.5 87.5t-11.5 101q-3 14 5.5 26t22.5 14.5t26 -6t14 -22.5q9 -46 13 -98q137 40 215 3q54 -26 80 -76.5t25 -107.5q0 -56 -26 -107t-72 -81
q-19 -11 -41 -18t-48.5 -9t-42.5 -2.5t-45.5 1t-34.5 1.5q-4 0 -8 1zM155 281q5 1 11 1q46 -4 95.5 -2t76.5 19q30 18 48 53.5t18.5 75.5t-16.5 72t-49 47q-56 27 -173 -8q-4 -2 -9 -2q1 -55 1 -80.5t-1.5 -79.5t-1.5 -77v-19z" />
    <glyph glyph-name="germandbls" unicode="&#xdf;" horiz-adv-x="609" 
d="M61 25q5 39 7 87t2 76.5t-0.5 92t-0.5 82.5l-17 3l-10 3q-7 1 -11 3q-3 1 -6 3q-9 8 -13 19q-7 23 12 38q6 4 13 6l10 1h9l11 -1v22q-2 64 0 107q9 142 69 199q35 32 78 38.5t80.5 -7t69.5 -40.5q50 -42 75.5 -104t11.5 -126q-11 -50 -52 -77l22 -17q1 0 4 -1.5t7 -4.5
t8.5 -6t9 -7.5t8.5 -7.5q31 -36 43 -89.5t7 -109.5q-6 -56 -30.5 -105.5t-66.5 -76.5q-27 -16 -71 -25q-7 -2 -28.5 -5.5t-32.5 -6.5q-14 -3 -26 4t-15.5 21.5t3.5 26.5t22 16q11 3 33 7q23 4 30 5q32 7 47 17q26 16 43.5 50.5t21.5 79.5q5 43 -4.5 82.5t-29.5 62.5
q-2 3 -3.5 4t-7 4t-12.5 9q-28 19 -29 20q-4 2 -31 10h-3h-6h-7q-14 0 -23 4q-13 6 -19 17q-7 13 -4 27q4 23 26 33q9 4 23 4h14q29 8 42.5 19t18.5 32q9 41 -9 85.5t-55 74.5q-35 30 -71 33.5t-64 -22.5q-40 -37 -47 -151q-2 -32 0 -101q2 -86 2 -90q0 -23 0.5 -84.5
t0.5 -94.5t-2.5 -83.5t-6.5 -92.5q-2 -14 -13 -23t-25.5 -7.5t-23.5 12.5t-8 26z" />
    <glyph glyph-name="agrave" unicode="&#xe0;" horiz-adv-x="610" 
d="M416 339q-50 30 -92 40q-99 24 -141 5q-46 -20 -64 -108q-14 -70 -6 -112q10 -63 56.5 -100t104 -31.5t97.5 53.5l1 1q1 1 2 3l4 6q2 4 5 8.5t6 9.5l18 30q3 83 8 169q1 12 1 26zM208 720q12 -17 28.5 -37t29.5 -33l34 -36l33 -35q10 -11 9 -25.5t-11.5 -24.5t-25 -9
t-24.5 11q-9 11 -31.5 34t-35.5 37l-32 36q-18 22 -32 42q-8 12 -5.5 26t14.5 22.5t26 6t23 -14.5zM488 431q-2 -20 -2 -53l8 -6q12 -8 15 -22t-5 -26q-7 -11 -19 -15q-10 -163 -10 -315q0 -14 -10.5 -24.5t-24.5 -10.5t-24.5 10.5t-10.5 24.5v26q-47 -44 -107 -54.5
t-112 9.5t-92 67t-51 110q-9 54 8 138q25 123 103 158q65 28 186 -1q38 -9 77 -28q0 10 1 20q2 14 13 23t25.5 7.5t23.5 -12.5t8 -26z" />
    <glyph glyph-name="aacute" unicode="&#xe1;" horiz-adv-x="581" 
d="M408 295q-66 57 -113 77q-63 28 -113 -9q-49 -35 -69 -110q-20 -76 5 -132t86 -62q64 -7 106 26q12 10 23 23t28 36l23 31q9 12 24 14v106zM219 577q79 97 127 147q10 11 24.5 11t25 -10t10.5 -24.5t-10 -24.5q-40 -42 -123 -143q-9 -11 -23.5 -12.5t-25.5 7.5
t-12.5 23.5t7.5 25.5zM481 434q-6 -221 0 -425q0 -14 -10 -25t-24 -11t-25 10t-11 24l-2 84q-32 -42 -55 -60q-65 -52 -158 -42q-43 5 -76 25.5t-51 49.5t-26.5 65t-6.5 72q1 35 10 70q26 98 94 149q83 60 183 16q39 -17 87 -52q0 26 1 52q0 14 10.5 24t25 10t24.5 -10.5
t10 -25.5z" />
    <glyph glyph-name="acircumflex" unicode="&#xe2;" horiz-adv-x="592" 
d="M250 638q-1 2 -2 1q1 0 2 -1zM406 331q-31 24 -89 40q-113 32 -164 -13q-42 -37 -35 -115q7 -80 58 -137q52 -57 116 -46q38 6 55 25q17 18 57 93q2 3 4 5q-4 82 -2 148zM411 411l2 22q2 15 13.5 23.5t26 7t23 -13t7.5 -25.5q-4 -30 -6 -64l2 -2q10 -10 10 -24.5
t-11 -24.5q-1 -2 -3 -3q-1 -98 17 -307q1 -14 -8.5 -25.5t-23.5 -12.5t-25.5 8.5t-12.5 23.5l-5 65q-9 -12 -18 -22q-34 -36 -95 -47q-103 -16 -180 69q-66 74 -76 178q-10 113 59 174q80 69 228 28q46 -13 76 -28zM135 588q51 75 75 97q19 18 38 21q23 4 44 -12
q9 -7 22 -24l20 -27q29 -36 63 -59q12 -8 15 -22t-5 -26t-22 -15t-26 5q-44 29 -80 74l-21 27l-3 5q-18 -18 -62 -84q-8 -12 -22.5 -14.5t-26.5 5.5t-14.5 22.5t5.5 26.5z" />
    <glyph glyph-name="atilde" unicode="&#xe3;" horiz-adv-x="603" 
d="M404 126q1 86 7 214q-67 42 -127 46q-90 7 -128 -32q-36 -37 -37 -130q-1 -119 68 -153t175 25q26 14 42 30zM416 418q2 13 12.5 21t23.5 7q14 -1 24 -11.5t9 -25.5q-8 -150 -10 -220q5 -1 10 -3q12 -7 16.5 -21t-2.5 -27q-12 -22 -25 -39q0 -46 1 -90q0 -14 -10 -25
t-24 -11t-25 10t-11 24q0 16 -1 32l-8 -5q-65 -36 -126 -43.5t-114 17.5q-53 26 -80 82q-28 56 -27 134q1 121 57 179q60 62 184 53q63 -5 126 -38zM87 584l25 29q26 29 41 36q45 23 98 -2q14 -6 36 -20t29 -18q25 -13 39 -8q26 9 58 64q7 12 21 16t26.5 -3.5t16.5 -21.5
t-4 -27q-45 -77 -95 -95q-44 -14 -95 13q-10 5 -34 21q-18 11 -28 16q-22 10 -38 3q-5 -6 -18 -20l-24 -29q-10 -11 -24.5 -12t-25.5 8.5t-12 24t8 25.5z" />
    <glyph glyph-name="adieresis" unicode="&#xe4;" horiz-adv-x="581" 
d="M401 414l-1 6q-1 14 7.5 25.5t23 13t26 -7t13.5 -23.5l6 -62q3 -10 1 -20q3 -49 4 -100t0 -124.5t-1 -97.5q0 -14 -10.5 -24.5t-24.5 -10.5q-13 0 -22.5 8t-11.5 20q-62 -55 -131 -50q-52 3 -93 24.5t-66 55t-39.5 72.5t-17.5 81q-4 55 9.5 107t48 94t85.5 55q7 2 24 2
q10 0 25 -1q30 -2 41 -3q40 -6 89 -31zM223 388q-42 -11 -68 -63t-21 -120q5 -69 43.5 -116.5t106.5 -51.5q35 -2 69.5 24t57.5 67q1 132 -3 204l-19 9l-36 20q-38 19 -66 23q-6 1 -35 3q-13 1 -22 1h-7zM122 580q2 29 13 51q13 28 35 35t40 -7q11 -10 15 -28q5 -21 -2 -55
q-3 -14 -15 -22t-26 -5q-2 0 -3 1q-11 -9 -25 -8t-23.5 12t-8.5 26zM344 555q-4 9 -12 25l-4 8q-2 4 -2 8q-4 14 4 26q12 22 37 17q6 -1 11 -4q4 -1 9 -5l22 -14q12 -8 15 -22t-4 -27q-5 -6 -11 -11q-6 -13 -19 -19t-26.5 -0.5t-19.5 18.5z" />
    <glyph glyph-name="aring" unicode="&#xe5;" horiz-adv-x="578" 
d="M215 531q-28 17 -42 47.5t-11 62.5q4 41 32.5 69.5t77.5 32.5q44 3 79 -14t50 -50q15 -35 3 -71t-47 -64q-11 -8 -23 -14t-25.5 -8.5t-21.5 -3.5t-22 -2t-17 -1q-21 -2 -33 16zM254 590q2 0 5 1q2 0 3.5 0.5t3.5 1t3 0.5q9 1 16 2q8 0 16 -3q6 3 12 8q35 27 24 51
q-4 9 -19 16.5t-40 5.5q-43 -3 -46 -38q-1 -16 5.5 -28.5t16.5 -16.5zM403 130q0 30 0.5 95.5t1.5 100.5q-34 34 -75 49q-108 39 -166 -14q-53 -48 -53 -141q0 -44 13 -82.5t35 -62.5q46 -50 119 -16q57 26 85 60q16 20 40 11zM405 416v20q0 14 10.5 24.5t24.5 10.5
t24.5 -10.5t10.5 -24.5v-85q7 -15 -1 -30q-2 -302 -2 -316t-10.5 -24.5t-24.5 -10.5t-24.5 10.5t-10.5 24.5v53q-34 -35 -94 -63q-63 -27 -113 -17.5t-88 50.5q-32 35 -49 86t-17 106q0 56 19 107t56 86q90 81 238 28q27 -10 51 -25z" />
    <glyph glyph-name="ae" unicode="&#xe6;" horiz-adv-x="895" 
d="M420 254l55 -3q106 -6 151 -4q64 2 80 14q24 16 18 38q-8 29 -47 58q-43 32 -94 41.5t-90 -10.5q-54 -29 -71 -113q-2 -8 -3 -17l1 -3v-1zM352 157q-3 16 -4 32q-113 7 -149 0q-20 -3 -38 -16t-27 -29q-16 -31 13 -53q39 -29 96 -33q56 -4 81 26q21 24 28 73zM117 449
q125 33 193 -3q43 -23 72 -77q29 55 77 81q40 22 90 22q50 -1 92 -17t78 -42q59 -44 73 -96q8 -33 -3.5 -62.5t-42.5 -51.5q-33 -23 -117 -26q-53 -2 -158 4q-23 1 -47 3q0 -12 -1 -23q4 -18 10 -32q32 -73 104 -75q34 -1 69.5 14t64.5 43q11 9 25.5 8.5t24 -11t9 -25
t-10.5 -24.5q-38 -35 -86.5 -55.5t-96.5 -19.5q-91 2 -143 75q-7 -11 -15 -21q-48 -56 -140 -50q-77 5 -133 47q-26 19 -37.5 44.5t-9.5 50t15 47.5q16 31 47.5 53.5t66.5 28.5q44 7 161 0q-9 45 -28.5 78.5t-43.5 46.5q-43 23 -141 -3q-14 -4 -26.5 3.5t-16.5 21.5
t3.5 26.5t21.5 16.5z" />
    <glyph glyph-name="ccedilla" unicode="&#xe7;" horiz-adv-x="536" 
d="M381 340q-77 55 -145 34q-60 -18 -94 -84q-22 -43 -23.5 -88.5t21.5 -84.5t67 -58q67 -29 157 19q13 7 27 2.5t21 -17t2.5 -26.5t-16.5 -21q-119 -65 -219 -21q-51 22 -83 62t-41 85.5t-2.5 92t27.5 87.5q47 92 135 119q101 31 206 -43q12 -9 14.5 -23t-6 -26
t-22.5 -14.5t-26 5.5zM287 -118q-39 -46 -73 -97q-7 -12 -21.5 -15t-26.5 4.5t-15 22t5 26.5q35 55 77 105q10 11 24.5 12t25.5 -8.5t12 -24t-8 -25.5z" />
    <glyph glyph-name="egrave" unicode="&#xe8;" horiz-adv-x="551" 
d="M125 254q3 -1 8 -2h3q4 -1 14 -1.5t21 -1.5q37 -2 85 -3q49 -1 84 0h28v12v14v13q-1 32 -3 52q-7 47 -30 59q-10 4 -57 5q-63 1 -102.5 -31t-47.5 -92q-1 -3 -2 -12q-1 -7 -2 -10q0 -1 1 -2zM56 237q-3 12 -1 27q0 5 2 14q1 7 1 10q12 88 73 136t147 47q63 -1 87 -13
q57 -27 69 -112v-1q3 -6 4 -13q0 -6 1 -15.5t1.5 -17.5t1.5 -16q0 -1 0.5 -2t1.5 -4.5t3 -8.5q8 -24 1 -43q-10 -31 -52 -45q-7 -3 -24 -4h-32q-36 -1 -86 0q-49 1 -86 3q-27 1 -40 3q2 -48 20 -73q38 -53 110 -46q34 4 64.5 19.5t50.5 39.5q9 11 23.5 12.5t25.5 -7.5
t12.5 -23.5t-7.5 -25.5q-29 -35 -72 -57.5t-90 -26.5q-50 -5 -96 12.5t-77 60.5q-12 16 -19 33t-10.5 39t-4.5 33t-1.5 37t-0.5 28zM176 728q17 -19 56 -53q44 -39 62 -59q9 -11 8 -25.5t-12 -24t-25.5 -8.5t-24.5 12q-16 19 -54 53q-43 36 -62 59q-10 11 -9 25.5t12 24
t25.5 8.5t23.5 -12z" />
    <glyph glyph-name="eacute" unicode="&#xe9;" horiz-adv-x="553" 
d="M381 279q-1 5 -1 8q-4 44 -33.5 70.5t-71.5 30.5q-43 5 -81 -14t-56 -58q-8 -17 -13 -34q16 0 51.5 2t57.5 2.5t53 0t56 -2.5q1 0 17 -3q11 -1 19 -2h2zM116 211q3 -86 59 -138q26 -24 57 -31.5t71 8.5t77 61q10 11 24.5 12t25.5 -8.5t12 -24t-8 -25.5
q-50 -57 -106.5 -80t-107.5 -12.5t-92 49.5q-60 55 -76.5 142t22.5 180q28 62 86.5 91.5t121.5 22.5q65 -7 113 -50t55 -115q0 -1 1 -7q1 -8 2 -13q2 -26 -12 -43q-12 -16 -36 -20q-13 -2 -31 -1q-11 1 -25 3q-2 0 -5.5 0.5t-5 1t-3.5 0.5q-51 3 -71.5 3t-72 -2.5
t-75.5 -3.5zM183 589q27 15 49 33.5t55.5 53.5t47.5 48q10 10 24.5 10t24.5 -10.5t10 -25t-11 -24.5l-44 -46q-37 -38 -63.5 -60.5t-58.5 -40.5q-13 -7 -26.5 -3t-21 17t-3.5 26.5t17 21.5z" />
    <glyph glyph-name="ecircumflex" unicode="&#xea;" horiz-adv-x="562" 
d="M390 277q7 17 -4 39q-17 34 -60 59q-43 27 -89 26.5t-74 -31.5q-35 -37 -47 -86q104 -6 136 -8q68 -3 107 -2q20 1 31 3zM44 282q13 77 67 136q34 37 81 48t89 1.5t81 -31.5q60 -36 86 -88q33 -65 -4 -119q-8 -11 -23 -17q-8 -3 -18 -4q-16 -3 -42 -4q-41 -1 -113 3
q-29 1 -137 8q5 -57 37 -100q39 -51 93 -56q64 -5 130 59q10 10 24.5 10t24.5 -10.5t10 -25t-11 -24.5q-88 -86 -183 -78q-86 6 -144 83q-49 66 -52 152q-13 10 -13 27q0 20 17 30zM105 603q12 8 42 41q34 35 52 46q66 38 129 -43q9 -11 18 -27l16 -26q6 -11 14 -27l9 -18
q7 -12 2.5 -26t-17 -21t-26.5 -2.5t-21 17.5q-38 70 -51 88q-25 32 -37 25q-10 -6 -37 -34q-37 -39 -51 -49q-12 -9 -26.5 -6.5t-23 14t-6 26t13.5 22.5z" />
    <glyph glyph-name="edieresis" unicode="&#xeb;" 
d="M405 282q0 10 -6 26q-12 36 -31 56q-41 43 -115 26q-34 -8 -62.5 -28t-43.5 -44q-9 -16 -13 -37h127h113q19 0 31 1zM62 279q7 42 25 73q22 39 62.5 67t87.5 39q43 13 94.5 2t86.5 -48q30 -31 47 -81q27 -76 -18 -111q-4 -3 -7.5 -4.5t-5.5 -2.5h-2q-1 -1 -3 -1h-3h-4
h-11q-13 -1 -37 -1h-113h-133q-1 -55 20.5 -92.5t54.5 -53.5q23 -11 48 -11.5t55.5 13t59.5 40.5q10 10 24.5 10t24.5 -10.5t10 -25t-11 -24.5q-56 -54 -121 -68.5t-120 12.5q-55 26 -86 83t-29 131q-17 10 -18 30q-1 25 22 34zM113 554q-11 32 -7 60q4 34 27 48q20 12 41 1
q15 -8 22 -26q10 -22 6 -62q-1 -11 -9 -19.5t-18 -10.5q-7 -9 -18 -13q-13 -5 -26 1.5t-18 20.5zM332 544q-1 0 -1.5 0.5t-4 1.5t-7.5 3q-36 17 -31 50q5 29 35 43q29 13 53 -1q27 -15 23 -51q0 -5 -0.5 -8.5t-1 -4t-0.5 -1.5v-1q1 -15 -8.5 -26t-23.5 -12h-8q-13 -2 -25 7z
" />
    <glyph glyph-name="igrave" unicode="&#xec;" horiz-adv-x="238" 
d="M8 726q23 -18 47.5 -44t36.5 -40l38 -48q9 -11 7.5 -25.5t-12.5 -23.5t-25.5 -7.5t-23.5 12.5l-38 46q-12 15 -33 37.5t-41 38.5q-11 9 -12.5 23.5t7.5 25.5t23.5 12.5t25.5 -7.5zM125 434q8 -63 10 -127t0 -160.5t-2 -122.5q0 -14 -10.5 -24.5t-24.5 -10.5t-24.5 10.5
t-10.5 24.5q0 31 2 125t0 155q-2 60 -10 120q-2 15 7 26.5t23.5 13.5t26 -7t13.5 -23z" />
    <glyph glyph-name="iacute" unicode="&#xed;" horiz-adv-x="345" 
d="M61 591q5 5 57 65q39 45 73 67q12 8 26.5 5t22 -15t4.5 -26.5t-15 -21.5q-26 -17 -58 -54q-56 -65 -61 -70q-11 -10 -25.5 -10t-24.5 10.5t-10 25t11 24.5zM122 469q26 -72 22 -217q-1 -34 -4.5 -107.5t-3.5 -104.5q0 -14 -10.5 -24.5t-24.5 -10.5t-24.5 10.5t-10.5 24.5
q0 31 3.5 105t4.5 109q3 132 -18 191q-5 14 1 27t20 18t27 -1t18 -20z" />
    <glyph glyph-name="icircumflex" unicode="&#xee;" horiz-adv-x="328" 
d="M-54 585q46 29 86 76q1 0 2 1v2q1 1 2.5 3.5t3.5 6.5q13 21 33 28q35 12 72 -11q20 -14 46 -55l17 -28l13 -19q9 -11 7 -25.5t-13.5 -23.5t-26 -7t-23.5 14q-6 8 -16 25l-17 27q-18 28 -25 32q-4 3 -8 4q-8 -13 -13 -20q-47 -55 -102 -90q-13 -7 -27 -4t-21.5 15.5
t-4.5 26.5t15 22zM136 439q0 -8 -13 -203q-8 -122 -4 -198q1 -15 -9 -25.5t-24.5 -11.5t-25 9t-11.5 24q-4 74 5 206q11 167 12 201q0 14 10.5 24t25 10t24.5 -10.5t10 -25.5z" />
    <glyph glyph-name="idieresis" unicode="&#xef;" horiz-adv-x="354" 
d="M-18 562q-10 9 -10 23v2l-2 6q-4 13 1 25q0 6 1 12q8 35 38 41q26 6 56 -21q12 -10 15 -29q1 -9 1 -22q0 -26 -7 -45q-6 -18 -17 -27q-24 -18 -50 -1q-12 9 -22 28zM185 553q-43 25 -54 49q-11 21 -1 41q8 17 27 24q22 8 49 0q34 -9 45 -36q7 -20 -2 -44q-2 -4 -3 -7
t-2 -4v-2q-1 -1 -1 -2q-3 -14 -15.5 -21.5t-26.5 -4.5q-6 1 -11 4q-2 1 -5 3zM138 450q1 -64 1 -136t-0.5 -159.5t-0.5 -135.5q0 -14 -10.5 -24.5t-24.5 -10.5t-24.5 10.5t-10.5 24.5l1 215q1 214 -1 214q0 15 10 25.5t24.5 10.5t25 -10t10.5 -24z" />
    <glyph glyph-name="eth" unicode="&#xf0;" horiz-adv-x="582" 
d="M375 399l-15 35q-49 125 -110 183q-10 10 -22 19q-57 -32 -94 -61q-12 -9 -26 -7.5t-23 13t-7.5 25.5t12.5 23q32 26 74 51l-98 58q-12 7 -16 21t3.5 26.5t21.5 16.5t27 -4q101 -58 131 -79l82 44q13 7 26.5 3t21 -17t3.5 -26.5t-17 -21.5l-55 -29l4 -4q73 -69 128 -208
q1 -4 12 -32l15 -38q4 -10 10.5 -32t9.5 -41q47 -253 -130 -309q-20 -7 -51 -11t-49 -2q-34 5 -71 28.5t-62 48.5q-47 48 -60.5 102t3.5 100.5t56 82.5q51 45 120 57.5t146 -15.5zM404 308q-9 1 -17 6q-42 26 -86 32q-45 6 -81.5 -5.5t-63.5 -35.5q-26 -23 -36.5 -52
t-1.5 -64t42 -67q19 -20 46.5 -37.5t46.5 -19.5q9 -2 32 1.5t36 7.5q119 38 84 231z" />
    <glyph glyph-name="ntilde" unicode="&#xf1;" horiz-adv-x="550" 
d="M65 579q30 75 79 86q36 8 86 -24q7 -4 21.5 -13.5t23.5 -14.5t18 -8q25 -11 43 0l6 6q7 7 18 19l29 32q10 10 24.5 11t25 -9t11.5 -24.5t-9 -25.5l-30 -32q-11 -13 -19 -21q-13 -12 -20 -16q-49 -28 -106 -5q-12 5 -24.5 12t-29.5 18t-19 12q-26 16 -34 15
q-13 -3 -28 -44q-6 -13 -19 -19t-26.5 -0.5t-19.5 18.5t-1 27zM50 2q15 299 15 441q0 14 10.5 24.5t24.5 10.5t24.5 -10.5t10.5 -24.5v-27q42 33 93 41t101 -14.5t79 -75.5q31 -53 32 -176q0 -26 -7 -169q-1 -14 -11.5 -24t-25 -9t-24.5 11.5t-9 25.5q7 141 7 165
q-1 104 -22 142q-22 38 -61.5 50t-79.5 -4t-61 -55q-5 -8 -13 -13q-2 -100 -13 -313q-1 -14 -11.5 -24t-25 -9t-24.5 11.5t-9 25.5z" />
    <glyph glyph-name="ograve" unicode="&#xf2;" horiz-adv-x="594" 
d="M220 458q10 12 26 12q60 0 108 -21t78 -55.5t46 -77.5t16 -89q1 -45 -14 -88t-43.5 -78.5t-74.5 -57t-103 -22.5q-65 -1 -123 43q-73 55 -96 131q-22 76 8 149q30 71 104 121q38 25 63 32q3 1 5 1zM199 712q22 -21 59 -70q34 -45 52 -62q10 -11 10 -25t-10.5 -24.5
t-24.5 -10.5t-25 10q-21 21 -58 70q-31 42 -51 60q-10 10 -11 24.5t9 25t24.5 11.5t25.5 -9zM283 392q-32 2 -49 -2q-16 -5 -44 -23q-84 -57 -88 -141t76 -146q39 -30 81 -29q78 1 122 52.5t43 123.5q0 59 -33 105.5t-94 61.5q-7 -2 -14 -2z" />
    <glyph glyph-name="oacute" unicode="&#xf3;" horiz-adv-x="611" 
d="M317 405q-67 0 -103 -10t-70 -47q-33 -35 -38 -84.5t18 -94.5q21 -48 61 -78.5t87 -33.5q33 -2 69.5 26.5t64.5 77.5t34 97t-10 74q-28 48 -113 73zM366 462q88 -33 124 -94q20 -33 21.5 -77t-10.5 -85t-34 -79q-34 -62 -87 -102.5t-112 -37.5q-68 4 -123.5 47t-84.5 106
q-19 41 -23.5 85t9 89.5t46.5 81.5q38 40 78 57t89 21q13 13 31.5 9.5t36.5 -8.5h12q16 0 27 -13zM239 583q21 21 50 56l49 61q10 11 24.5 12t25.5 -8.5t12 -24t-8 -25.5l-49 -60q-31 -37 -54 -61q-11 -10 -25 -10t-24.5 10.5t-10.5 24.5t10 25z" />
    <glyph glyph-name="ocircumflex" unicode="&#xf4;" horiz-adv-x="587" 
d="M217 462q4 11 14.5 17.5t22.5 5.5q53 -6 91.5 -32t73.5 -70q56 -71 65 -122q13 -66 -14.5 -132t-85.5 -107q-59 -42 -129 -39q-56 2 -101 25q-44 24 -71 61t-41 81q-14 43 -12 89q3 81 52 143q49 63 135 80zM128 588q37 65 60 90q35 39 75 27q26 -8 59 -45l63 -74
q10 -10 9 -24.5t-11.5 -24.5t-25 -9t-24.5 12l-63 73q-16 18 -24 24q-3 -2 -7 -7q-17 -18 -49 -76q-8 -13 -21.5 -17t-26.5 3.5t-17 21t3 26.5zM297 397q-93 7 -143.5 -41t-53.5 -120t40 -126t117 -57q47 -2 87 26.5t60 75t12 94.5q-7 33 -51 90q-33 41 -62 58h-6z" />
    <glyph glyph-name="otilde" unicode="&#xf5;" horiz-adv-x="591" 
d="M260 397q-58 -19 -79 -36q-35 -29 -54 -68.5t-19 -78.5t13 -77q22 -56 73 -84q50 -28 121 -11q43 10 68.5 50t29.5 98q3 57 -16 108.5t-53 77.5q-25 19 -84 21zM301 464q53 -8 85 -32q51 -38 76 -106.5t20 -140.5q-4 -75 -42 -135q-38 -59 -109 -76q-98 -24 -171 17
q-74 41 -104 121q-18 52 -18 104.5t26 106.5t73 92q12 10 28 19v3q1 15 12 24.5t25 8.5q8 -1 25.5 -1t23.5 -1l13 5q22 8 37 -9zM119 615q58 71 113 69q16 0 34.5 -8t26 -13t22.5 -16q32 -24 48 -25q26 -1 67 43q10 10 24.5 10.5t25 -9t11 -24t-8.5 -25.5q-63 -67 -122 -65
q-37 2 -87 38q-31 24 -43 24q-22 1 -57 -43q-9 -11 -23.5 -12.5t-25.5 7.5t-12.5 23.5t7.5 25.5z" />
    <glyph glyph-name="odieresis" unicode="&#xf6;" horiz-adv-x="598" 
d="M356 531q-22 3 -28 25q-12 13 -16 29q-7 27 3 47q12 23 39 27q32 4 64 -19q15 -11 23 -24q14 -23 6 -45q-8 -23 -35 -33q-8 -3 -18 -5q-18 -14 -38 -2zM266 403q-113 -15 -154 -86q-9 -15 -10.5 -43t0.5 -59q1 -77 49.5 -126t126.5 -52q71 -3 111.5 44.5t39.5 120.5
q-1 71 -43.5 128.5t-119.5 72.5zM336 454q78 -33 120 -102.5t43 -148.5q0 -46 -14 -88.5t-40.5 -76.5t-71 -53.5t-99.5 -17.5q-104 5 -172.5 73.5t-69.5 174.5v17q-1 14 -1 22.5t1 23.5t3 26t6 24.5t11 24.5q53 92 186 116q11 7 24 6q3 -1 6 -1q18 2 35 2q24 1 33 -22z
M131 564q-12 42 -4 67q6 20 23 29q16 8 34 4q23 -5 40 -26q19 -24 17 -50q-2 -20 -18 -37l-5 -5q-2 -2 -3 -2.5t-1.5 -1.5t-1.5 -2q-8 -11 -22.5 -13.5t-26.5 6.5q-4 3 -7 7q-19 5 -25 24z" />
    <glyph glyph-name="divide" unicode="&#xf7;" horiz-adv-x="636" 
d="M278 461q-36 14 -53 30q-26 23 -19 53q5 23 29 37q15 9 35 14q20 4 36 3q30 -2 43 -22q18 -28 -8 -58q-6 -8 -17 -16q2 -11 -1 -20q-5 -14 -18.5 -20t-26.5 -1zM245 173q-11 31 -11 54q2 39 33 49q31 9 54 -22q14 -18 22 -50q3 -14 -4.5 -26.5t-21.5 -15.5q-6 -2 -13 -1
q-6 -6 -14 -9q-13 -5 -26.5 1t-18.5 20zM44 406q72 5 232 -7q145 -11 221 -1q14 1 25.5 -7.5t13 -23t-7 -26t-23.5 -13.5q-84 -10 -234 1q-158 12 -223 7q-14 -1 -25 8.5t-12 24t8.5 25.5t24.5 12z" />
    <glyph glyph-name="oslash" unicode="&#xf8;" horiz-adv-x="645" 
d="M333 351q-22 10 -47 8q-86 -5 -130.5 -52t-41.5 -103q2 -28 17 -53l87 92q48 49 115 108zM241 11q-63 10 -109 40q-46 -48 -86 -82q-11 -9 -25.5 -8t-24 12t-8.5 25.5t12 24.5q37 31 81 76q-33 44 -37 101q-5 87 60 154q65 68 178 75q61 4 106 -29l99 85q11 9 25.5 8
t24 -12t8.5 -25.5t-12 -24.5l-98 -83q25 -40 34 -90q12 -70 -9 -140t-75 -107q-11 -7 -22.5 -12.5t-25 -8t-20 -3.5t-22 -2.5t-17.5 -1.5q-13 -1 -24 7t-13 21zM350 72q31 25 45 73.5t5 100.5q-5 31 -18 55q-65 -58 -114 -108l-86 -91q56 -31 146 -24q12 1 22 -6z" />
    <glyph glyph-name="ugrave" unicode="&#xf9;" horiz-adv-x="532" 
d="M160 744l51 -54q34 -36 59 -59.5t52 -44.5q12 -9 14 -23.5t-7 -26t-23.5 -13.5t-25.5 7q-30 22 -58 49t-63 64.5t-49 50.5q-10 11 -10 25t10.5 24.5t24.5 10.5t25 -10zM130 436q0 -21 -4 -84t-5 -95q-2 -108 23 -151q18 -31 62 -53t71 -12q26 9 56 68q13 26 20 54
q7 29 8.5 66t1 63.5t-2.5 72.5t-3 67q0 15 10 25.5t24.5 10.5t25 -10t10.5 -24q0 -16 3 -62.5t3 -76.5t-2 -72.5t-11 -79t-25 -66.5q-43 -83 -94 -102q-55 -20 -126 15q-63 32 -91 80q-35 60 -33 189q1 33 5 97t4 80q0 14 10.5 24.5t24.5 10.5t24.5 -10.5t10.5 -24.5z" />
    <glyph glyph-name="uacute" unicode="&#xfa;" horiz-adv-x="533" 
d="M125 448q2 -43 2.5 -56t-2 -58t-2.5 -55q-4 -93 22 -140q15 -28 42 -48.5t56 -26.5q62 -13 91 43q14 27 21.5 59t8 70.5t-1 67.5t-5.5 77.5t-5 71.5q-1 15 9 25.5t24.5 11.5t25 -9t11.5 -24q1 -18 5 -66.5t5.5 -81t0.5 -77.5t-10.5 -84.5t-26.5 -72.5q-27 -51 -72 -70.5
t-95 -8.5q-45 9 -84.5 38.5t-61.5 70.5q-34 65 -30 177q0 16 2.5 57t2 52t-2.5 49q-2 14 7 25.5t23.5 13.5t26 -7t13.5 -24zM195 596q25 21 61 58l61 65q11 10 25 10t24.5 -10.5t10.5 -24.5t-10 -25l-60 -63q-39 -40 -66 -64q-11 -9 -25.5 -8t-24 12t-8.5 25.5t12 24.5z" />
    <glyph glyph-name="ucircumflex" unicode="&#xfb;" horiz-adv-x="524" 
d="M90 600q3 2 22 25l36 40q24 24 44 36q34 22 62 12q8 -3 16 -10l12 -10l29 -27q41 -41 46 -44q11 -9 12.5 -23.5t-7 -26t-23 -13t-26.5 6.5q-8 7 -51 50l-27 25l-3 3q-1 -1 -3 -1q-12 -9 -31 -27l-33 -37q-22 -25 -25 -29q-11 -10 -25 -10t-24.5 10.5t-10.5 24.5t10 25z
M131 461q3 -30 2 -94v-111q1 -64 8 -103q7 -43 20 -60q29 -37 82 -36q44 1 69.5 35t35.5 102q6 38 7 82.5t-1 98.5t-2 68t10.5 24.5t24.5 10.5t24.5 -10.5t10.5 -24.5q0 -9 2 -65t0.5 -104.5t-7.5 -90.5q-29 -194 -174 -196q-86 -1 -136 62q-25 31 -35 93q-8 44 -9 112v113
q1 61 -2 86q-1 15 8 26t23.5 12.5t25.5 -7.5t13 -23z" />
    <glyph glyph-name="udieresis" unicode="&#xfc;" horiz-adv-x="538" 
d="M106 597q-1 4 -3 9q-8 29 7 48q16 21 45 16q14 -2 30 -11q34 -19 45 -48q9 -24 -2 -46q-11 -20 -37 -30q-22 -8 -47 4q-4 2 -7.5 3.5t-4.5 1.5l-2 2h-3q-14 4 -21 17t-3 27q1 3 3 7zM388 579q-8 -16 -25 -19l-8 -6q-12 -8 -26.5 -5.5t-22.5 14.5q-2 3 -3 7h-1
q-15 7 -22 18q-11 18 -4 37q7 18 29 31q14 7 32 12t33 4q12 0 21 -3q17 -7 24 -24q7 -16 -1 -34q-4 -10 -13 -20q-6 -5 -13 -12zM122 437q-9 -129 -8 -174q1 -106 28 -151q24 -42 69.5 -54t87.5 9.5t57 67.5q11 36 13 78.5t-3 112t-6 91.5q0 15 10 25.5t24.5 10.5t25 -10
t10.5 -24q0 -9 5.5 -85t3 -127t-16.5 -94q-17 -55 -62.5 -89t-96.5 -39t-102 19q-51 23 -79 72q-36 62 -38 186q-1 58 8 181q1 14 12 23.5t25.5 8.5t24 -12t8.5 -26z" />
    <glyph glyph-name="yacute" unicode="&#xfd;" horiz-adv-x="595" 
d="M207 552q5 12 11 23.5t14 23.5l12 21q6 8 16 22l14 19l16 21l14 18q9 12 23.5 14t26 -7t13.5 -23.5t-7 -25.5q-3 -3 -15 -19t-15 -20.5t-13 -17.5t-14 -20t-11 -18t-12 -20t-9 -19q-6 -13 -19.5 -18.5t-26.5 0.5t-18.5 19.5t0.5 26.5zM486 422q-25 -28 -46 -59
q-22 -33 -35.5 -58t-35.5 -70t-35 -68q-73 -137 -199 -407q-6 -13 -20 -18t-27 1t-18 20t1 27l144 300q-10 4 -16 13q-6 11 -38.5 61.5t-48.5 77.5q-12 21 -41 84q-22 46 -40 71q-9 12 -6.5 26.5t14 23t26 6t22.5 -13.5q23 -32 47 -84q28 -60 38 -77l77 -122l23 43
q11 20 34 66l36 73q15 28 40.5 65.5t51.5 66.5q10 10 24.5 11t25 -9t11.5 -24.5t-9 -25.5z" />
    <glyph glyph-name="thorn" unicode="&#xfe;" horiz-adv-x="570" 
d="M134 302q4 -97 6 -165q1 -1 2 -1q48 -38 88 -57q42 -20 71 -26q37 -9 58 3q27 15 37 78q11 69 -8 142q-20 73 -60 101q-42 29 -102 -4q-55 -29 -82 -62q-4 -6 -10 -9zM143 48q1 -34 1 -139.5t3 -162.5q1 -15 -9 -25.5t-24.5 -11.5t-25 9t-11.5 24q-3 60 -3 173
q0 102 -2 163q-3 92 -12.5 335.5t-13.5 375.5q0 15 10 25.5t24.5 10.5t25 -10t10.5 -24q4 -137 14 -396q23 18 62 40q99 54 176 0q60 -43 87 -141q24 -88 11 -171q-16 -98 -73 -129q-44 -23 -107 -10q-37 8 -86 31q-29 14 -57 33z" />
    <glyph glyph-name="ydieresis" unicode="&#xff;" horiz-adv-x="547" 
d="M96 591q-1 5 -2 9q-6 39 24 53q24 12 62 -5q22 -11 30.5 -31.5t6.5 -40.5q-3 -22 -17 -40t-39 -22t-46 18l-5 6l-4 2v1.5t-1 0.5q-12 9 -14.5 23t5.5 26zM402 579q-2 -12 -10 -20.5t-20 -10.5l-3 -3q-12 -9 -26 -8t-24 12q-1 2 -2 3q-23 7 -33 25q-15 25 2 57q7 14 24 21
q8 4 20 7q25 5 45 1q19 -4 30 -16q15 -18 10 -42q-3 -12 -13 -26zM441 385q-26 -40 -61 -117q-33 -75 -49 -105q-5 -9 -109 -219q-67 -135 -117 -218q-8 -13 -22 -16t-26.5 4.5t-15.5 21.5t4 26q46 76 114 213l65 132q-36 43 -76.5 104.5t-61.5 98.5l-61 109q-7 13 -3 27
t17 21t27 3t21 -17l55 -99q18 -34 52 -87.5t65 -91.5l10 20q8 15 47 101t67 127q8 12 22 15t26 -5t15 -22t-5 -26z" />
    <glyph glyph-name="itilde" unicode="&#x129;" horiz-adv-x="451" 
d="M-14 579q58 56 106 68q41 10 82 -9q10 -4 29 -15q15 -10 23 -13q21 -9 40 -3q6 3 19 12q19 14 28 19t19.5 2t15.5 -12.5t2 -20t-13 -15.5q-4 -2 -21 -15q-18 -13 -32 -18q-39 -15 -80 4q-10 4 -28 15q-16 10 -24 13q-24 11 -47 6q-35 -9 -83 -56q-8 -7 -18.5 -7t-18 8
t-7.5 18.5t8 18.5zM182 431q5 -37 8 -74t4.5 -83.5t2 -70.5t0 -83t-0.5 -73q0 -11 -7.5 -18.5t-18.5 -7.5t-18.5 7.5t-7.5 18.5q0 14 0.5 73t-0.5 82l-1 70q-1 45 -4.5 80.5t-8.5 70.5q-1 11 5.5 19.5t17 10t19 -5t10.5 -16.5z" />
    <glyph glyph-name="imacron" unicode="&#x12b;" horiz-adv-x="308" 
d="M-23 611q80 9 205 9q11 0 18.5 -7.5t7.5 -18.5t-7.5 -18.5t-18.5 -7.5q-123 0 -199 -9q-11 -1 -19.5 5.5t-9.5 17.5t5.5 19.5t17.5 9.5zM127 444q6 -53 4 -206q-2 -127 12 -197q3 -10 -3 -19t-16.5 -11.5t-19.5 3.5t-11 17q-16 74 -14 207q2 145 -4 200q-1 11 5.5 19.5
t17.5 9.5t19.5 -5.5t9.5 -17.5z" />
    <glyph glyph-name="Iogonek" unicode="&#x12e;" horiz-adv-x="296" 
d="M139 722q25 -66 16 -279q-2 -64 -9 -166t-8 -120q0 -2 5 -81q2 -31 1 -49q-1 -29 -9 -43q-7 -12 -17.5 -23t-18.5 -17t-20 -14l-15 -10q-14 -11 -20.5 -23t-5.5 -35q2 -32 42 -41q43 -10 78 9q9 5 19.5 2t15.5 -12.5t2 -20t-13 -15.5q-52 -28 -114 -13q-33 7 -56.5 29.5
t-25.5 59.5q-4 65 48 102q7 6 18 13t16 10.5t11 9.5t10 13q2 5 3 21t-1 43q-5 82 -5 87q1 18 8 120q6 94 9 166q7 205 -12 259q-4 10 0.5 20t14.5 13.5t20 -1t13 -14.5z" />
    <glyph glyph-name="iogonek" unicode="&#x12f;" horiz-adv-x="261" 
d="M58 635l-2 4q-9 32 18.5 53.5t55.5 4.5q29 -17 31 -40t-20 -40q-27 -19 -60 -19q-11 0 -18.5 7.5t-7.5 18.5q0 6 3 11zM121 450q6 -20 9 -88q3 -64 3 -137q0 -79 -4 -136q-4 -67 -12 -87q-10 -22 -38 -45l-19 -15q-14 -11 -22 -18q-20 -17 -27.5 -34.5t-2.5 -44.5
q3 -12 12 -17q10 -6 29 -5q39 2 71 23q9 6 19.5 3.5t16.5 -11.5t3.5 -19.5t-11.5 -16.5q-43 -29 -97 -31q-33 -2 -56 11q-30 17 -37 53q-16 74 46 128q7 7 22 19l20 15q18 15 23 27q5 10 9 68q3 56 3 133q0 74 -3 134q-3 61 -7 77q-3 10 2.5 19.5t15.5 12.5t19.5 -2.5
t12.5 -15.5z" />
    <glyph glyph-name="jcircumflex" unicode="&#x135;" horiz-adv-x="379" 
d="M9 587q13 14 75 86q14 17 22 24q16 13 33 12q15 -1 30 -13q7 -6 23 -22q41 -44 78 -74q8 -7 9 -17.5t-6 -19t-17.5 -9.5t-19.5 6q-38 32 -82 77q-13 14 -17 18q-5 -5 -14 -15q-62 -74 -76 -89q-7 -8 -18 -8t-19 7t-8 18t7 19zM154 391q5 -18 7.5 -40t2.5 -37.5t-0.5 -40
t-0.5 -33.5q0 -30 3 -109q3 -76 2 -113q0 -16 -2.5 -60t-2.5 -57.5t3 -56.5q1 -11 -5.5 -19.5t-17.5 -9.5t-19.5 5.5t-9.5 17.5q-2 46 -2.5 62t2 61.5t2.5 58.5q1 33 -2 109q-3 80 -3 111q0 13 0.5 36.5t0.5 36.5t-1.5 30.5t-6.5 31.5q-3 11 2 20.5t15.5 12.5t20 -2
t12.5 -15z" />
    <glyph glyph-name="Kcommaaccent" unicode="&#x136;" horiz-adv-x="635" 
d="M138 704q-6 -34 -7 -71t0.5 -92t1.5 -76v-47v-50l27 24l57 52q6 4 16 13l87 74q30 26 74 69t76 82q7 8 17.5 9t19 -6t9.5 -17.5t-6 -19.5q-34 -40 -79.5 -84.5t-76.5 -71.5l-86 -74q-12 -9 -17 -14l-7 -6q39 -72 128 -184.5t155 -179.5q8 -7 8 -18t-7.5 -18.5t-18.5 -7.5
t-18 8q-66 65 -154.5 176t-132.5 188l-9 -8q-35 -33 -59 -51q-2 -1 -3 -1q1 -170 10 -289q1 -11 -6 -19t-18 -9t-19 6t-9 18q-10 136 -10 456q0 17 -1.5 73.5t-0.5 96.5t7 77q2 11 11 17t19.5 4.5t16.5 -10.5t5 -19zM313 -73q0 -4 -7 -32q0 -2 -1 -3q16 -6 23 -17
q18 -29 -2 -80q-7 -18 -28 -56q-6 -9 -16 -12t-19.5 2.5t-12.5 15.5t2 20q20 34 26 49q7 19 7 29q-19 6 -26 20q-9 18 -3 44q1 5 2.5 10t2 8t0.5 6q1 11 9 18t19 6t18 -9t6 -19z" />
    <glyph glyph-name="omacron" unicode="&#x14d;" horiz-adv-x="572" 
d="M250 400q-32 -2 -55 -11q-50 -21 -77 -71t-24 -109.5t34.5 -103t86.5 -52.5q94 -17 150 26q49 37 55 106t-35 129.5t-119 76.5q-10 1 -16 9zM361 408q59 -37 87.5 -100t23.5 -128q-9 -91 -75 -143q-75 -57 -192 -36q-75 14 -117.5 72t-45.5 133q-4 73 30.5 138t102.5 93
q62 25 168 10q10 -2 16.5 -10.5t5.5 -19.5q-1 -5 -4 -9zM442 562q-50 0 -151 -5q-121 -6 -154 -6q-11 0 -18.5 7.5t-7.5 18.5t7.5 18.5t18.5 7.5q50 0 151 5q121 6 154 6q11 0 18.5 -7.5t7.5 -18.5t-7.5 -18.5t-18.5 -7.5z" />
    <glyph glyph-name="ohungarumlaut" unicode="&#x151;" horiz-adv-x="604" 
d="M285 386q-86 -3 -127.5 -45t-43.5 -102q-3 -65 34.5 -118.5t94.5 -61.5q29 -4 65.5 6.5t67.5 33.5q69 51 65 114q-3 49 -60 105q-46 45 -96 68zM346 412q38 -24 72 -57q71 -70 75 -138q3 -47 -21.5 -88.5t-64.5 -71.5q-39 -28 -85 -42t-87 -8q-80 12 -128 82t-45 152
q2 78 55 133.5t151 62.5q11 7 23 2l4 -1q13 0 27 -1q10 -1 17 -8t7 -17zM342 572q14 27 34 55.5t44.5 60t36.5 48.5q6 9 16.5 10.5t19.5 -4.5t10.5 -16.5t-4.5 -19.5q-15 -21 -39 -51.5t-41.5 -55.5t-30.5 -51q-5 -9 -15 -12.5t-19.5 1.5t-13 15t1.5 20zM118 551
q15 51 65 111l40 46q22 26 35 45q6 9 16.5 11t19.5 -4.5t11 -17t-5 -19.5q-14 -20 -38 -49l-39 -45q-43 -52 -55 -92q-3 -11 -12.5 -16t-20 -2t-15.5 12.5t-2 19.5z" />
    <glyph glyph-name="OE" unicode="&#x152;" horiz-adv-x="1093" 
d="M704 215v60q0 44 1 231l-9 13q-4 7 -8 12t-12 13l-10 10q-4 4 -14 12l-13 12l-15 12q-12 9 -14 11q-57 45 -117 64.5t-112 14.5q-51 -6 -96 -32q-69 -41 -106.5 -120t-27.5 -183q8 -88 42 -143q66 -108 158 -143t182 -4q54 20 98.5 61t72.5 99zM941 659q-22 -3 -48 -4
t-44 -0.5t-48 2.5t-42 2h-2q0 -18 -1 -50q0 -22 1 -52q29 -51 33 -136q6 -1 28 -2.5t30 -2t26 -1t28.5 0t25.5 1.5t28 3q11 1 19.5 -5t10 -17t-4.5 -19.5t-17 -10.5q-53 -8 -173 1q-2 -89 -35 -165q0 -46 1 -79q0 -32 1 -50v-10q8 -4 20 -6q24 -6 66 -8q20 -1 123 -1
q11 0 18.5 -7.5t7.5 -18.5t-7.5 -18.5t-18.5 -7.5q-105 0 -126 1q-45 3 -74 9q-44 9 -56 32q-2 4 -3 10q-1 3 -1 7q-1 6 -1 16q-1 17 -1 45q-63 -79 -155 -112q-108 -38 -217 4t-184 164q-40 66 -50 167q-11 117 33 210.5t127 141.5q55 32 118 38t132 -16.5t133 -73.5
q49 -39 62 -52v20q1 33 1 52q1 12 1 19l2 8q1 8 6 14q13 15 36 11q7 -1 8.5 -1.5t2.5 -0.5q15 -1 44 -2.5t45.5 -2t39.5 0.5t43 4q10 1 19 -5t10.5 -16.5t-4.5 -19.5t-17 -11z" />
    <glyph glyph-name="oe" unicode="&#x153;" horiz-adv-x="938" 
d="M434 194q-1 3 -5 18.5t-6 28.5q-2 7 -4 30q-1 8 -5 18q-33 67 -102.5 82.5t-125.5 -30.5q-51 -42 -56 -74q-16 -89 25 -141t106 -56q52 -3 100 28t73 96zM780 277q5 8 -5 31q-17 42 -61 77q-46 37 -89 35q-49 -2 -85 -62q-15 -26 -21 -87q13 0 34 0.5t52 1t49 0.5
q59 1 91 2q19 1 30 1q3 0 5 1zM516 218q-3 -70 15 -111q27 -62 105 -65q52 -2 87.5 20t66.5 70q6 9 16.5 11.5t19.5 -3.5t11.5 -16.5t-3.5 -19.5q-37 -58 -85 -87.5t-115 -26.5q-110 5 -150 96q-9 19 -14 42q-2 -3 -5 -7q-7 -7 -16 -9q-36 -49 -86.5 -73t-104.5 -21
q-88 5 -143.5 75.5t-36.5 181.5q4 23 18.5 45t26.5 34t31 27q49 40 109.5 45.5t114.5 -25t82 -90.5q5 -9 7 -17q1 1 2 1q6 55 27 89q49 84 127 88q62 3 124 -47q54 -43 76 -98q7 -17 9.5 -34t-4.5 -35.5t-26 -28.5q-5 -3 -13 -4q-4 0 -11 -1q-11 0 -32 -1q-31 -1 -91 -2
q-138 -2 -139 -3z" />
    <glyph glyph-name="Tbar" unicode="&#x166;" horiz-adv-x="546" 
d="M417 642q-74 8 -173 3q0 -93 -5 -204q22 5 44 11q10 3 19.5 -2.5t12.5 -15.5t-2.5 -19.5t-15.5 -12.5q-30 -9 -60 -14l-21 -354q-1 -10 -9 -17.5t-18.5 -6.5t-18 9t-6.5 19q18 300 20 342q-23 -2 -45 -2q-11 0 -18.5 7.5t-7.5 18.5t7.5 18.5t18.5 7.5q23 0 48 3
q5 114 5 209q-30 -2 -86 -6l-81 -7q-11 -1 -19 6t-9 18t6 19t18 9q16 1 93.5 7.5t110.5 8.5t92 2q58 0 106 -5q10 -1 17 -9.5t6 -19t-9.5 -17.5t-19.5 -6z" />
    <glyph glyph-name="tbar" unicode="&#x167;" horiz-adv-x="310" 
d="M2 256q32 -1 60 0q2 100 2 129q-35 -2 -61 -6q-11 -1 -19.5 5t-10 17t4.5 19.5t17 10.5q29 4 70 6q1 111 -2 197q0 11 7 19t18 8t19 -7t8 -18q3 -85 2 -196q33 1 56 4q11 1 19.5 -6t9.5 -17.5t-6 -19t-17 -9.5q-24 -2 -63 -4q0 -32 -2 -130q34 2 66 8q10 1 19 -5
t10.5 -16.5t-4.5 -19.5t-17 -11q-37 -6 -75 -8q-2 -82 -2 -141q0 -11 -7.5 -18.5t-18.5 -7.5t-18.5 7.5t-7.5 18.5q0 58 2 139q-29 -1 -61 0q-11 0 -18 8t-7 19t8 18t19 7z" />
    <glyph glyph-name="utilde" unicode="&#x169;" horiz-adv-x="538" 
d="M438 655q0 -4 1 -19q0 -12 -3 -20q-3 -10 -13 -20l-18 -14q-35 -29 -70 -31q-28 -2 -59 13q-12 6 -30 17t-30 16.5t-27 6.5q-12 1 -17 -1q-3 -1 -5.5 -2.5t-7.5 -5t-12 -7.5q-9 -6 -19.5 -3.5t-16 12t-3 20t12.5 15.5l29 18q19 9 45 6q19 -2 38.5 -10t41 -21t24.5 -14
q19 -9 32 -8q19 1 42 19q11 10 14 12q-1 16 -1 21q0 11 7.5 18.5t18.5 7.5t18.5 -7.5t7.5 -18.5zM429 440q0 -158 -2 -194q-10 -133 -52 -193q-10 -14 -24.5 -24t-35 -15t-28.5 -6.5t-28 -4.5q-27 -3 -42.5 -4t-42.5 6.5t-46 25.5q-56 55 -52 205q1 43 8 113q7 71 8 90
q0 11 8 18t19 7t18 -8t7 -19q-1 -20 -8 -93t-8 -109q-4 -128 36 -166q15 -15 37 -17t52 3q66 8 80 28q33 48 42 167q2 33 2 190q0 11 7.5 18.5t18.5 7.5t18.5 -7.5t7.5 -18.5z" />
    <glyph glyph-name="Uogonek" unicode="&#x172;" horiz-adv-x="685" 
d="M426 38q-72 -80 -94 -119q-21 -36 -19 -57q1 -18 27 -27q39 -14 83 1q10 3 19.5 -2t13 -15t-1.5 -19.5t-15 -13.5q-61 -19 -115 -1q-59 20 -63 72q-3 38 25 87q16 28 42 60q-53 -2 -97 34q-99 82 -126 317q-5 48 -12 185q-6 112 -12 155q-1 11 5.5 19.5t17 10t19 -5
t10.5 -16.5q6 -46 12 -161q5 -119 12 -181q24 -214 108 -283q48 -40 110 -8q28 14 52.5 39.5t39.5 54.5q40 78 56 259q10 114 10 281q0 11 7.5 18.5t18.5 7.5t18.5 -7.5t7.5 -18.5q0 -169 -10 -286q-17 -191 -62 -278q-30 -58 -83 -97q-1 -3 -4 -5z" />
    <glyph glyph-name="uogonek" unicode="&#x173;" horiz-adv-x="527" 
d="M413 446q39 -223 -28 -356q-21 -43 -62 -62q-5 -9 -11 -18l-15 -18l-13 -16q-4 -5 -14 -16l-13 -13q-46 -51 -52 -87q-3 -15 3 -21q8 -8 26 -8q20 -1 40.5 7t27.5 18q6 9 17 10.5t19.5 -4.5t10 -17t-4.5 -19q-16 -23 -48 -36q-33 -12 -64 -11q-38 1 -60 22q-27 25 -19 69
q10 50 65 112l30 33q-10 0 -19 2q-46 8 -84.5 35.5t-56.5 69.5q-23 54 -19 160q1 22 5 82q4 48 4 71q0 11 7.5 18.5t18.5 7.5t18.5 -7.5t7.5 -18.5q0 -25 -4 -75q-4 -59 -5 -81q-4 -94 15 -137q12 -28 40 -48t61 -26q26 -4 48 2q9 13 25 11q18 12 29 33q59 117 22 322
q-1 11 5 20t16.5 10.5t19.5 -4.5t11 -16z" />
    <glyph glyph-name="wcircumflex" unicode="&#x175;" horiz-adv-x="780" 
d="M363 325l-5 -13l-37 -88q-25 -58 -39 -88q-10 -20 -17 -31q-5 -7 -9 -12q-10 -10 -22 -11q-18 -1 -28 14q-5 6 -7 15l-1 9q-20 32 -55 100t-64.5 115t-65.5 85q-7 8 -7 18.5t8 18t18.5 7.5t18.5 -8q36 -39 66.5 -86t68.5 -119.5t49 -91.5q12 25 38 86l37 87q8 21 13 31
q3 7 6 11q1 3 3 5q3 5 8 8q20 13 42 -4q10 -7 21 -23q16 -24 37 -71q19 -40 61 -143l2 5q17 33 48 104q49 112 79 187q4 10 13.5 14t20 0t14.5 -13.5t0 -20.5q-33 -83 -79 -188q-30 -68 -49 -107q-12 -23 -20 -35l-10 -13q-10 -12 -23 -12q-26 -1 -34 28q-1 3 -2 10l-1 3
q-55 135 -67 159q-17 38 -30 58zM433 548q-6 13 -14 23.5t-15 16.5l-23 23q-7 5 -25 31q-4 5 -7 8q-2 -1 -5 -4q-11 -9 -27 -27q-12 -15 -45 -60q-6 -9 -17 -10.5t-19.5 4.5t-10 17t4.5 19q34 47 48 63q19 23 34 35q26 21 47 15q22 -5 40 -30q15 -21 16 -23
q20 -17 26.5 -23.5t19 -22.5t20.5 -35q4 -9 0 -19t-13.5 -14.5t-19.5 -0.5t-15 14z" />
    <glyph glyph-name="zdotaccent" unicode="&#x17c;" horiz-adv-x="616" 
d="M79 437h238h50q19 0 31 -1q7 -1 12 -2t8 -2q13 -6 16 -19q3 -10 -3 -19q0 -2 -1 -3q-1 0 -1 -1q-1 0 -1 -1h-1v-1h-1l-2 -3l-9 -9l-28 -27q-41 -40 -45 -45q-35 -37 -119 -150l-51 -71h11h65q15 0 46 -1t46 -1q26 0 77 -4t73 -4q11 0 18.5 -7.5t7.5 -18.5t-7.5 -18.5
t-18.5 -7.5q-26 0 -77 4t-73 4q-15 0 -46 1t-46 1h-66q-25 1 -40 1q-10 1 -15 2q-4 0 -7 1q-4 1 -7 3q-8 4 -12 13q-2 4 -2 8v6l1 2q0 2 1 4q1 1 1 3q1 0 1 1l2 3l5 7l17 24l54 76q86 115 123 155l46 45h-14h-13h-6h-238q-11 0 -18.5 7.5t-7.5 18.5t7.5 18.5t18.5 7.5z
M238 565q-17 18 -21.5 38.5t7.5 38.5q10 16 28.5 21.5t35.5 -1.5q7 -3 13 -10q2 -3 4 -7q3 -6 6 -15q8 -19 9 -33q1 -15 -5 -25q-7 -12 -21 -14q-9 -1 -18 4q-2 0 -3 1q-7 -7 -17.5 -6t-17.5 8z" />
    <glyph glyph-name="Zcaron" unicode="&#x17d;" horiz-adv-x="671" 
d="M126 719q20 -4 178 -6h56q37 0 51 -1h35q7 0 11 -1h3h4q6 -1 12 -6q24 -20 16 -55q-3 -18 -19 -37q-3 -3 -7 -7.5t-6.5 -7t-4.5 -5.5q-14 -21 -35 -58l-36 -61l-134 -216q-49 -81 -75 -129q-16 -28 -23 -45l-2 -4q4 -2 11 -4q25 -6 69 -9q25 -2 52.5 -3t51 -1.5
t27.5 -0.5q22 -1 94 -7q56 -4 90 -4q11 0 18.5 -7.5t7.5 -18.5t-7.5 -18.5t-18.5 -7.5q-36 0 -95 5q-70 5 -91 6q-4 0 -28 0.5t-53 1.5q-28 1 -52 3q-49 4 -78 11q-19 5 -30 11q-21 12 -24 31q-1 9 3 21l7 17l25 48q27 49 77 131l134 217q7 11 35 59q23 40 38 62q1 2 20 24
q7 8 8 13h-31q-14 1 -50 1h-57q-162 2 -187 8q-11 2 -17 11t-3.5 19.5t11.5 16.5t19 3zM312 789q-6 7 -14 13l-12 11q-5 4 -16.5 12.5t-17.5 12.5q-9 6 -10.5 17t4.5 19.5t17 10t19 -4.5q4 -3 16.5 -11.5t19 -13.5t16.5 -14t18 -18q7 -8 6 -19t-9 -18t-19 -6t-18 9z" />
    <glyph glyph-name="zcaron" unicode="&#x17e;" horiz-adv-x="577" 
d="M176 718l57 -60l34 -36l3 -3l3 2q13 9 35 26q13 10 34 28q22 18 26 21q9 6 19.5 4.5t17 -10t5 -19t-9.5 -17.5q-5 -3 -26 -20l-34 -28q-23 -18 -38 -28l-17 -10q-12 -6 -21 -6q-6 0 -12 3q-2 1 -3 2q-1 0 -2 1q0 1 -1 1l-2 2l-3 3l-11 12l-35 36l-57 60q-7 8 -6.5 19
t8 18t18.5 6.5t18 -7.5zM68 430q44 0 198 10q79 6 97 7q21 1 31 1h10h5q2 0 4 -1q8 -1 14 -9q5 -6 6 -13t-1 -11l-1 -4q-2 -3 -4 -8l-10 -12q-10 -11 -28 -29q-8 -9 -19 -21l-20 -18q-7 -8 -10 -10l-146 -164l-66 -77l-3 -3q22 -1 59 0q29 0 71.5 2t48.5 2q16 0 75 -3t69 1
q11 1 19.5 -6t9.5 -17.5t-6 -19t-17 -9.5q-10 -4 -77.5 -1t-73 3t-47.5 -2t-71 -2q-46 -1 -72 1q-17 1 -28 4q-8 2 -13 5q-11 6 -15 16q-2 6 -2 10.5t1 7.5l1 3q1 3 3 6q2 4 7 10l21 26l67 77l147 164q2 3 10 10l18 19l19 19l-80 -6q-155 -10 -201 -10q-11 0 -18.5 7.5
t-7.5 18.5t7.5 18.5t18.5 7.5z" />
    <glyph glyph-name="longs" unicode="&#x17f;" horiz-adv-x="405" 
d="M281 667q-8 -1 -29.5 -2t-29 -2t-23 -3.5t-23 -6t-17.5 -10t-18 -16.5q-18 -21 -28 -101q-2 -19 -4 -40q18 -6 18 -25q0 -9 -6 -16.5t-15 -9.5q-2 -41 -3 -92q0 -55 1 -194q1 -110 -2 -143q-1 -11 -9 -18t-19 -6t-18 9t-6 19q3 31 2 139q-1 140 -1 195q1 50 3 91
q-22 -1 -39 -3q-11 -1 -19.5 6t-9.5 17.5t6 19t17 9.5q22 2 48 3q2 24 5 45q11 96 39 129q12 14 27.5 24.5t28 16t32.5 9t30 4.5t31 2t27 2q11 1 19 -6t9 -18t-6 -19t-18 -9z" />
    <glyph glyph-name="quoteleft" unicode="&#x2018;" horiz-adv-x="335" 
d="M233 721q-16 -42 -50 -116l-50 -111q-5 -14 -18.5 -19.5t-27 0t-19 19t0.5 26.5q9 22 51 114q32 70 47 111q5 14 18.5 20t27 1t19.5 -18.5t1 -26.5z" />
    <glyph glyph-name="quoteright" unicode="&#x2019;" horiz-adv-x="310" 
d="M42 477q15 43 50 110q39 75 51 102q6 13 19 18.5t26.5 -0.5t19 -19t-0.5 -27q-9 -22 -53 -107q-32 -62 -46 -101q-5 -13 -18 -19.5t-26.5 -1.5t-20 18t-1.5 27z" />
    <glyph glyph-name="quotedblleft" unicode="&#x201c;" horiz-adv-x="541" 
d="M240 714l-56 -114l-61 -123q-7 -13 -21 -17.5t-26.5 2.5t-17 21t2.5 26q23 43 61 123t56 114q6 13 20 17.5t27 -2t17.5 -20.5t-2.5 -27zM435 705q-66 -94 -128 -227q-6 -13 -20 -18t-27 1t-18 20t1 27q65 138 134 237q9 12 23 14.5t26 -6t14.5 -22.5t-5.5 -26z" />
    <glyph glyph-name="quotedblright" unicode="&#x201d;" horiz-adv-x="516" 
d="M217 699q-22 -25 -41 -60.5t-30 -62.5q-10 -24 -28 -75q-5 -14 -18 -20t-27 -1t-20 18t-1 27q18 50 29 77t34 70t48 73q10 11 24.5 12t25.5 -8.5t12 -24t-8 -25.5zM412 717q-6 -14 -34 -72l-46 -94q-18 -36 -38 -69q-8 -13 -22 -16t-26.5 4.5t-15.5 21.5t4 26
q20 33 38 68l44 90l34 71q6 13 19.5 18t26.5 -1.5t18 -20t-2 -26.5z" />
    <glyph glyph-name="Euro" unicode="&#x20ac;" horiz-adv-x="578" 
d="M446 658q-65 -5 -149 -64q-86 -61 -104 -119l-1 -6q3 0 8 -1q21 -3 55 -1q52 3 106 13q15 3 27 -5t14.5 -22.5t-5.5 -26.5t-22 -14q-59 -12 -116 -15q-41 -2 -69 2q-44 6 -61 30q-14 18 -9 44q1 4 7 22q24 81 130 156q100 70 183 77q15 1 26 -8.5t12 -24t-8.5 -25.5
t-23.5 -12zM404 245q-52 3 -122 3q-43 0 -70 -2q-11 -1 -19 -2l1 -1q5 -16 27 -40q19 -22 44 -42.5t38 -28.5q48 -29 135 -43q14 -3 22.5 -14.5t6 -26t-14 -23t-26.5 -6.5q-100 17 -159 53q-18 11 -47 35t-51 49q-32 35 -42 65q-17 50 21 80q10 9 30 12q12 2 29 3q29 2 75 2
q72 0 126 -3q14 -1 24 -11.5t9 -25t-11.5 -24.5t-25.5 -9z" />
    <glyph glyph-name="uni3000" unicode="&#x3000;" horiz-adv-x="1000" 
 />
    <glyph glyph-name="uniF8FF" unicode="&#xf8ff;" horiz-adv-x="833" 
d="M38 238q-27 80 -16 143q4 21 18 50l21 43q15 43 47.5 74.5t75.5 46.5q40 15 109 -7q4 -1 17.5 -5.5t17 -5t16.5 -4.5t16 -3.5t16 -1.5t15 0q12 1 23 4.5t27 11t23 10.5q57 23 125 1t113 -67q2 -2 3 -5q3 -6 -1 -12q-16 -18 -47 -44q-26 -24 -36 -36q-30 -39 -10 -112
q6 -27 27 -51q6 -2 10 -6l21 -23l6 -4q12 -9 27 -18q9 1 17 -5q5 -3 8 -10q1 0 2 -1q2 -2 3 -4q3 -6 1 -15q-1 -6 -3 -14q-4 -11 -9 -22l-2 -5q1 -13 -8 -22l-11 -11q-26 -41 -59 -73q-64 -62 -120 -60q-23 1 -62 12q-40 12 -57 14q-9 1 -18 0t-21 -4.5t-18 -6.5l-21 -8
l-21 -9q-20 -9 -35.5 -12.5t-35.5 -2t-38 13.5t-36 34.5t-25 35.5l-23 44q-5 7 -10 15l-5 11l-9 18q-14 9 -24 26q-11 20 -18 52q-3 14 -6 30zM357 586q-6 29 5 66q10 37 32 70q23 35 54 57q30 22 62 22l8 2q12 3 19 -2q8 -6 7 -22q-1 -11 -7 -28q-12 -33 -36 -70
q-27 -42 -56 -68q-36 -32 -69 -32h-2q-2 -2 -5 -3q-10 -2 -12 8z" />
    <glyph glyph-name="uniFB00" unicode="&#xfb00;" horiz-adv-x="966" 
d="M815 76q-1 9 -2 29q0 2 -7 104q-11 163 -11 176q0 10 4 71t4 100q0 57 -6 91q-6 33 -13 37h-2q-8 1 -19 1q-19 0 -51 -2q-22 -2 -54.5 -5.5t-37.5 -3.5q-46 -3 -147 -6q-98 -4 -154 -9q-33 -3 -94 3q-58 5 -84 3q-7 0 -12 2l11 -141q9 -105 14.5 -178.5t8.5 -142.5
q0 -9 -2 -42q-3 -50 -3 -59q-2 -35 -1 -55q0 -3 1 -7l5 1q21 1 56 4l93 9q23 2 111 4q159 3 172 3q104 3 161 7q34 2 53 6h6zM137 717q31 2 93 -3q56 -6 85 -3q53 4 154 8t147 7q5 0 37.5 3.5t54.5 5.5q34 2 55 2q32 0 45 -7q30 -16 40 -73q7 -39 7 -102q0 -40 -4 -102
t-4 -68q0 -11 11 -173q7 -98 7 -104q1 -23 2 -35v-12q-1 -3 -1 -5.5t-1 -4.5q-2 -6 -6 -11q-7 -7 -20 -11q-9 -3 -21 -5q-21 -3 -58 -6q-58 -4 -164 -7q-13 0 -172 -3q-83 -2 -106 -4q-44 -4 -95 -8q-35 -4 -56 -5q-12 -1 -19 -1h-7h-4q-2 0 -4 1q-6 1 -11 5q-10 9 -14 26
q-2 9 -3 24q-1 23 1 60q0 15 3 60q2 30 2 37q-3 72 -9 150.5t-14 180.5l-13 150q-1 11 6 19t18 9t19 -6q7 10 19 11z" />
    <glyph glyph-name="uniFB01" unicode="&#xfb01;" horiz-adv-x="513" 
d="M359 612q9 53 -12 93t-56 56q-21 7 -43.5 6.5t-47 -20t-43.5 -56.5q-11 -24 -17 -52.5t-6.5 -56t-1 -60t-0.5 -62.5v-15q86 -2 137 -6q11 -1 18 -9t6 -19t-9 -18t-19 -6q-51 4 -135 6q-6 -142 -3 -209q1 -17 6 -82q5 -53 5 -86q0 -11 -7.5 -18.5t-18.5 -7.5t-18.5 7.5
t-7.5 18.5q0 31 -4 81q-6 66 -7 85q-3 67 3 213q-27 0 -47 1q-11 0 -18 8t-7 19t8 18t19 7q20 -1 47 -2v16v58l2 65q0 31 7.5 66t21.5 62q23 48 58 75.5t71 31t72 -11.5q53 -23 81 -79t18 -125q-2 -11 -10.5 -17t-19.5 -4.5t-17 10t-5 19.5zM396 430q0 -26 5 -74
q5 -55 6 -78q1 -45 -1 -128t-2 -110q0 -11 -7.5 -18.5t-18.5 -7.5t-18.5 7.5t-7.5 18.5q0 28 2 109.5t1 126.5q-1 22 -6 75t-5 79q0 11 7.5 18.5t18.5 7.5t18.5 -7.5t7.5 -18.5z" />
    <glyph glyph-name="uniFB02" unicode="&#xfb02;" horiz-adv-x="506" 
d="M261 387q-53 6 -127 0q1 -10 1 -18q1 -34 1 -342q0 -11 -7.5 -18.5t-18.5 -7.5t-18.5 7.5t-7.5 18.5q0 307 -1 340q0 7 -1 15q-25 -3 -55 -8q-11 -1 -19.5 5.5t-10 17t5 19t16.5 10.5q33 4 60 8q-10 131 3 195q9 45 34 87t66 60q59 26 129 -15q30 -18 51.5 -45t25.5 -59
q7 -56 4 -149q-5 -116 -4 -144.5t7.5 -92t7.5 -85.5q9 -121 -11 -183q-4 -10 -13.5 -15t-19.5 -1.5t-15 13t-2 19.5q18 53 9 163q-1 22 -7.5 86.5t-7.5 93.5q0 15 4 148q3 89 -4 141q-2 17 -16 34.5t-36 30.5q-46 28 -82 12q-25 -11 -43.5 -42t-26.5 -67q-5 -27 -6 -62
t0 -53.5t5 -64.5q77 6 136 0q10 -1 17 -9.5t6 -19t-9.5 -17.5t-19.5 -6z" />
  </font>
</defs>
</svg>
