<svg xmlns="http://www.w3.org/2000/svg" xmlns:xlink="http://www.w3.org/1999/xlink" width="842" height="1032" viewBox="0 0 842 1032"><defs><path id="xb74a" d="M1510.93 1246s0 342.33-272.48 342.33-423.83 179.38-451.77 318.01c-27.93 138.63 0 324.27 266.17 366.7 266.17 42.42 401.1-203.82 548.53-103.22 48.82 33.31-17.06-158.58-16.74-286.56.32-129.65-73.71-637.26-73.71-637.26z"/><path id="xb74c" d="M738 2322V1202h922v1120zm772.93-1072s0 342.33-272.48 342.33-423.83 179.38-451.77 318.01c-27.93 138.63 0 324.27 266.17 366.7 266.17 42.42 401.1-203.82 548.53-103.22 48.82 33.31-17.06-158.58-16.74-286.56.32-129.65-73.71-637.26-73.71-637.26z"/><path id="xb74g" d="M544.35 2032.55s389.2-103.87 749.84-43.15c360.65 60.73 164.94 198.3 164.94 198.3l-511.4 144.58-387-41.31L457 2124.53z"/><linearGradient id="xb74b" x1="1582.21" x2="875.39" y1="1348.53" y2="2278" gradientUnits="userSpaceOnUse"><stop offset="0" stop-color="#ec254a"/><stop offset="1" stop-color="#ff0b85"/></linearGradient><filter id="xb74d" width="200%" height="200%" x="-50%" y="-50%"><feGaussianBlur in="SourceGraphic" result="FeGaussianBlur1023Out" stdDeviation="20 20"/></filter><mask id="xb74e"><use fill="#fff" xlink:href="#xb74a"/></mask><clipPath id="xb74f"><use xlink:href="#xb74a"/></clipPath></defs><g><g transform="translate(-778 -1246)"><g><use fill="url(#xb74b)" xlink:href="#xb74a"/><use fill="#6d0031" fill-opacity=".62" stroke="#6d0031" stroke-opacity=".62" stroke-width="0" filter="url(#xb74d)" mask="url(&quot;#xb74e&quot;)" xlink:href="#xb74c"/></g><g clip-path="url(#xb74f)"><use fill="#942a53" fill-opacity=".2" xlink:href="#xb74g"/></g></g></g></svg>