<?xml version="1.0" encoding="UTF-8"?>
<svg width="82px" height="82px" viewBox="0 0 82 82" version="1.1" xmlns="http://www.w3.org/2000/svg" xmlns:xlink="http://www.w3.org/1999/xlink">
    <!-- Generator: Sketch 51.3 (57544) - http://www.bohemiancoding.com/sketch -->
    <title>03</title>
    <desc>Created with Sketch.</desc>
    <defs></defs>
    <g id="Page-1" stroke="none" stroke-width="1" fill="none" fill-rule="evenodd">
        <g id="Main-Desktop-HD" transform="translate(-811.000000, -1190.000000)">
            <g id="how-it-works" transform="translate(811.000000, 947.000000)">
                <g id="Group-22">
                    <g id="03" transform="translate(0.000000, 243.000000)">
                        <circle id="Oval-3-Copy-2" fill="#F4F4F4" cx="41" cy="41" r="41"></circle>
                        <g id="pencil" transform="translate(26.000000, 25.000000)" fill-rule="nonzero">
                            <path d="M30.2912691,8.96811108 L10.5919674,28.4070035 C10.5919674,28.4070035 0.512130291,31.4125286 0.0517578486,30.95201 C-0.408614594,30.4914915 2.35362006,20.1661031 2.35362006,20.1661031 L22.0529218,0.727149131 C22.9979065,-0.242383044 24.5244014,-0.242383044 25.4693861,0.727149131 L30.2912076,5.57474846 C31.2362539,6.49578557 31.2362539,8.02282644 30.2912691,8.96811108 Z" id="Shape" fill="#2394BC"></path>
                            <path d="M3.88233321,23 L26,0.965402473 L25.7523511,0.718682945 C24.786407,-0.243635988 23.2260551,-0.243635988 22.260111,0.743367428 L2.14860194,20.5572386 C2.14860194,20.5572386 2.099047,20.7546518 2,21.1001093 L3.88233321,23 Z" id="Shape" fill="#44A4C6"></path>
                            <path d="M30.8299697,8.16699736 C31.1718185,7.27630291 31.0008941,6.21234458 30.2927699,5.49485119 L29.8044233,5 L8,27.0948512 L9.90453303,29 C10.1731019,28.9257441 10.3440263,28.8763029 10.4173062,28.8515509 C10.4173062,28.8515509 30.8299697,8.16699736 30.8299697,8.16699736 Z" id="Shape" fill="#1F85A9"></path>
                            <path d="M0.0109397733,30.8440281 L0.161814205,30.9918951 C1.34371713,31.1644171 10.4215948,28.5273398 10.9748436,28.3548178 L11,28.3301628 C11,28.3301628 10.4216587,25.6684931 9.9187226,25.2002369 C9.41578654,24.7073259 7.22801151,24.6334236 6.7251393,24.1651049 C6.22220325,23.6721938 6.17189049,21.5280275 5.6438619,21.035179 C5.14092585,20.5422679 2.57599666,20.0247019 2.45027861,20.000047 C2.45015091,19.9754546 -0.190247418,29.6117191 0.0109397733,30.8440281 Z" id="Shape" fill="#FFCABA"></path>
                            <path d="M0.000201715522,31 C0.187699662,30.6965629 1.1251894,29.1287188 6,21.0621451 C5.4643013,20.5563951 2.73228551,20.0253481 2.59837784,20.0000509 C2.62510496,19.974818 -0.0265934209,29.3310958 0.000201715522,31 Z" id="Shape" fill="#FFDCD2"></path>
                            <path d="M0,30.7621247 L0,30.8386431 L0.151024629,30.9916153 C1.33410415,31.1700936 10.421019,28.4419711 10.9748186,28.2634928 L11,28.2379866 C11,28.2379866 10.4462004,25.5098641 9.94276368,25 C1.61097199,29.8442916 0.2265689,30.6346587 0,30.7621247 Z" id="Shape" fill="#E5B5A7"></path>
                            <path d="M1.45380473,28.4771747 C1.18070709,28.22904 0.739537066,28.0381895 0.298367039,28 C0.0673008364,29.0688693 -0.0797558394,29.8514629 0.04628512,29.9659828 C0.151310363,30.0614081 0.949587552,29.9468881 2,29.7369429 C2,29.2597682 1.76888046,28.7634988 1.45380473,28.4771747 Z" id="Shape" fill="#2394BC"></path>
                        </g>
                    </g>
                </g>
            </g>
        </g>
    </g>
</svg>