<?xml version="1.0" encoding="utf-8"?>
<!-- Generator: Adobe Illustrator 19.0.0, SVG Export Plug-In . SVG Version: 6.00 Build 0)  -->
<svg version="1.1" id="Capa_1" xmlns="http://www.w3.org/2000/svg" xmlns:xlink="http://www.w3.org/1999/xlink" x="0px" y="0px"
	 viewBox="-463 259 33 43" enable-background="new -463 259 33 43" xml:space="preserve">
<g>
	<g>
		<path fill="#673432" d="M-452.471,285.593c-0.112,1.09,2.408,2.455,4.702,2.779c2.742,0.387,6.965-1.33,7.595-3.584
			C-440.153,284.716-452.441,285.299-452.471,285.593z"/>
		<ellipse fill="#A36E6C" cx="-446.857" cy="288.322" rx="2.023" ry="1.233"/>
	</g>
	<path fill="#1B3151" d="M-446.158,301.456c2.9,0,7-1.7,9.7-2.2c-0.7-6.5-5.1-8.5-10.8-8.6c-7.1-0.1-10.3,3.4-10.7,10.1
		C-454.258,301.856-450.258,301.456-446.158,301.456z"/>
	<path id="colorpiel_23_" fill="#BC967D" d="M-432.558,280.056c0-0.3,0-0.7-0.1-1c-0.1-0.6-0.5-1.1-1-1.3c-0.6-0.3-0.9-0.2-1.3-0.1
		c-2.1,0.5-2.2,2-2.5,3.6c-0.2,1.3,0.5,2.3,1.7,2.4c0.5,0,1.2-0.1,1.6-0.5C-433.258,282.356-432.658,281.256-432.558,280.056z"/>
	<path id="colorpiel_22_" fill="#E5B492" d="M-444.258,291.456c-0.2,0.7-0.6,1.5-1.2,1.9c-0.4,0.3-1,0.4-1.5,0.3
		c-1.1-0.2-1.6-0.5-2.1-1.5c-0.1-0.2-0.2-0.5-0.2-0.7c0,0,0.2-0.1,0.4-0.9c0.1-0.4,0-1.6,0-1.6l4.3-0.2h0.2v0.4
		C-444.258,289.056-444.258,290.456-444.258,291.456"/>
	<path id="colorpiel_14_" fill="#BC967D" d="M-460.558,281.556c0-0.5,0.1-1,0.3-1.4c0.2-0.4,0.5-0.8,0.9-1s0.9-0.2,1.3,0
		c1.4,0.5,2.5,2.1,2.7,3.5c0.1,1.1-0.4,2.3-1.9,2.4c-0.9,0-1.7-0.4-2.3-1.1C-460.058,283.156-460.458,282.356-460.558,281.556z"/>
	<path id="trazado_20_" fill="#BC967D" d="M-448.858,290.756c0,0,2.1,2,4.6,0.3v-2.4l-4.5,0.1v1.6L-448.858,290.756z"/>
	<g id="colorpiel_13_">
		<g>
			<path fill="#E5B492" d="M-435.758,274.756c0-2.4-0.8-4.8-2.5-6.5c-1.6-1.6-3.8-2.6-6.1-2.9c-0.4,0-0.9-0.1-1.3-0.1
				c-3.1,0-6.2,1.3-8.6,3.1c-0.6,0.5-1.2,1-1.7,1.6c-1,1.2-1.8,2.6-1.9,4.3c-0.1,1.1,0.1,2.1,0.3,3.2c0.4,2.4,1,5,2,7.2
				c1.2,2.9,3.1,3.6,5.6,4.3c0,0,2.6,0.9,3.4,0.8c0,0,0.9,0,1.4-0.2c1.1-0.3,2-0.7,3-1.1c1.4-0.6,3-1.4,4-2.7c1.1-1.4,1.2-3,1.6-4.7
				C-436.058,279.056-435.758,277.656-435.758,274.756z M-446.258,288.056c-2.3-0.1-5-2.7-5-2.7s5.1,1.7,9.7-0.4c0,0-1.2,1-2.6,2
				C-445.158,287.756-445.558,288.056-446.258,288.056z"/>
		</g>
	</g>
	<g opacity="0.45" enable-background="new    ">
		<g>
			<g>
				<g>
					<g>
						<path fill="#747474" d="M-456.358,285.156C-456.358,285.156-456.458,285.156-456.358,285.156
							C-456.458,285.156-456.358,285.156-456.358,285.156z"/>
						<path fill="#747474" d="M-456.258,285.156L-456.258,285.156L-456.258,285.156z"/>
						<path fill="#747474" d="M-456.258,285.156C-456.158,285.156-456.258,285.156-456.258,285.156L-456.258,285.156
							L-456.258,285.156L-456.258,285.156z"/>
						<path fill="#747474" d="M-456.458,285.156L-456.458,285.156L-456.458,285.156L-456.458,285.156z"/>
						<path fill="#747474" d="M-456.458,285.156L-456.458,285.156L-456.458,285.156z"/>
						<path fill="#747474" d="M-456.458,285.156L-456.458,285.156L-456.458,285.156
							C-456.558,285.156-456.458,285.156-456.458,285.156z"/>
						<path fill="#747474" d="M-456.358,285.156L-456.358,285.156L-456.358,285.156z"/>
						<path fill="#747474" d="M-456.458,285.156L-456.458,285.156C-456.358,285.156-456.358,285.156-456.458,285.156
							C-456.358,285.156-456.358,285.156-456.458,285.156z"/>
						<path fill="#747474" d="M-456.358,285.156L-456.358,285.156C-456.358,285.156-456.458,285.156-456.358,285.156z"/>
						<path fill="#747474" d="M-456.158,285.156L-456.158,285.156L-456.158,285.156L-456.158,285.156z"/>
						<path fill="#747474" d="M-456.458,285.156L-456.458,285.156L-456.458,285.156L-456.458,285.156z"/>
						<path fill="#747474" d="M-456.458,285.156L-456.458,285.156C-456.358,285.156-456.358,285.156-456.458,285.156z"/>
						<path fill="#747474" d="M-456.258,285.156L-456.258,285.156L-456.258,285.156z"/>
						<path fill="#747474" d="M-456.458,285.156h-0.1H-456.458z"/>
						<path fill="#747474" d="M-456.458,285.156C-456.558,285.156-456.558,285.156-456.458,285.156
							C-456.558,285.156-456.558,285.156-456.458,285.156C-456.558,285.156-456.558,285.156-456.458,285.156z"/>
						<path fill="#747474" d="M-456.458,285.156L-456.458,285.156L-456.458,285.156z"/>
						<path fill="#747474" d="M-456.358,285.156C-456.358,285.156-456.458,285.156-456.358,285.156L-456.358,285.156
							L-456.358,285.156z"/>
						<path fill="#747474" d="M-456.358,285.156L-456.358,285.156L-456.358,285.156L-456.358,285.156z"/>
						<path fill="#747474" d="M-456.358,285.156L-456.358,285.156L-456.358,285.156z"/>
						<path fill="#747474" d="M-456.358,285.156h0.1C-456.258,285.156-456.258,285.156-456.358,285.156z"/>
						<path fill="#747474" d="M-456.358,285.156L-456.358,285.156L-456.358,285.156L-456.358,285.156z"/>
						<polygon fill="#747474" points="-456.258,285.156 -456.358,285.156 -456.358,285.156 						"/>
						<path fill="#747474" d="M-456.458,285.156C-456.358,285.156-456.358,285.156-456.458,285.156
							C-456.358,285.156-456.358,285.156-456.458,285.156L-456.458,285.156z"/>
						<path fill="#747474" d="M-456.358,285.156L-456.358,285.156L-456.358,285.156z"/>
						<path fill="#747474" d="M-456.358,285.156L-456.358,285.156L-456.358,285.156L-456.358,285.156z"/>
						<path fill="#747474" d="M-456.358,285.156L-456.358,285.156L-456.358,285.156L-456.358,285.156z"/>
						<path fill="#747474" d="M-456.458,285.156L-456.458,285.156L-456.458,285.156z"/>
						<path fill="#747474" d="M-456.358,285.156C-456.458,285.156-456.458,285.156-456.358,285.156
							C-456.458,285.156-456.458,285.156-456.358,285.156z"/>
						<path fill="#747474" d="M-456.358,285.156L-456.358,285.156L-456.358,285.156L-456.358,285.156z"/>
						<path fill="#747474" d="M-455.958,285.156C-456.058,285.156-456.058,285.156-455.958,285.156c-0.1,0-0.3,0-0.4,0
							c0,0,0,0,0.1,0h0.1l0,0C-456.158,285.156-456.058,285.156-455.958,285.156L-455.958,285.156
							C-456.058,285.156-455.958,285.156-455.958,285.156z"/>
						<path fill="#747474" d="M-456.358,285.156L-456.358,285.156L-456.358,285.156
							C-456.458,285.156-456.358,285.156-456.358,285.156L-456.358,285.156L-456.358,285.156z"/>
						<path fill="#747474" d="M-456.358,285.156c0.1,0,0.1,0,0.2,0C-456.258,285.156-456.258,285.156-456.358,285.156
							C-456.258,285.156-456.358,285.156-456.358,285.156L-456.358,285.156L-456.358,285.156L-456.358,285.156L-456.358,285.156
							L-456.358,285.156L-456.358,285.156L-456.358,285.156L-456.358,285.156L-456.358,285.156L-456.358,285.156L-456.358,285.156
							L-456.358,285.156L-456.358,285.156z"/>
						<path fill="#747474" d="M-456.058,285.156L-456.058,285.156L-456.058,285.156z"/>
						<path fill="#747474" d="M-456.058,285.156C-456.158,285.156-456.158,285.156-456.058,285.156
							C-456.158,285.156-456.058,285.156-456.058,285.156S-456.158,285.156-456.058,285.156L-456.058,285.156c-0.1,0-0.1,0-0.1,0
							S-456.158,285.156-456.058,285.156z"/>
						<path fill="#747474" d="M-456.258,285.156L-456.258,285.156L-456.258,285.156L-456.258,285.156
							C-456.158,285.156-456.158,285.156-456.258,285.156z"/>
						<polygon fill="#747474" points="-456.458,285.156 -456.458,285.156 -456.358,285.156 						"/>
						<polygon fill="#747474" points="-456.358,285.156 -456.458,285.156 -456.458,285.156 						"/>
						<path fill="#747474" d="M-455.658,285.256L-455.658,285.256L-455.658,285.256z"/>
						<path fill="#747474" d="M-455.658,285.256L-455.658,285.256C-455.758,285.256-455.658,285.256-455.658,285.256z"/>
						<path fill="#747474" d="M-456.358,285.156C-456.458,285.156-456.558,285.156-456.358,285.156L-456.358,285.156
							C-456.458,285.156-456.458,285.156-456.358,285.156z"/>
						<path fill="#747474" d="M-456.058,285.256L-456.058,285.256L-456.058,285.256L-456.058,285.256z"/>
						<path fill="#747474" d="M-455.758,285.256L-455.758,285.256L-455.758,285.256z"/>
						<path fill="#747474" d="M-455.658,285.256L-455.658,285.256C-455.558,285.256-455.558,285.256-455.658,285.256z"/>
						<path fill="#747474" d="M-456.358,285.156L-456.358,285.156L-456.358,285.156z"/>
						<path fill="#747474" d="M-456.358,285.256L-456.358,285.256L-456.358,285.256z"/>
						<path fill="#747474" d="M-456.458,285.156L-456.458,285.156L-456.458,285.156L-456.458,285.156z"/>
						<path fill="#747474" d="M-455.658,285.256L-455.658,285.256L-455.658,285.256z"/>
						<path fill="#747474" d="M-456.358,285.256L-456.358,285.256L-456.358,285.256z"/>
						<path fill="#747474" d="M-456.458,285.156L-456.458,285.156L-456.458,285.156z"/>
						<path fill="#747474" d="M-456.158,285.156L-456.158,285.156L-456.158,285.156z"/>
						<path fill="#747474" d="M-456.058,285.156L-456.058,285.156L-456.058,285.156z"/>
						<path fill="#747474" d="M-456.358,285.156C-456.458,285.156-456.458,285.156-456.358,285.156L-456.358,285.156z"/>
						<path fill="#747474" d="M-456.458,285.156L-456.458,285.156L-456.458,285.156z"/>
						<path fill="#747474" d="M-456.458,285.156L-456.458,285.156L-456.458,285.156L-456.458,285.156z"/>
						<path fill="#747474" d="M-455.858,285.256L-455.858,285.256L-455.858,285.256z"/>
						<path fill="#747474" d="M-455.758,285.256L-455.758,285.256L-455.758,285.256L-455.758,285.256z"/>
						<path fill="#747474" d="M-455.658,285.256C-455.758,285.256-455.758,285.256-455.658,285.256h-0.2H-455.658z"/>
						<path fill="#747474" d="M-455.658,285.256L-455.658,285.256c0.1,0,0.1,0,0.2,0
							C-455.658,285.256-455.458,285.256-455.658,285.256L-455.658,285.256L-455.658,285.256
							C-455.558,285.256-455.758,285.256-455.658,285.256C-455.758,285.256-455.758,285.256-455.658,285.256L-455.658,285.256
							C-455.758,285.256-455.658,285.256-455.658,285.256L-455.658,285.256L-455.658,285.256c-0.1,0-0.1,0-0.1,0
							S-455.758,285.256-455.658,285.256h-0.1C-455.758,285.256-455.758,285.256-455.658,285.256S-455.758,285.256-455.658,285.256
							L-455.658,285.256c0.2,0,0.1,0,0.2,0C-455.558,285.256-455.658,285.256-455.658,285.256L-455.658,285.256L-455.658,285.256
							L-455.658,285.256L-455.658,285.256h0.1H-455.658L-455.658,285.256C-455.758,285.256-455.658,285.256-455.658,285.256
							L-455.658,285.256L-455.658,285.256c-0.1,0-0.1,0-0.1,0c-0.1,0,0.1,0,0,0C-455.758,285.256-455.758,285.256-455.658,285.256
							c-0.1,0-0.1,0-0.2,0h0.1c-0.1,0-0.1,0-0.2,0h-0.1l0,0c0,0,0,0,0.1,0l0,0h0.1c0,0,0,0-0.1,0c0.1,0,0.1,0,0.2,0l0,0l0,0l0,0
							H-455.658L-455.658,285.256L-455.658,285.256c-0.1,0-0.3,0-0.3,0c0.1,0,0.1,0,0.2,0c-0.1,0,0,0,0,0
							C-455.758,285.256-455.758,285.256-455.658,285.256h-0.1C-455.758,285.256-455.758,285.256-455.658,285.256
							c-0.2,0-0.1,0-0.2,0C-455.858,285.256-455.758,285.256-455.658,285.256c0,0-0.3,0-0.2,0l0,0l0,0l0,0c0,0,0,0-0.1,0
							C-455.958,285.256-455.758,285.256-455.658,285.256h-0.5C-456.058,285.256-455.858,285.256-455.658,285.256
							C-455.758,285.256-455.758,285.256-455.658,285.256c-0.1,0-0.2,0-0.2,0C-455.758,285.256-455.858,285.256-455.658,285.256
							c-0.1,0-0.3,0-0.3,0S-455.758,285.256-455.658,285.256h-0.2C-455.858,285.256-455.758,285.256-455.658,285.256
							C-455.758,285.256-455.758,285.256-455.658,285.256h-0.1h-0.2C-455.958,285.256-455.858,285.256-455.658,285.256
							c-0.2,0-0.5,0-0.6,0l0,0h-0.1C-456.158,285.256-455.858,285.256-455.658,285.256
							C-455.758,285.256-455.758,285.256-455.658,285.256L-455.658,285.256L-455.658,285.256
							C-455.758,285.256-455.758,285.256-455.658,285.256L-455.658,285.256c-0.1,0-0.3,0-0.3,0
							C-455.858,285.256-455.758,285.256-455.658,285.256C-455.758,285.256-455.758,285.256-455.658,285.256L-455.658,285.256
							C-455.658,285.256-455.858,285.256-455.658,285.256C-455.758,285.256-455.658,285.256-455.658,285.256c-0.1,0-0.4,0-0.5,0
							c0,0,0.1,0,0.2,0C-455.958,285.256-455.858,285.256-455.658,285.256c-0.1,0-0.1,0-0.2,0
							C-455.858,285.256-455.758,285.256-455.658,285.256c-0.2,0-0.1,0-0.2,0l0,0c-0.1,0-0.2,0-0.2,0h0.1h0.1h0.1h-0.1
							c0.1,0,0,0,0.1,0c-0.1,0-0.1,0-0.1,0c-0.1,0,0,0,0,0c-0.1,0-0.2,0-0.3,0h0.1c0,0-0.2,0-0.1,0s0.2,0,0.2,0l0,0l0,0l0,0
							c0.1,0,0,0,0.1,0h-0.1l0,0c-0.1,0-0.1,0-0.1,0h-0.1h0.1c0,0-0.1,0,0,0c0,0,0.1,0,0,0h-0.1h-0.1c-0.1,0,0,0-0.1,0
							c0.1,0,0,0,0.1,0c-0.1,0,0,0-0.1,0c0,0,0.1,0,0,0l0,0l0,0l0,0l0,0l0,0c0.1,0,0.1,0,0.1,0s0,0-0.1,0h0.1c-0.1,0-0.1,0-0.1,0
							l0,0c0,0-0.1,0,0,0c0,0,0.1,0,0,0l0,0l0,0c0,0,0.1,0,0,0l0,0h-0.1c0,0-0.1,0,0,0c-0.1,0,0,0-0.1,0h0.1l0,0h0.1c0.1,0,0,0,0,0
							l0,0c-0.1,0,0.1,0,0,0l0,0l0,0l0,0l0,0l0,0l0,0h-0.1l0,0c0,0,0,0,0.1,0l0,0c-0.1,0,0,0-0.1,0c0.1,0,0,0,0.2,0l0,0l0,0h-0.1
							h0.1c-0.1,0-0.1,0-0.2,0c0.1,0,0,0,0.1,0h-0.1c0,0,0.1,0,0,0s0,0-0.1,0c0.2,0-0.1,0,0.1,0h-0.1c0,0-0.1,0,0,0h-0.1l0,0
							c0,0,0,0-0.1,0c0,0,0.1,0,0.2,0c-0.1,0,0,0,0,0h-0.1c0,0-0.1,0,0,0l0,0l0,0l0,0c0.1,0,0,0,0,0l0,0c-0.1,0,0,0-0.1,0h0.1
							c0.1,0-0.1,0,0,0l0,0c0.1,0-0.2,0-0.2,0l0,0c-0.1,0,0.1,0,0.1,0h-0.1c0,0,0.2,0,0.1,0h0.1c0,0-0.1,0,0,0l0,0h0.1
							c-0.2,0,0.1,0-0.1,0l0,0l0,0c0,0,0,0,0.1,0l0,0c0,0,0,0,0.1,0h-0.1c0,0-0.1,0,0,0l0,0c0.1,0-0.2,0,0.1,0h0.1c0,0,0.1,0,0.2,0
							h-0.1l0,0c-0.1,0,0,0-0.1,0h-0.1h0.1l0,0h-0.1c-0.1,0,0,0,0.1,0h-0.1l0,0l0,0h0.1h-0.1l0,0l0,0h0.1c0,0,0,0,0.1,0
							c-0.1,0-0.1,0-0.1,0c0.1,0,0.1,0,0.1,0h0.1c-0.2,0-0.1,0-0.2,0c0.1,0,0,0,0.2,0h-0.1c0.1,0,0,0,0,0h0.1h-0.1h0.1h0.1
							c-0.1,0,0.1,0-0.1,0h0.1h0.1h-0.1c0.1,0,0,0,0.1,0l0,0c0.1,0,0.2,0,0.4,0c-0.1,0,0.2,0,0,0S-455.758,285.256-455.658,285.256
							C-455.758,285.256-455.858,285.256-455.658,285.256L-455.658,285.256C-455.758,285.256-455.758,285.256-455.658,285.256
							L-455.658,285.256C-455.758,285.256-455.758,285.256-455.658,285.256c-0.1,0,0,0-0.1,0
							C-455.658,285.256-455.858,285.256-455.658,285.256L-455.658,285.256L-455.658,285.256L-455.658,285.256
							C-455.758,285.256-455.658,285.256-455.658,285.256L-455.658,285.256C-455.558,285.256-455.658,285.256-455.658,285.256
							L-455.658,285.256C-455.758,285.256-455.658,285.256-455.658,285.256L-455.658,285.256
							C-455.858,285.256-455.758,285.256-455.658,285.256L-455.658,285.256C-455.758,285.256-455.758,285.256-455.658,285.256
							C-455.758,285.256-455.758,285.256-455.658,285.256c0,0,0,0-0.2,0H-455.658c-0.1,0-0.2,0-0.2,0
							C-455.858,285.256-455.758,285.256-455.658,285.256C-455.658,285.256-455.858,285.256-455.658,285.256
							C-455.858,285.256-455.758,285.256-455.658,285.256c-0.1,0-0.2,0-0.2,0H-455.658L-455.658,285.256
							C-455.658,285.256-455.758,285.256-455.658,285.256C-455.758,285.256-455.658,285.256-455.658,285.256L-455.658,285.256
							c-0.1,0-0.2,0-0.2,0C-455.858,285.256-455.758,285.256-455.658,285.256C-455.758,285.256-455.858,285.256-455.658,285.256
							C-455.658,285.256-455.758,285.256-455.658,285.256C-455.658,285.256-455.758,285.256-455.658,285.256
							C-455.758,285.256-455.558,285.256-455.658,285.256L-455.658,285.256L-455.658,285.256L-455.658,285.256c0,0,0.2,0,0.1,0
							H-455.658c-0.1,0,0.2,0,0.1,0C-455.558,285.256-455.558,285.256-455.658,285.256c0.1,0,0.1,0,0.1,0H-455.658
							C-455.558,285.256-455.658,285.256-455.658,285.256L-455.658,285.256C-455.658,285.256-455.758,285.256-455.658,285.256
							L-455.658,285.256L-455.658,285.256L-455.658,285.256C-455.758,285.256-455.758,285.256-455.658,285.256c-0.1,0-0.1,0-0.1,0
							S-455.758,285.256-455.658,285.256C-455.758,285.256-455.658,285.256-455.658,285.256
							C-455.758,285.256-455.658,285.256-455.658,285.256L-455.658,285.256L-455.658,285.256L-455.658,285.256
							C-455.758,285.256-455.758,285.256-455.658,285.256C-455.758,285.256-455.758,285.256-455.658,285.256L-455.658,285.256
							L-455.658,285.256C-455.658,285.256-455.558,285.256-455.658,285.256C-455.558,285.256-455.658,285.256-455.658,285.256
							L-455.658,285.256C-455.658,285.256-455.558,285.256-455.658,285.256h0.1H-455.658
							C-455.758,285.256-455.658,285.256-455.658,285.256S-455.758,285.256-455.658,285.256L-455.658,285.256z M-455.758,285.256
							C-455.758,285.256-455.658,285.256-455.758,285.256L-455.758,285.256z M-455.858,285.256L-455.858,285.256
							C-455.958,285.256-455.958,285.256-455.858,285.256z M-456.358,285.156L-456.358,285.156L-456.358,285.156z M-456.358,285.156
							L-456.358,285.156L-456.358,285.156L-456.358,285.156z M-456.358,285.256L-456.358,285.256
							C-456.258,285.256-456.258,285.256-456.358,285.256z"/>
						<path fill="#747474" d="M-455.758,285.256C-455.858,285.256-455.858,285.256-455.758,285.256
							C-455.858,285.256-455.858,285.256-455.758,285.256z"/>
						<path fill="#747474" d="M-455.658,285.256L-455.658,285.256L-455.658,285.256L-455.658,285.256z"/>
						<path fill="#747474" d="M-455.758,285.156L-455.758,285.156L-455.758,285.156z"/>
						<path fill="#747474" d="M-456.458,285.156L-456.458,285.156L-456.458,285.156L-456.458,285.156z"/>
						<path fill="#747474" d="M-456.058,285.156L-456.058,285.156L-456.058,285.156L-456.058,285.156z"/>
						<path fill="#747474" d="M-456.258,285.156C-456.158,285.156-456.158,285.156-456.258,285.156L-456.258,285.156
							L-456.258,285.156z"/>
						<path fill="#747474" d="M-456.158,285.156C-456.158,285.156-456.258,285.156-456.158,285.156
							C-456.258,285.156-456.258,285.156-456.158,285.156z"/>
						<path fill="#747474" d="M-456.358,285.156C-456.358,285.156-456.458,285.156-456.358,285.156
							C-456.458,285.156-456.358,285.156-456.358,285.156z"/>
						<path fill="#747474" d="M-456.058,285.156h-0.1H-456.058z"/>
						<path fill="#747474" d="M-456.058,285.156L-456.058,285.156L-456.058,285.156
							C-456.058,285.156-456.158,285.156-456.058,285.156z"/>
						<path fill="#747474" d="M-456.058,285.156L-456.058,285.156L-456.058,285.156z"/>
						<path fill="#747474" d="M-456.058,285.156L-456.058,285.156L-456.058,285.156z"/>
						<path fill="#747474" d="M-456.058,285.156L-456.058,285.156L-456.058,285.156L-456.058,285.156z"/>
						<path fill="#747474" d="M-455.958,285.156L-455.958,285.156L-455.958,285.156L-455.958,285.156z"/>
						<path fill="#747474" d="M-455.858,285.156L-455.858,285.156L-455.858,285.156z"/>
						<polygon fill="#747474" points="-455.958,285.156 -455.958,285.156 -456.158,285.156 						"/>
						<path fill="#747474" d="M-455.658,285.156C-455.658,285.156-455.758,285.156-455.658,285.156c-0.1,0-0.1,0-0.1,0
							S-455.758,285.156-455.658,285.156z"/>
						<path fill="#747474" d="M-455.758,285.156L-455.758,285.156L-455.758,285.156z"/>
						<path fill="#747474" d="M-456.358,285.256h-0.1H-456.358z"/>
						<path fill="#747474" d="M-456.258,285.256L-456.258,285.256L-456.258,285.256L-456.258,285.256z"/>
						<path fill="#747474" d="M-455.558,285.256L-455.558,285.256L-455.558,285.256L-455.558,285.256z"/>
						<path fill="#747474" d="M-455.658,285.256h0.1H-455.658z"/>
						<path fill="#747474" d="M-455.458,285.256C-455.458,285.256-455.558,285.256-455.458,285.256
							C-455.458,285.256-455.558,285.256-455.458,285.256z"/>
					</g>
				</g>
			</g>
		</g>
	</g>
	<g id="layer_14_3_">
		<path fill="#AA8577" d="M-447.939,284.467c0.029-0.071-0.043,0,0.043-0.014c0.257-0.029,0.898-0.086,1.055-0.228
			c0.214-0.171,0.869-0.399,1.454-0.143c0,0,0.328-0.014,0.456-0.114c0.114-0.1,0.114-0.057,0.214,0.114s0.285,0.143,0.285,0.143
			v-0.143c0,0,0.997,0.784-0.898,0.926c0,0-0.969,0.598-1.852-0.071c0,0-0.086-0.157-0.584-0.257
			C-447.939,284.666-447.982,284.581-447.939,284.467z"/>
	</g>
	<g>
		<g>
			<path fill="#55433C" d="M-446.5,282.842c0.114-0.043,0.228-0.071,0.342-0.071c0.114,0,0.228,0,0.342,0.029
				c0.114,0.029,0.228,0.071,0.328,0.128c0.1,0.057,0.199,0.142,0.257,0.242C-445.232,283.17-446.272,282.928-446.5,282.842z"/>
		</g>
		<path fill="#55433C" d="M-457.444,281.688c-0.057-0.086-0.1-0.171-0.157-0.257c-0.114-0.171-0.256-0.313-0.427-0.427
			s-0.37-0.199-0.57-0.214c-0.199-0.014-0.413,0.014-0.584,0.114c0.385-0.029,0.741,0.086,1.04,0.299l0.114,0.071l0.1,0.086
			c0.006,0.005,0.011,0.011,0.017,0.016c-0.052,0.037-0.103,0.075-0.159,0.112c-0.071,0.057-0.143,0.128-0.2,0.214
			c-0.114,0.157-0.199,0.371-0.199,0.584s0.1,0.427,0.242,0.57c0.142,0.157,0.313,0.256,0.499,0.313
			c-0.143-0.128-0.271-0.271-0.37-0.399c-0.1-0.143-0.157-0.299-0.157-0.47s0.057-0.342,0.128-0.499
			c0.043-0.086,0.1-0.157,0.143-0.242c0.037-0.056,0.069-0.106,0.102-0.158c0.051,0.048,0.099,0.099,0.154,0.143
			c0.071,0.057,0.128,0.128,0.2,0.2c0.071,0.071,0.128,0.142,0.199,0.214C-457.359,281.873-457.401,281.774-457.444,281.688z"/>
		<path fill="#55433C" d="M-434.587,279.465c0.171-0.086,0.356-0.157,0.556-0.143c-0.185-0.1-0.413-0.085-0.613-0.014
			c-0.2,0.071-0.385,0.171-0.542,0.299s-0.314,0.271-0.442,0.427c-0.128,0.143-0.256,0.313-0.342,0.499
			c0.157-0.128,0.313-0.257,0.456-0.385c0.13-0.106,0.251-0.208,0.377-0.306c0.041,0.073,0.088,0.144,0.122,0.221
			c0.043,0.1,0.1,0.185,0.114,0.285c0.071,0.2,0.086,0.399,0.029,0.584c-0.043,0.185-0.143,0.37-0.256,0.542
			c-0.114,0.171-0.257,0.328-0.413,0.484c0.214-0.086,0.385-0.214,0.527-0.385c0.157-0.157,0.285-0.37,0.342-0.599
			c0.014-0.057,0.029-0.114,0.029-0.171c0-0.071,0-0.128,0-0.185c-0.029-0.128-0.043-0.242-0.1-0.342
			c-0.043-0.114-0.114-0.2-0.185-0.285c-0.055-0.055-0.122-0.11-0.188-0.166c0.02-0.015,0.039-0.033,0.059-0.048
			C-434.915,279.665-434.758,279.551-434.587,279.465z"/>
		<g>
			<path fill="#55433C" d="M-451.616,285.735c0.014-0.086,0.043-0.157,0.086-0.228c0.043-0.071,0.086-0.128,0.142-0.185
				c0.114-0.114,0.257-0.199,0.428-0.199c-0.057,0.057-0.114,0.1-0.171,0.157c-0.057,0.057-0.1,0.1-0.157,0.142
				C-451.388,285.521-451.487,285.635-451.616,285.735z"/>
		</g>
		<g>
			<path fill="#55433C" d="M-441.826,284.78c0.071,0,0.142,0.029,0.214,0.057s0.128,0.071,0.185,0.114
				c0.057,0.057,0.1,0.114,0.143,0.171c0.029,0.071,0.057,0.143,0.057,0.214l-0.142-0.157c-0.043-0.043-0.1-0.086-0.143-0.128
				C-441.626,284.966-441.741,284.88-441.826,284.78z"/>
		</g>
		<g>
			<path fill="#55433C" d="M-445.716,285.023c0.1-0.071,0.199-0.143,0.299-0.2c0.1-0.071,0.185-0.128,0.271-0.199
				c0.085-0.071,0.157-0.142,0.228-0.228s0.128-0.185,0.199-0.285c0.014,0.128,0,0.257-0.057,0.371
				c-0.057,0.114-0.142,0.228-0.228,0.314c-0.1,0.085-0.214,0.142-0.328,0.185C-445.46,285.008-445.588,285.037-445.716,285.023z"/>
		</g>
		<g>
			<path fill="#55433C" d="M-447.07,285.023c-0.157-0.057-0.299-0.1-0.442-0.128s-0.299-0.043-0.456-0.057l0,0
				c-0.029,0-0.057-0.014-0.071-0.043c-0.057-0.086-0.086-0.171-0.1-0.271c-0.014-0.1,0.003-0.198,0.043-0.285
				c0.083-0.18,0.356-0.314,0.399-0.328c-0.028,0.029-0.213,0.238-0.242,0.399c-0.013,0.071,0.02,0.287,0.048,0.344
				c0,0,0.273,0.033,0.43,0.105C-447.39,284.787-447.116,284.907-447.07,285.023z"/>
		</g>
		<g>
			<path fill="#55433C" d="M-444.434,284.096c0.244,0.098,0.417,0.767,0,0.684C-444.311,284.577-444.434,284.316-444.434,284.096
				C-444.362,284.125-444.434,284.168-444.434,284.096z"/>
		</g>
	</g>
	<g id="ojos_3_">
		<path fill="#E6E3D9" d="M-454.067,280.961c0.029-0.157,0.086-0.299,0.142-0.399c0.371-0.599,1.04-1.069,1.824-1.24
			c0.898-0.185,1.952,0.029,2.536,0.627c0.499,0.513,0.499,1.254,0.257,1.881c-0.185,0.456-0.285,0.57-0.784,0.57
			c-1.254-0.029-2.636-0.157-3.733-0.67C-454.095,281.603-454.124,281.261-454.067,280.961z"/>
		
			<circle id="colorojos_8_" fill="#5C9EB6" stroke="#487F8A" stroke-width="0.1425" stroke-miterlimit="10" cx="-450.918" cy="280.79" r="1.511"/>
		<circle fill="#121112" cx="-450.946" cy="280.691" r="0.641"/>
		
			<ellipse transform="matrix(-0.3187 -0.9479 0.9479 -0.3187 -859.7665 -56.8124)" fill="#FFFFFF" cx="-450.301" cy="280.59" rx="0.314" ry="0.527"/>
		<path fill="#E6E3D9" d="M-438.663,280.961c-0.014-0.157-0.071-0.314-0.114-0.413c-0.342-0.641-0.997-1.168-1.781-1.382
			c-0.898-0.242-1.995-0.086-2.636,0.499c-0.542,0.499-0.599,1.268-0.399,1.924c0.157,0.484,0.242,0.613,0.77,0.627
			c1.283,0.043,2.693-0.014,3.862-0.484C-438.677,281.631-438.62,281.275-438.663,280.961z"/>
		
			<ellipse id="colorojos_7_" transform="matrix(-0.9266 -0.376 0.376 -0.9266 -957.0841 374.5314)" fill="#5C9EB6" stroke="#487F8A" stroke-width="0.1425" stroke-miterlimit="10" cx="-441.994" cy="280.66" rx="1.411" ry="1.51"/>
		<circle fill="#121112" cx="-442.054" cy="280.591" r="0.598"/>
		
			<ellipse transform="matrix(-0.4557 -0.8901 0.8901 -0.4557 -892.2706 15.2179)" fill="#FFFFFF" cx="-441.483" cy="280.408" rx="0.285" ry="0.484"/>
		<g>
			<path fill="#101417" d="M-454.067,280.961c0.029-0.157,0.086-0.299,0.142-0.399c0.371-0.599,1.04-1.069,1.824-1.24
				c0.898-0.185,1.952,0.029,2.536,0.627c0.142,0.143,0.242,0.314,0.314,0.485c-0.043-0.2-0.143-0.385-0.271-0.57
				c-0.527-0.684-1.582-1.026-2.522-0.912c-0.698,0.086-1.368,0.413-1.81,0.898c-0.128,0.142-0.285,0.37-0.385,0.613
				c-0.114,0.299-0.128,0.627,0.143,0.812C-454.095,281.189-454.095,281.075-454.067,280.961z"/>
		</g>
		<path fill="#101417" d="M-438.52,280.377c-0.086-0.257-0.228-0.499-0.356-0.641c-0.427-0.499-1.055-0.869-1.767-0.983
			c-0.926-0.142-1.995,0.143-2.565,0.812c-0.1,0.128-0.185,0.257-0.242,0.399c0.071-0.1,0.157-0.199,0.242-0.299
			c0.641-0.584,1.738-0.741,2.636-0.499c0.784,0.214,1.439,0.741,1.781,1.382c0.057,0.1,0.1,0.257,0.114,0.413
			c0.014,0.057,0.014,0.114,0.014,0.185C-438.42,280.961-438.435,280.662-438.52,280.377z"/>
	</g>
	<g id="pelos_2_">
		<g id="pelo1_1_">
			<path id="colorpelo_70_" fill="#DD8A2B" d="M-462.75,270.176c0,0,1.9-5.1,9.4-3.8c0,0,3.8-7.6,8.7-5.9c0,0,1.9,0.5,3.8,2.4
				c2,2.1,3.7,3,4.7,2.8c0.3-0.1,0.4-0.5,0.4-0.5s-0.4,0.4,0,0c0,0,0.6,0,0.7,1.4c0,0,4.6-0.5,4.8,5.5c0,0.7,0,1.4-0.4,2.3
				c0,0-0.4-1.3-1.2-1.7c0,0,3,1.4-1.9,5.2c0,0-1.3-0.3-2.3,0.7c0,0,0.1-2-0.1-2.4s-2-1.8-2.6-3.2c0,0-7.2,0.9-13.6-3.4
				c0,0-0.3,3.9-4,6.1c0,0-0.8,3.5-0.8,4.3c0,0-1-0.8-1.8-0.9c0,0-0.7-1.2-1.4-1.9c-0.6-0.7-2.2-0.6-1.3-3c0,0,0,0-0.4,0.5
				s-0.1-3.8,2-5.6C-459.85,269.276-461.45,269.376-462.75,270.176z"/>
			<path id="colorpelo_69_" fill="#DD8A2B" d="M-455.85,278.076c0,0,2.5-2.2,4.8-1.9c0,0,0-0.8-2-0.5
				C-454.95,275.976-455.85,278.076-455.85,278.076z"/>
			<path id="colorpelo_68_" fill="#DD8A2B" d="M-442.55,275.676c0,0,2.8-0.2,4.9,2c0,0-1.1-2.5-3.8-2.6
				C-441.542,275.069-441.95,274.976-442.55,275.676z"/>
			<path id="trazado_47_" opacity="0.45" fill="#FFFFFF" enable-background="new    " d="M-462.75,270.176c0,0,2.5-4.7,9.4-3.6
				C-453.35,266.676-459.55,266.076-462.75,270.176z"/>
			<path id="trazado_41_" fill="#A66820" d="M-458.35,276.476l0.8,3.1c0,0-0.6-0.5,0.6,0.4c0,0,0.5-4.2,0.8-4.3
				C-455.95,275.476-457.85,276.776-458.35,276.476z"/>
			<path id="trazado_40_" fill="#A66820" d="M-436.05,276.176c0,0,0.9,1.2,2.5,0.3l-0.4,1.4c0,0-0.8-0.2-2,0.6
				C-435.95,278.576-436.05,276.876-436.05,276.176z"/>
			<path id="trazado_37_" fill="#A66820" d="M-459.85,268.976c0,0,2.2-2.5,6.5-2.4c0,0-6-1.7-9.4,3.6
				C-462.55,270.176-461.15,269.176-459.85,268.976z"/>
			<path id="trazado_33_" fill="#A66820" d="M-439.85,264.876c0,0,1.5,2.2,4.1,2.2c0,0,0.5-1.1,0-1.8
				C-435.55,265.376-436.45,267.876-439.85,264.876z"/>
			<g>
				<path id="trazado_48_" fill="#EBB980" enable-background="new    " d="M-458.35,267.876c-2.4,1-3.5,4.2-3.6,6.6
					c0,0,0-0.7,0.8-1.5c0,0-0.8,1.7,0,3.4c0,0,0,0,0.1,0.1c0.2,0.2,1.7,1.1,2.3,2.7c-0.1-0.8-0.2-1.4-0.5-2.1
					c-0.4-1.1-1.1-2.1-1.3-3.3c-0.2-1.1,0.1-2.2,0.5-3.2C-459.65,269.576-458.95,268.776-458.35,267.876z"/>
				<path id="trazado_46_" fill="#EBB980" enable-background="new    " d="M-445.95,260.576c0,0-3.4-0.8-7.4,6
					C-453.35,266.676-448.55,260.676-445.95,260.576z"/>
				<path id="trazado_45_" fill="#EBB980" enable-background="new    " d="M-452.45,267.976c0,0,6.9-7.5,11.4-4.5
					C-441.05,263.476-444.55,261.376-452.45,267.976z"/>
				<path id="trazado_44_" fill="#EBB980" enable-background="new    " d="M-452.25,268.176c0,0,9.3-6,14-2
					C-438.25,266.176-441.95,263.376-452.25,268.176z"/>
				<path id="trazado_43_" fill="#EBB980" enable-background="new    " d="M-452.25,269.576c0,0,8.6,5.7,16.3,2.6
					C-435.95,272.176-444.65,274.076-452.25,269.576z"/>
			</g>
		</g>
	</g>
</g>
</svg>
