<?xml version="1.0" encoding="utf-8"?>
<!-- Generator: Adobe Illustrator 19.0.0, SVG Export Plug-In . SVG Version: 6.00 Build 0)  -->
<svg version="1.1" id="Capa_1" xmlns="http://www.w3.org/2000/svg" xmlns:xlink="http://www.w3.org/1999/xlink" x="0px" y="0px"
	 viewBox="-463 259 33 43" enable-background="new -463 259 33 43" xml:space="preserve">
<path fill="#2B2A2A" d="M-434.8,280.6c-1.1-0.1-1.2-0.6-1.2-0.7c-0.7,3.4-17.6,4.1-18.8,1.4c0,0-0.3,0.4-1,0.6
	c0,0,0.2,10.3-0.1,11.6l19.6,0.4C-437.2,283.9-434.8,280.6-434.8,280.6z"/>
<g>
	<path fill="#673432" d="M-451.5,282.6c-0.1,1.1,2.4,2.5,4.7,2.8c2.7,0.4,6.5-0.5,7.1-2.8c0-0.1,0.3-1.3-0.4-2.2
		c-1.6-2.1-6.8-0.2-9.1,0.7C-451.3,281.9-451.5,282.3-451.5,282.6z"/>
	<ellipse fill="#A36E6C" cx="-445.9" cy="285.3" rx="2" ry="1.2"/>
</g>
<path fill="#E86A49" d="M-445.2,298.5c2.9,0,7-1.7,9.7-2.2c-0.7-6.5-5.1-8.5-10.8-8.6c-7.1-0.1-10.3,3.4-10.7,10.1
	C-453.3,298.9-449.3,298.5-445.2,298.5z"/>
<path id="colorpiel_23_" fill="#AA8577" d="M-431.6,277.1c0-0.3,0-0.7-0.1-1c-0.1-0.6-0.5-1.1-1-1.3c-0.6-0.3-0.9-0.2-1.3-0.1
	c-2.1,0.5-2.2,2-2.5,3.6c-0.2,1.3,0.5,2.3,1.7,2.4c0.5,0,1.2-0.1,1.6-0.5C-432.3,279.4-431.7,278.3-431.6,277.1z"/>
<path id="colorpiel_22_" fill="#D2A188" d="M-443.3,288.5c-0.2,0.7-0.6,1.5-1.2,1.9c-0.4,0.3-1,0.4-1.5,0.3
	c-1.1-0.2-1.6-0.5-2.1-1.5c-0.1-0.2-0.2-0.5-0.2-0.7c0,0,0.2-0.1,0.4-0.9c0.1-0.4,0-1.6,0-1.6l4.3-0.2h0.2v0.4
	C-443.3,286.1-443.3,287.5-443.3,288.5"/>
<path id="colorpiel_14_" fill="#AA8577" d="M-459.6,278.6c0-0.5,0.1-1,0.3-1.4c0.2-0.4,0.5-0.8,0.9-1s0.9-0.2,1.3,0
	c1.4,0.5,2.5,2.1,2.7,3.5c0.1,1.1-0.4,2.3-1.9,2.4c-0.9,0-1.7-0.4-2.3-1.1C-459.1,280.2-459.5,279.4-459.6,278.6z"/>
<path id="trazado_20_" fill="#AA8577" d="M-447.9,287.8c0,0,2.1,2,4.6,0.3v-2.4l-4.5,0.1v1.6L-447.9,287.8z"/>
<g id="colorpiel_13_">
	<path fill="#D2A188" d="M-434.8,271.8c0-2.4-0.8-4.8-2.5-6.5c-1.6-1.6-3.8-2.6-6.1-2.9c-0.4,0-0.9-0.1-1.3-0.1
		c-3.1,0-6.2,1.3-8.6,3.1c-0.6,0.5-1.2,1-1.7,1.6c-1,1.2-1.8,2.6-1.9,4.3c-0.1,1.1,0.1,2.1,0.3,3.2c0.4,2.4,1,5,2,7.2
		c1.2,2.9,3.1,3.6,5.6,4.3c0,0,2.6,0.9,3.4,0.8c0,0,0.9,0,1.4-0.2c1.1-0.3,2-0.7,3-1.1c1.4-0.6,3-1.4,4-2.7c1.1-1.4,1.2-3,1.6-4.7
		C-435.1,276.1-434.8,274.7-434.8,271.8z M-445.3,285.1c-2.3-0.1-5-2.7-5-2.7s5.1,1.7,9.7-0.4c0,0-1.2,1-2.6,2
		C-444.2,284.8-444.6,285.1-445.3,285.1z"/>
</g>
<path id="colorpelo_35_" fill="#AA8577" d="M-435.8,272.8l0.2,0.6c-3.2-0.7-12.8-3.3-15.9-7.7"/>
<path fill="#2B2A2A" d="M-433,271.4c-2.4-7.3-7.4-9-7.4-9c-7.1-3.2-12.5,1.5-12.5,1.5c-1.2,0.2-4.6,2.2-5.2,4.2
	c-0.7,2.9,0.5,8,0.5,8s1.2,0.1,1.5,0.9c0,0,0.3-3.1,1.8-6.1c1.2-2.6,2.1-4,2.6-5.4l0.2,0.1c3.4,3.7,12.3,6.3,15.7,7.2
	c0.7,1.7,0.9,2.3,0.9,2.3c0.4-0.3,1.3-0.4,1.3-0.4C-432.8,272.3-433,271.4-433,271.4z"/>
<path opacity="0.45" fill="#474747" enable-background="new    " d="M-435.9,272.8c0,0,1.4,0.2,2.3-0.1c0,0.2-0.2,1.9-0.2,1.9
	c-1.1,0.2-1.3,0.5-1.3,0.5C-435,275-435.9,272.8-435.9,272.8z"/>
<path opacity="0.45" fill="#474747" enable-background="new    " d="M-456.2,276.6c0.6-3.4,1.6-5,1.8-5.6c-0.4,0.6-1.9,2-2.7,5.1
	L-456.2,276.6z"/>
<g opacity="0.45" enable-background="new    ">
	<g>
		<g>
			<g>
				<g>
					<path fill="#747474" d="M-455.4,282.2C-455.4,282.2-455.5,282.2-455.4,282.2C-455.5,282.2-455.4,282.2-455.4,282.2z"/>
					<path fill="#747474" d="M-455.3,282.2L-455.3,282.2L-455.3,282.2z"/>
					<path fill="#747474" d="M-455.3,282.2C-455.2,282.2-455.3,282.2-455.3,282.2L-455.3,282.2L-455.3,282.2L-455.3,282.2z"/>
					<path fill="#747474" d="M-455.5,282.2L-455.5,282.2L-455.5,282.2L-455.5,282.2z"/>
					<path fill="#747474" d="M-455.5,282.2L-455.5,282.2L-455.5,282.2z"/>
					<path fill="#747474" d="M-455.5,282.2L-455.5,282.2L-455.5,282.2C-455.6,282.2-455.5,282.2-455.5,282.2z"/>
					<path fill="#747474" d="M-455.4,282.2L-455.4,282.2L-455.4,282.2z"/>
					<path fill="#747474" d="M-455.5,282.2L-455.5,282.2C-455.4,282.2-455.4,282.2-455.5,282.2
						C-455.4,282.2-455.4,282.2-455.5,282.2z"/>
					<path fill="#747474" d="M-455.4,282.2L-455.4,282.2C-455.4,282.2-455.5,282.2-455.4,282.2z"/>
					<path fill="#747474" d="M-455.2,282.2L-455.2,282.2L-455.2,282.2L-455.2,282.2z"/>
					<path fill="#747474" d="M-455.5,282.2L-455.5,282.2L-455.5,282.2L-455.5,282.2z"/>
					<path fill="#747474" d="M-455.5,282.2L-455.5,282.2C-455.4,282.2-455.4,282.2-455.5,282.2z"/>
					<path fill="#747474" d="M-455.3,282.2L-455.3,282.2L-455.3,282.2z"/>
					<path fill="#747474" d="M-455.5,282.2h-0.1H-455.5z"/>
					<path fill="#747474" d="M-455.5,282.2C-455.6,282.2-455.6,282.2-455.5,282.2C-455.6,282.2-455.6,282.2-455.5,282.2
						C-455.6,282.2-455.6,282.2-455.5,282.2z"/>
					<path fill="#747474" d="M-455.5,282.2L-455.5,282.2L-455.5,282.2z"/>
					<path fill="#747474" d="M-455.4,282.2C-455.4,282.2-455.5,282.2-455.4,282.2L-455.4,282.2L-455.4,282.2z"/>
					<path fill="#747474" d="M-455.4,282.2L-455.4,282.2L-455.4,282.2L-455.4,282.2z"/>
					<path fill="#747474" d="M-455.4,282.2L-455.4,282.2L-455.4,282.2z"/>
					<path fill="#747474" d="M-455.4,282.2h0.1C-455.3,282.2-455.3,282.2-455.4,282.2z"/>
					<path fill="#747474" d="M-455.4,282.2L-455.4,282.2L-455.4,282.2L-455.4,282.2z"/>
					<polygon fill="#747474" points="-455.3,282.2 -455.4,282.2 -455.4,282.2 					"/>
					<path fill="#747474" d="M-455.5,282.2C-455.4,282.2-455.4,282.2-455.5,282.2C-455.4,282.2-455.4,282.2-455.5,282.2
						L-455.5,282.2z"/>
					<path fill="#747474" d="M-455.4,282.2L-455.4,282.2L-455.4,282.2z"/>
					<path fill="#747474" d="M-455.4,282.2L-455.4,282.2L-455.4,282.2L-455.4,282.2z"/>
					<path fill="#747474" d="M-455.4,282.2L-455.4,282.2L-455.4,282.2L-455.4,282.2z"/>
					<path fill="#747474" d="M-455.5,282.2L-455.5,282.2L-455.5,282.2z"/>
					<path fill="#747474" d="M-455.4,282.2C-455.5,282.2-455.5,282.2-455.4,282.2C-455.5,282.2-455.5,282.2-455.4,282.2z"/>
					<path fill="#747474" d="M-455.4,282.2L-455.4,282.2L-455.4,282.2L-455.4,282.2z"/>
					<path fill="#747474" d="M-455,282.2C-455.1,282.2-455.1,282.2-455,282.2c-0.1,0-0.3,0-0.4,0c0,0,0,0,0.1,0h0.1l0,0
						C-455.2,282.2-455.1,282.2-455,282.2L-455,282.2C-455.1,282.2-455,282.2-455,282.2z"/>
					<path fill="#747474" d="M-455.4,282.2L-455.4,282.2L-455.4,282.2C-455.5,282.2-455.4,282.2-455.4,282.2L-455.4,282.2
						L-455.4,282.2z"/>
					<path fill="#747474" d="M-455.4,282.2c0.1,0,0.1,0,0.2,0C-455.3,282.2-455.3,282.2-455.4,282.2
						C-455.3,282.2-455.4,282.2-455.4,282.2L-455.4,282.2L-455.4,282.2L-455.4,282.2L-455.4,282.2L-455.4,282.2L-455.4,282.2
						L-455.4,282.2L-455.4,282.2L-455.4,282.2L-455.4,282.2L-455.4,282.2L-455.4,282.2L-455.4,282.2z"/>
					<path fill="#747474" d="M-455.1,282.2L-455.1,282.2L-455.1,282.2z"/>
					<path fill="#747474" d="M-455.1,282.2C-455.2,282.2-455.2,282.2-455.1,282.2C-455.2,282.2-455.1,282.2-455.1,282.2
						S-455.2,282.2-455.1,282.2L-455.1,282.2c-0.1,0-0.1,0-0.1,0S-455.2,282.2-455.1,282.2z"/>
					<path fill="#747474" d="M-455.3,282.2L-455.3,282.2L-455.3,282.2L-455.3,282.2C-455.2,282.2-455.2,282.2-455.3,282.2z"/>
					<polygon fill="#747474" points="-455.5,282.2 -455.5,282.2 -455.4,282.2 					"/>
					<polygon fill="#747474" points="-455.4,282.2 -455.5,282.2 -455.5,282.2 					"/>
					<path fill="#747474" d="M-454.7,282.3L-454.7,282.3L-454.7,282.3z"/>
					<path fill="#747474" d="M-454.7,282.3L-454.7,282.3C-454.8,282.3-454.7,282.3-454.7,282.3z"/>
					<path fill="#747474" d="M-455.4,282.2C-455.5,282.2-455.6,282.2-455.4,282.2L-455.4,282.2
						C-455.5,282.2-455.5,282.2-455.4,282.2z"/>
					<path fill="#747474" d="M-455.1,282.3L-455.1,282.3L-455.1,282.3L-455.1,282.3z"/>
					<path fill="#747474" d="M-454.8,282.3L-454.8,282.3L-454.8,282.3z"/>
					<path fill="#747474" d="M-454.7,282.3L-454.7,282.3C-454.6,282.3-454.6,282.3-454.7,282.3z"/>
					<path fill="#747474" d="M-455.4,282.2L-455.4,282.2L-455.4,282.2z"/>
					<path fill="#747474" d="M-455.4,282.3L-455.4,282.3L-455.4,282.3z"/>
					<path fill="#747474" d="M-455.5,282.2L-455.5,282.2L-455.5,282.2L-455.5,282.2z"/>
					<path fill="#747474" d="M-454.7,282.3L-454.7,282.3L-454.7,282.3z"/>
					<path fill="#747474" d="M-455.4,282.3L-455.4,282.3L-455.4,282.3z"/>
					<path fill="#747474" d="M-455.5,282.2L-455.5,282.2L-455.5,282.2z"/>
					<path fill="#747474" d="M-455.2,282.2L-455.2,282.2L-455.2,282.2z"/>
					<path fill="#747474" d="M-455.1,282.2L-455.1,282.2L-455.1,282.2z"/>
					<path fill="#747474" d="M-455.4,282.2C-455.5,282.2-455.5,282.2-455.4,282.2L-455.4,282.2z"/>
					<path fill="#747474" d="M-455.5,282.2L-455.5,282.2L-455.5,282.2z"/>
					<path fill="#747474" d="M-455.5,282.2L-455.5,282.2L-455.5,282.2L-455.5,282.2z"/>
					<path fill="#747474" d="M-454.9,282.3L-454.9,282.3L-454.9,282.3z"/>
					<path fill="#747474" d="M-454.8,282.3L-454.8,282.3L-454.8,282.3L-454.8,282.3z"/>
					<path fill="#747474" d="M-454.7,282.3C-454.8,282.3-454.8,282.3-454.7,282.3h-0.2H-454.7z"/>
					<path fill="#747474" d="M-454.7,282.3L-454.7,282.3c0.1,0,0.1,0,0.2,0C-454.7,282.3-454.5,282.3-454.7,282.3L-454.7,282.3
						L-454.7,282.3C-454.6,282.3-454.8,282.3-454.7,282.3C-454.8,282.3-454.8,282.3-454.7,282.3L-454.7,282.3
						C-454.8,282.3-454.7,282.3-454.7,282.3L-454.7,282.3L-454.7,282.3c-0.1,0-0.1,0-0.1,0S-454.8,282.3-454.7,282.3h-0.1
						C-454.8,282.3-454.8,282.3-454.7,282.3S-454.8,282.3-454.7,282.3L-454.7,282.3c0.2,0,0.1,0,0.2,0
						C-454.6,282.3-454.7,282.3-454.7,282.3L-454.7,282.3L-454.7,282.3L-454.7,282.3L-454.7,282.3h0.1H-454.7L-454.7,282.3
						C-454.8,282.3-454.7,282.3-454.7,282.3L-454.7,282.3L-454.7,282.3c-0.1,0-0.1,0-0.1,0c-0.1,0,0.1,0,0,0
						C-454.8,282.3-454.8,282.3-454.7,282.3c-0.1,0-0.1,0-0.2,0h0.1c-0.1,0-0.1,0-0.2,0h-0.1l0,0c0,0,0,0,0.1,0l0,0h0.1
						c0,0,0,0-0.1,0c0.1,0,0.1,0,0.2,0l0,0l0,0l0,0H-454.7L-454.7,282.3L-454.7,282.3c-0.1,0-0.3,0-0.3,0
						C-454.9,282.3-454.9,282.3-454.7,282.3C-454.9,282.3-454.8,282.3-454.7,282.3C-454.8,282.3-454.8,282.3-454.7,282.3h-0.1
						C-454.8,282.3-454.8,282.3-454.7,282.3c-0.2,0-0.1,0-0.2,0C-454.9,282.3-454.8,282.3-454.7,282.3c0,0-0.3,0-0.2,0l0,0l0,0l0,0
						c0,0,0,0-0.1,0C-455,282.3-454.8,282.3-454.7,282.3h-0.5C-455.1,282.3-454.9,282.3-454.7,282.3
						C-454.8,282.3-454.8,282.3-454.7,282.3c-0.1,0-0.2,0-0.2,0C-454.8,282.3-454.9,282.3-454.7,282.3c-0.1,0-0.3,0-0.3,0
						S-454.8,282.3-454.7,282.3h-0.2C-454.9,282.3-454.8,282.3-454.7,282.3C-454.8,282.3-454.8,282.3-454.7,282.3h-0.1h-0.2
						C-455,282.3-454.9,282.3-454.7,282.3c-0.2,0-0.5,0-0.6,0l0,0h-0.1C-455.2,282.3-454.9,282.3-454.7,282.3
						C-454.8,282.3-454.8,282.3-454.7,282.3L-454.7,282.3L-454.7,282.3C-454.8,282.3-454.8,282.3-454.7,282.3L-454.7,282.3
						c-0.1,0-0.3,0-0.3,0C-454.9,282.3-454.8,282.3-454.7,282.3C-454.8,282.3-454.8,282.3-454.7,282.3L-454.7,282.3
						C-454.7,282.3-454.9,282.3-454.7,282.3C-454.8,282.3-454.7,282.3-454.7,282.3c-0.1,0-0.4,0-0.5,0c0,0,0.1,0,0.2,0
						C-455,282.3-454.9,282.3-454.7,282.3c-0.1,0-0.1,0-0.2,0C-454.9,282.3-454.8,282.3-454.7,282.3c-0.2,0-0.1,0-0.2,0l0,0
						c-0.1,0-0.2,0-0.2,0h0.1h0.1h0.1h-0.1c0.1,0,0,0,0.1,0c-0.1,0-0.1,0-0.1,0c-0.1,0,0,0,0,0c-0.1,0-0.2,0-0.3,0h0.1
						c0,0-0.2,0-0.1,0s0.2,0,0.2,0l0,0l0,0l0,0c0.1,0,0,0,0.1,0h-0.1l0,0c-0.1,0-0.1,0-0.1,0h-0.1h0.1c0,0-0.1,0,0,0c0,0,0.1,0,0,0
						h-0.1h-0.1c-0.1,0,0,0-0.1,0c0.1,0,0,0,0.1,0c-0.1,0,0,0-0.1,0c0,0,0.1,0,0,0l0,0l0,0l0,0l0,0l0,0c0.1,0,0.1,0,0.1,0s0,0-0.1,0
						h0.1c-0.1,0-0.1,0-0.1,0l0,0c0,0-0.1,0,0,0c0,0,0.1,0,0,0l0,0l0,0c0,0,0.1,0,0,0l0,0h-0.1c0,0-0.1,0,0,0c-0.1,0,0,0-0.1,0h0.1
						l0,0h0.1c0.1,0,0,0,0,0l0,0c-0.1,0,0.1,0,0,0l0,0l0,0l0,0l0,0l0,0l0,0h-0.1l0,0c0,0,0,0,0.1,0l0,0c-0.1,0,0,0-0.1,0
						c0.1,0,0,0,0.2,0l0,0l0,0h-0.1h0.1c-0.1,0-0.1,0-0.2,0c0.1,0,0,0,0.1,0h-0.1c0,0,0.1,0,0,0s0,0-0.1,0c0.2,0-0.1,0,0.1,0h-0.1
						c0,0-0.1,0,0,0h-0.1l0,0c0,0,0,0-0.1,0c0,0,0.1,0,0.2,0c-0.1,0,0,0,0,0h-0.1c0,0-0.1,0,0,0l0,0l0,0l0,0c0.1,0,0,0,0,0l0,0
						c-0.1,0,0,0-0.1,0h0.1c0.1,0-0.1,0,0,0l0,0c0.1,0-0.2,0-0.2,0l0,0c-0.1,0,0.1,0,0.1,0h-0.1c0,0,0.2,0,0.1,0h0.1c0,0-0.1,0,0,0
						l0,0h0.1c-0.2,0,0.1,0-0.1,0l0,0l0,0c0,0,0,0,0.1,0l0,0c0,0,0,0,0.1,0h-0.1c0,0-0.1,0,0,0l0,0c0.1,0-0.2,0,0.1,0h0.1
						c0,0,0.1,0,0.2,0h-0.1l0,0c-0.1,0,0,0-0.1,0h-0.1h0.1l0,0h-0.1c-0.1,0,0,0,0.1,0h-0.1l0,0l0,0h0.1h-0.1l0,0l0,0h0.1
						c0,0,0,0,0.1,0c-0.1,0-0.1,0-0.1,0c0.1,0,0.1,0,0.1,0h0.1c-0.2,0-0.1,0-0.2,0c0.1,0,0,0,0.2,0h-0.1c0.1,0,0,0,0,0h0.1h-0.1h0.1
						h0.1c-0.1,0,0.1,0-0.1,0h0.1h0.1h-0.1c0.1,0,0,0,0.1,0l0,0c0.1,0,0.2,0,0.4,0c-0.1,0,0.2,0,0,0S-454.8,282.3-454.7,282.3
						C-454.8,282.3-454.9,282.3-454.7,282.3L-454.7,282.3C-454.8,282.3-454.8,282.3-454.7,282.3L-454.7,282.3
						C-454.8,282.3-454.8,282.3-454.7,282.3c-0.1,0,0,0-0.1,0C-454.7,282.3-454.9,282.3-454.7,282.3L-454.7,282.3L-454.7,282.3
						L-454.7,282.3C-454.8,282.3-454.7,282.3-454.7,282.3L-454.7,282.3C-454.6,282.3-454.7,282.3-454.7,282.3L-454.7,282.3
						C-454.8,282.3-454.7,282.3-454.7,282.3L-454.7,282.3C-454.9,282.3-454.8,282.3-454.7,282.3L-454.7,282.3
						C-454.8,282.3-454.8,282.3-454.7,282.3C-454.8,282.3-454.8,282.3-454.7,282.3c0,0,0,0-0.2,0H-454.7c-0.1,0-0.2,0-0.2,0
						C-454.9,282.3-454.8,282.3-454.7,282.3C-454.7,282.3-454.9,282.3-454.7,282.3C-454.9,282.3-454.8,282.3-454.7,282.3
						c-0.1,0-0.2,0-0.2,0H-454.7L-454.7,282.3C-454.7,282.3-454.8,282.3-454.7,282.3C-454.8,282.3-454.7,282.3-454.7,282.3
						L-454.7,282.3c-0.1,0-0.2,0-0.2,0C-454.9,282.3-454.8,282.3-454.7,282.3C-454.8,282.3-454.9,282.3-454.7,282.3
						C-454.7,282.3-454.8,282.3-454.7,282.3C-454.7,282.3-454.8,282.3-454.7,282.3C-454.8,282.3-454.6,282.3-454.7,282.3
						L-454.7,282.3L-454.7,282.3L-454.7,282.3c0,0,0.2,0,0.1,0H-454.7c-0.1,0,0.2,0,0.1,0C-454.6,282.3-454.6,282.3-454.7,282.3
						c0.1,0,0.1,0,0.1,0H-454.7C-454.6,282.3-454.7,282.3-454.7,282.3L-454.7,282.3C-454.7,282.3-454.8,282.3-454.7,282.3
						L-454.7,282.3L-454.7,282.3L-454.7,282.3C-454.8,282.3-454.8,282.3-454.7,282.3c-0.1,0-0.1,0-0.1,0S-454.8,282.3-454.7,282.3
						C-454.8,282.3-454.7,282.3-454.7,282.3C-454.8,282.3-454.7,282.3-454.7,282.3L-454.7,282.3L-454.7,282.3L-454.7,282.3
						C-454.8,282.3-454.8,282.3-454.7,282.3C-454.8,282.3-454.8,282.3-454.7,282.3L-454.7,282.3L-454.7,282.3
						C-454.7,282.3-454.6,282.3-454.7,282.3C-454.6,282.3-454.7,282.3-454.7,282.3L-454.7,282.3
						C-454.7,282.3-454.6,282.3-454.7,282.3h0.1H-454.7C-454.8,282.3-454.7,282.3-454.7,282.3S-454.8,282.3-454.7,282.3
						L-454.7,282.3z M-454.8,282.3C-454.8,282.3-454.7,282.3-454.8,282.3L-454.8,282.3z M-454.9,282.3L-454.9,282.3
						C-455,282.3-455,282.3-454.9,282.3z M-455.4,282.2L-455.4,282.2L-455.4,282.2z M-455.4,282.2L-455.4,282.2L-455.4,282.2
						L-455.4,282.2z M-455.4,282.3L-455.4,282.3C-455.3,282.3-455.3,282.3-455.4,282.3z"/>
					<path fill="#747474" d="M-454.8,282.3C-454.9,282.3-454.9,282.3-454.8,282.3C-454.9,282.3-454.9,282.3-454.8,282.3z"/>
					<path fill="#747474" d="M-454.7,282.3L-454.7,282.3L-454.7,282.3L-454.7,282.3z"/>
					<path fill="#747474" d="M-454.8,282.2L-454.8,282.2L-454.8,282.2z"/>
					<path fill="#747474" d="M-455.5,282.2L-455.5,282.2L-455.5,282.2L-455.5,282.2z"/>
					<path fill="#747474" d="M-455.1,282.2L-455.1,282.2L-455.1,282.2L-455.1,282.2z"/>
					<path fill="#747474" d="M-455.3,282.2C-455.2,282.2-455.2,282.2-455.3,282.2L-455.3,282.2L-455.3,282.2z"/>
					<path fill="#747474" d="M-455.2,282.2C-455.2,282.2-455.3,282.2-455.2,282.2C-455.3,282.2-455.3,282.2-455.2,282.2z"/>
					<path fill="#747474" d="M-455.4,282.2C-455.4,282.2-455.5,282.2-455.4,282.2C-455.5,282.2-455.4,282.2-455.4,282.2z"/>
					<path fill="#747474" d="M-455.1,282.2h-0.1H-455.1z"/>
					<path fill="#747474" d="M-455.1,282.2L-455.1,282.2L-455.1,282.2C-455.1,282.2-455.2,282.2-455.1,282.2z"/>
					<path fill="#747474" d="M-455.1,282.2L-455.1,282.2L-455.1,282.2z"/>
					<path fill="#747474" d="M-455.1,282.2L-455.1,282.2L-455.1,282.2z"/>
					<path fill="#747474" d="M-455.1,282.2L-455.1,282.2L-455.1,282.2L-455.1,282.2z"/>
					<path fill="#747474" d="M-455,282.2L-455,282.2L-455,282.2L-455,282.2z"/>
					<path fill="#747474" d="M-454.9,282.2L-454.9,282.2L-454.9,282.2z"/>
					<polygon fill="#747474" points="-455,282.2 -455,282.2 -455.2,282.2 					"/>
					<path fill="#747474" d="M-454.7,282.2C-454.7,282.2-454.8,282.2-454.7,282.2c-0.1,0-0.1,0-0.1,0S-454.8,282.2-454.7,282.2z"/>
					<path fill="#747474" d="M-454.8,282.2L-454.8,282.2L-454.8,282.2z"/>
					<path fill="#747474" d="M-455.4,282.3h-0.1H-455.4z"/>
					<path fill="#747474" d="M-455.3,282.3L-455.3,282.3L-455.3,282.3L-455.3,282.3z"/>
					<path fill="#747474" d="M-454.6,282.3L-454.6,282.3L-454.6,282.3L-454.6,282.3z"/>
					<path fill="#747474" d="M-454.7,282.3h0.1H-454.7z"/>
					<path fill="#747474" d="M-454.5,282.3C-454.5,282.3-454.6,282.3-454.5,282.3C-454.5,282.3-454.6,282.3-454.5,282.3z"/>
				</g>
			</g>
		</g>
	</g>
</g>
<path fill="#8C7F7A" d="M-451.1,265.2c0,0,4.1-0.9,8.1,0.1c3.9,1,4.7,2.3,6.3,4.6c0,0-1.8-2.2-5.5-3.5
	C-445.3,265.3-449.3,265-451.1,265.2z"/>
<path fill="#8C7F7A" d="M-451.4,264.2c0,0,1.7-2.1,3.1-2.4c1.4-0.3,3.3-0.2,3.3-0.2s-1.2,0.1-2.4,0.6S-450.4,263.4-451.4,264.2z"/>
<path fill="#8C7F7A" d="M-453.5,264.7c0,0-1.9,0.3-2.7,1.4s-0.7,2.3-0.7,2.3s0.7-1.4,1.2-2C-455.3,265.9-454.9,265.2-453.5,264.7z"
	/>
<g id="layer_14_3_">
	<path fill="#AA8577" d="M-447,281.5C-447,281.4-447,281.5-447,281.5c0.3,0,0.9-0.1,1.1-0.2c0.2-0.2,0.9-0.4,1.5-0.1
		c0,0,0.3,0,0.5-0.1c0.1-0.1,0.1-0.1,0.2,0.1s0.3,0.1,0.3,0.1v-0.1c0,0,1,0.8-0.9,0.9c0,0-1,0.6-1.9-0.1c0,0-0.1-0.2-0.6-0.3
		C-447,281.7-447,281.6-447,281.5z"/>
</g>
<g>
	<g>
		<path fill="#55433C" d="M-445.6,279.9c0.1,0,0.2-0.1,0.3-0.1c0.1,0,0.2,0,0.3,0c0.1,0,0.2,0.1,0.3,0.1c0.1,0.1,0.2,0.1,0.3,0.2
			C-444.3,280.2-445.3,279.9-445.6,279.9z"/>
	</g>
	<path fill="#55433C" d="M-456.5,278.7c-0.1-0.1-0.1-0.2-0.2-0.3c-0.1-0.2-0.3-0.3-0.4-0.4s-0.4-0.2-0.6-0.2c-0.2,0-0.4,0-0.6,0.1
		c0.4,0,0.7,0.1,1,0.3l0.1,0.1l0.1,0.1c0,0,0,0,0,0c-0.1,0-0.1,0.1-0.2,0.1c-0.1,0.1-0.1,0.1-0.2,0.2c-0.1,0.2-0.2,0.4-0.2,0.6
		s0.1,0.4,0.2,0.6c0.1,0.2,0.3,0.3,0.5,0.3c-0.1-0.1-0.3-0.3-0.4-0.4c-0.1-0.1-0.2-0.3-0.2-0.5s0.1-0.3,0.1-0.5
		c0-0.1,0.1-0.2,0.1-0.2c0-0.1,0.1-0.1,0.1-0.2c0.1,0,0.1,0.1,0.2,0.1C-456.7,278.6-456.7,278.7-456.5,278.7c0,0.1,0,0.2,0.1,0.3
		C-456.4,278.9-456.5,278.8-456.5,278.7z"/>
	<path fill="#55433C" d="M-433.7,276.5c0.2-0.1,0.4-0.2,0.6-0.1c-0.2-0.1-0.4-0.1-0.6,0c-0.2,0.1-0.4,0.2-0.5,0.3s-0.3,0.3-0.4,0.4
		c-0.1,0.1-0.3,0.3-0.3,0.5c0.2-0.1,0.3-0.3,0.5-0.4c0.1-0.1,0.3-0.2,0.4-0.3c0,0.1,0.1,0.1,0.1,0.2c0,0.1,0.1,0.2,0.1,0.3
		c0.1,0.2,0.1,0.4,0,0.6c0,0.2-0.1,0.4-0.3,0.5c-0.1,0.2-0.3,0.3-0.4,0.5c0.2-0.1,0.4-0.2,0.5-0.4c0.2-0.2,0.3-0.4,0.3-0.6
		c0-0.1,0-0.1,0-0.2c0-0.1,0-0.1,0-0.2c0-0.1,0-0.2-0.1-0.3c0-0.1-0.1-0.2-0.2-0.3c-0.1-0.1-0.1-0.1-0.2-0.2c0,0,0,0,0.1,0
		C-434,276.7-433.8,276.6-433.7,276.5z"/>
	<g>
		<path fill="#55433C" d="M-450.7,282.8c0-0.1,0-0.2,0.1-0.2c0-0.1,0.1-0.1,0.1-0.2c0.1-0.1,0.3-0.2,0.4-0.2
			c-0.1,0.1-0.1,0.1-0.2,0.2c-0.1,0.1-0.1,0.1-0.2,0.1C-450.5,282.5-450.6,282.7-450.7,282.8z"/>
	</g>
	<g>
		<path fill="#55433C" d="M-440.9,281.8c0.1,0,0.1,0,0.2,0.1s0.1,0.1,0.2,0.1c0.1,0.1,0.1,0.1,0.1,0.2c0,0.1,0.1,0.1,0.1,0.2
			l-0.1-0.2c0,0-0.1-0.1-0.1-0.1C-440.7,282-440.8,281.9-440.9,281.8z"/>
	</g>
	<g>
		<path fill="#55433C" d="M-444.8,282c0.1-0.1,0.2-0.1,0.3-0.2c0.1-0.1,0.2-0.1,0.3-0.2c0.1-0.1,0.2-0.1,0.2-0.2
			c0.1-0.1,0.1-0.2,0.2-0.3c0,0.1,0,0.3-0.1,0.4c-0.1,0.1-0.1,0.2-0.2,0.3c-0.1,0.1-0.2,0.1-0.3,0.2
			C-444.5,282-444.7,282.1-444.8,282z"/>
	</g>
	<g>
		<path fill="#55433C" d="M-446.1,282c-0.2-0.1-0.3-0.1-0.4-0.1c-0.1,0-0.3,0-0.5-0.1l0,0c0,0-0.1,0-0.1,0c-0.1-0.1-0.1-0.2-0.1-0.3
			c0-0.1,0-0.2,0-0.3c0.1-0.2,0.4-0.3,0.4-0.3c0,0-0.2,0.2-0.2,0.4c0,0.1,0,0.3,0,0.3c0,0,0.3,0,0.4,0.1
			C-446.5,281.8-446.2,281.9-446.1,282z"/>
	</g>
	<g>
		<path fill="#55433C" d="M-443.5,281.1c0.2,0.1,0.4,0.8,0,0.7C-443.4,281.6-443.5,281.3-443.5,281.1
			C-443.4,281.1-443.5,281.2-443.5,281.1z"/>
	</g>
</g>
<g id="ojos_3_">
	<path fill="#E6E3D9" d="M-453.1,278c0-0.2,0.1-0.3,0.1-0.4c0.4-0.6,1-1.1,1.8-1.2c0.9-0.2,2,0,2.5,0.6c0.5,0.5,0.5,1.3,0.3,1.9
		c-0.2,0.5-0.3,0.6-0.8,0.6c-1.3,0-2.6-0.2-3.7-0.7C-453.2,278.6-453.2,278.3-453.1,278z"/>
	
		<circle id="colorojos_8_" fill="#5E6D35" stroke="#543F1F" stroke-width="0.1425" stroke-miterlimit="10" cx="-450" cy="277.8" r="1.5"/>
	<circle fill="#121112" cx="-450" cy="277.7" r="0.6"/>
	
		<ellipse transform="matrix(-0.3187 -0.9479 0.9479 -0.3187 -855.7081 -59.8624)" fill="#FFFFFF" cx="-449.4" cy="277.6" rx="0.3" ry="0.5"/>
	<path fill="#E6E3D9" d="M-437.7,278c0-0.2-0.1-0.3-0.1-0.4c-0.3-0.6-1-1.2-1.8-1.4c-0.9-0.2-2-0.1-2.6,0.5
		c-0.5,0.5-0.6,1.3-0.4,1.9c0.2,0.5,0.2,0.6,0.8,0.6c1.3,0,2.7,0,3.9-0.5C-437.7,278.6-437.7,278.3-437.7,278z"/>
	
		<ellipse id="colorojos_7_" transform="matrix(-0.9266 -0.376 0.376 -0.9266 -954.1647 369.1341)" fill="#5E6D35" stroke="#543F1F" stroke-width="0.1425" stroke-miterlimit="10" cx="-441.1" cy="277.7" rx="1.4" ry="1.5"/>
	<circle fill="#121112" cx="-441.1" cy="277.6" r="0.6"/>
	
		<ellipse transform="matrix(-0.4557 -0.8901 0.8901 -0.4557 -888.2566 11.7053)" fill="#FFFFFF" cx="-440.5" cy="277.4" rx="0.3" ry="0.5"/>
	<g>
		<path fill="#101417" d="M-453.1,278c0-0.2,0.1-0.3,0.1-0.4c0.4-0.6,1-1.1,1.8-1.2c0.9-0.2,2,0,2.5,0.6c0.1,0.1,0.2,0.3,0.3,0.5
			c0-0.2-0.1-0.4-0.3-0.6c-0.5-0.7-1.6-1-2.5-0.9c-0.7,0.1-1.4,0.4-1.8,0.9c-0.1,0.1-0.3,0.4-0.4,0.6c-0.1,0.3-0.1,0.6,0.1,0.8
			C-453.2,278.2-453.2,278.1-453.1,278z"/>
	</g>
	<path fill="#101417" d="M-437.6,277.4c-0.1-0.3-0.2-0.5-0.4-0.6c-0.4-0.5-1.1-0.9-1.8-1c-0.9-0.1-2,0.1-2.6,0.8
		c-0.1,0.1-0.2,0.3-0.2,0.4c0.1-0.1,0.2-0.2,0.2-0.3c0.6-0.6,1.7-0.7,2.6-0.5c0.8,0.2,1.4,0.7,1.8,1.4c0.1,0.1,0.1,0.3,0.1,0.4
		c0,0.1,0,0.1,0,0.2C-437.5,278-437.5,277.7-437.6,277.4z"/>
</g>
<path id="colorpelo_12_" fill="#3B3B3B" d="M-454.9,274.9c0,0,2.5-2.2,4.8-1.9c0,0,0-0.8-2-0.5C-454,272.7-454.9,274.9-454.9,274.9z
	"/>
<path id="colorpelo_11_" fill="#3B3B3B" d="M-441.7,272.4c0,0,2.8-0.2,4.9,2c0,0-1.1-2.5-3.8-2.6
	C-440.6,271.8-441,271.8-441.7,272.4z"/>
<g id="complementos_3_">
	<g id="estrellitas_3_">
		<polygon fill="#EDAC29" points="-455.5,281.4 -455.8,281.3 -456.1,281.6 -456.1,281.2 -456.4,281 -456.1,280.9 -456,280.5 
			-455.8,280.8 -455.4,280.8 -455.6,281.1 		"/>
		<polygon fill="#EDAC29" points="-434.5,280.1 -434.9,280 -435.2,280.3 -435.2,279.9 -435.5,279.7 -435.2,279.6 -435.1,279.2 
			-434.9,279.5 -434.5,279.5 -434.7,279.8 		"/>
	</g>
</g>
</svg>
