<svg xmlns="http://www.w3.org/2000/svg" xmlns:xlink="http://www.w3.org/1999/xlink" width="16" height="16" viewBox="0 0 16 16"><defs><path id="ip8ea" d="M520 715a8 8 0 1 1 16 0 8 8 0 0 1-16 0z"/><path id="ip8ec" d="M519 715.56c0 1.2.2 2.35.56 3.42l8.43.85 8.43-.85a10.64 10.64 0 0 0 0-6.84l-8.43-.86-8.43.86a10.64 10.64 0 0 0-.56 3.42z"/><path id="ip8ed" d="M535.97 712.58a8.48 8.48 0 0 0-7.95-5.58 8.48 8.48 0 0 0-7.95 5.58z"/><path id="ip8ee" d="M520.07 718.76a8.48 8.48 0 0 0 7.95 5.58 8.48 8.48 0 0 0 7.95-5.58z"/><clipPath id="ip8eb"><use xlink:href="#ip8ea"/></clipPath></defs><g><g transform="translate(-520 -707)"><g><g><g><use fill="#d8d8d8" xlink:href="#ip8ea"/></g><g clip-path="url(#ip8eb)"><use fill="#ffda44" xlink:href="#ip8ec"/></g><g clip-path="url(#ip8eb)"><use fill="#d80027" xlink:href="#ip8ed"/></g><g clip-path="url(#ip8eb)"><use fill="#d80027" xlink:href="#ip8ee"/></g></g></g></g></g></svg>