<svg xmlns="http://www.w3.org/2000/svg" xmlns:xlink="http://www.w3.org/1999/xlink" width="16" height="16" viewBox="0 0 16 16"><defs><path id="sdhga" d="M520 625a8 8 0 1 1 16 0 8 8 0 0 1-16 0z"/><path id="sdhgb" d="M527.52 624.16H536c0-.71-.1-1.4-.28-2.05h-8.2z"/><path id="sdhgc" d="M527.52 620.07h7.29a7.98 7.98 0 0 0-1.88-2.05h-5.41z"/><path id="sdhgd" d="M527.87 632c1.91 0 3.67-.63 5.06-1.7H522.8a8.28 8.28 0 0 0 5.06 1.7z"/><path id="sdhge" d="M520.94 628.25h13.87c.4-.63.71-1.32.91-2.05h-15.69c.2.73.51 1.42.91 2.05z"/><path id="sdhgf" d="M526.63 618.74l.26.8-.68-.5-.68.5.26-.8-.68-.5h.84l.26-.79.26.8h.83zm0 2.33l.26.8-.68-.5-.68.5.26-.8-.68-.49h.84l.26-.8.26.8h.83zm.26 3.13l-.68-.5-.68.5.26-.8-.68-.49h.84l.26-.8.26.8h.83l-.67.5zm-3.13-3.13l.26.8-.68-.5-.68.5.26-.8-.68-.49h.84l.26-.8.26.8h.83zm.26 3.13l-.68-.5-.68.5.26-.8-.68-.49h.84l.26-.8.26.8h.83l-.67.5zm-.31-5.95h.72l-.67.5.26.79-.68-.5-.68.5.22-.69c-.6.5-1.12 1.08-1.55 1.73h.24l-.44.31-.19.35.2.63-.38-.28c-.1.2-.18.41-.26.62l.23.7h.84l-.68.5.26.79-.68-.5-.4.3c-.05.33-.07.66-.07 1h8v-8c-1.58 0-3.05.46-4.3 1.25z"/></defs><g><g transform="translate(-520 -617)"><g><use fill="#f0f0f0" xlink:href="#sdhga"/></g><g><g><use fill="#d80027" xlink:href="#sdhgb"/></g><g><use fill="#d80027" xlink:href="#sdhgc"/></g><g><use fill="#d80027" xlink:href="#sdhgd"/></g><g><use fill="#d80027" xlink:href="#sdhge"/></g></g><g><use fill="#0052b4" xlink:href="#sdhgf"/></g></g></g></svg>