<svg xmlns="http://www.w3.org/2000/svg" xmlns:xlink="http://www.w3.org/1999/xlink" width="1616" height="1008" viewBox="0 0 1616 1008"><defs><path id="w0jia" d="M1659.13 4774.36c-265.2 383.73-614.04 369.7-779.65 369.7-165.6 0-595.02-215.63-689.98-86.93-94.97 128.7-46.14 495.8 394.55 540.42 440.68 44.61 455.05-46.07 809.88-65.29 354.83-19.21 265.2 179.74 265.2 179.74s265.2-1321.38 0-937.64z"/><path id="w0jic" d="M94 5756V4660h1709v1096zm1565.13-977.64c-265.2 383.73-614.04 369.7-779.65 369.7-165.6 0-595.02-215.63-689.98-86.93-94.97 128.7-46.14 495.8 394.55 540.42 440.68 44.61 455.05-46.07 809.88-65.29 235.11-12.73 275.09 70.32 275.3 127.82 45.95-240.84 223.26-1223.38-10.1-885.72zm10.1 885.72c-6.27 32.87-10.1 51.92-10.1 51.92s10.2-22.65 10.1-51.92z"/><path id="w0jig" d="M26.15 5412.5s584.35-103.8 1125.84-43.11c541.49 60.68 247.65 198.15 247.65 198.15L631.8 5712l-581.06-41.28-155.74-166.3z"/><linearGradient id="w0jib" x1="1704.38" x2="324.23" y1="4789.73" y2="5712" gradientUnits="userSpaceOnUse"><stop offset="0" stop-color="#ec254a"/><stop offset="1" stop-color="#ff0b85"/></linearGradient><filter id="w0jid" width="200%" height="200%" x="-50%" y="-50%"><feGaussianBlur in="SourceGraphic" result="FeGaussianBlur2155Out" stdDeviation="20 20"/></filter><mask id="w0jie"><use fill="#fff" xlink:href="#w0jia"/></mask><clipPath id="w0jif"><use xlink:href="#w0jia"/></clipPath></defs><g><g transform="translate(-147 -4704)"><g><use fill="url(#w0jib)" xlink:href="#w0jia"/><use fill="#6d0031" fill-opacity=".62" stroke="#6d0031" stroke-opacity=".62" stroke-width="0" filter="url(#w0jid)" mask="url(&quot;#w0jie&quot;)" xlink:href="#w0jic"/></g><g clip-path="url(#w0jif)"><use fill="#942a53" fill-opacity=".2" xlink:href="#w0jig"/></g></g></g></svg>