<svg xmlns="http://www.w3.org/2000/svg" xmlns:xlink="http://www.w3.org/1999/xlink" width="1383" height="804" viewBox="0 0 1383 804"><defs><path id="l9oja" d="M-19.45 2643.5c173.1-44.33 303.42-137.12 499.23-90.95 195.81 46.18 152.37 364.76 279.73 364.76 127.35 0 388.3-128.77 461.34 0 73.03 128.76 151.88 291.5-172.63 401.96C723.72 3429.73 457.4 3134.23 184.5 3115c-272.88-19.23-203.95 179.82-203.95 179.82s-173.1-607.02 0-651.34z"/><path id="l9ojd" d="M-137 3388v-892h1463v892zm114.6-99.83c-9.68-41.02-27.59-185.68 206.9-169.16 272.89 19.22 539.22 314.72 863.72 204.26 324.51-110.47 245.66-273.2 172.63-401.96-73.03-128.77-333.99 0-461.34 0-127.36 0-83.92-318.58-279.73-364.76-195.81-46.17-326.13 46.62-499.23 90.94-159.51 40.84-25.04 559.5-2.95 640.68zm2.95 10.66s-1.07-3.74-2.95-10.66c1.58 6.72 2.95 10.66 2.95 10.66z"/><path id="l9ojh" d="M-45.4 3156.48s541.57-94.94 1024.74 30.54c483.17 125.48 200.69 289.27 200.69 289.27l-712.59 135.74-521.32-102.21-121.24-238.66z"/><linearGradient id="l9ojb" x1="1224.26" x2="55.02" y1="2619.87" y2="3343.92" gradientUnits="userSpaceOnUse"><stop offset="0" stop-color="#ec254a"/><stop offset="1" stop-color="#ff0b85"/></linearGradient><linearGradient id="l9ojc" x1="1224.26" x2="55.02" y1="2619.87" y2="3343.92" gradientUnits="userSpaceOnUse"><stop offset="0" stop-color="#ec254a"/><stop offset="1" stop-color="#ff0b85"/></linearGradient><filter id="l9oje" width="200%" height="200%" x="-50%" y="-50%"><feGaussianBlur in="SourceGraphic" result="FeGaussianBlur1570Out" stdDeviation="20 20"/></filter><mask id="l9ojf"><use fill="#fff" xlink:href="#l9oja"/></mask><clipPath id="l9ojg"><use xlink:href="#l9oja"/></clipPath></defs><g><g opacity=".9" transform="translate(97 -2540)"><g opacity=".9"><use fill="url(#l9ojb)" xlink:href="#l9oja"/></g><g opacity=".9"><use fill="url(#l9ojc)" xlink:href="#l9oja"/><use fill="#6d0031" fill-opacity=".62" stroke="#6d0031" stroke-opacity=".62" stroke-width="0" filter="url(#l9oje)" mask="url(&quot;#l9ojf&quot;)" xlink:href="#l9ojd"/></g><g clip-path="url(#l9ojg)" opacity=".9"><use fill="#942a53" fill-opacity=".2" xlink:href="#l9ojh"/></g></g></g></svg>