<svg xmlns="http://www.w3.org/2000/svg" xmlns:xlink="http://www.w3.org/1999/xlink" width="51" height="67" viewBox="0 0 51 67"><defs><path id="7rc6a" d="M749.89 3616h-43.92l-2.97 2.9v60.1l48-2.55v-59.3c0-.64-.5-1.15-1.11-1.15z"/><path id="7rc6b" d="M705 3616v62.76l-5 .24v-60.22c0-1.53 1.15-2.78 2.56-2.78z"/><path id="7rc6c" d="M718 3648a9 9 0 1 1 18 0 9 9 0 0 1-18 0z"/><path id="7rc6d" d="M727.56 3654.37c-1.27 0-2.46-.5-3.35-1.4a1.14 1.14 0 0 1 0-1.6 1.11 1.11 0 0 1 1.58 0c.98.99 2.56.99 3.54 0a1.11 1.11 0 0 1 1.58 0c.44.44.44 1.16 0 1.6-.9.9-2.08 1.4-3.35 1.4z"/><path id="7rc6e" d="M727.56 3661.75a14.49 14.49 0 0 0-13.43 9.15h26.86a14.49 14.49 0 0 0-13.43-9.15z"/><path id="7rc6f" d="M736.94 3630.71c-.27 0-.55-.1-.76-.3l-3.9-3.6-3.88 3.6c-.44.4-1.1.4-1.53 0l-3.9-3.6-3.88 3.6c-.43.4-1.1.4-1.53 0l-4.66-4.32a1.14 1.14 0 0 1-.06-1.6c.42-.47 1.13-.5 1.6-.07l3.88 3.6 3.9-3.6c.42-.4 1.09-.4 1.52 0l3.9 3.6 3.88-3.6c.43-.4 1.1-.4 1.53 0l3.9 3.6 3.88-3.6c.46-.42 1.17-.4 1.6.07.42.46.39 1.18-.07 1.6l-4.65 4.32c-.22.2-.5.3-.77.3z"/><path id="7rc6g" d="M703.89 3676.35a2.77 2.77 0 0 0-2.76 2.78 2.77 2.77 0 0 0 2.76 2.78h45.99v-5.56h-46z"/><path id="7rc6h" d="M749.87 3683H703.9a3.95 3.95 0 0 1-3.89-4c0-2.2 1.74-4 3.89-4h45.98c.62 0 1.13.52 1.13 1.16 0 .64-.5 1.16-1.13 1.16H703.9c-.9 0-1.63.76-1.63 1.68 0 .93.73 1.68 1.63 1.68h45.98c.62 0 1.13.52 1.13 1.16 0 .64-.5 1.16-1.13 1.16z"/></defs><g><g transform="translate(-700 -3616)"><g><use fill="#f14742" xlink:href="#7rc6a"/></g><g><use fill="#cd3f39" xlink:href="#7rc6b"/></g><g><use fill="#fad4c6" xlink:href="#7rc6c"/></g><g><g><use fill="#f99d88" xlink:href="#7rc6d"/></g><g><use fill="#f99d88" xlink:href="#7rc6e"/></g></g><g><g><use fill="#fff1cd" xlink:href="#7rc6f"/></g><g><use fill="#fff1cd" xlink:href="#7rc6g"/></g></g><g><use fill="#f99d88" xlink:href="#7rc6h"/></g></g></g></svg>