<?xml version="1.0" encoding="UTF-8"?>
<svg width="82px" height="82px" viewBox="0 0 82 82" version="1.1" xmlns="http://www.w3.org/2000/svg" xmlns:xlink="http://www.w3.org/1999/xlink">
    <!-- Generator: Sketch 51.3 (57544) - http://www.bohemiancoding.com/sketch -->
    <title>01</title>
    <desc>Created with Sketch.</desc>
    <defs></defs>
    <g id="Page-1" stroke="none" stroke-width="1" fill="none" fill-rule="evenodd">
        <g id="Main-Desktop-HD" transform="translate(-811.000000, -947.000000)">
            <g id="how-it-works" transform="translate(811.000000, 947.000000)">
                <g id="Group-22">
                    <g id="01">
                        <circle id="Oval-3" fill="#F4F4F4" cx="41" cy="41" r="41"></circle>
                        <g id="crown" transform="translate(21.000000, 27.000000)" fill-rule="nonzero">
                            <path d="M8.80038224,4.36478553 C9.01825202,4.51504053 9.09321373,4.79369525 8.96638577,5.02105079 C7.73491701,7.22805386 6.28881025,9.42845481 4.89795918,10.8669567 C5.74437226,12.0693002 6.72005685,13.2463736 7.80617399,14.2079297 C8.73685002,15.0318279 10.1570237,15.1386 11.2297407,14.379357 C12.3618911,13.577997 13.9207951,12.3276933 15.5102041,10.5947523 C14.1954971,9.19707729 12.8467381,7.07825418 11.6889698,4.99828488 C11.5537865,4.75537264 11.6089634,4.44886762 11.8310897,4.2748602 C13.6125141,2.87953766 12.6421896,0.138749922 10.4142267,0.00526581134 C7.90233938,-0.145140958 6.77042544,2.96528925 8.80038224,4.36478553 Z" id="Shape" fill="#F9BB4B"></path>
                            <path d="M11.4551385,9.08089731 C11.9956075,8.39473307 12.5333056,7.65742143 13.0612245,6.88785811 C12.666304,6.26817029 12.2829557,5.63080096 11.9181881,4.99677063 C11.7784257,4.75378258 11.836368,4.44887129 12.0660184,4.27486392 C13.9077853,2.87954187 12.9045113,0.138755096 10.6011617,0.0052710323 C8.00427029,-0.145211571 6.83401483,2.96521754 8.93265123,4.36471334 C9.15790096,4.51496828 9.23540186,4.79362291 9.10427783,5.02097837 C7.83101381,7.22805655 6.33592281,9.42845673 4.89795918,10.8669581 C5.77304297,12.0693012 6.7817771,13.2463741 7.90468449,14.2079299 C8.86688548,15.0318278 10.3351649,15.1385999 11.4442183,14.3793571 C11.5658075,14.2961098 11.6931828,14.2068675 11.8238179,14.1139067 C11.7547109,14.0383239 11.6860928,13.9623617 11.6178008,13.8860201 C10.3844689,12.5070895 10.3152803,10.5280497 11.4551385,9.08089731 Z" id="Shape" fill="#F2AA36"></path>
                            <path d="M28.8210277,4.15540564 C29.1147835,4.42306686 29.1935019,4.84212705 28.9995821,5.18378024 C27.8724674,7.16972481 26.5740477,9.21926454 25.3061224,10.5709271 C26.9026319,12.3165306 28.4700651,13.5743183 29.607187,14.3794268 C30.675913,15.1361181 32.0960744,15.0347301 33.0296632,14.2079931 C34.1075296,13.2533828 35.0765772,12.0863587 35.9183673,10.8930768 C34.5449327,9.47592183 33.1159461,7.30556649 31.8918321,5.13824672 C31.7343954,4.85958156 31.8038157,4.50624143 32.0644767,4.31234451 C33.8992687,2.94778074 32.9646555,0.140714986 30.698055,0.00479742206 C29.2454292,-0.0822474946 28.0390446,1.02656966 28.0390446,2.40691839 C28.0389658,3.0956888 28.3394982,3.71676604 28.8210277,4.15540564 Z" id="Shape" fill="#F9BB4B"></path>
                            <path d="M31.9837546,8.46371163 C32.2725683,8.03296451 32.5582493,7.58165141 32.8382,7.12001739 C32.4421126,6.47374493 32.0574097,5.80576816 31.6917319,5.13801905 C31.5362462,4.85411754 31.6143329,4.50237108 31.8709033,4.30338959 C33.6345006,2.93556258 32.7274116,0.14033554 30.5344142,0.00479742206 C29.1258744,-0.0822474946 27.9561026,1.02656966 27.9561026,2.40691839 C27.9561026,3.09758603 28.2489658,3.72010517 28.7181734,4.15889654 C28.999805,4.42238386 29.0788849,4.83590413 28.8933718,5.17315575 C27.7991652,7.16236356 26.5377829,9.21683608 25.3061224,10.5709271 C26.8541791,12.3165306 28.374042,13.5743183 29.4766532,14.3794268 C30.5129442,15.1361181 31.8900048,15.0347301 32.7951835,14.2079931 C33.0252412,13.9979318 33.2497977,13.7770183 33.4693878,13.5482883 C33.1698773,13.3034697 32.85478,13.034746 32.5286803,12.7415102 C31.3071818,11.6436969 31.0707061,9.8254675 31.9837546,8.46371163 Z" id="Shape" fill="#F2AA36"></path>
                            <path d="M0.304447688,5.16953967 C1.35795558,7.20214205 0.840425104,8.88283319 0.972992946,15.9866548 C0.972992946,17.5504646 0.972992946,24.8709043 0.972992946,26.6486486 L39.0416155,26.6486486 C39.0416155,20.9437507 39.0416155,13.7885699 39.0416155,8.21337441 C39.0416155,6.88996152 39.300967,6.03802472 39.7218855,5.14352463 C40.3659651,3.77575944 39.8605502,1.36858514 38.5242414,1.36858514 C37.3824852,1.36858514 36.811099,3.1489385 37.1170369,4.52117619 C37.2597661,5.15880567 37.8146595,5.97503701 37.3461385,7.25737743 C36.2283789,9.28632727 34.5891025,11.800767 32.5697097,13.5717281 C31.6465029,14.3812507 30.2381259,14.4856836 29.174691,13.7401178 C27.1641309,12.3304602 23.7967044,9.50838692 21.327941,5.0765862 C21.1685626,4.79034617 21.260641,4.4408948 21.5308574,4.24440295 C23.4115073,2.87715955 22.3984889,-0.0141629182 20.0132057,7.45416745e-05 C20.0112516,7.45416745e-05 20.0092193,0 20.0072652,0 C20.0052329,0 20.0032787,7.45416745e-05 20.0013246,7.45416745e-05 C17.6147908,-0.0140883765 16.5917672,2.89572043 18.5023544,4.25796953 C18.7637381,4.44432372 18.8504231,4.78199751 18.6975324,5.05698174 C16.227831,9.50003825 12.8534479,12.3284476 10.8399174,13.7401923 C9.77953102,14.4835219 8.37084136,14.3837106 7.44497692,13.5718027 C5.4255841,11.8009161 3.78630768,9.28640181 2.66854816,7.25745198 C2.40677357,6.54125557 2.43710159,5.75238102 2.7370207,5.03461924 C3.37914619,3.50137154 2.69918884,1.36865969 1.49044526,1.36865969 C0.156637669,1.36865969 -0.395050912,3.81690644 0.304447688,5.16953967 Z" id="Shape" fill="#F9C85D"></path>
                            <path d="M4.893857,11.357734 C3.98203231,10.0952297 3.20679521,8.76469629 2.59336653,7.59256698 C2.33895506,6.85980502 2.36843002,6.0526839 2.6599131,5.31832036 C3.28397707,3.74960881 2.62314536,1.56756757 1.44840096,1.56756757 C0.15226226,1.56756757 -0.383908585,4.07244201 0.295838755,5.45651402 C1.31971388,7.53613027 0.816740354,9.25569561 0.945579367,16.5238278 C0.945579367,18.1238083 0.945579367,25.613569 0.945579367,27.4324324 L4.89795918,27.4324324 C4.89795918,25.6134927 4.89795918,18.1238083 4.89795918,16.5238278 C4.85967212,14.363141 4.87714439,12.6929959 4.893857,11.357734 Z" id="Shape" fill="#F9BB4B"></path>
                            <ellipse id="Oval" fill="#F96989" cx="30.2040816" cy="19.5945946" rx="1.63265306" ry="1.56756757"></ellipse>
                            <path d="M30.3215086,19.5943132 C29.9977539,19.0918907 30.0201364,18.495897 30.3216593,18.0270278 C30.024206,18.0267578 29.7226831,18.094067 29.4466325,18.2368544 C28.6096634,18.6696722 28.3229867,19.6284066 28.8061318,20.3781246 C29.2893522,21.1279101 30.359491,21.3847248 31.1963847,20.951907 C31.4725107,20.8091196 31.6882718,20.6088798 31.8367347,20.3779221 C31.2326338,20.377382 30.6452633,20.0967356 30.3215086,19.5943132 Z" id="Shape" fill="#ED5A81"></path>
                            <ellipse id="Oval" fill="#F96989" cx="20" cy="19.5945946" rx="2.85714286" ry="3.13513514"></ellipse>
                            <path d="M21.9551216,21.8362813 C20.3634152,21.8362813 19.0731066,20.4320678 19.0731066,18.6999567 C19.0731066,17.8220446 19.4049701,17.0288015 19.9391774,16.4594595 C18.3873044,16.5088931 17.1428571,17.8925898 17.1428571,19.5934052 C17.1428571,21.3255906 18.4331657,22.7297297 20.0248721,22.7297297 C20.8098098,22.7297297 21.5211087,22.3877826 22.0408163,21.8338282 C22.0123872,21.8348689 21.983958,21.8362813 21.9551216,21.8362813 Z" id="Shape" fill="#ED5A81"></path>
                            <path d="M38.9134375,26.6486486 C34.6435156,26.6486486 5.27273437,26.6486486 1.0865625,26.6486486 C0.486484375,26.6486486 0,27.1750304 0,27.8243243 C0,28.4735413 0.486484375,29 1.0865625,29 C5.35648437,29 34.7272656,29 38.9134375,29 C39.5135937,29 40,28.4736953 40,27.8243243 C40,27.1749533 39.5135156,26.6486486 38.9134375,26.6486486 Z" id="Shape" fill="#F4A32C"></path>
                            <path d="M3.85669084,27.8243243 C3.85669084,27.1750304 4.32289576,26.6486486 4.89795918,26.6486486 C3.08068089,26.6486486 1.71762858,26.6486486 1.04126834,26.6486486 C0.466204916,26.6486486 0,27.1749533 0,27.8243243 C0,28.4736183 0.466204916,29 1.04126834,29 C1.72683739,29 3.08839232,29 4.89795918,29 C4.32282089,29 3.85669084,28.4736183 3.85669084,27.8243243 Z" id="Shape" fill="#ED9015"></path>
                            <ellipse id="Oval" fill="#F96989" cx="9.79591837" cy="19.5945946" rx="1.63265306" ry="1.56756757"></ellipse>
                            <path d="M9.91334534,19.5943132 C9.58959068,19.0918907 9.61197316,18.495897 9.91349607,18.0270278 C9.6160427,18.0267578 9.31451979,18.094067 9.0384692,18.2368544 C8.20150009,18.6696722 7.91482348,19.6284066 8.39796853,20.3781246 C8.88118895,21.1279101 9.95132773,21.3847248 10.7882215,20.951907 C11.0643474,20.8091196 11.2801085,20.6088798 11.4285714,20.3779221 C10.8244705,20.377382 10.2371,20.0967356 9.91334534,19.5943132 Z" id="Shape" fill="#ED5A81"></path>
                        </g>
                    </g>
                </g>
            </g>
        </g>
    </g>
</svg>