<svg xmlns="http://www.w3.org/2000/svg" xmlns:xlink="http://www.w3.org/1999/xlink" width="80" height="67" viewBox="0 0 80 67"><defs><path id="e08ja" d="M1077 3669v-39h48v39z"/><path id="e08jb" d="M1075 3639v-9h52v9z"/><path id="e08jc" d="M1108 3626.23h-3.2v-3.2a3.19 3.19 0 1 1 6.4 0 3.2 3.2 0 0 1-3.2 3.2zm-14 0a3.2 3.2 0 1 1 3.2-3.2v3.2zm18.95-8.17a6.96 6.96 0 0 0-9.9 0 7.01 7.01 0 0 0-2.05 4.97 7.01 7.01 0 0 0-11.95-4.97 7.01 7.01 0 0 0 4.95 12h2.6V3669h8.8v-38.95h2.6a7.02 7.02 0 0 0 4.95-11.99z"/><path id="e08jd" d="M1077 3643v-3h19v3z"/><path id="e08je" d="M1105 3643v-3h19v3z"/><path id="e08jf" d="M1112.87 3658.89v-8.06h5.4v8.06z"/><path id="e08jg" d="M1110.19 3652.12h10.76l-5.38-5.05z"/><path id="e08jh" d="M1085.68 3658.89v-8.06h5.4v8.06z"/><path id="e08ji" d="M1083.01 3652.12h10.76l-5.38-5.05z"/><path id="e08jj" d="M1090.5 3672a4.5 4.5 0 1 1-.01 9.01 4.5 4.5 0 0 1 .01-9.01z"/><path id="e08jk" d="M1093.18 3677c0-1.36-1.2-2.46-2.67-2.46-1.48 0-2.68 1.1-2.68 2.46 0 1.36 1.2 2.46 2.68 2.46 1.47 0 2.67-1.1 2.67-2.46zm3.82 0l-.01.39c-.22 3.13-3.04 5.61-6.49 5.61s-6.27-2.48-6.49-5.61a5.56 5.56 0 0 1 .65-3.02 6.56 6.56 0 0 1 5.84-3.37c3.59 0 6.5 2.69 6.5 6z"/><path id="e08jl" d="M1142.5 3672a4.5 4.5 0 1 1-.01 9.01 4.5 4.5 0 0 1 .01-9.01z"/><path id="e08jm" d="M1153 3655.52v18.31h-3.96l-.26-.58a7.71 7.71 0 0 0-6.97-4.27 7.76 7.76 0 0 0-7.22 4.85 7.51 7.51 0 0 0-.52 3.17H1128v-37.57c0-.79.65-1.43 1.46-1.43h16.46a3.8 3.8 0 0 1 3.84 3.77v9.04c0 1.33.83 2.47 2.01 2.95.74.3 1.23.98 1.23 1.76z"/><path id="e08jn" d="M1155 3674v3h-4.54a7.45 7.45 0 0 0-.46-3h5z"/><path id="e08jo" d="M1146.18 3677c0-1.36-1.2-2.46-2.68-2.46-1.47 0-2.67 1.1-2.67 2.46 0 1.36 1.2 2.46 2.67 2.46 1.48 0 2.68-1.1 2.68-2.46zm-9.17.39l-.01-.4c0-3.3 2.91-5.99 6.5-5.99a6.56 6.56 0 0 1 5.84 3.37 5.6 5.6 0 0 1 .65 3.02c-.22 3.13-3.04 5.61-6.5 5.61-3.44 0-6.26-2.48-6.48-5.61z"/><path id="e08jp" d="M1130 3638v36h-2v-34.56c0-.8.5-1.44 1.13-1.44h.87z"/><path id="e08jq" d="M1150 3672c-1.66 0-3-1.8-3-4s1.34-4 3-4v8z"/><path id="e08jr" d="M1141.82 3642.16h-8.7c-.57 0-1.04.5-1.04 1.12v9.48c0 .61.47 1.11 1.04 1.11h8.7v-11.71z"/><path id="e08js" d="M1145.9 3642.16h-1.73v11.71h1.74c.57 0 1.04-.5 1.04-1.11v-9.48c0-.62-.47-1.12-1.04-1.12z"/><path id="e08jt" d="M1134 3673.74h-6.44V3669H1075v8h6.8a8.1 8.1 0 0 1 .43-3.07h14.25a8.05 8.05 0 0 1 .44 3.07h36.58l-.01-.42c0-1 .18-1.96.51-2.84z"/></defs><g><g transform="translate(-1075 -3616)"><g><use fill="#ccc" xlink:href="#e08ja"/></g><g><use fill="#ccc" xlink:href="#e08jb"/></g><g><use fill="#fc7a51" xlink:href="#e08jc"/></g><g opacity=".2"><use fill="#4d4d4d" xlink:href="#e08jd"/></g><g opacity=".2"><use fill="#4d4d4d" xlink:href="#e08je"/></g><g><g><g><use fill="#e6e6e6" xlink:href="#e08jf"/></g><g><use fill="#e6e6e6" xlink:href="#e08jg"/></g></g><g><g><use fill="#e6e6e6" xlink:href="#e08jh"/></g><g><use fill="#e6e6e6" xlink:href="#e08ji"/></g></g></g><g><use fill="#e6e6e6" xlink:href="#e08jj"/></g><g><use fill="#666" xlink:href="#e08jk"/></g><g><use fill="#e6e6e6" xlink:href="#e08jl"/></g><g><use fill="#f9de58" xlink:href="#e08jm"/></g><g><use fill="#b3b3b3" xlink:href="#e08jn"/></g><g><use fill="#666" xlink:href="#e08jo"/></g><g opacity=".2"><use fill="#4d4d4d" xlink:href="#e08jp"/></g><g><use fill="#fff" xlink:href="#e08jq"/></g><g><g><use fill="#fff" xlink:href="#e08jr"/></g><g><use fill="#fff" xlink:href="#e08js"/></g></g><g><use fill="#b3b3b3" xlink:href="#e08jt"/></g></g></g></svg>