<svg xmlns="http://www.w3.org/2000/svg" xmlns:xlink="http://www.w3.org/1999/xlink" width="849" height="706" viewBox="0 0 849 706"><defs><path id="6loda" d="M1372.85-22s-195.38 157.28-345.63 182.71c-150.24 25.44-185.45-95.77-194.9 26.96-9.46 122.73 99.48 151.54 46.44 210.74-53.03 59.2-169.02-66.89-193.76 0-24.73 66.9 1.23 247.12 215.7 279.53 214.47 32.4 401.48-75.66 521.39-75.66h102.93V-22z"/><path id="6lodc" d="M637 728V-66h929v794zm735.85-746s-195.38 157.28-345.63 182.71c-150.24 25.44-185.45-95.77-194.9 26.96-9.46 122.73 99.48 151.54 46.44 210.74-53.03 59.2-169.02-66.89-193.76 0-24.73 66.9 1.23 247.12 215.7 279.53 214.47 32.4 401.48-75.66 521.39-75.66h102.93V-18z"/><path id="6lodg" d="M697.47 515.01s389.2-103.87 749.84-43.15c360.65 60.73 164.94 198.3 164.94 198.3l-511.4 144.58-387-41.31-103.73-166.44z"/><linearGradient id="6lodb" x1="1489.56" x2="775.65" y1="48.14" y2="684" gradientUnits="userSpaceOnUse"><stop offset="0" stop-color="#ec254a"/><stop offset="1" stop-color="#ff0b85"/></linearGradient><filter id="6lodd" width="200%" height="200%" x="-50%" y="-50%"><feGaussianBlur in="SourceGraphic" result="FeGaussianBlur2179Out" stdDeviation="20 20"/></filter><mask id="6lode"><use fill="#fff" xlink:href="#6loda"/></mask><clipPath id="6lodf"><use xlink:href="#6loda"/></clipPath></defs><g><g transform="translate(-677 22)"><g><use fill="url(#6lodb)" xlink:href="#6loda"/><use fill="#6d0031" fill-opacity=".62" stroke="#6d0031" stroke-opacity=".62" stroke-width="0" filter="url(#6lodd)" mask="url(&quot;#6lode&quot;)" xlink:href="#6lodc"/></g><g clip-path="url(#6lodf)"><use fill="#942a53" fill-opacity=".2" xlink:href="#6lodg"/></g></g></g></svg>