<svg xmlns="http://www.w3.org/2000/svg" xmlns:xlink="http://www.w3.org/1999/xlink" width="52" height="65" viewBox="0 0 52 65"><defs><path id="ihoqa" d="M632 5054.31l-.1-.9a.67.67 0 0 0-.76-.58l-.06.01-1-7.77a4.47 4.47 0 0 0-3.12-3.65l-5.61-1.8a2.37 2.37 0 0 0-2.22.4l-1.65-.54a2.22 2.22 0 0 1-1.58-2.1v-3.56l4.96-1.99a6.64 6.64 0 0 0 4.25-6.13v-1.1c1.9 0 3.45-1.49 3.45-3.32a3.39 3.39 0 0 0-3.45-3.32v-4.43a5.65 5.65 0 0 0-5.75-5.53h-20.72a5.65 5.65 0 0 0-5.75 5.53v4.43a3.39 3.39 0 0 0-3.45 3.32 3.39 3.39 0 0 0 3.45 3.32v1.1c0 2.68 1.68 5.1 4.25 6.13l4.96 1.99v3.56c0 .96-.64 1.8-1.58 2.1l-1.65.53a2.37 2.37 0 0 0-2.22-.4l-5.61 1.8a4.47 4.47 0 0 0-3.11 3.66l-1.01 7.77h-.06a.67.67 0 0 0-.75.57l-.1.9c-.05.36.22.68.6.72l1.68.18v2.58a2.26 2.26 0 0 0 2.3 2.21h36.82c1.27 0 2.3-1 2.3-2.21v-2.58l1.69-.18a.66.66 0 0 0 .6-.72z"/><path id="ihoqb" d="M603.12 5036.76c0 .83-.44 1.58-1.12 2 9.68 1.68 15-5.76 15-5.76h-13.88z"/><path id="ihoqc" d="M594 5010l-12.91 1.23c-.62.06-1.09.66-1.09 1.38 0 .77.53 1.39 1.19 1.39H594z"/><path id="ihoqd" d="M621.68 5060v-5.4H631l-1.18-9.17a4.35 4.35 0 0 0-3.01-3.56l-5.43-1.76c-.95-.3-2.01.02-2.55.84a11.2 11.2 0 0 1-9.4 5.02c-3.95 0-7.41-2-9.39-5.02a2.23 2.23 0 0 0-2.54-.84l-5.43 1.76a4.35 4.35 0 0 0-3.01 3.56l-1.06 8.21 9.2.96v5.4h24.48z"/><path id="ihoqe" d="M624.65 5018.08v-4.48c0-3.1-2.5-5.6-5.59-5.6h-20.1a5.6 5.6 0 0 0-5.6 5.6v4.48a3.36 3.36 0 0 0 0 6.72v1.12a6.72 6.72 0 0 0 4.13 6.2l7.22 3.02a11.15 11.15 0 0 0 8.6 0l7.21-3.02a6.72 6.72 0 0 0 4.13-6.2v-1.12a3.36 3.36 0 0 0 0-6.72z"/><path id="ihoqf" d="M599.35 5029.22a5.3 5.3 0 0 1-1.42-3.62V5013h-4.53v4.38a3.4 3.4 0 1 0 0 6.79v1.13a6.79 6.79 0 0 0 4.18 6.27l7.33 3.04c.35.15.72.28 1.09.39a47.29 47.29 0 0 1-6.65-5.78z"/><path id="ihoqg" d="M601.5 5022c-.82 0-1.5-.6-1.5-1.33v-1.34c0-.73.68-1.33 1.5-1.33s1.5.6 1.5 1.33v1.34c0 .73-.68 1.33-1.5 1.33z"/><path id="ihoqh" d="M617.5 5022c-.82 0-1.5-.6-1.5-1.33v-1.34c0-.73.68-1.33 1.5-1.33s1.5.6 1.5 1.33v1.34c0 .73-.68 1.33-1.5 1.33z"/><path id="ihoqi" d="M609.5 5031a8.03 8.03 0 0 1-5.02-1.59c-.5-.4-.63-1.23-.29-1.83.34-.6 1.03-.76 1.53-.35.86.7 2.28 1.13 3.78 1.13s2.92-.42 3.78-1.13c.5-.41 1.19-.25 1.53.35.34.6.21 1.42-.3 1.83a8.03 8.03 0 0 1-5.01 1.59z"/><path id="ihoqj" d="M597 5055v-2.62c0-1.11-.37-2.19-1.05-3.03l-5.93-7.35a4.8 4.8 0 0 0-.9 2.3l-1.12 9.66c1.71.11 6.27.69 9 1.04z"/><path id="ihoqk" d="M596 5053.25l-9.17-1.25c-.36-.04-.68.27-.72.71l-.1 1.12c-.05.44.21.84.57.89L596 5056v-2.75z"/><path id="ihoql" d="M622 5055v-2.62c0-1.11.37-2.19 1.05-3.03l5.93-7.35c.48.65.8 1.44.9 2.3l1.12 9.66c-1.71.11-6.27.69-9 1.04z"/><path id="ihoqm" d="M622 5053.25l9.17-1.25c.36-.04.68.27.72.71l.1 1.12c.05.44-.21.84-.57.89L622 5056v-2.75z"/><path id="ihoqn" d="M622.6 5000.1l-10.95-4.66a5.5 5.5 0 0 0-4.31 0l-10.94 4.67a5.59 5.59 0 0 0-3.38 5.64l.76 8.25h19.09c.62 0 1.12-.5 1.12-1.12v-3.35c0-.62.5-1.12 1.13-1.12h6.73c.62 0 1.13.5 1.13 1.12v3.35c0 .62.5 1.12 1.12 1.12h1.12l.76-8.25a5.58 5.58 0 0 0-3.38-5.64z"/><path id="ihoqo" d="M609 4995c-.72 0-1.43.15-2.09.44l-10.61 4.67a5.6 5.6 0 0 0-3.28 5.64l.73 8.25h8.72v-9.52a6.8 6.8 0 0 1 1.91-4.74z"/><path id="ihoqp" d="M614 5013v-3h9v3z"/></defs><g><g transform="translate(-580 -4995)"><g><use fill="#a2795c" xlink:href="#ihoqa"/></g><g><use fill="#8f6951" xlink:href="#ihoqb"/></g><g><use fill="#c93f44" xlink:href="#ihoqc"/></g><g><use fill="#f23f44" xlink:href="#ihoqd"/></g><g><use fill="#ad8366" xlink:href="#ihoqe"/></g><g><use fill="#a2795c" xlink:href="#ihoqf"/></g><g><use fill="#623f33" xlink:href="#ihoqg"/></g><g><use fill="#623f33" xlink:href="#ihoqh"/></g><g><use fill="#8f6951" xlink:href="#ihoqi"/></g><g><use fill="#ff4f4f" xlink:href="#ihoqj"/></g><g><use fill="#c93f44" xlink:href="#ihoqk"/></g><g><use fill="#ff4f4f" xlink:href="#ihoql"/></g><g><use fill="#c93f44" xlink:href="#ihoqm"/></g><g><use fill="#ff4f4f" xlink:href="#ihoqn"/></g><g><use fill="#f23f44" xlink:href="#ihoqo"/></g><g><use fill="#f23f44" xlink:href="#ihoqp"/></g></g></g></svg>