<svg xmlns="http://www.w3.org/2000/svg" xmlns:xlink="http://www.w3.org/1999/xlink" width="53" height="64" viewBox="0 0 53 64"><defs><path id="g1oja" d="M199.81 5016a4.45 4.45 0 0 0-4.22 5.72 4.48 4.48 0 0 0-2.94 6.54 4.5 4.5 0 0 0 .85 7.52 4.45 4.45 0 0 0 4.11 6.08h19.82V5016z"/><path id="g1ojb" d="M243.86 5031.74a4.5 4.5 0 0 0-1.65-3.48 4.48 4.48 0 0 0-2.94-6.53 4.45 4.45 0 0 0-4.22-5.72v-.01h-17.62v25.86h19.82a4.45 4.45 0 0 0 4.11-6.08 4.5 4.5 0 0 0 2.5-4.04z"/><path id="g1ojc" d="M237.97 5051.24l-1.27-9.53a5.53 5.53 0 0 0-.97-2.47 1.1 1.1 0 0 0-.43-1.42l-3.63-2.18a1.1 1.1 0 0 0-1.5.37l-.08.12-4.46-1.65c-.9-.3-1.5-1.14-1.5-2.1v-3.56l4.75-1.99a6.64 6.64 0 0 0 4.07-6.13v-9.96c0-3.05-2.47-7.74-5.52-7.74h-19.86c-3.05 0-5.52 4.69-5.52 7.74v9.96c0 2.68 1.6 5.1 4.07 6.13l4.76 1.99v3.56c0 .96-.61 1.8-1.51 2.1l-4.46 1.65-.08-.12a1.1 1.1 0 0 0-1.5-.37l-3.63 2.18c-.49.3-.67.91-.43 1.42a5.53 5.53 0 0 0-.97 2.47l-1.27 9.53a3.32 3.32 0 0 0 3.28 3.76h34.38c2 0 3.55-1.77 3.28-3.76z"/><path id="g1ojd" d="M224 5029h-12.95v3.8c0 .81-.41 1.55-1.05 1.96 9.03 1.66 14-5.76 14-5.76z"/><path id="g1oje" d="M228.91 5027.12l-7.15 3.02a10.96 10.96 0 0 1-8.52 0l-7.15-3.02a6.72 6.72 0 0 1-4.09-6.2v-10.08c0-3.1 2.48-7.84 5.54-7.84h19.92c3.06 0 5.54 4.75 5.54 7.84v10.08a6.72 6.72 0 0 1-4.09 6.2z"/><path id="g1ojf" d="M210 5017a1 1 0 0 1-1-1v-1a1 1 0 0 1 1-1 1 1 0 0 1 1 1v1a1 1 0 0 1-1 1z"/><path id="g1ojg" d="M225 5017a1 1 0 0 1-1-1v-1a1 1 0 0 1 1-1 1 1 0 0 1 1 1v1a1 1 0 0 1-1 1z"/><path id="g1ojh" d="M217.5 5025a9.94 9.94 0 0 1-5.02-1.19c-.5-.3-.63-.92-.29-1.38a1.18 1.18 0 0 1 1.53-.26c.86.53 2.28.85 3.78.85s2.92-.32 3.78-.85c.5-.3 1.19-.19 1.53.26.34.46.21 1.07-.3 1.38a9.94 9.94 0 0 1-5.01 1.19z"/><path id="g1oji" d="M217.75 5000s-3.14 3.85-10.4 8.16c-2.24 1.32-5.35 4.17-5.35 6.8v5.71a6.53 6.53 0 0 0 4.15 6.03l7.27 2.93c.36.14.72.26 1.09.37a46.5 46.5 0 0 1-6.6-5.56 5 5 0 0 1-1.41-3.48v-7.62c3.46-3.68 13.34-6.81 13.5-10.08.1-2.24-2.25-3.26-2.25-3.26z"/><path id="g1ojj" d="M230.28 5036.53l-4 6.5a3.33 3.33 0 0 1-2.84 1.59h-11.88c-1.16 0-2.23-.6-2.84-1.6l-4-6.49a1.1 1.1 0 0 0-1.52-.37l-3.66 2.22c-.53.33-.7 1.03-.37 1.57l4.97 8.05h26.72l4.97-8.05c.33-.54.16-1.24-.37-1.57l-3.66-2.22a1.1 1.1 0 0 0-1.52.37z"/><path id="g1ojk" d="M204 5055v-8h26v8z"/><path id="g1ojl" d="M201.82 5018v-.14c0-6.9 15.18-12.5 15.18-15.67v-10.07s-.45-1.08-3.25-1.12c-1.47-.02-4.3.63-6.5 2.24-6.6 4.82-9.23 15.82-10.25 24.76z"/><path id="g1ojm" d="M232.18 5017.86v.14H237c-1.02-8.94-3.64-19.94-10.24-24.76a12.14 12.14 0 0 0-6.5-2.24c-2.81.04-3.26 1.12-3.26 1.12v10.07c0 3.17 15.18 8.77 15.18 15.67z"/></defs><g><g transform="translate(-191 -4991)"><g><g><use fill="#5e342e" xlink:href="#g1oja"/></g><g><use fill="#734a3e" xlink:href="#g1ojb"/></g></g><g><use fill="#f6b47b" xlink:href="#g1ojc"/></g><g><use fill="#e2a071" xlink:href="#g1ojd"/></g><g><use fill="#fdc88e" xlink:href="#g1oje"/></g><g><use fill="#623f33" xlink:href="#g1ojf"/></g><g><use fill="#623f33" xlink:href="#g1ojg"/></g><g><use fill="#e2a071" xlink:href="#g1ojh"/></g><g><use fill="#f6b47b" xlink:href="#g1oji"/></g><g><use fill="#ff8c51" xlink:href="#g1ojj"/></g><g><use fill="#ff7941" xlink:href="#g1ojk"/></g><g><use fill="#5e342e" xlink:href="#g1ojl"/></g><g><use fill="#734a3e" xlink:href="#g1ojm"/></g></g></g></svg>