<svg xmlns="http://www.w3.org/2000/svg" xmlns:xlink="http://www.w3.org/1999/xlink" width="44" height="65" viewBox="0 0 44 65"><defs><path id="mza1a" d="M1004.47 5055.62l-1.4-11.45a4.5 4.5 0 0 0-3-3.73l-5.42-1.84a2.19 2.19 0 0 0-2.13.4l-1.6-.53a2.26 2.26 0 0 1-1.52-2.15v-3.64l4.78-2.03a6.78 6.78 0 0 0 4.1-6.26v-1.13a3.41 3.41 0 1 0 2.37-5.77l1.17-9.54a11.6 11.6 0 0 0-5.23-11.2 11.16 11.16 0 0 0-6-1.75h-15.94a6.64 6.64 0 0 0-5.43 3.4h-.31a5.65 5.65 0 0 0-5.65 6.22l1.58 12.87a3.41 3.41 0 0 0 2.38 5.77v1.13c0 2.74 1.61 5.2 4.1 6.26l4.77 2.03v3.64c0 .98-.61 1.84-1.52 2.15l-1.6.54a2.19 2.19 0 0 0-2.12-.4l-5.42 1.83a4.5 4.5 0 0 0-3 3.73l-1.4 11.45a3.37 3.37 0 0 0 3.3 3.8h36.84c2 0 3.55-1.78 3.3-3.8z"/><path id="mza1b" d="M976.07 5036.33l-.01.16-.01.09v.07a2.22 2.22 0 0 1-.03.13c-.12.62-.5 1.16-1.03 1.5 9.3 1.63 14.4-5.7 14.4-5.7h-13.32v3.75z"/><path id="mza1c" d="M996.57 4996.75a11.1 11.1 0 0 0-5.98-1.75h-.08v23.74h9.95l1.32-10.79a11.61 11.61 0 0 0-5.21-11.2z"/><path id="mza1d" d="M963.25 5004.55v.07l1.74 14.12h6.67v-20.35h-2.75a5.65 5.65 0 0 0-5.66 6.16z"/><path id="mza1e" d="M998.27 5016.47v-2.26a5.6 5.6 0 0 0-5.55-5.65h-19.94a5.6 5.6 0 0 0-5.54 5.65v2.26a3.36 3.36 0 0 0-3.33 3.39c0 1.87 1.5 3.4 3.33 3.4v1.12c0 2.74 1.61 5.2 4.09 6.26l7.16 3.05a10.9 10.9 0 0 0 8.52 0l7.16-3.05a6.79 6.79 0 0 0 4.1-6.26v-1.13a3.36 3.36 0 0 0 3.32-3.39c0-1.87-1.49-3.4-3.32-3.4z"/><path id="mza1f" d="M974.99 5021c-.61 0-1.1-.5-1.1-1.13v-1.13c0-.62.49-1.13 1.1-1.13.6 0 1.1.5 1.1 1.13v1.13c0 .62-.5 1.13-1.1 1.13z"/><path id="mza1g" d="M990.51 5021c-.6 0-1.1-.5-1.1-1.13v-1.13c0-.62.5-1.13 1.1-1.13.61 0 1.1.5 1.1 1.13v1.13c0 .62-.49 1.13-1.1 1.13z"/><path id="mza1h" d="M982.74 5028.91a9.16 9.16 0 0 1-5.05-1.34 1.13 1.13 0 0 1-.3-1.56 1.1 1.1 0 0 1 1.55-.3c.87.6 2.3.96 3.8.96 1.52 0 2.94-.36 3.81-.96a1.1 1.1 0 0 1 1.54.3c.35.51.22 1.2-.29 1.56a9.16 9.16 0 0 1-5.06 1.34z"/><path id="mza1i" d="M992.72 5008.56h-19.94a5.64 5.64 0 0 0-5.54 5.66v2.27a3.36 3.36 0 0 0-3.33 3.4c0 1.87 1.5 3.4 3.33 3.4v1.13a6.8 6.8 0 0 0 4.09 6.27l7.16 3.05c.35.15.7.28 1.07.4a46.58 46.58 0 0 1-6.5-5.8 5.38 5.38 0 0 1-1.39-3.63v-12.84c6.15 5.02 19.42 4.62 26.6 4.62v-2.27a5.6 5.6 0 0 0-5.55-5.66z"/><path id="mza1j" d="M990.5 4995H975a6.72 6.72 0 0 0-6.66 6.78c0 6.54 6.1 10.5 11.08 12.44 0 0-.55-1.04-1.3-2.57 4.42 1.5 11.25 2.57 20.56 2.57v-3.25c0-16.49-8.17-15.97-8.17-15.97z"/><path id="mza1k" d="M990.47 5022.7a3.36 3.36 0 0 1-3.32-3.4c0-1.87 1.49-3.4 3.32-3.4a3.36 3.36 0 0 1 3.32 3.4c0 1.87-1.5 3.4-3.32 3.4zm-15.5 0a3.36 3.36 0 0 1-3.32-3.4c0-1.87 1.5-3.4 3.32-3.4a3.36 3.36 0 0 1 3.32 3.4c0 1.87-1.49 3.4-3.32 3.4zm23.29-7.36h-5.65-.01a4.33 4.33 0 0 0-2.13-.56 4.45 4.45 0 0 0-4.28 3.34 3.87 3.87 0 0 0-3.47-2.21c-1.52 0-2.84.9-3.47 2.2a4.45 4.45 0 0 0-4.28-3.33c-.77 0-1.5.2-2.13.56h-5.61c-.3 0-.56.25-.56.56 0 .32.25.57.56.57h4.3a4.56 4.56 0 0 0-.98 2.83c0 2.5 1.98 4.52 4.42 4.52 2.07 0 3.8-1.45 4.3-3.4l.13.01c.3 0 .55-.25.55-.57a2.8 2.8 0 0 1 2.77-2.82 2.8 2.8 0 0 1 2.77 2.83c0 .3.24.56.55.56.05 0 .1 0 .14-.02a4.45 4.45 0 0 0 4.29 3.41 4.48 4.48 0 0 0 4.42-4.52c0-1.07-.36-2.06-.98-2.83h4.35c.3 0 .55-.25.55-.57a.56.56 0 0 0-.55-.56z"/><path id="mza1l" d="M982.67 5045.59c4.51 0 8.44-2.58 10.46-6.38l-2.3-.78a2.18 2.18 0 0 1-.6-.33 8.8 8.8 0 0 1-7.56 4.36c-3.2 0-6-1.75-7.55-4.36a2.2 2.2 0 0 1-.61.33l-2.3.78a11.86 11.86 0 0 0 10.46 6.38z"/><path id="mza1m" d="M1004.47 5055.62l-1.4-11.42a4.5 4.5 0 0 0-3-3.73l-5.42-1.83c-.94-.32-2 .02-2.54.87a11.03 11.03 0 0 1-9.36 5.25c-3.94 0-7.4-2.1-9.37-5.25a2.16 2.16 0 0 0-2.53-.87l-5.42 1.83a4.5 4.5 0 0 0-3 3.73l-1.4 11.42a3.37 3.37 0 0 0 3.3 3.81h36.84c2 0 3.55-1.78 3.3-3.8z"/><path id="mza1n" d="M963.36 5041.9c-.5.64-.82 1.41-.93 2.25l-1.4 11.46a3.37 3.37 0 0 0 3.3 3.82h6.23v-7.37c0-1.09-.39-2.14-1.09-2.96z"/><path id="mza1o" d="M1002.14 5041.9c.5.64.82 1.41.93 2.25l1.4 11.46a3.37 3.37 0 0 1-3.3 3.82h-6.23v-7.37c0-1.09.39-2.14 1.09-2.96z"/></defs><g><g transform="translate(-961 -4995)"><g><use fill="#ffd7a3" xlink:href="#mza1a"/></g><g><use fill="#fdc88e" xlink:href="#mza1b"/></g><g><use fill="#e7b60e" xlink:href="#mza1c"/></g><g><use fill="#e7b60e" xlink:href="#mza1d"/></g><g><use fill="#ffe1b2" xlink:href="#mza1e"/></g><g><use fill="#623f33" xlink:href="#mza1f"/></g><g><use fill="#623f33" xlink:href="#mza1g"/></g><g><use fill="#e4b07b" xlink:href="#mza1h"/></g><g><use fill="#ffd7a3" xlink:href="#mza1i"/></g><g><use fill="#ffce23" xlink:href="#mza1j"/></g><g><use fill="#734a3e" xlink:href="#mza1k"/></g><g><use fill="#b97e63" xlink:href="#mza1l"/></g><g><use fill="#ffa64e" xlink:href="#mza1m"/></g><g><use fill="#ff8c51" xlink:href="#mza1n"/></g><g><use fill="#ff8c51" xlink:href="#mza1o"/></g></g></g></svg>