<?xml version="1.0" encoding="UTF-8"?>
<svg width="82px" height="82px" viewBox="0 0 82 82" version="1.1" xmlns="http://www.w3.org/2000/svg" xmlns:xlink="http://www.w3.org/1999/xlink">
    <!-- Generator: Sketch 51.3 (57544) - http://www.bohemiancoding.com/sketch -->
    <title>04</title>
    <desc>Created with Sketch.</desc>
    <defs></defs>
    <g id="Page-1" stroke="none" stroke-width="1" fill="none" fill-rule="evenodd">
        <g id="Main-Desktop-HD" transform="translate(-811.000000, -1311.000000)">
            <g id="how-it-works" transform="translate(811.000000, 947.000000)">
                <g id="Group-22">
                    <g id="04" transform="translate(0.000000, 364.000000)">
                        <circle id="Oval-3-Copy-3" fill="#F4F4F4" cx="41" cy="41" r="41"></circle>
                        <g id="rocket" transform="translate(29.000000, 19.000000)" fill-rule="nonzero">
                            <g id="Group">
                                <path d="M17.3207912,26.9165789 C17.3517363,26.6198246 17.5666813,26.3744737 17.8578462,26.305614 C18.1483956,26.2371053 18.451956,26.3584211 18.6133626,26.6099123 L22.9224615,33.3317544 C23.5701099,34.3466667 23.9121758,35.5192105 23.9121758,36.7226316 L23.9121758,44.210614 C23.9121758,44.5073684 23.7253626,44.7718421 23.4451868,44.8715789 C23.3682637,44.8989474 23.2879121,44.9123684 23.2088791,44.9123684 C23.0021099,44.9123684 22.8008791,44.8212281 22.6642637,44.655 L16.4822857,37.115614 C16.3641319,36.9710526 16.3084835,36.7852632 16.327033,36.5995614 L17.3207912,26.9165789 Z" id="Shape" fill="#FF4F19"></path>
                                <path d="M6.59138462,26.9165789 C6.56043956,26.6198246 6.34549451,26.3744737 6.05432967,26.305614 C5.76378022,26.2371053 5.46021978,26.3584211 5.29881319,26.6099123 L0.989714286,33.3317544 C0.342065934,34.3466667 1.42108547e-14,35.5192105 1.42108547e-14,36.7226316 L1.42108547e-14,44.210614 C1.42108547e-14,44.5073684 0.186813187,44.7718421 0.466989011,44.8715789 C0.543912088,44.8989474 0.624263736,44.9123684 0.703296703,44.9123684 C0.910065934,44.9123684 1.1112967,44.8212281 1.24791209,44.655 L7.42989011,37.115614 C7.54804396,36.9710526 7.60369231,36.7852632 7.58514286,36.5995614 L6.59138462,26.9165789 Z" id="Shape" fill="#E9001E"></path>
                                <path d="M12.3180659,0.100263158 C12.0955604,-0.0333333333 11.8167033,-0.0333333333 11.5941978,0.100263158 C11.2933626,0.280526316 4.21986813,4.62324561 4.21986813,14.0352632 C4.21986813,17.835614 5.16632967,27.9470175 6.4218022,37.555 C6.60378022,38.9489474 7.80228571,40.0001754 9.20817582,40.0001754 L14.7040879,40.0001754 C16.109978,40.0001754 17.3084835,38.9489474 17.4904615,37.555 C18.7459341,27.9470175 19.6923956,17.835614 19.6923956,14.0352632 C19.6923956,4.62324561 12.6189011,0.280438596 12.3180659,0.100263158 Z" id="Shape" fill="#FFD200"></path>
                                <path d="M11.9561319,40.0001754 L9.20817582,40.0001754 C7.80228571,40.0001754 6.60378022,38.9489474 6.4218022,37.555 C5.16632967,27.9470175 4.21986813,17.835614 4.21986813,14.0352632 C4.21986813,4.62324561 11.2933626,0.280438596 11.5941978,0.100263158 C11.7050549,0.0336842105 11.829978,0.000438596491 11.9549011,0.000175438596 L11.9562198,0.000175438596 L11.9562198,40.0001754 L11.9561319,40.0001754 Z" id="Shape" fill="#FF9600"></path>
                                <ellipse id="Oval" fill="#53DCFF" cx="11.9561319" cy="14.7370175" rx="4.21978022" ry="4.21052632"></ellipse>
                                <path d="M11.9561319,44.9124561 C11.5673846,44.9124561 11.2528352,44.5982456 11.2528352,44.2107018 L11.2528352,27.3685965 C11.2528352,26.9810526 11.5673846,26.6668421 11.9561319,26.6668421 C12.3448791,26.6668421 12.6594286,26.9810526 12.6594286,27.3685965 L12.6594286,44.2107018 C12.6594286,44.5982456 12.3448791,44.9124561 11.9561319,44.9124561 Z" id="Shape" fill="#FF4F19"></path>
                                <path d="M11.5941978,0.100263158 C11.3930549,0.220789474 8.16738462,2.2045614 6.04949451,6.31596491 L17.8627692,6.31596491 C15.7448791,2.2045614 12.5192088,0.220701754 12.3180659,0.100263158 C12.0955604,-0.0334210526 11.8167033,-0.0334210526 11.5941978,0.100263158 Z" id="Shape" fill="#FF4F19"></path>
                                <path d="M11.9561319,0 C11.8307692,0 11.7054066,0.0334210526 11.5941978,0.100263158 C11.3930549,0.220789474 8.16738462,2.2045614 6.04949451,6.31596491 L11.9561319,6.31596491 L11.9561319,0 Z" id="Shape" fill="#E9001E"></path>
                                <path d="M16.1759121,14.7370175 C16.1759121,12.4115789 14.2866813,10.5264912 11.9561319,10.5264912 L11.9561319,18.9475439 C14.2866813,18.9475439 16.1759121,17.0624561 16.1759121,14.7370175 Z" id="Shape" fill="#B3F4FF"></path>
                            </g>
                            <path d="M12,20 C9.24330357,20 7,17.7570536 7,15 C7,12.2429464 9.24330357,10 12,10 C14.7566964,10 17,12.2429464 17,15 C17,17.7570536 14.7566964,20 12,20 Z M12,11.4285714 C10.0308036,11.4285714 8.42857143,13.0308036 8.42857143,15 C8.42857143,16.9691964 10.0308036,18.5714286 12,18.5714286 C13.9691964,18.5714286 15.5714286,16.9691964 15.5714286,15 C15.5714286,13.0308036 13.9691964,11.4285714 12,11.4285714 Z" id="Shape" fill="#5C546A"></path>
                        </g>
                    </g>
                </g>
            </g>
        </g>
    </g>
</svg>