<svg xmlns="http://www.w3.org/2000/svg" xmlns:xlink="http://www.w3.org/1999/xlink" width="33" height="43" viewBox="0 0 33 43"><defs><path id="100qa" d="M798.51 637.83a3.7 3.7 0 0 0-2.04-2.83l-1.61-.8a.48.48 0 0 0-.64.21l-.81-.3c5.61-1.5 8.59-4.16 8.59-4.16-2.95-5.7-2.16-14.37-4.5-19.28-2.34-4.9-6.75-6.67-12-6.67s-9.66 1.76-12 6.67-1.55 13.58-4.5 19.28c0 0 2.98 2.66 8.6 4.17l-.82.3a.47.47 0 0 0-.63-.22l-1.48.73a3.79 3.79 0 0 0-2.18 2.9l-.04.27-.86 6.38a2.23 2.23 0 0 0 2.23 2.52h23.36a2.23 2.23 0 0 0 2.23-2.52z"/><path id="100qb" d="M797.5 610.64c-2.34-4.89-6.75-6.64-12-6.64s-9.66 1.75-12 6.64c-2.34 4.9-1.55 13.52-4.5 19.2 0 0 5.81 5.16 16.5 5.16 10.69 0 16.5-5.17 16.5-5.17-2.95-5.67-2.16-14.3-4.5-19.19z"/><path id="100qc" d="M781.05 616.91c0-5.05 1.97-9.78 5.95-12.86-.47-.03-.94-.05-1.43-.05-5.27 0-9.7 1.72-12.05 6.5-2.35 4.79-1.55 13.23-4.52 18.78 0 0 4.28 3.6 12.05 4.72v-17.09z"/><path id="100qd" d="M799.08 638.1a3.72 3.72 0 0 0-2.43-2.98l-5.11-1.86a1.48 1.48 0 0 1-1.03-1.4V627h-9.02v4.86c0 .64-.41 1.2-1.03 1.4l-5.1 1.86a3.72 3.72 0 0 0-2.44 2.98l-.86 6.38a2.23 2.23 0 0 0 2.24 2.52h23.4a2.23 2.23 0 0 0 2.24-2.52z"/><path id="100qe" d="M781.49 631.86v.1l-.01.06v.05l-.02.08c-.09.41-.34.77-.7.98 6.29 1.07 9.75-3.66 9.75-3.66l-9.02-.06v2.45z"/><path id="100qf" d="M794.97 618.17v-1.47c0-2.05-1.51-3.7-3.38-3.7H779.4c-1.87 0-3.38 1.65-3.38 3.7v1.47c-1.12 0-2.03 1-2.03 2.22 0 1.23.9 2.22 2.03 2.22v.74c0 1.79.98 3.4 2.5 4.1l4.37 1.98a6.27 6.27 0 0 0 5.2 0l4.37-1.99a4.46 4.46 0 0 0 2.5-4.1v-.73c1.12 0 2.03-1 2.03-2.22 0-1.22-.9-2.22-2.03-2.22z"/><path id="100qg" d="M791 614.86V613h-12.97a3.62 3.62 0 0 0-2.05 3.33v1.44c-1.1 0-1.98.97-1.98 2.17s.89 2.16 1.98 2.16v.72c0 1.75.96 3.32 2.44 4l4.26 1.93c.21.1.43.18.64.25a28.48 28.48 0 0 1-3.87-3.68 3.56 3.56 0 0 1-.83-2.31v-5.25c2.13-.05 8.89-.43 12.38-2.9z"/><path id="100qh" d="M780 622a1 1 0 0 1-1-1v-1a1 1 0 0 1 1-1 1 1 0 0 1 1 1v1a1 1 0 0 1-1 1z"/><path id="100qi" d="M791 622a1 1 0 0 1-1-1v-1a1 1 0 0 1 1-1 1 1 0 0 1 1 1v1a1 1 0 0 1-1 1z"/><path id="100qj" d="M786 628a5.72 5.72 0 0 1-3.65-1.19c-.37-.3-.46-.92-.21-1.38.25-.45.74-.57 1.11-.26.63.53 1.66.85 2.75.85 1.1 0 2.12-.32 2.75-.85.37-.3.86-.19 1.11.26.25.46.16 1.07-.21 1.38A5.72 5.72 0 0 1 786 628z"/><path id="100qk" d="M776.53 616.92s4.9.43 7.7-.68c.4-.16 1.54-2.39 1.54-2.39v3.07s3.55-.16 7.23-1.48V613h-17c.35 1.56.53 3.92.53 3.92z"/><path id="100ql" d="M797.03 634.86l-1.63-.8a.48.48 0 0 0-.67.3A9.04 9.04 0 0 1 786 641a9.04 9.04 0 0 1-8.73-6.64.48.48 0 0 0-.67-.31l-1.48.74a3.83 3.83 0 0 0-2.2 2.93l-.9 6.73a2.25 2.25 0 0 0 2.24 2.55h23.48c1.37 0 2.42-1.2 2.24-2.55l-.9-6.73a3.75 3.75 0 0 0-2.05-2.86z"/><path id="100qm" d="M773.33 637c-.18.34-.3.7-.36 1.07l-.95 6.48c-.19 1.3.92 2.45 2.36 2.45H778v-2.89c0-.93-.33-1.84-.95-2.6z"/><path id="100qn" d="M798.67 637c.18.34.3.7.36 1.07l.95 6.48c.19 1.3-.92 2.45-2.36 2.45H794v-2.89c0-.93.33-1.84.95-2.6z"/><path id="100qo" d="M795 613.5c0 .83-2.09 1.5-3.13 1.5-1.03 0-1.87-.67-1.87-1.5s.84-1.5 1.88-1.5c1.03 0 3.12.67 3.12 1.5z"/><path id="100qp" d="M795 613.5c0-.83 2.09-1.5 3.13-1.5 1.03 0 1.87.67 1.87 1.5s-.84 1.5-1.88 1.5c-1.03 0-3.12-.67-3.12-1.5z"/><path id="100qq" d="M795.44 613.1c.9.44.57 2.34.06 3.1-.52.77-1.67 1.03-2.56.59-.9-.45-1.2-1.42-.69-2.19.52-.76 2.29-1.95 3.19-1.5z"/><path id="100qr" d="M794.56 612.9c-.9-.44-.57-2.34-.06-3.1.52-.77 1.67-1.03 2.56-.59.9.45 1.2 1.42.69 2.19-.52.76-2.29 1.95-3.19 1.5z"/><path id="100qs" d="M794.56 613.1c-.9.44-.57 2.34-.06 3.1.52.77 1.67 1.03 2.56.59.9-.45 1.2-1.42.69-2.19-.52-.76-2.29-1.95-3.19-1.5z"/><path id="100qt" d="M795.44 612.9c.9-.44.57-2.34.06-3.1-.52-.77-1.67-1.03-2.56-.59-.9.45-1.2 1.42-.69 2.19.52.76 2.29 1.95 3.19 1.5z"/><path id="100qu" d="M794 613.5a1.5 1.5 0 1 1 3 0 1.5 1.5 0 0 1-3 0z"/><path id="100qv" d="M776 613c.32 1.56.47 3.92.47 3.92s2.01.2 4.1-.02v-.07c0-1.3.14-2.6.43-3.83z"/></defs><g><g transform="translate(-769 -604)"><g><use fill="#ffd7a3" xlink:href="#100qa"/></g><g><use fill="#9d6e48" xlink:href="#100qb"/></g><g><use fill="#8d5f3d" xlink:href="#100qc"/></g><g><g><use fill="#ffd7a3" xlink:href="#100qd"/></g><g><use fill="#fdc88e" xlink:href="#100qe"/></g></g><g><use fill="#ffe1b2" xlink:href="#100qf"/></g><g><use fill="#ffd7a3" xlink:href="#100qg"/></g><g><use fill="#623f33" xlink:href="#100qh"/></g><g><use fill="#623f33" xlink:href="#100qi"/></g><g><use fill="#e4b07b" xlink:href="#100qj"/></g><g><use fill="#9d6e48" xlink:href="#100qk"/></g><g><use fill="#ff6473" xlink:href="#100ql"/></g><g><use fill="#f05467" xlink:href="#100qm"/></g><g><use fill="#f05467" xlink:href="#100qn"/></g><g><use fill="#bd445a" xlink:href="#100qo"/></g><g><use fill="#bd445a" xlink:href="#100qp"/></g><g><use fill="#ff6473" xlink:href="#100qq"/></g><g><use fill="#ff6473" xlink:href="#100qr"/></g><g><use fill="#f05467" xlink:href="#100qs"/></g><g><use fill="#f05467" xlink:href="#100qt"/></g><g><use fill="#fff" xlink:href="#100qu"/></g><g><use fill="#8d5f3d" xlink:href="#100qv"/></g></g></g></svg>