<svg xmlns="http://www.w3.org/2000/svg" xmlns:xlink="http://www.w3.org/1999/xlink" width="16" height="16" viewBox="0 0 16 16"><defs><path id="9ioka" d="M520 860a8.1 8.1 0 0 0 5.3 7.6l.7-7.6-.7-7.6a8.1 8.1 0 0 0-5.3 7.6z"/><path id="9iokb" d="M536 860a8 8 0 0 0-10.8-7.5v15A8 8 0 0 0 536 860z"/><path id="9iokc" d="M522.4 860a2.8 2.8 0 1 1 5.6 0 2.8 2.8 0 0 1-5.6 0z"/><path id="9iokd" d="M523.6 858.4v1.68c0 .84.72 1.52 1.6 1.52.88 0 1.6-.68 1.6-1.52v-1.68z"/><path id="9ioke" d="M525.4 860.8c-.33 0-.6-.23-.6-.51v-.69h1.2v.69c0 .28-.27.51-.6.51z"/></defs><g><g transform="translate(-520 -852)"><g><use fill="#6da544" xlink:href="#9ioka"/></g><g><use fill="#d80027" xlink:href="#9iokb"/></g><g><use fill="#ffda44" xlink:href="#9iokc"/></g><g><use fill="#d80027" xlink:href="#9iokd"/></g><g><use fill="#f0f0f0" xlink:href="#9ioke"/></g></g></g></svg>