<svg xmlns="http://www.w3.org/2000/svg" xmlns:xlink="http://www.w3.org/1999/xlink" width="24" height="23" viewBox="0 0 24 23"><defs><path id="vd7ya" d="M178 499.5c0-3.59 3.13-6.5 7-6.5s7 2.91 7 6.5-3.13 6.5-7 6.5-7-2.91-7-6.5z"/><path id="vd7yd" d="M188.24 497.06a.38.38 0 0 0-.52 0l-4.37 4.15-1.68-1.6a.38.38 0 0 0-.52 0 .33.33 0 0 0 0 .5l1.94 1.83c.14.14.37.14.52 0l4.63-4.4a.33.33 0 0 0 0-.48z"/><mask id="vd7yc" width="2" height="2" x="-1" y="-1"><path fill="#fff" d="M178 493h14v13h-14z"/><use xlink:href="#vd7ya"/></mask><filter id="vd7yb" width="46" height="47" x="162" y="477" filterUnits="userSpaceOnUse"><feOffset dy="2" in="SourceGraphic" result="FeOffset1025Out"/><feGaussianBlur in="FeOffset1025Out" result="FeGaussianBlur1026Out" stdDeviation="2.4 2.4"/></filter></defs><g><g transform="translate(-173 -490)"><g><g filter="url(#vd7yb)"><use fill="none" stroke-opacity=".18" stroke-width="0" mask="url(&quot;#vd7yc&quot;)" xlink:href="#vd7ya"/><use fill-opacity=".18" xlink:href="#vd7ya"/></g><use fill="#00ba66" xlink:href="#vd7ya"/></g><g><g><use fill="#fff" xlink:href="#vd7yd"/></g></g></g></g></svg>